/* XPM */
static char *adobe_pdf[] = {
/* columns rows colors chars-per-pixel */
"16 16 88 1",
"  c #0B1116",
". c #0E151B",
"X c #18242F",
"o c #620000",
"O c #650000",
"+ c #6A0000",
"@ c #6F0000",
"# c #710000",
"$ c #860000",
"% c #8B0000",
"& c #A00000",
"* c #A90000",
"= c #B20000",
"- c #BB0000",
"; c #C20000",
": c #C80000",
"> c #CB0000",
", c #D30000",
"< c #D60707",
"1 c #DB0000",
"2 c #DF0000",
"3 c #DA0A0A",
"4 c #DC0C0C",
"5 c #E00000",
"6 c #E41111",
"7 c #ED1818",
"8 c #F51F1F",
"9 c #FA2222",
"0 c #FD2626",
"q c #FD3D3D",
"w c #FD4C4C",
"e c #FD5A5A",
"r c #FB6969",
"t c #FC6A6A",
"y c #FA7878",
"u c #FE7C7C",
"i c #416180",
"p c #416381",
"a c #436585",
"s c #456888",
"d c #476B8D",
"f c #486D8E",
"g c #5E768C",
"h c #5E788E",
"j c #496E90",
"k c #50789E",
"l c #50799F",
"z c #537DA4",
"x c #7C8B99",
"c c #5581A8",
"v c #5783AB",
"b c #5E8EBA",
"n c #888888",
"m c #84909A",
"M c #8A959F",
"N c #939393",
"B c #949494",
"V c #A0A0A0",
"C c #A2A2A2",
"Z c #A5A5A5",
"A c #FB8989",
"S c #FD8C8C",
"D c #FB9B9B",
"F c #FE9E9E",
"G c #F9ACAC",
"H c #FDAFAF",
"J c #FDB0B0",
"K c #FABFBF",
"L c #C0C0C0",
"P c #C7C7C7",
"I c #D2D2D2",
"U c #DFDFDF",
"Y c #F6CFCF",
"T c #FBD2D2",
"R c #FCD3D3",
"E c #E3E3E3",
"W c #E6E6E6",
"Q c #ECECEC",
"! c #EEEEEE",
"~ c #FBE6E6",
"^ c #F3F3F3",
"/ c #F4F4F4",
"( c #F7F7F7",
") c #F7F7F8",
"_ c #F9F9F9",
"` c #FBFBFB",
"' c #FCFCFC",
"] c #FFFFFF",
/* pixels */
"bbblhhhgggggcbbb",
"bbbf_(//QWLUMzbb",
"1251,::-=*Z'Umzb",
",908764:;&n__Exv",
"=3443<,:-%VnnBCl",
"$##@@+OOoOQWEPNd",
"bbbj)((^yY^^QQIs",
"bbbj_(((rY(((^(a",
"bbbj_(((GG(((((i",
"bbbj'_((rq(((_)i",
"bbbj'''~eKwKGR_i",
"bbbj'''uRJHDAu'i",
"bbbj'RSH''''_''a",
"bbbj'wG''''''''i",
"bbbj'''''''''''a",
"bbbfX........ Xs"
};
