/* XPM */
static char *amule[] = {
/* columns rows colors chars-per-pixel */
"16 16 80 1",
"  c #4D4D3B3B3C3C",
". c #717123232323",
"X c #444444443939",
"o c #52524B4B3838",
"O c #5D5D53533F3F",
"+ c #686851512525",
"@ c #3E3E45454545",
"# c #434344444141",
"$ c #404046464747",
"% c #484848484242",
"& c #4E4E4E4E4E4E",
"* c #545456565656",
"= c #5B5B5E5E5C5C",
"- c #61615D5D5151",
"; c #797970705D5D",
": c #5F5F61616060",
"> c #636364646464",
", c #6B6B6B6B6B6B",
"< c #6F6F74747272",
"1 c #727274747171",
"2 c #747477777676",
"3 c #7A7A7F7F7C7C",
"4 c #929200000000",
"5 c #9E9E00000000",
"6 c #A1A100000000",
"7 c #B3B300000000",
"8 c #888857570808",
"9 c #90905A5A0303",
"0 c #93935C5C0303",
"q c #91915B5B0404",
"w c #93935D5D0505",
"e c #95955E5E0505",
"r c #93935F5F1111",
"t c #9C9C66660F0F",
"y c #949460601111",
"u c #989862621212",
"i c #9C9C68681515",
"p c #9A9A69691818",
"a c #9E9E6B6B1A1A",
"s c #B0B076761A1A",
"d c #BCBC7F7F1E1E",
"f c #B6B67F7F2727",
"g c #A7A77A7A3434",
"h c #81816C6C4A4A",
"j c #B2B282823434",
"k c #B5B587873D3D",
"l c #B8B88A8A3E3E",
"z c #CCCC89891E1E",
"x c #DFDF9D9D3333",
"c c #DDDDA0A03E3E",
"v c #A3A381814949",
"b c #BEBE8E8E4141",
"n c #A9A990906565",
"m c #A8A893936C6C",
"M c #AAAA9A9A7E7E",
"N c #C8C896964646",
"B c #D0D09F9F4F4F",
"V c #CBCBA0A05E5E",
"C c #5E5E8E8EBABA",
"Z c #88888B8B8A8A",
"A c #949496969696",
"S c #999999999595",
"D c #9B9B9D9D9C9C",
"F c #ACAC9F9F8787",
"G c #BABAAFAF9C9C",
"H c #ABABA9A9A3A3",
"J c #ACACB0B0AAAA",
"K c #B4B4B7B7B0B0",
"L c #B9B9BCBCB5B5",
"P c #BABABDBDB6B6",
"I c #C2C2C5C5C1C1",
"U c #C5C5C8C8C2C2",
"Y c #CBCBCDCDC8C8",
"T c #CDCDCDCDCBCB",
"R c #D4D4D5D5D2D2",
"E c #D8D8D8D8D7D7",
"W c #DADADCDCD9D9",
"Q c #DFDFE0E0E0E0",
"! c #EBEBEBEBE9E9",
"~ c #EDEDEDEDECEC",
/* pixels */
"CC9wCCCCCCCCCCCC",
"CCwewCrCCrCCCCCC",
"CCCwViqyruCCCCCC",
"CCCCabe9ergpwCCC",
"CCCC9qlBNfet99CC",
"CCCC9jcxzdj9999C",
"CCCC0kMmkLn9CCCC",
"CCCC9v!TFLG9CCCC",
"CCCCwgH,;&hiCCCC",
"CCCCqs;#1DS-8CCC",
"CCCC8-:Q~WR>>+CC",
"CCCCoU2AEUL=W&CC",
"CCCC%QY3KPKZL$CC",
"CCCCX1IDJPL> CCC",
"CCCCCC@@>1*.76CC",
"CCCCCCCCCCC45CCC"
};
