/* XPM */
static char *ardour[] = {
/* columns rows colors chars-per-pixel */
"16 16 52 1",
"  c #C3C308080808",
". c #CACA09090909",
"X c #D0D007070707",
"o c #D0D009090909",
"O c #D2D20F0F0F0F",
"+ c #CBCB14141414",
"@ c #C9C91E1E1E1E",
"# c #D2D211111111",
"$ c #D5D512121212",
"% c #D3D315151515",
"& c #D7D716161616",
"* c #D5D51A1A1A1A",
"= c #D6D622222222",
"- c #D7D726262626",
"; c #DADA29292929",
": c #DDDD2B2B2B2B",
"> c #DDDD3C3C3C3C",
", c #E5E527272727",
"< c #E4E428282828",
"1 c #E3E32C2C2C2C",
"2 c #E1E12E2E2E2E",
"3 c #E4E431313131",
"4 c #E8E833333333",
"5 c #E9E93A3A3A3A",
"6 c #ECEC38383838",
"7 c #EEEE44444444",
"8 c #E0E04C4C4C4C",
"9 c #F2F24A4A4A4A",
"0 c #E4E451515151",
"q c #EAEA55555555",
"w c #E9E95E5E5E5E",
"e c #F3F352525252",
"r c #ECEC62626262",
"t c #E9E96C6C6C6C",
"y c #F4F469696969",
"u c #F5F56D6D6D6D",
"i c #E9E974747474",
"p c #F6F677777777",
"a c #5E5E8E8EBABA",
"s c #F6F682828282",
"d c #F6F68D8D8D8D",
"f c #F7F790909090",
"g c #F8F89E9E9E9E",
"h c #F7F7A0A0A0A0",
"j c #F9F9A4A4A4A4",
"k c #F5F5ACACACAC",
"l c #FAFAB3B3B3B3",
"z c #F7F7BABABABA",
"x c #FBFBCFCFCFCF",
"c c #FCFCD0D0D0D0",
"v c #FDFDDEDEDEDE",
"b c #FDFDE3E3E3E3",
/* pixels */
"aaaaaaaaaaaaaaaa",
"aaaaaaaXXaaaaaaa",
"aaaaaaa-=aaaaaaa",
"aaaaaaozkoaaaaaa",
"aaaaaa8bv>aaaaaa",
"aaaaaoxjgloaaaaa",
"aaaaaicpyl0aaaaa",
"aaaa%xfuwyhOaaaa",
"aaaott:599sw.aaa",
"aaao3=9$&7ed*aaa",
"aa&$9a9a7o6yroaa",
"aa4a5a6a61$1p:aa",
"aX,a<a<a<a<#:qOa",
".+@aaaaaaaaa+*O.",
"aaaaaaaaaaaaaa X",
"aaaaaaaaaaaaaaaa"
};
