/* XPM */
static char *azureus[] = {
/* columns rows colors chars-per-pixel */
"16 16 74 1",
"  c #2E2E34343636",
". c #33333B3B3E3E",
"X c #34343D3D4343",
"o c #31313E3E4C4C",
"O c #272740406464",
"+ c #252543436C6C",
"@ c #32324B4B6767",
"# c #242444447171",
"$ c #232345457474",
"% c #232345457878",
"& c #262649497D7D",
"* c #41414B4B5353",
"= c #22224A4A8282",
"- c #20204A4A8787",
"; c #21214A4A8787",
": c #21214B4B8888",
"> c #23234E4E8B8B",
", c #25254E4E8A8A",
"< c #282850508888",
"1 c #2A2A51518C8C",
"2 c #2D2D55558E8E",
"3 c #333358588D8D",
"4 c #37375A5A8C8C",
"5 c #3B3B5E5E8888",
"6 c #272754549292",
"7 c #292956569494",
"8 c #2B2B59599696",
"9 c #2C2C5A5A9898",
"0 c #2E2E5B5B9B9B",
"q c #2E2E5D5D9B9B",
"w c #36365E5E9797",
"e c #3A3A5E5E9191",
"r c #38385E5E9696",
"t c #3D3D62629797",
"y c #393962629999",
"u c #3F3F64649999",
"i c #34346565A4A4",
"p c #3E3E6A6AA4A4",
"a c #4D4D68688888",
"s c #595972728F8F",
"d c #4E4E6E6E9898",
"f c #4E4E72729E9E",
"g c #46466C6CA1A1",
"h c #42426E6EA6A6",
"j c #41416F6FAAAA",
"k c #4D4D7272A4A4",
"l c #4F4F7878AAAA",
"z c #54547575A4A4",
"x c #5A5A7E7EABAB",
"c c #5E5E7E7EAAAA",
"v c #52527B7BB0B0",
"b c #57577F7FB1B1",
"n c #5A5A8181B4B4",
"m c #5C5C8282B4B4",
"M c #5F5F8585B4B4",
"N c #5E5E8E8EBABA",
"B c #73738787A1A1",
"V c #62628787B6B6",
"C c #6A6A8787B0B0",
"Z c #66668888B4B4",
"A c #6D6D8B8BB0B0",
"S c #65658A8AB9B9",
"D c #72729090B7B7",
"F c #74749292B5B5",
"G c #71719292BEBE",
"H c #79799696BCBC",
"J c #8585A0A0C3C3",
"K c #8888A3A3C5C5",
"L c #8B8BA5A5C6C6",
"P c #9797AEAECACA",
"I c #9A9AAEAEC8C8",
"U c #A5A5B7B7CDCD",
"Y c #A7A7B9B9CFCF",
"T c #AEAEBFBFD4D4",
/* pixels */
"NNNNNNNN:>:NNNNN",
"NNNNNNN:CUYtNNNN",
"NNNNNNNzTKPANNNN",
"NNNNNN:PBsLcNNNN",
"NNNNNNuI.XLwNNNN",
"NNNN::DF *H>NNNN",
"NNN;01Jp@ak:NNNN",
"NN:>>kxo@bw;N:NN",
"NN6y>Z5 om,>-6>N",
"NN68wVvflk:7qi9>",
"NN;,zxe34&%-q97:",
"NN=1d<cc2+#;:;;N",
"NNN#;ZGnM,ONNNNN",
"NNNN=gSjlp:&NNNN",
"NNNNN;yh8::$NNNN",
"NNNNNN;;:NNNNNNN"
};
