/* XPM */
static char *blender[] = {
/* columns rows colors chars-per-pixel */
"16 16 65 1",
"  c #C8C85A5A0202",
". c #CACA5C5C0303",
"X c #CECE5C5C0000",
"o c #CECE5F5F0505",
"O c #D2D25F5F0000",
"+ c #D0D064640B0B",
"@ c #D0D065650E0E",
"# c #CECE6C6C1A1A",
"$ c #D1D167671010",
"% c #D2D269691313",
"& c #D1D169691515",
"* c #DBDB6E6E1111",
"= c #D5D56F6F1919",
"- c #F5F57A7A0101",
"; c #F5F57E7E0A0A",
": c #D5D573732222",
"> c #DBDB7C7C2929",
", c #E3E37D7D2323",
"< c #F4F484841616",
"1 c #E4E481812A2A",
"2 c #F4F48A8A2323",
"3 c #F6F68B8B2323",
"4 c #F1F18C8C2929",
"5 c #F5F58F8F2B2B",
"6 c #F6F691912E2E",
"7 c #ECEC8F8F3A3A",
"8 c #EBEB90903E3E",
"9 c #F2F294943B3B",
"0 c #F7F797973939",
"q c #E4E48E8E4444",
"w c #EBEB96964C4C",
"e c #EDED9A9A4E4E",
"r c #F8F89B9B4141",
"t c #EDED9F9F5858",
"y c #EFEFA1A15C5C",
"u c #F8F8A4A45252",
"i c #F2F2A5A55B5B",
"p c #F9F9AAAA5E5E",
"a c #F4F4A8A86161",
"s c #F6F6ABAB6363",
"d c #F7F7ADAD6666",
"f c #F6F6AFAF6B6B",
"g c #F5F5AFAF6C6C",
"h c #F6F6B1B16D6D",
"j c #F8F8B0B06868",
"k c #F8F8B0B06B6B",
"l c #F8F8B1B16C6C",
"z c #F7F7B4B47373",
"x c #F9F9B3B37070",
"c c #F9F9B5B57373",
"v c #FAFABCBC7F7F",
"b c #34346565A4A4",
"n c #4B4B7777AEAE",
"m c #5E5E8E8EBABA",
"M c #FBFBC2C28B8B",
"N c #F5F5D9D9BDBD",
"B c #B3B3C5C5DDDD",
"V c #F7F7DDDDC5C5",
"C c #F2F2E4E4D7D7",
"Z c #FDFDE7E7D1D1",
"A c #FDFDE7E7D2D2",
"S c #FDFDEBEBD8D8",
"D c #F4F4F0F0ECEC",
"F c #FEFEF4F4EAEA",
"G c #FDFDFDFDFDFD",
/* pixels */
"mmmmmmmm%%mmmmmm",
"mmmmmmmm%t:mmmmm",
"mmmmmmmm@7s:mmmm",
"mmm++++&+Osf@mmm",
"mm@jllxfcccfaomm",
"mm*=$qzMZGGSseom",
"mmmm@xcZBbnBF5,X",
"mmm@hvpGnbbnGe2X",
"mm$jtyuGnbbnGi<+",
"m$g% wrVBbnBD<5O",
"@d%m =5-NGGC4;1o",
"&@mmmO13----;7Xm",
"mmmmmmO#8909> mm",
"mmmmmmmo.XO  mmm",
"mmmmmmmmmmmmmmmm",
"mmmmmmmmmmmmmmmm"
};
