/* XPM */
static char *bluefish[] = {
/* columns rows colors chars-per-pixel */
"16 16 103 2",
"   c #303037373939",
".  c #35353E3E4444",
"X  c #39393E3E4141",
"o  c #3B3B41414242",
"O  c #393945454C4C",
"+  c #3D3D48484F4F",
"@  c #3F3F4F4F5F5F",
"#  c #2F2F46466565",
"$  c #2C2C49496E6E",
"%  c #3B3B4F4F6363",
"&  c #31314A4A6B6B",
"*  c #2A2A4A4A7676",
"=  c #232349497F7F",
"-  c #41414C4C5656",
";  c #43434E4E5858",
":  c #4D4D53535757",
">  c #494952525959",
",  c #4F4F5A5A5E5E",
"<  c #515156565757",
"1  c #4B4B5D5D6E6E",
"2  c #57575E5E6060",
"3  c #57575E5E6565",
"4  c #5A5A5F5F6161",
"5  c #505060606F6F",
"6  c #565663636E6E",
"7  c #60606D6D7A7A",
"8  c #77777E7E7B7B",
"9  c #75757D7D7E7E",
"0  c #1F1F49498585",
"q  c #24244D4D8787",
"w  c #20204A4A8888",
"e  c #23234D4D8A8A",
"r  c #25254F4F8B8B",
"t  c #24244F4F8C8C",
"y  c #272750508B8B",
"u  c #262651518F8F",
"i  c #292952528C8C",
"p  c #2E2E56568F8F",
"a  c #303052528484",
"s  c #292956569393",
"d  c #313158589292",
"f  c #33335C5C9696",
"g  c #36365E5E9595",
"h  c #38385E5E9595",
"j  c #3D3D62629292",
"k  c #3C3C61619696",
"l  c #333360609C9C",
"z  c #3F3F66669B9B",
"x  c #34346565A4A4",
"c  c #3B3B6868A2A2",
"v  c #3A3A6868A5A5",
"b  c #404063639797",
"n  c #414166669A9A",
"m  c #47476B6B9A9A",
"M  c #454568689D9D",
"N  c #4C4C6F6FA1A1",
"B  c #4B4B7575A9A9",
"V  c #4E4E7979ABAB",
"C  c #57577B7BA5A5",
"Z  c #51517777A8A8",
"A  c #53537979AAAA",
"S  c #52527A7AAEAE",
"D  c #59597D7DABAB",
"F  c #48487777B1B1",
"G  c #4A4A7878B1B1",
"H  c #50507C7CB3B3",
"J  c #787885859292",
"K  c #5A5A8181B2B2",
"L  c #5A5A8585B4B4",
"P  c #55558484BBBB",
"I  c #5E5E8E8EBABA",
"U  c #7D7D9494ABAB",
"Y  c #61618484B2B2",
"T  c #62628585B4B4",
"R  c #71718F8FB8B8",
"E  c #78789393BABA",
"W  c #79799797BFBF",
"Q  c #62629090C4C4",
"!  c #68689393C4C4",
"~  c #6A6A9696C8C8",
"^  c #74749797C3C3",
"/  c #7E7E9B9BC2C2",
"(  c #7A7A9C9CC5C5",
")  c #98989C9C9898",
"_  c #A2A2A6A6A5A5",
"`  c #ADADB1B1ABAB",
"'  c #AEAEB2B2ADAD",
"]  c #A2A2ADADBBBB",
"[  c #C2C2C6C6BFBF",
"{  c #84849F9FC4C4",
"}  c #8080A5A5CFCF",
"|  c #9494A9A9C4C4",
" . c #8787ACACD3D3",
".. c #9E9EB4B4D2D2",
"X. c #9F9FB9B9D8D8",
"o. c #A8A8C0C0DCDC",
"O. c #B7B7CACAE2E2",
"+. c #BABACCCCE2E2",
"@. c #C1C1C5C5C3C3",
"#. c #CECED2D2CBCB",
"$. c #D3D3D7D7CFCF",
"%. c #C7C7D6D6E7E7",
"&. c #E3E3E5E5E4E4",
/* pixels */
"I I I I I I I I I I I I I I I I ",
"I I w I I 0 I I I I I I I I I I ",
"I = O $ * + * I I I I I I I I I ",
"I & _ - - &.; y e I I I I I I w ",
"w % @.> 3 &.4 %...d I I I I e w ",
"I # o : - 6 , o.O.+.M I I I p w ",
"I a X J 2   6 7 U X.X.n I s / p ",
"I E ] 7 8 ` [ [ 5  .} ( M T R i ",
"0 W 9 $.$.$.' , ! ~ Q ^ k z V t ",
"I R 9 #.) < . L Q Q ! K e p f w ",
"I h | 1   @ V P P C S y 0 I e 0 ",
"I I d { / H F G B D y l e I I I ",
"I I I e N W Y Z A g c Q u e I I ",
"I I I I I y b m j q r v x s w I ",
"I I I I I I I w e I I w e w e I ",
"I I I I I I I I I I I I I I I I "
};
