/* XPM */
static char *conduit[] = {
/* columns rows colors chars-per-pixel */
"16 16 58 1",
"  c #A4A400000000",
". c #A6A607070707",
"X c #A8A802020202",
"o c #A8A806060606",
"O c #AEAE07070707",
"+ c #ACAC08080808",
"@ c #B0B009090909",
"# c #B6B616161616",
"$ c #BCBC23232323",
"% c #C5C51F1F1F1F",
"& c #C5C52D2D2D2D",
"* c #D6D63F3F3F3F",
"= c #CECE53535353",
"- c #D0D051515151",
"; c #D3D356565656",
": c #E2E24D4D4D4D",
"> c #F0F041414141",
", c #F0F04A4A4A4A",
"< c #E5E559595959",
"1 c #DEDE61616161",
"2 c #E7E77E7E7E7E",
"3 c #F3F379797979",
"4 c #20204A4A8787",
"5 c #21214B4B8888",
"6 c #21214C4C8989",
"7 c #23234D4D8B8B",
"8 c #25254F4F8B8B",
"9 c #252550508B8B",
"0 c #252551518F8F",
"q c #292954549292",
"w c #2A2A55559292",
"e c #31315A5A9595",
"r c #36365F5F9A9A",
"t c #39396565A3A3",
"y c #38386A6AABAB",
"u c #3D3D6B6BABAB",
"i c #53537E7EB9B9",
"p c #5E5E8E8EBABA",
"a c #4E4E8585CCCC",
"s c #6D6D9292C3C3",
"d c #65659393CECE",
"f c #6A6A9898D5D5",
"g c #7A7AA1A1D5D5",
"h c #7F7FA5A5D8D8",
"j c #EBEB85858585",
"k c #ECEC85858585",
"l c #F6F68D8D8D8D",
"z c #EFEF96969696",
"x c #F8F8A7A7A7A7",
"c c #F9F9AEAEAEAE",
"v c #8484A8A8D7D7",
"b c #8989AFAFDEDE",
"n c #9090B2B2DEDE",
"m c #A2A2BEBEE2E2",
"M c #ACACC8C8EAEA",
"N c #B6B6CDCDECEC",
"B c #FAFAC4C4C4C4",
"V c #FBFBD2D2D2D2",
/* pixels */
"p pppppppppppppp",
"p XpppoXOopppppp",
"po= o;jk21& pppp",
"p.V-zl:$#$<*Xppp",
"p.Bc3%XpppX&@ppp",
"p.x,>%opppp+pppp",
"p    oO pppppppp",
"pppppppppppppppp",
"pppppppp4454445p",
"ppppp0ppp7sMNn7p",
"ppppiqpppp8mhh5p",
"pppptfr58evbad7p",
"pppp7uggvnfy0y7p",
"ppppp979ww47p45p",
"pppppppppppppp4p",
"pppppppppppppppp"
};
