/* XPM */
static char *cowbell[] = {
/* columns rows colors chars-per-pixel */
"16 16 70 1",
"  c #1B1B0E0E0000",
". c #1E1E10100000",
"X c #202012120000",
"o c #262614140000",
"O c #2C2C19190000",
"+ c #2C2C1A1A0000",
"@ c #31311B1B0000",
"# c #36361D1D0000",
"$ c #3B3B1F1F0000",
"% c #3B3B22220101",
"& c #3C3C22220000",
"* c #3B3B25250000",
"= c #414125250000",
"- c #474726260000",
"; c #424228280303",
": c #48482B2B0101",
"> c #4A4A2A2A0000",
", c #4C4C2D2D0000",
"< c #4A4A2E2E0404",
"1 c #4E4E31310505",
"2 c #5A5A3C3C0000",
"3 c #5E5E3A3A0808",
"4 c #5B5B3B3B0D0D",
"5 c #60603E3E0909",
"6 c #75754B4B0D0D",
"7 c #777758580000",
"8 c #626245451616",
"9 c #6E6E4F4F1D1D",
"0 c #7A7A61613C3C",
"q c #8F8F58580202",
"w c #92925D5D0A0A",
"e c #868658581010",
"r c #82825B5B1E1E",
"t c #86865D5D1E1E",
"y c #87876A6A0000",
"u c #8F8F70700000",
"i c #989879790000",
"p c #9E9E7C7C0000",
"a c #969663631313",
"s c #979765651515",
"d c #959565651C1C",
"f c #999967671919",
"g c #8E8E63632020",
"h c #8F8F66662727",
"j c #97976B6B2525",
"k c #9C9C6C6C2020",
"l c #919171713E3E",
"z c #A2A274742D2D",
"x c #A5A57A7A3535",
"c c #A8A87D7D3A3A",
"v c #A9A97F7F3E3E",
"b c #8C8C71714343",
"n c #C0C09D9D0000",
"m c #D2D2B2B20000",
"M c #E7E7CCCC0000",
"N c #ADAD85854747",
"B c #B1B18B8B5050",
"V c #B6B692925B5B",
"C c #B2B292926161",
"Z c #B9B996966161",
"A c #BCBC9B9B6868",
"S c #ADAD97977474",
"D c #B4B49B9B7474",
"F c #C0C0A1A17272",
"G c #C4C4A8A87C7C",
"H c #5E5E8E8EBABA",
"J c #CCCCB3B38D8D",
"K c #D0D0BBBB9B9B",
"L c #D2D2BDBD9C9C",
"P c #DBDBC9C9AEAE",
/* pixels */
"HHHHHHHHHH,,HHHH",
"HHHHHHH*,,,5,HHH",
"HHHHHH$3e65,,,HH",
"HHHHH%1awafkjt,H",
"HHHH&;sqqqqqwx>H",
"HHH&%dqqqqqqqN>H",
"HH&#gwqqqqqqfA<H",
"HH#raqwaffzxvG<H",
"H>4hxcxzzxNNBJ<H",
"H><,19lCFAZVVL1H",
"H>-==iy28bDKLP1H",
"H:%$$pmMn7<10S<H",
"HH%##*uni*ooO%>H",
"HHHH%%##@o.. .:H",
"HHHHHHHH*##O.+HH",
"HHHHHHHHHHH%%=HH"
};
