/* XPM */
static char *cups[] = {
/* columns rows colors chars-per-pixel */
"16 16 93 2",
"   c #000000",
".  c #050504",
"X  c #050707",
"o  c #0B0B08",
"O  c #0D0D0A",
"+  c #10100C",
"@  c #0E1213",
"#  c #111310",
"$  c #121616",
"%  c #1A1A13",
"&  c #1F1F17",
"*  c #151A1C",
"=  c #191C18",
"-  c #2A2A1F",
";  c #192329",
":  c #1D2932",
">  c #2B2B21",
",  c #2C2C21",
"<  c #252C2B",
"1  c #333326",
"2  c #373729",
"3  c #3F3F2F",
"4  c #232E35",
"5  c #242F35",
"6  c #424231",
"7  c #474735",
"8  c #4E4E3A",
"9  c #54543F",
"0  c #243441",
"q  c #273948",
"w  c #283A48",
"e  c #2A3C4A",
"r  c #303D43",
"t  c #343E41",
"y  c #324655",
"u  c #334858",
"i  c #385166",
"p  c #3E5B74",
"a  c #585842",
"s  c #5C5C45",
"d  c #5F5F47",
"f  c #606048",
"g  c #66664C",
"h  c #68684E",
"j  c #6A6A4F",
"k  c #6C6C51",
"l  c #737357",
"z  c #767658",
"x  c #425867",
"c  c #415B70",
"v  c #466175",
"b  c #436078",
"n  c #46637A",
"m  c #808060",
"M  c #8C8C69",
"N  c #93936F",
"B  c #828C7B",
"V  c #959570",
"C  c #989872",
"Z  c #9B9B75",
"A  c #9D9D76",
"S  c #9F9F77",
"D  c #A0A078",
"F  c #A1A179",
"G  c #A4A47B",
"H  c #A5A57C",
"J  c #A7A77E",
"K  c #51799E",
"L  c #557B9C",
"P  c #61839A",
"I  c #5F86A6",
"U  c #5B84A8",
"Y  c #5B88B0",
"T  c #5C8AB2",
"R  c #5F8CB5",
"E  c #5E8EBA",
"W  c #6088A8",
"Q  c #628EB3",
"!  c #ACAC81",
"~  c #A2AB8F",
"^  c #B7B789",
"/  c #B8B88A",
"(  c #BBBB8C",
")  c #BDBD8E",
"_  c #BFBF8F",
"`  c #A9B49A",
"'  c #A9B8A3",
"]  c #B7C09F",
"[  c #C0C090",
"{  c #C4C493",
"}  c #C7C795",
"|  c #C8C896",
" . c #CCCC99",
/* pixels */
"E E E E Q x < + . @ 4 n E E E E ",
"E E E P =     + & o     : Y E E ",
"E E W #   - A  . .| V %   0 E E ",
"E E t   > [ { } { }  ./ +   K E ",
"E I .   J M 6 k d z  . .g . i E ",
"E v   -  .M Z G V J ( [ } _ ' E ",
"E y   9  .a a d 8 k l 7 f j B E ",
"E w   g  .J ! G C V A M G A ~ E ",
"E e   d  .k l l g z j j 3 [ ] E ",
"E y   7  .A / ^ A / G G A _ ` E ",
"E n   >  . . . . . . . .m   w E ",
"E W .   !  . . . . . . .2   p E ",
"E E r   1 |  . . . . .M   @ T E ",
"E E U @   , V |  ._ j .   b E E ",
"E E E L *       O     X p E E E ",
"E E E E R c 4 * $ ; u L E E E E "
};
