/* XPM */
static char *d_x[] = {
/* columns rows colors chars-per-pixel */
"16 16 101 2",
"   c #5A5A00000000",
".  c #5F5F00000000",
"X  c #5A5A0A0A0303",
"o  c #5A5A0A0A0808",
"O  c #545417170505",
"+  c #5C5C12120303",
"@  c #58581A1A1D1D",
"#  c #6A6A09090505",
"$  c #7C7C15150808",
"%  c #5B5B32321F1F",
"&  c #616122220000",
"*  c #696931310707",
"=  c #6D6D3A3A0606",
"-  c #6E6E36360909",
";  c #767634340A0A",
":  c #717134340D0D",
">  c #646429291111",
",  c #6B6B3D3D1818",
"<  c #505024242323",
"1  c #5C5C37372525",
"2  c #555538383636",
"3  c #6F6F43430A0A",
"4  c #6E6E4D4D0E0E",
"5  c #737347470202",
"6  c #717149490707",
"7  c #76764C4C0909",
"8  c #616141411B1B",
"9  c #6E6E56561212",
"0  c #5C5C42422727",
"q  c #1E1E2D2D4A4A",
"w  c #3E3E30305B5B",
"e  c #3E3E35356060",
"r  c #3B3B3B3B6262",
"t  c #3C3C39396363",
"y  c #35353E3E6D6D",
"u  c #44442A2A5353",
"i  c #42422D2D5858",
"p  c #424230305E5E",
"a  c #656532324343",
"s  c #2E2E46467474",
"d  c #26264D4D7F7F",
"f  c #323243437373",
"g  c #75754B4B4040",
"h  c #B6B613130E0E",
"j  c #A5A51C1C1414",
"k  c #81812F2F1C1C",
"l  c #999926261212",
"z  c #8C8C31311212",
"x  c #9D9D39391717",
"c  c #979733331818",
"v  c #B5B532321515",
"b  c #C4C43A3A1C1C",
"n  c #D6D635351F1F",
"m  c #F6F630302020",
"M  c #F3F339392121",
"N  c #8F8F41411E1E",
"B  c #909048481F1F",
"V  c #A3A343431A1A",
"C  c #A8A865652D2D",
"Z  c #A2A27A7A2424",
"A  c #C1C149492424",
"S  c #DADA53532929",
"D  c #E9E943432C2C",
"F  c #F6F64C4C2929",
"G  c #C3C36E6E3030",
"H  c #D4D46D6D3A3A",
"J  c #C3C379793535",
"K  c #F6F660603434",
"L  c #F7F772723F3F",
"P  c #F5F57E7E3F3F",
"I  c #E1E166664141",
"U  c #F7F774744444",
"Y  c #F7F77B7B4C4C",
"T  c #9D9D89892323",
"R  c #B6B697973535",
"E  c #BEBE9E9E3D3D",
"W  c #B9B9A3A33B3B",
"Q  c #BDBD81814A4A",
"!  c #D3D382824B4B",
"~  c #CACA92924646",
"^  c #F6F686864040",
"/  c #E7E791914141",
"(  c #F7F792924C4C",
")  c #F7F78B8B5555",
"_  c #E1E191915050",
"`  c #F7F795955656",
"'  c #F5F5A5A55454",
"]  c #F8F8AFAF5757",
"[  c #F8F8A3A35F5F",
"{  c #F8F8B0B05A5A",
"}  c #F8F8BEBE5F5F",
"|  c #EFEFA9A96060",
" . c #F8F8CDCD6767",
".. c #27274F4F8282",
"X. c #26264E4E8484",
"o. c #3E3E50509191",
"O. c #6D6D7777B4B4",
"+. c #6B6B7B7BC5C5",
"@. c #81816E6EADAD",
"#. c #5E5E8E8EBABA",
"$. c #95958383AFAF",
/* pixels */
"#.#.#.#.#.#.#.#.#.#.w #.#.#.#.#.",
"#.#.#.#.#.#.#.#.#.i i #.#.#.#.#.",
"#.#.#.#.#.#.#.#.#.p w #.#.#.#.#.",
"#.#.9 T W R Z 5 2 @.e #.#.#.#.#.",
"#.u 0 E  .} ] / - $.t #.#.#.#.#.",
"#.#.8 7 { J G P V g r #.#.#.#.#.",
"#.#.#.= ( B & S v : 4 6 3 #.#.#.",
"#.#.#.; L A b M $ Q ~ | C 1 #.#.",
"#.#.#.x F n j # k ' [ ^ H > s s ",
"#.#.#.X X @ a * _ ` P U z < #.#.",
"#.#.#.y O.+., ! ) Y K F l #.#.#.",
"#.#.y y o.s % N I c D m h . #.#.",
"#.#.y f y #.#.O + @ o   .   #.#.",
"#.s #.#.#.#.#.#.q X.d #.#.#.#.#.",
"#.#.#.#.#.#.#.#.#.....#.#.#.#.#.",
"#.#.#.#.#.#.#.#.#.#...#.#.#.#.#."
};
