/* XPM */
static char *evolution_tasks[] = {
/* columns rows colors chars-per-pixel */
"16 16 89 1",
"  c #424277770C0C",
". c #4E4E73730B0B",
"X c #46467A7A1111",
"o c #4B4B7B7B1919",
"O c #555557575353",
"+ c #565658585454",
"@ c #58585A5A5555",
"# c #67675E5E4A4A",
"$ c #60605C5C5050",
"% c #6B6B6B6B6969",
"& c #8F8F59590202",
"* c #8C8C5A5A0202",
"= c #90905A5A0303",
"- c #91915B5B0404",
"; c #939360600A0A",
": c #4E4E80801A1A",
"> c #545485852222",
", c #545484842424",
"< c #575786862424",
"1 c #5A5A8A8A2424",
"2 c #686895952D2D",
"3 c #62628E8E3333",
"4 c #696997973030",
"5 c #6F6F9B9B3636",
"6 c #6B6B86864F4F",
"7 c #717198984848",
"8 c #737399994C4C",
"9 c #7E7E8C8C6F6F",
"0 c #7F7F81817D7D",
"q c #94949D9D4C4C",
"w c #9696BEBE4F4F",
"e c #8B8BB1B15050",
"r c #818188887878",
"t c #CFCFABAB7272",
"y c #DFDFB3B37070",
"u c #DBDBB3B37575",
"i c #E5E5BABA7777",
"p c #E5E5BCBC7B7B",
"a c #E4E4BDBD7E7E",
"s c #A9A9CDCD6262",
"d c #A5A5C5C56F6F",
"f c #B2B2CFCF7E7E",
"g c #B3B3D0D07C7C",
"h c #5E5E8E8EBABA",
"j c #88888A8A8585",
"k c #8A8A90908484",
"l c #8D8D91918A8A",
"z c #8E8E90908B8B",
"x c #939393939393",
"c c #979796969393",
"v c #989896969494",
"b c #9D9D9E9E9B9B",
"n c #B5B5A3A38686",
"m c #B3B3A3A38989",
"M c #A5A5BCBC8D8D",
"N c #A3A3A1A19999",
"B c #A4A4A3A39B9B",
"V c #B0B0A8A89B9B",
"C c #B4B4AAAA9B9B",
"Z c #ACACA9A9A1A1",
"A c #AEAEACACA2A2",
"S c #ACACACACA8A8",
"D c #ADADAEAEABAB",
"F c #B8B8B5B5ABAB",
"G c #B7B7B7B7B1B1",
"H c #BFBFBCBCB3B3",
"J c #DDDDBEBE8A8A",
"K c #E4E4BDBD8181",
"L c #E2E2BEBE8484",
"P c #E1E1BFBF8989",
"I c #ACACC3C39494",
"U c #ACACC0C09696",
"Y c #DFDFC4C49A9A",
"T c #DFDFC5C59A9A",
"R c #E0E0C1C19090",
"E c #E0E0C2C29494",
"W c #D1D1CFCFC9C9",
"Q c #D8D8DEDED2D2",
"! c #DDDDDDDDDDDD",
"~ c #E2E2E2E2E2E2",
"^ c #E5E5E8E8E0E0",
"/ c #E8E8E8E8E8E8",
"( c #EAEAEAEAEAEA",
") c #ECECECECECEC",
"_ c #EFEFEFEFEFEF",
"` c #ECECF0F0E8E8",
"' c #EEEEF3F3E9E9",
"] c #F2F2F2F2F2F2",
"[ c #FFFFFFFFFFFF",
/* pixels */
"hhhhhh+OO@hhhhhh",
"h;=&&#BHHZ$&&=hh",
"h=yiu+NFFAOtiy-h",
"h&pn%SWWWWGOmp&h",
"h&acbOOOOOO0cR=h",
"h&Kc[!~~_`_[xu. ",
"h&Lv[jzj/'][z  h",
"h&Lv[j/j/DS`o &h",
"h&Jv[jjr]/^3 q&h",
"h=Pv`8>XM]8,,J&h",
"h&Rv[,5g<8519T&h",
"h&Ec[Q:wdXe3xT&h",
"h&Rv[)U1sf2IxT&h",
"h&Tv[[[722>'xY&h",
"h&TCxxck 6zxVY=h",
"hh&&&&&&&=&&&=hh"
};
