/* XPM */
static char *fedora_logo_icon[] = {
/* columns rows colors chars-per-pixel */
"16 16 97 2",
"   c #292941417272",
".  c #2B2B43437373",
"X  c #2C2C43437474",
"o  c #2E2E46467575",
"O  c #2C2C48487D7D",
"+  c #303047477676",
"@  c #313148487777",
"#  c #35354B4B7979",
"$  c #36364D4D7A7A",
"%  c #37374E4E7B7B",
"&  c #32324C4C7D7D",
"*  c #38384E4E7B7B",
"=  c #3B3B51517E7E",
"-  c #353552528787",
";  c #3A3A56568888",
":  c #363659599191",
">  c #3F3F6868A2A2",
",  c #3C3C6E6EB4B4",
"<  c #404055558080",
"1  c #45455A5A8484",
"2  c #48485C5C8585",
"3  c #48485C5C8686",
"4  c #515165658D8D",
"5  c #545467678D8D",
"6  c #565669699090",
"7  c #515169699595",
"8  c #58586A6A9090",
"9  c #5B5B6D6D9191",
"0  c #5B5B6D6D9292",
"q  c #5C5C6E6E9292",
"w  c #59596F6F9595",
"e  c #616172729595",
"r  c #636374749898",
"t  c #636376769B9B",
"y  c #6A6A7A7A9B9B",
"u  c #6B6B7C7C9E9E",
"i  c #42426B6BA6A6",
"p  c #4D4D7272A8A8",
"a  c #5A5A7777A5A5",
"s  c #5E5E7C7CAAAA",
"d  c #53537A7AB4B4",
"f  c #69697F7FA5A5",
"g  c #5E5E8E8EBABA",
"h  c #6D6D8383ABAB",
"j  c #71718181A0A0",
"k  c #74748383A3A3",
"l  c #75758585A4A4",
"z  c #7B7B8989A6A6",
"x  c #7A7A8989A8A8",
"c  c #7B7B8C8CABAB",
"v  c #69698686B1B1",
"b  c #70708B8BB3B3",
"n  c #70708C8CB7B7",
"m  c #7A7A8F8FB3B3",
"M  c #71718F8FBABA",
"N  c #7E7E9393B6B6",
"B  c #73739191BEBE",
"V  c #78789292B9B9",
"C  c #7A7A9999C6C6",
"Z  c #7A7A9C9CCCCC",
"A  c #7E7E9D9DCCCC",
"S  c #85859393AFAF",
"D  c #87879595AEAE",
"F  c #88889494B0B0",
"G  c #8D8D9B9BB7B7",
"H  c #86869A9ABCBC",
"J  c #89899C9CBBBB",
"K  c #91919C9CB5B5",
"L  c #8C8CA0A0BEBE",
"P  c #9898A3A3BABA",
"I  c #9D9DA7A7BCBC",
"U  c #9F9FAAAABEBE",
"Y  c #9494A5A5C0C0",
"T  c #9595A8A8C7C7",
"R  c #9696ADADCCCC",
"E  c #8A8AA7A7D1D1",
"W  c #9C9CB0B0D0D0",
"Q  c #9A9AB2B2D4D4",
"!  c #A3A3AEAEC3C3",
"~  c #A7A7B0B0C3C3",
"^  c #AAAAB3B3C4C4",
"/  c #A6A6B3B3CACA",
"(  c #AAAAB9B9D1D1",
")  c #BABAC4C4D6D6",
"_  c #B9B9C7C7DDDD",
"`  c #C8C8D0D0DDDD",
"'  c #D2D2DADAE6E6",
"]  c #D3D3DCDCEAEA",
"[  c #DFDFE5E5EEEE",
"{  c #E0E0E6E6F0F0",
"}  c #E5E5EBEBF3F3",
"|  c #EAEAEEEEF2F2",
" . c #EAEAEFEFF6F6",
".. c #EDEDF1F1F7F7",
"X. c #F1F1F3F3F7F7",
"o. c #F8F8F8F8F9F9",
"O. c #FFFFFFFFFFFF",
/* pixels */
"g g g g g g         g g g g g g ",
"g g g g < z G U I D j = g g g g ",
"g g   0 ! P S z ) | o.` t   g g ",
"g g y ^ F z k ' O.X.` ( L r g g ",
"g * ~ S z l G O.[ r w w v J * g ",
"g z P x l f / O./ 0 6 4 s b q   ",
"  K S l j u / O.P - + ; p a y   ",
"  U c V W {  .O...] M i i & y   ",
"  ! A Z Q [ ..O.} ] b : O o 0   ",
"  R Z h r < N O.D         $ 4   ",
"  C d 1 @   H O.m         3 < . ",
"  B , O   X ] O.7       $ 4 o g ",
"  h , E _ ..O._   .   $ 6 $ g g ",
"  e - W o.[ T o @ * 3 4 #   g g ",
"  3 8 9 q 9 8 8 4 2 ;   g g g g ",
"g                   g g g g g g "
};
