/* XPM */
static char *gdm_xnest[] = {
/* columns rows colors chars-per-pixel */
"16 16 49 1",
"  c #000000",
". c #334D65",
"X c #494066",
"o c #787878",
"O c #567CA6",
"+ c #577DA7",
"@ c #5A7FA7",
"# c #597EA8",
"$ c #5F83AB",
"% c #5E8EBA",
"& c #6184AB",
"* c #6183AC",
"= c #6E8DB2",
"- c #7291B4",
"; c #7593B5",
": c #7A96B8",
"> c #7B98B8",
", c #7D98B9",
"< c #7F9ABB",
"1 c #828181",
"2 c #9A96A7",
"3 c #9F9BAC",
"4 c #839CBC",
"5 c #849EBD",
"6 c #AFAFAF",
"7 c #ACA8B8",
"8 c #ACA8B9",
"9 c #ADA9BA",
"0 c #B4B4B4",
"q c #BACFE6",
"w c #C1C1C1",
"e c #D6D6D6",
"r c #DAD9DA",
"t c #DDDDDC",
"y c #DEDEDE",
"u c #CFE5FF",
"i c #E0E0E0",
"p c #E4E4E4",
"a c #E7E7E7",
"s c #E8E7E8",
"d c #EBEBEB",
"f c #EEEEEE",
"g c #F0F1F0",
"h c #F1F1F1",
"j c #F3F4F4",
"k c #F6F7F6",
"l c #F7F6F7",
"z c #F9F9F9",
"x c #FFFFFF",
/* pixels */
".          .%%%%",
" 9999999993 %%%%",
" 7XXXXXXXX2 %%%%",
" u4444,,>>q %%%%",
" u,      -q %%%%",
" u, xxxx *q    .",
" u;      $q ww0 ",
" u=&$$$@@+q oo6 ",
" u$$$##++Oq hhy ",
" qqqqqqqqq+ fhi ",
".          1hji ",
"%%%% zyasdfhjla ",
"%%%% zaadfhllza ",
"%%%% xadfhhlzxd ",
"%%%% iertyiiadd ",
"%%%%.          ."
};
