/* XPM */
static char *geany[] = {
/* columns rows colors chars-per-pixel */
"16 16 113 2",
"   c #AAAA12120404",
".  c #ACAC14140909",
"X  c #ACAC15150E0E",
"o  c #B4B42D2D0404",
"O  c #B7B72F2F0B0B",
"+  c #B7B730301B1B",
"@  c #B7B734341E1E",
"#  c #B7B733332424",
"$  c #B7B735352A2A",
"%  c #C1C136363535",
"&  c #C6C64A4A4949",
"*  c #C4C49F9F0000",
"=  c #C6C6A2A20202",
"-  c #C5C5A3A30505",
";  c #C7C7A4A40707",
":  c #CECEA1A10707",
">  c #CFCFAEAE0505",
",  c #C7C7A5A50909",
"<  c #C9C9A7A70B0B",
"1  c #C9C9A8A80B0B",
"2  c #CDCDADAD0808",
"3  c #D0D0AFAF0A0A",
"4  c #CACAA9A91010",
"5  c #CFCFB0B01C1C",
"6  c #E3E3B7B70101",
"7  c #D2D2B5B52929",
"8  c #D4D4B7B72F2F",
"9  c #D5D5B8B82D2D",
"0  c #D4D4B8B83434",
"q  c #D6D6BDBD3737",
"w  c #D5D5BABA3939",
"e  c #F0F0D7D71313",
"r  c #F0F0D8D81313",
"t  c #F0F0D8D81414",
"y  c #EAEAC0C02020",
"u  c #EFEFD7D72424",
"i  c #EDEDD7D72828",
"p  c #E7E7C2C23838",
"a  c #EEEEDADA3939",
"s  c #D7D7BDBD4747",
"d  c #CECEBEBE7272",
"f  c #DCDCC1C14444",
"g  c #DFDFC6C64646",
"h  c #DFDFC7C74A4A",
"j  c #DDDDC5C54F4F",
"k  c #F5F5E5E55858",
"l  c #EBEBC8C86262",
"z  c #E4E4CFCF6868",
"x  c #F0F0CDCD6A6A",
"c  c #E7E7D3D36363",
"v  c #EAEAD7D76767",
"b  c #E7E7D8D86A6A",
"n  c #E6E6D8D86D6D",
"m  c #EDEDDBDB6E6E",
"M  c #EEEECCCC7070",
"N  c #EFEFCCCC7676",
"B  c #F0F0CECE7E7E",
"V  c #E5E5D8D87171",
"C  c #F0F0D3D37676",
"Z  c #EFEFE0E06868",
"A  c #F9F9E9E96D6D",
"S  c #FAFAECEC7A7A",
"D  c #5E5E8E8EBABA",
"F  c #BBBBBEBEB7B7",
"G  c #BCBCBFBFB8B8",
"H  c #BEBEC1C1BABA",
"J  c #D0D0C4C48787",
"K  c #D6D6CACA8E8E",
"L  c #E6E6D4D48080",
"P  c #EBEBDEDE9B9B",
"I  c #F1F1E2E28787",
"U  c #FBFBECEC8181",
"Y  c #FBFBECEC8686",
"T  c #EFEFE1E19090",
"R  c #EFEFE2E29999",
"E  c #F4F4E7E79494",
"W  c #F0F0E3E39898",
"Q  c #FCFCF0F09292",
"!  c #FBFBF3F39F9F",
"~  c #FCFCF2F29F9F",
"^  c #C0C0C3C3BDBD",
"/  c #C3C3C5C5BFBF",
"(  c #C4C4C6C6BDBD",
")  c #F0F0D4D4ADAD",
"_  c #F6F6EDEDAFAF",
"`  c #FCFCF2F2ADAD",
"'  c #F6F6EEEEBFBF",
"]  c #FCFCF5F5B5B5",
"[  c #FCFCF4F4B8B8",
"{  c #C4C4C7C7C1C1",
"}  c #C7C7CACAC4C4",
"|  c #CACACDCDC7C7",
" . c #CDCDCFCFCACA",
".. c #D4D4D5D5D1D1",
"X. c #D8D8DADAD6D6",
"o. c #DFDFE0E0DEDE",
"O. c #F4F4EDEDC8C8",
"+. c #F9F9F5F5C2C2",
"@. c #FBFBF5F5CDCD",
"#. c #FCFCF7F7D1D1",
"$. c #FDFDF8F8D7D7",
"%. c #E4E4E5E5E3E3",
"&. c #E7E7E8E8E6E6",
"*. c #EAEAEBEBE9E9",
"=. c #EBEBECECEAEA",
"-. c #ECECEDEDEBEB",
";. c #EEEEEFEFEDED",
":. c #F3F3F3F3F2F2",
">. c #F7F7F7F7F6F6",
",. c #F8F8F8F8F7F7",
"<. c #FBFBFBFBFBFB",
"1. c #FCFCFCFCFBFB",
"2. c #FFFFFFFFFEFE",
/* pixels */
"D ..{ { ..D D D D D D D D D D D ",
"..} -.*.} ..D D D D D D D D D D ",
"{ =.<.,.&.{ D D D D D D D D D D ",
"/ :.2.1.;.^ D D D D D D D D D D ",
"| *.<.<.|  .D D D D D D D D D D ",
"H :.<.:.G D D D D = ; ; = D D D ",
" .o.>.X.} D * = = - R T = = = D ",
"{ *.>.F K = s P ' w h g 8 I q - ",
"{ %.%.{ - P ,.#.] i > 3 a k ~ 9 ",
"J ( ( d 0 O.j R _ ! Z n V b c m ",
"D - z L z +.w 7 4 , 5 1 - 2 : Q ",
"D = W @.z ) X M S A p u r 6   B ",
"D * j #.$.$ & + U x . y t o & + ",
"D D < +.E # % # Y @ & O e o D D ",
"D D = f [ l . N Y @ % O r D D D ",
"D D D = v ` C U Y l   y r D D D "
};
