/* XPM */
static char *gksu_root_terminal[] = {
/* columns rows colors chars-per-pixel */
"16 16 42 1",
"  c #555500000000",
". c #595900000000",
"X c #5D5D00000000",
"o c #676700000000",
"O c #6B6B00000000",
"+ c #6F6F00000000",
"@ c #727200000000",
"# c #767600000000",
"$ c #797900000000",
"% c #7A7A00000000",
"& c #7B7B3D3D3D3D",
"* c #858500000000",
"= c #8B8B00000000",
"- c #909000000000",
"; c #969600000000",
": c #9B9B00000000",
"> c #A0A000000000",
", c #9D9D45454545",
"< c #5E5E8E8EBABA",
"1 c #818181818181",
"2 c #838383838383",
"3 c #868686868686",
"4 c #888888888888",
"5 c #8A8A8A8A8A8A",
"6 c #8C8C8C8C8C8C",
"7 c #939393939393",
"8 c #959595959595",
"9 c #9A9A9A9A9A9A",
"0 c #9B9B9B9B9B9B",
"q c #9D9D9D9D9D9D",
"w c #C4C4C4C4C4C4",
"e c #CECECECECECE",
"r c #D3D3D3D3D3D3",
"t c #D6D6D6D6D6D6",
"y c #D9D9D9D9D9D9",
"u c #DCDCDCDCDCDC",
"i c #DFDFDFDFDFDF",
"p c #E1E1E1E1E1E1",
"a c #E4E4E4E4E4E4",
"s c #EAEAEAEAEAEA",
"d c #EFEFEFEFEFEF",
"f c #F0F0F0F0F0F0",
/* pixels */
"<q9q9q99q900000<",
"9afdffffffffffa0",
"8d,$$$$$$$$$$,f8",
"8s#>>>>:>>>>>#s8",
"7a@::::::::::@a8",
"7a+;;;::;;;::@p7",
"7pO-d==-=-===Op6",
"6io==d=======+p6",
"6po=**f******oi5",
"6uX$$f$**$$**Xy5",
"3tX$f$#$ffd#$Xt3",
"3t.@##OO$#@@@.t3",
"2r&          &r2",
"2weeeereeeeeeew2",
"<<<2436,2<22222<",
"<<<<<<<<<<<<<<<<"
};
