/* XPM */
static char *gnome_planner[] = {
/* columns rows colors chars-per-pixel */
"16 16 54 1",
"  c #C7C7A2A20000",
". c #CBCBA6A60000",
"X c #CCCCA6A60000",
"o c #D0D0A9A90000",
"O c #D1D1ABAB0000",
"+ c #D4D4ADAD0000",
"@ c #D9D9B1B10000",
"# c #DEDEB5B50000",
"$ c #E1E1B7B70000",
"% c #E2E2B8B80000",
"& c #E4E4B9B90000",
"* c #F3F3DEDE2929",
"= c #F4F4DFDF2B2B",
"- c #F5F5E1E13232",
"; c #F6F6E2E23737",
": c #F6F6E3E33B3B",
"> c #F7F7E4E43E3E",
", c #F7F7E4E44040",
"< c #FBFBEDED7676",
"1 c #F8F8EBEB7979",
"2 c #FBFBEDED7A7A",
"3 c #FAFAEDED7D7D",
"4 c #21214C4C8B8B",
"5 c #21214D4D8E8E",
"6 c #22224F4F9191",
"7 c #222250509393",
"8 c #232351519696",
"9 c #242453539999",
"0 c #242454549A9A",
"q c #252556569E9E",
"w c #50507E7EB8B8",
"e c #53538080B9B9",
"r c #57578383BCBC",
"t c #57578484BDBD",
"y c #5A5A8686BEBE",
"u c #5E5E8E8EBABA",
"i c #5D5D8888C1C1",
"p c #60608B8BC3C3",
"a c #61618C8CC3C3",
"s c #FAFAEEEE8282",
"d c #F9F9EDED8686",
"f c #F8F8EDED8B8B",
"g c #F8F8EDED8F8F",
"h c #F8F8EEEE9393",
"j c #8A8AAAAAD4D4",
"k c #8E8EADADD4D4",
"l c #9191AFAFD5D5",
"z c #9292B0B0D6D6",
"x c #9A9AB5B5D7D7",
"c c #9D9DB7B7D7D7",
"v c #9F9FB8B8D7D7",
"b c #A0A0B9B9D8D8",
"n c #A7A7BEBEDADA",
"m c #A9A9BFBFDBDB",
/* pixels */
"uuuuuuuuuuuuuuuu",
"uqqqqqq0q000999u",
"u9jjjkkkjzlzzz8u",
"u9kpaiiiiyyrtx7u",
"u8lyyrrreeewwv7u",
"u8xxccvbnbnnnm5u",
"u66655655555454u",
"uuuuuuuuuuuuuuuu",
"uuuuuuuuuuuuuuuu",
"uuuuu&%$%#%%##uu",
"uuuuu%<<2233s@uu",
"uuuuu@1>>::;d+uu",
"uuuuu+2--=**fouu",
"uuuuuo3sdffgh.uu",
"uuuuuXX.. .   uu",
"uuuuuuuuuuuuuuuu"
};
