/* XPM */
static char *gnome_power_manager[] = {
/* columns rows colors chars-per-pixel */
"16 16 105 2",
"   c #2ED1356637F7",
".  c #305738423C28",
"X  c #48084CE84CE8",
"o  c #56565B5B5A5A",
"O  c #57575C5C5B5B",
"+  c #594E633667E1",
"@  c #482064DA7D90",
"#  c #646467676565",
"$  c #666669696868",
"%  c #6A6A6D6D6A6A",
"&  c #757578787575",
"*  c #7A7A7C7C7878",
"=  c #7E7E81817D7D",
"-  c #828284847F7F",
";  c #4E4E69698A8A",
":  c #4E4E6B6B9292",
">  c #525271719A9A",
",  c #535373739B9B",
"<  c #575774749B9B",
"1  c #592676509CFF",
"2  c #5E1278C4986B",
"3  c #5FF9777792F9",
"4  c #61C878AB9461",
"5  c #59597979A3A3",
"6  c #5E5E7C7CA1A1",
"7  c #7D8A86F98AB4",
"8  c #7E488B849275",
"9  c #73408BE19C35",
"0  c #73B28C869FCF",
"q  c #5E5E8E8EBABA",
"w  c #5F5F8888BEBE",
"e  c #6F6F8585A2A2",
"r  c #6DED8A76A2FB",
"t  c #6DA48C43A5B9",
"y  c #60608080A8A8",
"u  c #66CD8DC0B016",
"i  c #6AEF8D5CAADE",
"p  c #75108A16A30C",
"a  c #67678A8AB5B5",
"s  c #6A6A8C8CB7B7",
"d  c #6E6E8D8DB4B4",
"f  c #60608888BFBF",
"g  c #68688C8CBCBC",
"h  c #7A7A9393B3B3",
"j  c #7E7E9898B9B9",
"k  c #6F6F9595C8C8",
"l  c #76769595C2C2",
"z  c #844B87BF8446",
"x  c #878788888383",
"c  c #86908ABA8801",
"v  c #88888A8C858A",
"b  c #898C8B8E868A",
"n  c #858E8AD38946",
"m  c #881B8BA08838",
"M  c #8D8D8F8F8A8A",
"N  c #8F8F91918C8C",
"B  c #939394948D8D",
"V  c #949496969494",
"C  c #969698989393",
"Z  c #959598989494",
"A  c #9A9A9C9C9898",
"S  c #9C9C9F9F9C9C",
"D  c #9D9DA0A09D9D",
"F  c #83A99746AF4C",
"G  c #8A5D9AE6AEF0",
"H  c #8989A1A1BFBF",
"J  c #A2A2A3A3A1A1",
"K  c #A5A5A7A7A2A2",
"L  c #A7A7A8A8A5A5",
"P  c #ABABADADA7A7",
"I  c #A3DCB00ABCC2",
"U  c #B6B6B7B7B5B5",
"Y  c #BDBDBFBFBBBB",
"T  c #C0C0C1C1BEBE",
"R  c #8585A1A1C3C3",
"E  c #8888A3A3CACA",
"W  c #9494ABABC6C6",
"Q  c #9B9BB0B0CACA",
"!  c #B364BDEAC9BA",
"~  c #C7C7C9C9C7C7",
"^  c #CACACBCBCACA",
"/  c #CBCBCCCCCBCB",
"(  c #CCCCCCCCCBCB",
")  c #D0D0D0D0CFCF",
"_  c #D3D3D4D4D4D4",
"`  c #D6D6D7D7D4D4",
"'  c #D8D8D9D9D6D6",
"]  c #DBDBDBDBDBDB",
"[  c #DDDDDFDFDCDC",
"{  c #DFDFDFDFDEDE",
"}  c #DFDFE0E0DEDE",
"|  c #E0E0E1E1DFDF",
" . c #E4E4E5E5E4E4",
".. c #E7E7E7E7E4E4",
"X. c #E7E7E8E8E7E7",
"o. c #E9E9EAEAE8E8",
"O. c #EAEAEBEBEAEA",
"+. c #EBEBEBEBEAEA",
"@. c #EBEBECECEBEB",
"#. c #EDEDEDEDECEC",
"$. c #F2F2F2F2F2F2",
"%. c #F3F3F3F3F3F3",
"&. c #F4F4F5F5F4F4",
"*. c #F9F9F9F9F9F9",
"=. c #FFFFFFFFFFFF",
/* pixels */
"q q q q r n n 9 a q q v v v n w ",
"q i x v B  . .M x x N v q ` & q ",
"t L ( O.U J S N O.} v } v } $ q ",
"v $.I F 4 1 1 4 G X.#.v v ~ % q ",
"v #.< 6 k k k k 5 d O.v / * @ q ",
"v #., l w k k g E : v _ = @ q q ",
"v O.6 H E W Q R e v ' = @ q q q ",
"v O., j a a 2 1 v v T - v v q q ",
"x o., j s s y v &.O. .#.&.C c q ",
"c o., j a s B &. . .} | o.*.N v ",
"x o., j a c =.=.=.=.=.=.=.=.=.v ",
"v o., j a c #.S A Z A V V N  .v ",
"v #.2 h R v | # Z # Y # D # ' v ",
"v ^ ! p ; v ' # [ # ` # &.# ' v ",
"9 7 ) [ ] v v # K # v # P # v v ",
"q i 8 z v v v X o + i   O . q q "
};
