/* XPM */
static char *gnome_eyes_applet[] = {
/* columns rows colors chars-per-pixel */
"16 16 78 1",
"  c #0E1825",
". c #203B5D",
"X c #3E454E",
"o c #3A4350",
"O c #294971",
"+ c #386196",
"@ c #3D6AA3",
"# c #416DA4",
"$ c #426DA4",
"% c #4B73A7",
"& c #5179AD",
"* c #547CAF",
"= c #587DAD",
"- c #768D9E",
"; c #7A8C9A",
": c #5E8EBA",
"> c #678DAE",
", c #6A8DAA",
"< c #6D8DA8",
"1 c #698DAD",
"2 c #728DA3",
"3 c #758DA0",
"4 c #758EA3",
"5 c #738EA5",
"6 c #6085B4",
"7 c #888B87",
"8 c #898C87",
"9 c #868D8C",
"0 c #898C88",
"q c #8C8E89",
"w c #8A908D",
"e c #828F93",
"r c #828E94",
"t c #839096",
"y c #879094",
"u c #969894",
"i c #949898",
"p c #989C9B",
"a c #9C9F9D",
"s c #9EA29F",
"d c #A1A29F",
"f c #A8AAA7",
"g c #ACADAA",
"h c #B9BBBA",
"j c #BABDBB",
"k c #92ABCB",
"l c #A6BBD4",
"z c #ABBFD9",
"x c #B4C4D7",
"c c #C2C3C3",
"v c #D3D4D5",
"b c #D5D6D4",
"n c #DFE1DE",
"m c #E0E2DF",
"M c #C0CFE2",
"N c #C2D0E1",
"B c #C5D3E5",
"V c #C8D6E5",
"C c #E1E3E0",
"Z c #E3E4E3",
"A c #E6E7E5",
"S c #E7E8E5",
"D c #E7E9E7",
"F c #EBECEA",
"G c #EFF0EF",
"H c #E4EAF1",
"J c #F1F2F1",
"K c #F4F4F3",
"L c #F6F6F6",
"P c #F6F7F6",
"I c #F5F8FB",
"U c #F8F9F8",
"Y c #F9FAF9",
"T c #FAFAFA",
"R c #FBFBFB",
"E c #FCFCFB",
"W c #FAFBFD",
"Q c #FFFFFF",
/* pixels */
"::::::::::::::::",
"::::::::::::::::",
"::4w8w46::::::::",
":tcEQUj;<y88y<::",
"5cQQQQQafLQQGs-:",
"wEl*=IbgQQQQRRp1",
"0W6vOzdLB&$VQFZe",
"9W%.+V0Q*Qo$QAR8",
"2hHkxD0Q$X $RnR7",
":rhJQJuFM@@NAZne",
"::5980;sRKFnALu>",
":::::::-aARRmi4:",
"::::::::<e07e,::",
"::::::::::::::::",
"::::::::::::::::",
"::::::::::::::::"
};
