/* XPM */
static char *gnome_panel_drawer[] = {
/* columns rows colors chars-per-pixel */
"16 16 84 1",
"  c #B19E2C",
". c #B19F31",
"X c #BEB02D",
"o c #C49F00",
"O c #C6A200",
"+ c #C8A400",
"@ c #CAA700",
"# c #CCA900",
"$ c #CEAC00",
"% c #D0AE00",
"& c #D2B100",
"* c #D4B300",
"= c #D6B700",
"- c #D7B800",
"; c #D8B900",
": c #D9BB00",
"> c #DBBD00",
", c #C2B731",
"< c #DBCE6B",
"1 c #E8D968",
"2 c #F4E468",
"3 c #FCEC6F",
"4 c #FCEC71",
"5 c #FCED76",
"6 c #5E8EBA",
"7 c #778EA0",
"8 c #888A85",
"9 c #888B87",
"0 c #A1A08D",
"q c #BBB78B",
"w c #A3A391",
"e c #ACAC9C",
"r c #ABAFA9",
"t c #B3B6AA",
"y c #B7B7A8",
"u c #B8BBAE",
"i c #BCBEB4",
"p c #CCC581",
"a c #D1CA8E",
"s c #D5D09C",
"d c #E5DC96",
"f c #FDF08E",
"g c #F3E99F",
"h c #FDF194",
"j c #CBCAAC",
"k c #D4CFA0",
"l c #D2D0AD",
"z c #C5C8BC",
"x c #C8CBBE",
"c c #E5DFA8",
"v c #E5DFAC",
"b c #ECE5AA",
"n c #F3EBAB",
"m c #FDF3A7",
"M c #FDF3A8",
"N c #FDF3A9",
"B c #FDF4AB",
"V c #FAF1AD",
"C c #FDF4AD",
"Z c #EAE4B4",
"A c #F1EABC",
"S c #FDF4B1",
"D c #FEF5B8",
"F c #C4C8C3",
"G c #CBCFCA",
"H c #D3D7CF",
"J c #D7D8D4",
"K c #F8F2C4",
"L c #FDF7CC",
"P c #FEF8C8",
"I c #E0E2DF",
"U c #FEF8D0",
"Y c #FEF9D3",
"T c #FEFAD8",
"R c #FEFADC",
"E c #FEFBE4",
"W c #FFFCE7",
"Q c #FEFCEC",
"! c #F3F4F2",
"~ c #F6F7F5",
"^ c #F7F7F6",
"/ c #FFFEF6",
"( c #FFFEF9",
") c #FFFEFB",
/* pixels */
"6666666666666666",
"6666666666666666",
"6666666666666666",
"6788999998888976",
"68(())(())(()(86",
"68(JHJHJJHJJJ(96",
",>>>->--==--===X",
";)))))))(()///)%",
"*/SBkeshfa0p54W$",
"%QCmtIFutrJw54T@",
"#EBmlI~~~!Gq43PO",
"+Rmndjzzitq<12DO",
"OYULKAZvlcbnVVmO",
".oooOOOo+oooOoo ",
"6666666666666666",
"6666666666666666"
};
