/* XPM */
static char *gnome_network_properties[] = {
/* columns rows colors chars-per-pixel */
"16 16 87 1",
"  c #5E3968",
". c #5F3A69",
"X c #643F6E",
"o c #555753",
"O c #5A5C58",
"+ c #5A5E5C",
"@ c #5A5E5D",
"# c #604665",
"$ c #634867",
"% c #7B527F",
"& c #57656D",
"* c #5D6769",
"= c #606361",
"- c #636561",
"; c #616A6F",
": c #3465A4",
"> c #5D7383",
", c #5B7B95",
"< c #637581",
"1 c #647683",
"2 c #667986",
"3 c #61798B",
"4 c #697D8B",
"5 c #6B7D8B",
"6 c #757E81",
"7 c #607F9A",
"8 c #4374AC",
"9 c #8A6F8F",
"0 c #A0749D",
"q c #7A8283",
"w c #7C8689",
"e c #678299",
"r c #5D89B2",
"t c #5F8CB4",
"y c #5F8CB5",
"u c #5E8DB9",
"i c #5E8EB9",
"p c #5E8EBA",
"a c #6586A2",
"s c #6687A3",
"d c #6B8EAD",
"f c #618BB2",
"g c #608DB6",
"h c #7695B1",
"j c #7095B7",
"k c #7998B2",
"l c #6F9DCD",
"z c #729FCF",
"x c #979596",
"c c #8A99A4",
"v c #8F9EA8",
"b c #8DA4B6",
"n c #95A5B2",
"m c #90A6B7",
"M c #97ACBD",
"N c #A3A2A2",
"B c #BFA4BC",
"V c #ADB5BB",
"C c #AFB7BA",
"Z c #B7B9B7",
"A c #BABDB6",
"S c #B3B8BB",
"D c #C7B1C5",
"F c #C5BDC5",
"G c #C1C2C0",
"H c #CBCFD1",
"J c #D1C6D0",
"K c #D2D4D3",
"L c #D5D6D5",
"P c #D6D7D6",
"I c #D8D1D7",
"U c #E0E2DD",
"Y c #E4E5E0",
"T c #E4E6E2",
"R c #E5E7E3",
"E c #E8E9E5",
"W c #ECE7ED",
"Q c #EAEAE8",
"! c #ECEBEA",
"~ c #EBECE9",
"^ c #EDEDEC",
"/ c #F3F3F1",
"( c #F4F4F4",
") c #F7F8F6",
"_ c #F9F9F8",
"` c #F9F9F9",
"' c #FBFBFB",
/* pixels */
"pr>+ooooo+>gpppp",
"p>Z`'`'''`Z>pppp",
"p+````)`//`+pppp",
"po`/AAAAA~'o:8pp",
"po'^'''''R'ol:<s",
"po'~AAAAAR'oz:HM",
"po`~'''''E'ol:<s",
"po'EAAAAAR`o:8pp",
"go_!W0X0WU'opppp",
"go'U9<0<9R'opppp",
"g@/I BQD L/+pppp",
"g,-#BI!JF--,pppp",
"g36GN#Q#xHw3fppp",
"7cSq&oQO;;Cvefpp",
"bn57p*K;pe4bmdgp",
"ksggp<C2ppfshjpp"
};
