/* XPM */
static char *gnome_blog[] = {
/* columns rows colors chars-per-pixel */
"16 16 116 2",
"   c #6B6B62626A6A",
".  c #B9B95D5D1616",
"X  c #AEAE5E5E2323",
"o  c #CECE5C5C0000",
"O  c #CFCF5D5D0000",
"+  c #D0D05F5F0202",
"@  c #D1D161610303",
"#  c #D1D161610404",
"$  c #D1D162620707",
"%  c #E1E17A7A1414",
"&  c #D9D978782525",
"*  c #ABAB7A7A4F4F",
"=  c #848475757272",
"-  c #F4F480800B0B",
";  c #E5E581811717",
":  c #E7E786861D1D",
">  c #ECEC88881E1E",
",  c #F6F685851515",
"<  c #F3F386861919",
"1  c #F6F688881B1B",
"2  c #F4F48B8B2323",
"3  c #F4F48F8F2424",
"4  c #F4F495952323",
"5  c #F6F698982727",
"6  c #F7F796962C2C",
"7  c #E0E088883939",
"8  c #F4F498983939",
"9  c #F7F7A2A23131",
"0  c #FAFAA3A33737",
"q  c #F9F9A3A33939",
"w  c #FBFBAAAA3838",
"e  c #FBFBADAD3B3B",
"r  c #FBFBAEAE3D3D",
"t  c #A7A788886363",
"y  c #A5A58D8D6969",
"u  c #AEAE8F8F6B6B",
"i  c #E6E697974C4C",
"p  c #FBFBACAC4343",
"a  c #FAFAABAB4949",
"s  c #FBFBAEAE4D4D",
"d  c #FCFCB3B34848",
"f  c #FBFBB2B24C4C",
"g  c #ECECA5A55E5E",
"h  c #FBFBB3B35656",
"j  c #FBFBB5B55555",
"k  c #FBFBB4B45959",
"l  c #C1C19B9B7575",
"z  c #C9C9A2A26767",
"x  c #D8D8A0A06E6E",
"c  c #FBFBB9B96767",
"v  c #FBFBBCBC6969",
"b  c #F1F1B2B27070",
"n  c #F0F0B5B57373",
"m  c #F3F3BDBD7F7F",
"M  c #F9F9BEBE7979",
"N  c #CECEC1C17A7A",
"B  c #FDFDC2C26B6B",
"V  c #FCFCC4C47979",
"C  c #38386565A1A1",
"Z  c #5E5E6B6B8888",
"A  c #42426A6A9E9E",
"S  c #4A4A6F6F9C9C",
"D  c #42426D6DA3A3",
"F  c #4B4B7373A2A2",
"G  c #50507B7BB0B0",
"H  c #5B5B8181B2B2",
"J  c #5F5F8484B5B5",
"K  c #5E5E8E8EBABA",
"L  c #64648787B5B5",
"P  c #65658888B4B4",
"I  c #6B6B8B8BB5B5",
"U  c #6A6A8D8DB9B9",
"Y  c #76769696BFBF",
"T  c #77779898C2C2",
"R  c #77779898C3C3",
"E  c #7F7FA2A2CBCB",
"W  c #9A9A91918282",
"Q  c #84848C8C9B9B",
"!  c #A9A9A4A49D9D",
"~  c #AAAAA6A6A4A4",
"^  c #AEAEA8A8A2A2",
"/  c #DFDFB2B28686",
"(  c #E6E6B1B18282",
")  c #F4F4BDBD8484",
"_  c #F8F8C0C08383",
"`  c #FCFCC5C58484",
"'  c #FCFCC8C88282",
"]  c #FAFACACA8686",
"[  c #F6F6C3C38A8A",
"{  c #F8F8C6C68E8E",
"}  c #FDFDCCCC8888",
"|  c #FDFDD0D08E8E",
" . c #ECECCCCC9A9A",
".. c #F8F8CACA9393",
"X. c #FDFDCFCF9494",
"o. c #FBFBCFCF9D9D",
"O. c #FDFDD1D19B9B",
"+. c #FDFDD2D29C9C",
"@. c #FCFCD4D49C9C",
"#. c #F3F3C9C9A3A3",
"$. c #F8F8CFCFA1A1",
"%. c #FCFCD2D2A0A0",
"&. c #FCFCD5D5A4A4",
"*. c #FEFEDADAA6A6",
"=. c #FEFEDBDBA9A9",
"-. c #FEFEDDDDAEAE",
";. c #8787A4A4C9C9",
":. c #9191B1B1D6D6",
">. c #9898B4B4D5D5",
",. c #9C9CB7B7D7D7",
"<. c #A3A3BEBEDDDD",
"1. c #D1D1D8D8D5D5",
"2. c #DEDEE1E1DBDB",
"3. c #F5F5F3F3F3F3",
"4. c #F5F5F5F5F5F5",
"5. c #F6F6F6F6F6F6",
/* pixels */
"K $ O O O O O O o o o o o O $ K ",
"K $ ] -.-.-.-.-.-.-.-.-.-.@.$ K ",
"C =  .p d B | =.} B d r e O.& K ",
"Z ;.P z *.c 6 - , 8 M f w } 7 K ",
"  J ,.T u < ) $.+.) 2 a 9 V i K ",
". A Y <.T Q ' p h o.$.1 : v g O ",
"O l D T >.G ~ 0 s @.O., % k b @ ",
"+ n W S G E U ! X.` 8 3 ; a m @ ",
"O _ j q y L :.I * 3 > ; 4 9 { @ ",
"$ [ d q 0 t L :.H & > 9 5 9 @.o ",
"O ..&.&.%.%.^ H R F  . .@.@.[ o ",
"O @ O O O O O X D Z ; o o O O o ",
"O / 2.2.2.2.2.2.1.N N 1.1.2.x K ",
"O 5.5.5.5.3.5.3.5.5.5.5.5.5.7 K ",
"O #.5.3.5.3.5.3.5.5.5.5.5.5.( K ",
"K O O O O O O $ O O o O O O O K "
};
