/* XPM */
static char *gnome_sticky_notes_applet[] = {
/* columns rows colors chars-per-pixel */
"16 16 125 2",
"   c #C3A002",
".  c #C2A003",
"X  c #C4A002",
"o  c #C3A004",
"O  c #C4A005",
"+  c #C2A109",
"@  c #C7A50A",
"#  c #D2B101",
"$  c #D7B602",
"%  c #D6B702",
"&  c #DBBD02",
"*  c #D2B20C",
"=  c #DBBD09",
"-  c #DDBE0B",
";  c #C9A611",
":  c #CDAA12",
">  c #CCAB14",
",  c #CDAB14",
"<  c #D5B614",
"1  c #D7B816",
"2  c #D8B91B",
"3  c #D8BA1D",
"4  c #D9BB21",
"5  c #D8BC38",
"6  c #DEC102",
"7  c #DEC502",
"8  c #DDC107",
"9  c #DFC40E",
"0  c #DDC117",
"q  c #E2C501",
"w  c #E3C901",
"e  c #E4CC01",
"r  c #E6CD01",
"t  c #E4C906",
"y  c #EAD203",
"u  c #EDD300",
"i  c #EAD207",
"p  c #EED406",
"a  c #EED509",
"s  c #EFD60D",
"d  c #ECD60F",
"f  c #E4C81D",
"g  c #ECD713",
"h  c #EDD713",
"j  c #EED61C",
"k  c #EDD818",
"l  c #EDD81F",
"z  c #F0D710",
"x  c #F1D815",
"c  c #F2DA1A",
"v  c #F2DA1D",
"b  c #F3DB1E",
"n  c #DBC026",
"m  c #DAC034",
"M  c #DDC33B",
"N  c #EFDB2A",
"B  c #F3DB21",
"V  c #F1DB27",
"C  c #F4DD26",
"Z  c #F5DD29",
"A  c #F5DE2C",
"S  c #E8CE31",
"D  c #EBD137",
"F  c #EDD837",
"G  c #F2DE35",
"H  c #F0DE37",
"J  c #F4DD35",
"K  c #F6E032",
"L  c #F8E23B",
"P  c #9E9C48",
"I  c #A09D42",
"U  c #A19D49",
"Y  c #D9BE45",
"T  c #DEC540",
"R  c #DCC24E",
"E  c #DFC84A",
"W  c #E7D040",
"Q  c #EDD94B",
"!  c #F3DF43",
"~  c #F0DC44",
"^  c #F3E141",
"/  c #F9E341",
"(  c #FAE444",
")  c #FAE546",
"_  c #F4E14E",
"`  c #F6E44D",
"'  c #F8E248",
"]  c #FCE74E",
"[  c #F5E358",
"{  c #F7E559",
"}  c #EEDE7C",
"|  c #F8E765",
" . c #FCEA60",
".. c #F4E66D",
"X. c #F8E868",
"o. c #F5E776",
"O. c #F9E970",
"+. c #FAEB7A",
"@. c #5E8EBA",
"#. c #E8DE9D",
"$. c #FBED82",
"%. c #FAED86",
"&. c #FCEE85",
"*. c #F7EB8D",
"=. c #FDF08B",
"-. c #F7EC90",
";. c #F8ED91",
":. c #FAEE94",
">. c #F0E49D",
",. c #F9EE99",
"<. c #FDF094",
"1. c #FDF198",
"2. c #F1E5A4",
"3. c #F3E8AA",
"4. c #FBF0A1",
"5. c #FDF2A3",
"6. c #FCF2A5",
"7. c #FEF4AB",
"8. c #F6EDB6",
"9. c #FBF3B3",
"0. c #FDF7C6",
"q. c #FEF8CF",
"w. c #FCF7D8",
"e. c #FCF8DA",
"r. c #FFFFFB",
/* pixels */
"P . . . . . . . X . X . X o . I ",
"o *.*.*.*.*.*.*.*.*.*.*.*.*.-.o ",
". *.u u u p p a s s h - g c ,.+ ",
". ;.s z z x c c c j * ; 1 Z 4.+ ",
"X ,.b B C C Z A f > 3.8.1 L 6.+ ",
". 4.A K K L J < R e.=.q.Y n #.o ",
". 6./ ( ( S , 2.0. .( X.*.0 % @ ",
"X 5.] ' 3 Y w.7.<.%.~ t 8 6 q @ ",
"o <.D , >.r.9.Q 9 & 6 7 e y ..o ",
"X m 5 } D - & 7 e i h g k l o.+ ",
"@ # % 8 t y s l N H ^ _ { | :.+ ",
"@ F g k V F ^ ` { | O.+.$.&.4.+ ",
"X T 1 1 2 3 3 4 4 4 4 3 3 4 E + ",
"O M M M M M M M M M M M M M M + ",
"U X X o . . X . . X . . . . . I ",
"@.@.@.@.@.@.@.@.@.@.@.@.@.@.@.@."
};
