/* XPM */
static char *gnome_panel_notification_area[] = {
/* columns rows colors chars-per-pixel */
"16 16 103 2",
"   c #234E89",
".  c #234E8A",
"X  c #254E89",
"o  c #29538D",
"O  c #2A548F",
"+  c #2D558E",
"@  c #32588F",
"#  c #2C5791",
"$  c #2C5792",
"%  c #315790",
"&  c #335B92",
"*  c #355C93",
"=  c #3A5E93",
"-  c #3B6193",
";  c #3D6198",
":  c #3D6398",
">  c #3F6399",
",  c #3D6A9F",
"<  c #556B86",
"1  c #406498",
"2  c #537398",
"3  c #4978A9",
"4  c #4B7AAB",
"5  c #4B7AAC",
"6  c #4777B1",
"7  c #4B79B1",
"8  c #4979B3",
"9  c #4A7AB3",
"0  c #4C7BB4",
"q  c #4D7CB5",
"w  c #507FB7",
"e  c #5988B6",
"r  c #5B8AB7",
"t  c #5180B8",
"y  c #5483BA",
"u  c #5584BB",
"i  c #5887BD",
"p  c #5E8EBA",
"a  c #5A89BF",
"s  c #5C8ABF",
"d  c #5F8BBE",
"f  c #6081A7",
"g  c #758DA9",
"h  c #7B92AC",
"j  c #7F9ABF",
"k  c #5E8DC1",
"l  c #618FC3",
"z  c #6391C5",
"x  c #6794C7",
"c  c #6A97C9",
"v  c #6C99CA",
"b  c #6F9BCB",
"n  c #6F9CCD",
"m  c #7195C1",
"M  c #7297C3",
"N  c #7A9EC9",
"B  c #888A85",
"V  c #8A8F8C",
"C  c #8B9597",
"Z  c #8297A7",
"A  c #8EA2B6",
"S  c #98A9B7",
"D  c #9DADBA",
"F  c #809CC1",
"G  c #849FC3",
"H  c #88A1C3",
"J  c #8FA9C9",
"K  c #9BB2C1",
"L  c #89ABD3",
"P  c #8DB0D6",
"I  c #98B2D3",
"U  c #A2B8C6",
"Y  c #A4BEDB",
"T  c #B1C4CF",
"R  c #BECBCB",
"E  c #A9C2DE",
"W  c #BBCCE2",
"Q  c #C5CCCA",
"!  c #CAD0CB",
"~  c #D3D7CF",
"^  c #CFD7D9",
"/  c #E2E4DF",
"(  c #C1D2E5",
")  c #C5D4E6",
"_  c #C6D4E7",
"`  c #CEDCEC",
"'  c #D1DCEA",
"]  c #D3DEEB",
"[  c #D0DEED",
"{  c #D7E1EE",
"}  c #D9E2EE",
"|  c #DDE6F0",
" . c #DEE7F1",
".. c #E5E8E3",
"X. c #E9EBE7",
"o. c #EDEFEB",
"O. c #F1F2F0",
"+. c #F2F3F1",
"@. c #F5F8FB",
"#. c #F6F8FB",
"$. c #F7F9FB",
"%. c #F8FAFC",
"&. c #FFFFFF",
/* pixels */
"B B B B B B B B B B B B V C C Z ",
"B +.+.+.+.O.+.+.+.O.o.X.../ ^ T ",
"B +.~ ~ ~ Q g = X X = g Q ~ R U ",
"B +.~ ~ S + H ` #.#.' H # S R U ",
"B +.~ D > } ) M 7 9 M _ } > A U ",
"B +.! @ ' I 6 6 9 9 6 9 I { @ K ",
"B +.h j W 6 9 q #.#.w q 0 W N f ",
"B +.- ' M q q u #.#.e y t N ' @ ",
"B +.. #.y t y i i a a a y a #.X ",
"B +.. #.u w i a &.&.l k k a #.X ",
"B +.: [ N u a l &.&.x z z N ' * ",
"B B < A ( i k z &.&.v x l _ G 2 ",
"a p p O { Y k z c n v x E } O r ",
"p p p 4 > } ` L v b P `  .: 4 p ",
"p p p p 3 O J } %.%.{ J O 4 p p ",
"p p p p p r , # X X # , e p p p "
};
