/* XPM */
static char *gnome_palm[] = {
/* columns rows colors chars-per-pixel */
"16 16 35 1",
"  c #2E2E34343636",
". c #303036363737",
"X c #323237373939",
"o c #41414F4F3232",
"O c #575759595454",
"+ c #58585A5A5555",
"@ c #5A5A5C5C5757",
"# c #5D5D5F5F5A5A",
"$ c #5E5E60605B5B",
"% c #616163635E5E",
"& c #626264645F5F",
"* c #636365656060",
"= c #666668686262",
"- c #676769696464",
"; c #6A6A6C6C6666",
": c #6C6C6E6E6868",
"> c #6E6E70706B6B",
", c #717173736E6E",
"< c #737375756F6F",
"1 c #757577777171",
"2 c #777779797373",
"3 c #78787A7A7474",
"4 c #7A7A7C7C7676",
"5 c #89899C9C6565",
"6 c #8B8B9E9E6868",
"7 c #8C8C9E9E6868",
"8 c #8F8FA1A16C6C",
"9 c #9191A3A36F6F",
"0 c #9393A4A47171",
"q c #9595A6A67373",
"w c #9595A6A67474",
"e c #9898A9A97777",
"r c #9B9BABAB7B7B",
"t c #9B9BACAC7C7C",
"y c #5E5E8E8EBABA",
/* pixels */
"yyX          Xyy",
"yy 344321<<>; yy",
"yy 4        : yy",
"yy 3 555555 ; yy",
"yy 2 555555 - yy",
"yy 1 5o55o5 = yy",
"yy < 576775 * yy",
"yy , 8o90o9 % yy",
"yy > 0qoow0 $ yy",
"yy ; qrrtrr $ yy",
"yy ; qertre @ yy",
"yy =        + yy",
"yy =*&&$#$@++ yy",
"yy *%%$#@+++O yy",
"yyX          .yy",
"yyyy        yyyy"
};
