/* XPM */
static char *gnome_panel[] = {
/* columns rows colors chars-per-pixel */
"16 16 26 1",
"  c #000000",
". c #6E706C",
"X c #7D93A2",
"o c #6F93B0",
"O c #749CBE",
"+ c #7CA2C2",
"@ c #888A85",
"# c #8A8C87",
"$ c #8B8D88",
"% c #859094",
"& c #B0B3AB",
"* c #8AAAC2",
"= c #A2B8C6",
"- c #A0B9CD",
"; c #B8C6CA",
": c #BFCED8",
"> c #CFD5CF",
", c #D3D7CF",
"< c #DCE0D8",
"1 c #D6DEE1",
"2 c #EAECEA",
"3 c #ECEEEA",
"4 c #F1F2EF",
"5 c #F6F7F6",
"6 c #FCFCFC",
"7 c #FFFFFF",
/* pixels */
"@@@@@@@@@@@@@%Xo",
"@777777775421:-+",
"@7&#@@#&,,,>;=*O",
"@7$3443$,,,>;=*O",
"@7@4<<4@,,,>;=*O",
"@7@4<<4@,,,>;=*O",
"@7@4<.4@,,,>;=*O",
"@7@4. 4@,,,>;=*O",
"@7@4. 4@,,,>;=*O",
"@7@4<.4@,,,>;=*O",
"@7@4<<4@,,,>;=*O",
"@7@4<<4@,,,>;=*O",
"@7$3442@,,,>;=*O",
"@7&#@@@&,,,,;=*O",
"@777777775421:-+",
"@@@@@@@@@@@@@%Xo"
};
