/* XPM */
static char *gnome_inhibit_applet[] = {
/* columns rows colors chars-per-pixel */
"16 16 56 1",
"  c #2A5700",
". c #336020",
"X c #37642D",
"o c #4F553C",
"O c #4F543E",
"+ c #53593A",
"@ c #555B38",
"# c #54593F",
"$ c #5F6825",
"% c #6B7526",
"& c #6E7729",
"* c #244F51",
"= c #2E5372",
"- c #525741",
"; c #585C41",
": c #555753",
"> c #4C6A5F",
", c #5F7451",
"< c #788600",
"1 c #7A8804",
"2 c #7B8905",
"3 c #7D8A06",
"4 c #7D8909",
"5 c #7D8A08",
"6 c #768B2A",
"7 c #798D30",
"8 c #7F8275",
"9 c #828D04",
"0 c #879104",
"q c #859215",
"w c #889518",
"e c #8A961D",
"r c #8C981F",
"t c #8EB41D",
"y c #BEB400",
"u c #8E9A23",
"i c #83C020",
"p c #85CD28",
"a c #8AE234",
"s c #EDD400",
"d c #808276",
"f c #828578",
"g c #878A7C",
"h c #FCE94F",
"j c #204A86",
"k c #204A87",
"l c #27528D",
"z c #335E98",
"x c #476181",
"c c #5F799B",
"v c #729FCF",
"b c #ABACA8",
"n c #BCBDB9",
"m c #CFD0CD",
"M c #DBDCD8",
"N c #E0E1DC",
/* pixels */
"                ",
" aaaaaaaaaaaaaa ",
" a<<&@u+u+%>kkj*",
" a<<-N-N+m;jvvvj",
" a$Ofd8d,dfkkkvk",
" aoMfnnnmnfckvk*",
" a$ofb::::fkvkkk",
" aoNffxkkjkkvvvk",
" a$oogkvvvkkk=j*",
" a<1<o=lvzkqe%t ",
" a44w7kvvvk4r3i ",
" a4yy6kkkk,9y3i ",
" a<ss<ss4ss2s0i ",
" a<hh<hh3hh2h3i ",
" pihhihhihhihti ",
".              X"
};
