/* XPM */
static char *gnome_panel_force_quit[] = {
/* columns rows colors chars-per-pixel */
"16 16 49 1",
"  c #204A87",
". c #214B89",
"X c #204C88",
"o c #2B548C",
"O c #29548F",
"+ c #3D6A9F",
"@ c #3465A4",
"# c #637487",
"$ c #77848F",
"% c #7E878D",
"& c #5D84B6",
"* c #5E8EBA",
"= c #778EA0",
"- c #7191BC",
"; c #7695BF",
": c #7897C1",
"> c #888A85",
", c #888C87",
"< c #939793",
"1 c #949691",
"2 c #939794",
"3 c #949894",
"4 c #989A96",
"5 c #819EC5",
"6 c #81A0C7",
"7 c #CCD1D8",
"8 c #DADDD7",
"9 c #DBDED8",
"0 c #DDDFD9",
"q c #DDE0DA",
"w c #DFE1DC",
"e c #E1E3DE",
"r c #E2E2E0",
"t c #E4E5E1",
"y c #E6E7E4",
"u c #E7E8E4",
"i c #E9E9E6",
"p c #E9EAE8",
"a c #EBECE9",
"s c #EDEDEB",
"d c #EEEFEC",
"f c #F0F0EE",
"g c #F1F1F0",
"h c #F3F4F2",
"j c #F4F4F3",
"k c #F7F7F6",
"l c #F9F9F8",
"z c #FAFAFA",
"x c #FFFFFF",
/* pixels */
"****************",
"*+X       **  X@",
"*.56666:o**O;66.",
"* 6@@&-o**O-&@6X",
"*#gsfy%**$7fssf#",
"*>zfz1**>tziiiz>",
"*>xijk2**1kjuux>",
"*>xyyjk3**1kjex>",
"*>xtttxp>**3xax>",
"*>xeegk3**<kfex>",
"*>xwix4**>pxqqx>",
"*>x00fg<**3kd9x>",
"*>x888dk2**<ksx>",
"*>xxxxxxz<**2zx,",
"*=>>>>>>>>>**>>=",
"****************"
};
