/* XPM */
static char *gnumeric[] = {
/* columns rows colors chars-per-pixel */
"16 16 112 2",
"   c #666603030202",
".  c #696901010101",
"X  c #67670C0C0B0B",
"o  c #67670F0F0E0E",
"O  c #68680E0E0D0D",
"+  c #767607070707",
"@  c #75750B0B0B0B",
"#  c #636313131E1E",
"$  c #747413131313",
"%  c #767616161515",
"&  c #79791B1B1A1A",
"*  c #626220201F1F",
"=  c #5A5A18182A2A",
"-  c #5F5F23232121",
";  c #5B5B3B3B3939",
":  c #7D7D21212121",
">  c #7F7F33333232",
",  c #5B5B60601D1D",
"<  c #4B4B2D2D5252",
"1  c #555557575353",
"2  c #565657575353",
"3  c #565658585454",
"4  c #575759595555",
"5  c #58585A5A5656",
"6  c #5A5A55557F7F",
"7  c #82821E1E0101",
"8  c #848417171717",
"9  c #8E8E1A1A1A1A",
"0  c #93931F1F1F1F",
"q  c #AAAA0E0E0E0E",
"w  c #AAAA1C1C1C1C",
"e  c #C1C135353535",
"r  c #868646464545",
"t  c #8E8E42424141",
"y  c #96964C4C4C4C",
"u  c #8C8C58585656",
"i  c #C6C657574949",
"p  c #DEDE5C5C4848",
"a  c #EBEB46464646",
"s  c #EDED5E5E5E5E",
"d  c #F0F051515151",
"f  c #F2F256565656",
"g  c #F3F35B5B5C5C",
"h  c #D7D764646E6E",
"j  c #ECEC68686868",
"k  c #F6F660606060",
"l  c #F7F761616161",
"z  c #FAFA66666666",
"x  c #F4F46E6E6E6E",
"c  c #F9F969696969",
"v  c #FCFC6B6B6B6B",
"b  c #FAFA6F6F6F6F",
"n  c #FBFB6F6F6F6F",
"m  c #EDED75757575",
"M  c #FDFD70707070",
"N  c #4F4F97970505",
"B  c #525290900505",
"V  c #BBBBB0B05D5D",
"C  c #9595DEDE4E4E",
"Z  c #AFAFCACA6464",
"A  c #ADADD9D96B6B",
"S  c #B8B8D9D97B7B",
"D  c #353554548A8A",
"F  c #B5B571718787",
"G  c #57578585BCBC",
"H  c #5C5C8787BBBB",
"J  c #5E5E8E8EBABA",
"K  c #6E6E8080ABAB",
"L  c #74748E8EBABA",
"P  c #62629090C4C4",
"I  c #64649292C4C4",
"U  c #6F6F9C9CCDCD",
"Y  c #76769A9AC5C5",
"T  c #868687878484",
"R  c #8D8D8D8D8C8C",
"E  c #929293939090",
"W  c #989899999797",
"Q  c #9A9A9B9B9898",
"!  c #9E9E9F9F9D9D",
"~  c #BFBF9B9B8585",
"^  c #9F9FA0A09D9D",
"/  c #A5A5B5B59292",
"(  c #92928181A3A3",
")  c #80809E9EA8A8",
"_  c #A2A2A3A3A0A0",
"`  c #A4A4A5A5A3A3",
"'  c #A8A8A8A8A6A6",
"]  c #ABABACACAAAA",
"[  c #B1B1B2B2AEAE",
"{  c #B1B1B1B1B0B0",
"}  c #B4B4B5B5B2B2",
"|  c #FDFD86868686",
" . c #FAFA98989898",
".. c #CBCBB4B4B1B1",
"X. c #84849C9CC2C2",
"o. c #C6C6C6C6C2C2",
"O. c #C8C8C8C8C3C3",
"+. c #CBCBCBCBC9C9",
"@. c #CECECECECBCB",
"#. c #DCDCC5C5C5C5",
"$. c #D1D1D1D1CDCD",
"%. c #D2D2D2D2D0D0",
"&. c #D5D5D5D5D2D2",
"*. c #D7D7D7D7D5D5",
"=. c #D9D9D9D9D6D6",
"-. c #DDDDDDDDDBDB",
";. c #DFDFDFDFDDDD",
":. c #E1E1E1E1DFDF",
">. c #E7E7E7E7E6E6",
",. c #E9E9E9E9E6E6",
"<. c #EAEAEAEAE8E8",
"1. c #FFFFFFFFFFFF",
/* pixels */
"J 5 1 1 1 1 1 1 1 1 1 2 2 5 J J ",
"5 *.>.>.>.>.>.>.>.>.>.>.>.,.5 J ",
"3 >.:.;.{ ;.;.;.;.;.;.;.[ 1.5 J ",
"3 >.-.-.] %.%.%.%.%.%.%._ 1.1 J ",
"3 ,.' ` R W Q W W Q Q ^ T 1.1 J ",
"3 >.*.@.! ,.<.<.,.,.,.<.} 1.3 J ",
"3 >.=.@.! ,.,...t $   % > #.5 J ",
"5 >.' ^ T } r % e s M s e 8 # J ",
"5 >.%.+.( V 0 n b M v v c b 9 J ",
"5 >.&.O.! : j M z l g h F ( F   ",
"3 >.` ! F   | k f d ~ U I G I X ",
"5 >.@.o.)   m x a p A I G H K   ",
"3 >.$.o.W & w  .| V C L Y X.6 . ",
"5 >.[ ` E u + q i Z S / K D = . ",
"5 ;.1.1.1.1.y @ 7 B N , < # o J ",
"J 3 1 1 3 5 1 ; o   .   O - J J "
};
