/* XPM */
static char *im_icq[] = {
/* columns rows colors chars-per-pixel */
"16 16 34 1",
"  c #BB9E11",
". c #A99B31",
"X c #C4A000",
"o c #C7A715",
"O c #DABC13",
"+ c #D6C004",
"@ c #F7DD05",
"# c #FAE31C",
"$ c #EAD122",
"% c #E1D03C",
"& c #FBE52F",
"* c #FBE631",
"= c #FBE637",
"- c #8D9664",
"; c #DDC757",
": c #E4CD47",
"> c #FBE94F",
", c #FCEB5A",
"< c #FBEB5C",
"1 c #E9DB63",
"2 c #EBD96B",
"3 c #EFE37F",
"4 c #F3E472",
"5 c #70919A",
"6 c #5E8EBA",
"7 c #FCEF80",
"8 c #FDF085",
"9 c #EBE192",
"0 c #FDF293",
"q c #FDF295",
"w c #FDF39F",
"e c #F6EBA9",
"r c #FDF5AF",
"t c #FEF7C2",
/* pixels */
"6666666666666666",
"66665XX-.XX56666",
"6666Xr8X;8rX6666",
"6666X0*O:*0X6666",
"65XX w&$4&w XX56",
"6Xq7=o@*<&o=7qX6",
"6Xt,>#oXXo#>,tX6",
"6XX+++XttX+++XX6",
"6Xe311XttX%339X6",
"6Xt,>#oXXo#>,tX6",
"6Xq7=o@**@o=7qX6",
"65XX w&$4&w XX56",
"6666X0*O2*0X6666",
"6666Xr8X;8rX6666",
"66665XX-.XX56666",
"6666666666666666"
};
