/* XPM */
static char *im_msn[] = {
/* columns rows colors chars-per-pixel */
"16 16 38 1",
"  c #204A87",
". c #234E8A",
"X c #244E8A",
"o c #305C94",
"O c #335F97",
"+ c #406DA1",
"@ c #4876A8",
"# c #5280B0",
"$ c #5381B1",
"% c #5E8EBA",
"& c #7091B9",
"* c #7C9ABE",
"= c #7697C0",
"- c #729FCF",
"; c #7CA6D2",
": c #86A3C5",
"> c #84ABD3",
", c #84ABD4",
"< c #8CAFD5",
"1 c #93B2D3",
"2 c #94B5D7",
"3 c #97B7DB",
"4 c #9CBBDD",
"5 c #A5BFDA",
"6 c #A3BFDE",
"7 c #A6C2DF",
"8 c #AAC3DF",
"9 c #ABC5E1",
"0 c #B4CAE0",
"q c #B3CBE4",
"w c #B7CEE6",
"e c #B9CFE7",
"r c #BFD2E6",
"t c #C0D3E5",
"y c #C5D7EB",
"u c #CBDBEB",
"i c #D6E3F0",
"p c #E1EAF4",
/* pixels */
"%%%%%$O..O$%%%%%",
"%%%%$X0ii5X$%%%%",
"%%%%Ote4441O%%%%",
"%%%%.p4444q.%%%%",
"%%%%.p----:.%%%%",
"%%%%O04--=&O%%%%",
"%%%%$X*::&X$%%%%",
"%%%%%$    @%%%%%",
"%%%%@ urrr $%%%%",
"%%%$X822228 $%%%",
"%%$ 7<<<<<<6 #%%",
"%% 9>>>>>,>,4 %%",
"%% 3 9;;;;9 3 %%",
"%%+ ow7777yo +%%",
"%%%%+      +%%%%",
"%%%%%%%%%%%%%%%%"
};
