/* XPM */
static char *im[] = {
/* columns rows colors chars-per-pixel */
"16 16 89 1",
"  c #6C7A4C",
". c #405F7B",
"X c #799758",
"o c #5E847D",
"O c #7A9A72",
"+ c #8B8C2E",
"@ c #AE9C28",
"# c #A5A32F",
"$ c #BCA52D",
"% c #A3B52D",
"& c #A8BB34",
"* c #C29E00",
"= c #C4A000",
"- c #BBCD3E",
"; c #DAC300",
": c #E1CA00",
"> c #EAD100",
", c #EDD400",
"< c #EED819",
"1 c #F5E13C",
"2 c #9F9A43",
"3 c #829D53",
"4 c #8AA34A",
"5 c #93AB43",
"6 c #A4B949",
"7 c #A1B953",
"8 c #A3BA54",
"9 c #85A26D",
"0 c #A1BB7E",
"q c #B6CB52",
"w c #ABC369",
"e c #F0DE43",
"r c #FCE94F",
"t c #F1E155",
"y c #F5E555",
"u c #F6E559",
"i c #F5E560",
"p c #F8E761",
"a c #FCEB60",
"s c #FCEC6F",
"d c #FCED7D",
"f c #224A83",
"g c #234B84",
"h c #214A87",
"j c #224D88",
"k c #29528A",
"l c #2A558F",
"z c #2C568F",
"x c #2D5790",
"c c #386397",
"v c #366299",
"b c #3B659E",
"n c #3A6AA8",
"m c #3C6CA9",
"M c #426280",
"N c #406A99",
"B c #4471A4",
"V c #4876A8",
"C c #4E7AB4",
"Z c #547FB4",
"A c #779883",
"S c #779D9F",
"D c #5881A2",
"F c #5987B1",
"G c #5B86BB",
"H c #5C86BD",
"J c #5F8BBA",
"K c #5E8EBA",
"L c #5E8ABE",
"P c #6D96AE",
"I c #668FB2",
"U c #6089BF",
"Y c #608CBE",
"T c #6D98BE",
"R c #7199B1",
"E c #7DA5B1",
"W c #648FC0",
"Q c #6B93C1",
"! c #6C93C6",
"~ c #6996C7",
"^ c #719ECE",
"/ c #799ECE",
"( c #7DA1CB",
") c #80A08D",
"_ c #84A494",
"` c #9FBB9B",
"' c #91B0BB",
"] c #FCEE89",
"[ c #FCEF94",
/* pixels */
"KKBzjjxBKKKKKKKK",
"Kvb~^^~bvKKKKKKK",
"Bb^_('wEbBKKKKKK",
"l~9Q/`08RlKKKKKK",
"j^ZU!q-6SjKKKKKK",
"h~4AH)7&Ih=====$",
"l~3%DCO5Y.iiii1=",
"VbTXnmoPb#,,,,y=",
"KcbYGLWb :,,,,u=",
"KFNkhh.+;,,,,,p=",
"KKKKK*s<<<<<<<s=",
"KKKKK=seeeeetes=",
"KKKKK=]]]]]]][d=",
"KKKKK=e,,,,,,,e=",
"KKKKK=arrrrrrra=",
"KKKKK@=========2"
};
