/* XPM */
static char *internet_mail[] = {
/* columns rows colors chars-per-pixel */
"16 16 51 1",
"  c #5E5E8E8EBABA",
". c #88888A8A8585",
"X c #8A8A8C8C8787",
"o c #8B8B8D8D8888",
"O c #8C8C8E8E8989",
"+ c #8F8F91918D8D",
"@ c #909092928E8E",
"# c #939395959090",
"$ c #AAAAABABA7A7",
"% c #ADADADADABAB",
"& c #B5B5B6B6B3B3",
"* c #BEBEBFBFBCBC",
"= c #C0C0C0C0BFBF",
"- c #C4C4C5C5C2C2",
"; c #C6C6C7C7C4C4",
": c #C8C8C8C8C6C6",
"> c #C9C9C9C9C9C9",
", c #CBCBCCCCCBCB",
"< c #CECECECECCCC",
"1 c #D0D0D1D1CFCF",
"2 c #D3D3D7D7CFCF",
"3 c #D3D3D3D3D1D1",
"4 c #D4D4D7D7D0D0",
"5 c #D4D4D4D4D4D4",
"6 c #D4D4D8D8D0D0",
"7 c #D7D7DADAD3D3",
"8 c #D8D8DBDBD4D4",
"9 c #D8D8DCDCD5D5",
"0 c #D9D9D9D9D8D8",
"q c #DADADCDCD8D8",
"w c #DCDCDDDDDBDB",
"e c #DDDDDEDEDADA",
"r c #DFDFE2E2DCDC",
"t c #E0E0E0E0DEDE",
"y c #E3E3E3E3E2E2",
"u c #E5E5E7E7E3E3",
"i c #E6E6E7E7E5E5",
"p c #E7E7E8E8E6E6",
"a c #E8E8EAEAE6E6",
"s c #E9E9E9E9E8E8",
"d c #EBEBECECEAEA",
"f c #EEEEEFEFEDED",
"g c #EEEEF0F0EDED",
"h c #F1F1F2F2EFEF",
"j c #F2F2F2F2F0F0",
"k c #F2F2F4F4F1F1",
"l c #F4F4F5F5F3F3",
"z c #F5F5F6F6F4F4",
"x c #FAFAFAFAF9F9",
"c c #FDFDFDFDFDFD",
"v c #FEFEFEFEFEFE",
/* pixels */
"     .....      ",
"    Oixvxa@     ",
"   Ogf647ff@    ",
"  odg66244gfO   ",
" Xph4222462sso  ",
".yk62226,*>>jao ",
"Ov9896,=3ihy-v# ",
"Ovrq;;0sjjhf-v+ ",
"Ov,;whjjjjjj3vO ",
"Ovi38w,;,3y,pv@ ",
"Ovai-*ifa4%wav@ ",
"Ovas5xzhjjj5av@ ",
"Ova0zkggdddfwv@ ",
"Ovtjgffddpuuiv@ ",
"ovlzzzkkjjhjhv@ ",
".$&&&&&&&&&&&$. "
};
