/* XPM */
static char *invest_applet[] = {
/* columns rows colors chars-per-pixel */
"16 16 102 2",
"   c #603B6A",
".  c #643F6D",
"X  c #545658",
"o  c #58525A",
"O  c #5C575B",
"+  c #5D575D",
"@  c #555859",
"#  c #55595C",
"$  c #5B5B5E",
"%  c #5B5F5D",
"&  c #5C605F",
"*  c #5D615F",
"=  c #575E61",
"-  c #585B60",
";  c #595C62",
":  c #5B5E65",
">  c #595F69",
",  c #65416E",
"<  c #684471",
"1  c #6A4773",
"2  c #6C4975",
"3  c #6F4A76",
"4  c #715576",
"5  c #75507B",
"6  c #74557B",
"7  c #77527D",
"8  c #76557D",
"9  c #5F6362",
"0  c #596064",
"q  c #5A6267",
"w  c #5A6367",
"e  c #56636B",
"r  c #56646E",
"t  c #5A6368",
"y  c #5A6469",
"u  c #7A5880",
"i  c #7D5A82",
"p  c #7E5C83",
"a  c #7F6186",
"s  c #7F6A81",
"d  c #815F86",
"f  c #826386",
"g  c #806684",
"h  c #846D87",
"j  c #84648A",
"k  c #87678C",
"l  c #876A8C",
"z  c #886C8C",
"x  c #8D6F90",
"c  c #8C7391",
"v  c #917994",
"b  c #927897",
"n  c #967E9B",
"m  c #5D87AD",
"M  c #5D88AF",
"N  c #5D89B0",
"B  c #5E8CB6",
"V  c #5E8EBA",
"C  c #968D96",
"Z  c #978399",
"A  c #978598",
"S  c #99809D",
"D  c #99879D",
"F  c #9A959A",
"G  c #9E86A2",
"H  c #9F8EA1",
"J  c #9E90A0",
"K  c #A38CA7",
"L  c #A091A1",
"P  c #A699A7",
"I  c #A796AA",
"U  c #A996AC",
"Y  c #A99EAB",
"T  c #AC9AB0",
"R  c #AF9DB1",
"E  c #ACA4AC",
"W  c #AFA5AF",
"Q  c #B4A5B7",
"!  c #B2AAB3",
"~  c #BAAABC",
"^  c #BCB2BF",
"/  c #BAB8B9",
"(  c #C1B3C2",
")  c #C7BAC7",
"_  c #C6C2C4",
"`  c #CACBC8",
"'  c #CDCDCB",
"]  c #CECECC",
"[  c #CFCFCD",
"{  c #D1D2CF",
"}  c #D1CAD2",
"|  c #D4D4D2",
" . c #DBDADB",
".. c #DCDCDA",
"X. c #DDD8DC",
"o. c #DFDEDD",
"O. c #E0E0DE",
"+. c #E1E1DF",
"@. c #E1E1E0",
"#. c #E4E4E2",
"$. c #E9E8E8",
"%. c #EEEEEC",
/* pixels */
"V V V V V V V V V V V V V V V V ",
"B e q q q q q y q q t y t y r V ",
"m % { { { ' { [ { [ ` ' ' ' % M ",
"m 9 %.%.%.@.%.%.%.%.#.%.%.%.9 M ",
"m 9 +.+.+.| +.+.+.+.D R o.+.* N ",
"m 9 %.%.%...%.%.%.X.. < < R 9 M ",
"m $ %.%.%.Y $.%.%.n 8 i 3 . o M ",
"m o ^ @. .. b @.} , f i 5 5 + M ",
"N $ a o.I 6 1 R c a j f 7 5 + m ",
"m 9 3 } 2 H T , < S l j 7 5 + M ",
"m 9 U 3 a E ( b z G z k i 5 + M ",
"m 9 /   J C P J Z b s f u 5 + m ",
"m 9 %.Q X.E ) ~ R K z x d 5 $ m ",
"m % [ [ _ F ! Y J A s h p 4 O m ",
"B e q 0 = # @ X X @ # - ; : > B ",
"V V V V V V V V V V V V V V V V "
};
