/* XPM */
static char *konsole[] = {
/* columns rows colors chars-per-pixel */
"16 16 97 2",
"   c #272B2B",
".  c #282B2C",
"X  c #292D2D",
"o  c #2B2F2F",
"O  c #2C2F30",
"+  c #2D3131",
"@  c #2D3335",
"#  c #2E3436",
"$  c #2F3537",
"%  c #303433",
"&  c #303434",
"*  c #30373A",
"=  c #31373A",
"-  c #31383B",
";  c #353A3B",
":  c #373B3B",
">  c #363B3C",
",  c #383C3C",
"<  c #3C3F3E",
"1  c #3D4140",
"2  c #3D4343",
"3  c #424645",
"4  c #434646",
"5  c #444746",
"6  c #454847",
"7  c #434848",
"8  c #464948",
"9  c #464B4B",
"0  c #494D4D",
"q  c #4D504F",
"w  c #4E5352",
"e  c #525553",
"r  c #545754",
"t  c #565956",
"y  c #585B5B",
"u  c #595C59",
"i  c #5D5F5B",
"p  c #5C5F5D",
"a  c #5F605D",
"s  c #445B6E",
"d  c #455F73",
"f  c #5E6261",
"g  c #5F6261",
"h  c #496276",
"j  c #626461",
"k  c #656867",
"l  c #6A6D69",
"z  c #6B6E6B",
"x  c #6C6E6B",
"c  c #6F716D",
"v  c #6C7070",
"b  c #727470",
"n  c #737573",
"m  c #747571",
"M  c #747672",
"N  c #757874",
"B  c #757875",
"V  c #777A76",
"C  c #787A76",
"Z  c #7A7C77",
"A  c #787A78",
"S  c #7A7C79",
"D  c #7F807C",
"F  c #8AE234",
"G  c #80827E",
"H  c #82847F",
"J  c #5E8EBA",
"K  c #808381",
"L  c #878984",
"P  c #878987",
"I  c #8A8C88",
"U  c #8B8D88",
"Y  c #8D908C",
"T  c #939592",
"R  c #979894",
"E  c #999B97",
"W  c #9D9F9B",
"Q  c #A2A4A0",
"!  c #A6A8A3",
"~  c #ABADA8",
"^  c #AFB0AC",
"/  c #B4B6B2",
"(  c #B8B9B5",
")  c #BABCB7",
"_  c #BDBFBA",
"`  c #C5C6C2",
"'  c #C7C8C4",
"]  c #CACBC8",
"[  c #CDCFCA",
"{  c #CFD1CD",
"}  c #D2D3CF",
"|  c #D4D5D1",
" . c #D5D7D2",
".. c #D6D7D3",
"X. c #EEEEEC",
"o. c #F0F0EE",
"O. c #F0F0EF",
/* pixels */
"J J J J J J J J J J J J J J J J ",
"h = # # # @ # # # # @ @ # # - h ",
"= { ........| ....| [ ] ' ` ) - ",
"# ..7   . X X + O + + + # 8 ( # ",
"# ..& j j a a t w 0 6 1 : < ^ # ",
"@ .., V R T U P J A V v 4 6 ! # ",
"@ [ 4 j O.S V v l j g y , q W # ",
"@ ` q c D O.V n c a w 8 4 u T # ",
"# _ t r u a o.e 8 5 < < % j H : ",
"# / g u u X.t e q q 6 < < x H % ",
"# ~ z 7 X.4 3 X.X.X.% + X m Z % ",
"# Q m 7 9 7 4 4 < < < % % G C % ",
"# E F F G G H H G a i L a t m # ",
"* Y I P H D Z V V m m m m n c = ",
"h # # # # # # # # # # # # # # d ",
"J s # # # # # # # # # # # # s J "
};
