/* XPM */
static char *ksysguard[] = {
/* columns rows colors chars-per-pixel */
"16 16 86 1",
"  c #397503",
". c #555753",
"X c #565854",
"o c #575A57",
"O c #575A58",
"+ c #5C5E59",
"@ c #60625E",
"# c #61635E",
"$ c #656863",
"% c #666864",
"& c #6B6D69",
"* c #6F726D",
"= c #70726D",
"- c #747772",
"; c #757772",
": c #7A7C77",
"> c #7A7E7A",
", c #4E9A06",
"< c #4F9A07",
"1 c #509B09",
"2 c #5FA20C",
"3 c #59A016",
"4 c #5FA41D",
"5 c #65A40F",
"6 c #7AB344",
"7 c #94B924",
"8 c #CED43C",
"9 c #D2D53D",
"0 c #80827D",
"q c #81847F",
"w c #82847F",
"e c #ABC744",
"r c #BDCF4C",
"t c #B3CD5B",
"y c #BDD15D",
"u c #CFD85D",
"i c #F0E449",
"p c #F3E54B",
"a c #FCE94F",
"s c #C5D66A",
"d c #5D798D",
"f c #6F8BA0",
"g c #7590A4",
"h c #838580",
"j c #858782",
"k c #858882",
"l c #878984",
"z c #868985",
"x c #898C88",
"c c #AEAFAA",
"v c #B1B3AE",
"b c #B4B5B2",
"n c #B8B9B5",
"m c #BDD9A2",
"M c #ECE98C",
"N c #C1C4BE",
"B c #FDF5AF",
"V c #C7C9C3",
"C c #CACCC6",
"Z c #CCCEC9",
"A c #CED0CB",
"S c #CFD1CC",
"D c #D1D3CE",
"F c #D4D6D1",
"G c #D6D7D3",
"H c #D7D8D4",
"J c #D8DAD7",
"K c #DCDDD9",
"L c #DFE0DC",
"P c #E2E2E1",
"I c #E5E6E4",
"U c #E6E6E4",
"Y c #E7E8E6",
"T c #E8E9E6",
"R c #EAEBE9",
"E c #ECEDEB",
"W c #EEEEEC",
"Q c #EFF0EE",
"! c #F1F1F0",
"~ c #F2F2F1",
"^ c #F3F3F2",
"/ c #F7F7F6",
"( c #F8F9F8",
") c #FBFBFA",
"_ c #FCFCFB",
"` c #FCFCFC",
/* pixels */
"gxzzzjkjwjh000wf",
"z/__``_`__))_)~>",
"0`           L);",
":_ 7,767,7,7 K/*",
";) ,,4`3,,,, H(&",
"=) 7,uBr,7,7 H/%",
"&) ,5i79,,,, F~@",
"%) aa8,i59aa D~+",
"#( ,,,,tsM3, A~X",
"+/ 7,7,e`y,7 ZQX",
"X( ,,,,,m<,, CEX",
"X^ 7,71717,7 VRX",
"X^           NRX",
".QnGbAvAcCVVNNYX",
"+UPWLELELYUYUUHO",
"dO.X...XXXXXXXOd"
};
