/* XPM */
static char *logviewer[] = {
/* columns rows colors chars-per-pixel */
"16 16 82 1",
"  c #2E3436",
". c #5B5B5B",
"X c #476076",
"o c #666666",
"O c #6B6B6B",
"+ c #6C6C6C",
"@ c #7F8F9A",
"# c #5E8EBA",
"$ c #678DAE",
"% c #648DB3",
"& c #608EB7",
"* c #628FB8",
"= c #838383",
"- c #818586",
"; c #848484",
": c #888A85",
"> c #8A8C87",
", c #878E8D",
"< c #888888",
"1 c #898989",
"2 c #898C89",
"3 c #8B8D88",
"4 c #898D8A",
"5 c #8A8F8E",
"6 c #8E908B",
"7 c #90938F",
"8 c #92948F",
"9 c #839097",
"0 c #859298",
"q c #919390",
"w c #919490",
"e c #959892",
"r c #999B96",
"t c #9C9F9B",
"y c #9FA39D",
"u c #A0A39E",
"i c #A2A49F",
"p c #A3A6A0",
"a c #A5A6A3",
"s c #A7AAA3",
"d c #A7AAA4",
"f c #A7A9A6",
"g c #AAADA7",
"h c #ABACAA",
"j c #AFB2AC",
"k c #B8BCB5",
"l c #C1C5BF",
"z c #C3C5C1",
"x c #C5C5C5",
"c c #C6C9C3",
"v c #CACACA",
"b c #CBCBCB",
"n c #CACCC8",
"m c #CFCFCF",
"M c #CED0CC",
"N c #D0D3CB",
"B c #D0D3CC",
"V c #D1D4CC",
"C c #D3D3D1",
"Z c #D2D2D2",
"A c #D5D9D2",
"S c #D7D9D6",
"D c #D9DDD6",
"F c #DBDFD9",
"G c #DEDFDE",
"H c #DEE1DB",
"J c #E0E3DD",
"K c #E2E3E2",
"L c #E4E6E2",
"P c #E7E7E7",
"I c #E7E9E5",
"U c #E8E9E5",
"Y c #EAEBE8",
"T c #F0F2EF",
"R c #F1F1F0",
"E c #F2F2F1",
"W c #F7F7F6",
"Q c #F7F8F7",
"! c #F8F9F8",
"~ c #FBFBFA",
"^ c #FCFDFC",
"/ c #FFFFFF",
/* pixels */
"%,::::44::::,&##",
"9kT/////////S@##",
":AFKtllllllyK4##",
"::6/DDDDDDDF/>##",
"#&wKu1  1ccpK4##",
"#&q~1+//+1HH~:##",
"#&7Z /PP/ naH2##",
"#&7Z /PP/ KLQ>##",
"#&6vOO//o=MfH4##",
"#&b -.  ;IIUQ1##",
"#x 9 mCCZZZhH4##",
"# ; mYUUUIIUE4*&",
"#X vlhgsuutre734",
"#&1WUaTTEETEEEL:",
"##0SzdBBBBBBBBj5",
"##%53:::::::::3$"
};
