/* XPM */
static char *miro[] = {
/* columns rows colors chars-per-pixel */
"16 16 101 2",
"   c #7A7A12123535",
".  c #7B7B12123535",
"X  c #828215153434",
"o  c #838316163636",
"O  c #8A8A18183333",
"+  c #8A8A18183434",
"@  c #868616163838",
"#  c #8B8B18183B3B",
"$  c #95951E1E3737",
"%  c #99991E1E3030",
"&  c #ADAD1F1F3939",
"*  c #9F9F21213030",
"=  c #9B9B23233939",
"-  c #A8A825252F2F",
";  c #B0B028282D2D",
":  c #B7B72C2C2D2D",
">  c #BEBE2F2F2C2C",
",  c #A6A627273535",
"<  c #AEAE20203A3A",
"1  c #ACAC23233E3E",
"2  c #BEBE23233131",
"3  c #B9B923233434",
"4  c #BEBE2C2C3C3C",
"5  c #B7B732323636",
"6  c #C4C425252E2E",
"7  c #C7C729292F2F",
"8  c #C6C633332B2B",
"9  c #CDCD37372B2B",
"0  c #D4D438382929",
"q  c #DBDB3B3B2828",
"w  c #DBDB3C3C2A2A",
"e  c #DCDC3D3D2A2A",
"r  c #C7C729293030",
"t  c #C9C92C2C3131",
"y  c #CACA2E2E3232",
"u  c #CECE36363737",
"i  c #DCDC40402C2C",
"p  c #D6D640403030",
"a  c #D3D340403D3D",
"s  c #96961B1B4141",
"d  c #9C9C20204040",
"f  c #A9A926264444",
"g  c #AEAE2C2C4646",
"h  c #B5B52D2D4141",
"j  c #B7B730304444",
"k  c #BCBC37374646",
"l  c #BFBF3C3C4343",
"z  c #B8B837374C4C",
"x  c #C6C63C3C4646",
"c  c #CECE45454A4A",
"v  c #C7C749494949",
"b  c #CCCC49494F4F",
"n  c #D4D444444242",
"m  c #D3D344444444",
"M  c #D5D549494646",
"N  c #DADA4C4C4545",
"B  c #D5D553534747",
"V  c #DEDE53534949",
"C  c #DBDB57574C4C",
"Z  c #CECE51515353",
"A  c #D3D35A5A5656",
"S  c #D8D85C5C5656",
"D  c #E2E25C5C4E4E",
"F  c #D9D963635A5A",
"G  c #E6E66C6C5B5B",
"H  c #E3E368685E5E",
"J  c #D8D860606060",
"K  c #DBDB6D6D6B6B",
"L  c #DFDF6E6E6A6A",
"P  c #E6E67C7C6363",
"I  c #EAEA7C7C6060",
"U  c #EBEB7F7F6464",
"Y  c #E1E170706868",
"T  c #E3E37B7B7373",
"R  c #E1E17B7B7979",
"E  c #ECEC81816363",
"W  c #ECEC86866C6C",
"Q  c #E7E783837A7A",
"!  c #E5E584847E7E",
"~  c #F1F19E9E7D7D",
"^  c #5E5E8E8EBABA",
"/  c #EDED96968686",
"(  c #EEEE9B9B8E8E",
")  c #E7E794949090",
"_  c #EFEFA0A08787",
"`  c #F1F1AAAA9393",
"'  c #F1F1A8A89797",
"]  c #F5F5B0B09191",
"[  c #D2D2BFBFCBCB",
"{  c #D3D3C0C0CCCC",
"}  c #DADAC5C5CDCD",
"|  c #E3E3CBCBCFCF",
" . c #EEEEDEDEE1E1",
".. c #D4D4EEEEFCFC",
"X. c #DDDDF2F2FCFC",
"o. c #EEEEE4E4E7E7",
"O. c #EFEFEBEBEFEF",
"+. c #E7E7F6F6FDFD",
"@. c #F9F9F1F1F1F1",
"#. c #F1F1F9F9FEFE",
"$. c #FBFBFDFDFEFE",
/* pixels */
"^ ^ ^ ^ ^ ^ ^ ^ ^ ^ ^ ^ ^ ^ ^ ^ ",
"^ ^ ^ ^ ^ ^ ^ ^ ^ i e q w ^ ^ ^ ",
"^ ^ ^ ^ ^ ^ ^ p P _ ' ( Q C 0 ^ ",
"^ ^ ^ ^ ^ 9 B ` ] ~ U G H ! S 9 ",
"^ ^ ^ ^ 8 F / W E I G D V V R 7 ",
"^ ^ ^ > A $.$.$.$.$.$.@.) M K > ",
"^ ^ : v L #. .T #.#.Y o.O.M F ; ",
"^ ^ 5 J n +.| N +.+.M | +.m Z ; ",
"^ - b m u X.} n X.X.u } +.m l - ",
"* g x r y ..{ u ....u [ ..b , ^ ",
"% = z 4 6 r y y y y y 7 y k % ^ ",
"^ $ $ g h 3 2 6 6 6 2 3 j = O ^ ",
"^ ^ O O d f 1 < & & < f = + ^ ^ ",
"^ ^ ^ ^   X # s s s s @ X ^ ^ ^ ",
"^ ^ ^ ^ ^ ^           ^ ^ ^ ^ ^ ",
"^ ^ ^ ^ ^ ^ ^ ^ ^ ^ ^ ^ ^ ^ ^ ^ "
};
