/* XPM */
static char *nautilus_actions[] = {
/* columns rows colors chars-per-pixel */
"16 16 58 1",
"  c #424277770C0C",
". c #454579790E0E",
"X c #4A4A79791717",
"o c #4C4C7E7E1616",
"O c #4B4B7B7B1919",
"+ c #505053534E4E",
"@ c #535355555252",
"# c #565657575555",
"$ c #5A5A5A5A5959",
"% c #5A5A5B5B5959",
"& c #5E5E5F5F5D5D",
"* c #616162625F5F",
"= c #676769696666",
"- c #69696B6B6969",
"; c #6C6C6E6E6B6B",
": c #707070706F6F",
"> c #737375757272",
", c #757575757474",
"< c #747478787373",
"1 c #7A7A7C7C7A7A",
"2 c #4E4E81811919",
"3 c #535382822121",
"4 c #555585852323",
"5 c #7F7F82827D7D",
"6 c #8989ACAC4545",
"7 c #9090B1B14E4E",
"8 c #9696B7B75757",
"9 c #9D9DBBBB5E5E",
"0 c #808080807E7E",
"q c #A2A2C1C16666",
"w c #B3B3CFCF7D7D",
"e c #5E5E8E8EBABA",
"r c #858586868383",
"t c #88888A8A8585",
"y c #8A8A8C8C8787",
"u c #8C8C8E8E8A8A",
"i c #A2A2A4A49E9E",
"p c #A2A2A4A4A0A0",
"a c #A5A5A7A7A3A3",
"s c #B1B1B3B3AEAE",
"d c #BEBEBFBFBEBE",
"f c #B8B8D2D28484",
"g c #BDBDD7D78B8B",
"h c #BEBEC0C0BBBB",
"j c #C2C2DADA9292",
"k c #C7C7DEDE9999",
"l c #C6C6C9C9C3C3",
"z c #C8C8CACAC4C4",
"x c #D2D2D2D2D2D2",
"c c #D3D3D3D3D3D3",
"v c #D4D4D5D5D3D3",
"b c #DDDDDDDDDDDD",
"n c #E1E1E1E1E1E1",
"m c #E4E4E4E4E4E4",
"M c #EBEBEBEBEBEB",
"N c #ECECECECECEC",
"B c #F6F6F6F6F6F6",
"V c #FFFFFFFFFFFF",
/* pixels */
"eettttttttttteee",
"etdxxxxccccchtee",
"tvBBBBBBBBBBBcte",
"tbbbbbbbbbbbbbte",
"tb-;r$VV4  Orbre",
"tn&ya:>, kk 1nte",
"tn#tpshz jj 1nte",
"tn@=<5tu gg >nte",
"tmmm3   2ff2   .",
"tm;; wwwwwwwwww ",
"tm*u qqqqqqqqqq ",
"tM$uO   o99o   .",
"tM@tishl 88 1Mte",
"tM+=>0yu 77 >Nte",
"tMMMNNNN 66 NMte",
"tttyttttX  Xttte"
};
