/* XPM */
static char *notification_properties[] = {
/* columns rows colors chars-per-pixel */
"16 16 52 1",
"  c #2E3436",
". c #303638",
"X c #373E41",
"o c #354148",
"O c #36434D",
"+ c #364755",
"@ c #384D5E",
"# c #3E566B",
"$ c #3F5D7A",
"% c #3F5F7D",
"& c #3F607D",
"* c #444E54",
"= c #4C565E",
"- c #466178",
"; c #40607E",
": c #40617F",
"> c #546879",
", c #436685",
"< c #4C6982",
"1 c #4D6F8C",
"2 c #496F91",
"3 c #6C7983",
"4 c #6E7B85",
"5 c #537DA3",
"6 c #2D69C1",
"7 c #2F6AC2",
"8 c #5682AA",
"9 c #5B89B3",
"0 c #5580BE",
"q c #5E8DB9",
"w c #5E8EBA",
"e c #5A89CE",
"r c #628ECD",
"t c #7797C8",
"y c #608DD0",
"u c #84A6D7",
"i c #87A8D8",
"p c #B8C9D7",
"a c #B6C7D9",
"s c #BCCDDF",
"d c #B6CEE7",
"f c #B9CFE7",
"g c #BBD1E7",
"h c #B9D0E8",
"j c #BED3EA",
"k c #C1CFDC",
"l c #C4D6E7",
"z c #C0D5EA",
"x c #C5D7E9",
"c c #C8D8E9",
"v c #C8DAED",
"b c #D2DFED",
/* pixels */
"wwwwwwwwwwwwwwww",
"wwwwwwwwwwwwwwww",
"<      .      >8",
" tiibbbbbbbbbk ;",
" iyyvvvvvvvvvb %",
" iyevvvvvvvvvb %",
" uyexzjhhddhhc %",
" r77hddddddddx %",
" r66dddddddddx %",
" r77dddddddddx %",
" 5rrlxxxxfdgxa %",
"#X......=sgl3 @%",
"5,,;,%&;+*p4o$,5",
"ewwwwwwww-Xo$2ww",
"wwwwwwwwww195www",
"wwwwwwwwwwwwwwww"
};
