/* XPM */
static char *ooo_writer[] = {
/* columns rows colors chars-per-pixel */
"16 16 59 1",
"  c #040404040404",
". c #262626262828",
"X c #2F2F30303131",
"o c #333334343636",
"O c #474748484A4A",
"+ c #68686B6B6E6E",
"@ c #747475757878",
"# c #757577777B7B",
"$ c #36366666A4A4",
"% c #39396767A3A3",
"& c #3A3A6969A7A7",
"* c #3B3B6B6BA7A7",
"= c #5A5A75758C8C",
"- c #676777778C8C",
"; c #646476768F8F",
": c #727289899D9D",
"> c #5E5E8E8EBABA",
", c #7E7E9393A6A6",
"< c #63638989B9B9",
"1 c #65658A8AB9B9",
"2 c #818181818181",
"3 c #8E8E8F8F9191",
"4 c #85859A9AABAB",
"5 c #9B9BAAAAB7B7",
"6 c #9D9DACACBBBB",
"7 c #A0A0A1A1A7A7",
"8 c #ACACADADB2B2",
"9 c #ACACB8B8C4C4",
"0 c #A5A5B8B8CDCD",
"q c #B6B6BCBCC7C7",
"w c #B1B1BEBECACA",
"e c #AAAAC0C0DEDE",
"r c #ACACC2C2DFDF",
"t c #B3B3C6C6E0E0",
"y c #BCBCCFCFE5E5",
"u c #BCBCCFCFE6E6",
"i c #C4C4C4C4C4C4",
"p c #C6C6C6C6C6C6",
"a c #C9C9D3D3E7E7",
"s c #CBCBD7D7E7E7",
"d c #CDCDD8D8E7E7",
"f c #CDCDD9D9E8E8",
"g c #D1D1D9D9E9E9",
"h c #D3D3D9D9E8E8",
"j c #D5D5DDDDEBEB",
"k c #D7D7DCDCEAEA",
"l c #D5D5DDDDECEC",
"z c #D9D9E0E0EEEE",
"x c #DCDCE1E1EDED",
"c c #DEDEE3E3EEEE",
"v c #E0E0E4E4EEEE",
"b c #E1E1E7E7EEEE",
"n c #EBEBEBEBEBEB",
"m c #ECECECECECEC",
"M c #E8E8ECECF4F4",
"N c #E8E8EEEEF4F4",
"B c #F7F7F8F8FBFB",
"V c #FAFAFBFBFCFC",
"C c #FCFCFDFDFDFD",
/* pixels */
">>>>>&*$$**<>>>>",
">>>&<MCCCCM<*>>>",
">>&d9:4cw,6Cd&>>",
">&fCMc9=5xxcVd&>",
">  #uuy+  yyyV1>",
"%b3.#7OX8ccjhbN&",
"&Cu0o +72222222;",
"$Cljjqj2CCCCCCC2",
"$Cyyuuu2CpppppC2",
"&Chjhhh2CnmmnnC2",
"&Ncer0e2CpppppC2",
"><Cjhjh2CnmmmnC2",
">&sBhtt2CpppppC2",
">>&dCza2CmmmmmC2",
">>>&1NC2CCCCCCC2",
">>>>>**-22222222"
};
