/* XPM */
static char *ooo_web[] = {
/* columns rows colors chars-per-pixel */
"16 16 80 1",
"  c #040404040404",
". c #262626262828",
"X c #333334343636",
"o c #474748484A4A",
"O c #68686B6B6E6E",
"+ c #747475757878",
"@ c #757577777B7B",
"# c #36366666A4A4",
"$ c #39396767A3A3",
"% c #3A3A6969A7A7",
"& c #3B3B6B6BA7A7",
"* c #5A5A75758C8C",
"= c #4F4F7171A2A2",
"- c #52527373A3A3",
"; c #727289899D9D",
": c #5B5B8181B2B2",
"> c #5C5C8181B1B1",
", c #5F5F8484B3B3",
"< c #5E5E8E8EBABA",
"1 c #7E7E9393A6A6",
"2 c #6A6A8686B2B2",
"3 c #67678B8BB7B7",
"4 c #63638989B8B8",
"5 c #65658A8AB9B9",
"6 c #6A6A8C8CB8B8",
"7 c #6F6F9090BBBB",
"8 c #6E6E9090BCBC",
"9 c #7D7D9595BABA",
"0 c #7D7D9696BBBB",
"q c #7C7C9B9BC3C3",
"w c #8E8E8F8F9191",
"e c #85859A9AABAB",
"r c #9B9BAAAAB7B7",
"t c #A0A0A1A1A7A7",
"y c #ACACADADB2B2",
"u c #87879E9EC1C1",
"i c #81819F9FC5C5",
"p c #8D8DA3A3C5C5",
"a c #9B9BAEAECCCC",
"s c #9D9DAFAFCCCC",
"d c #9797AFAFD0D0",
"f c #9B9BB3B3D2D2",
"g c #ACACB8B8C4C4",
"h c #A5A5B8B8CDCD",
"j c #B6B6BCBCC7C7",
"k c #A1A1B5B5D3D3",
"l c #A4A4B4B4D0D0",
"z c #A8A8B8B8D1D1",
"x c #ABABC2C2DFDF",
"c c #B3B3C1C1D8D8",
"v c #B1B1C5C5DFDF",
"b c #BCBCC7C7DCDC",
"n c #B5B5C8C8DEDE",
"m c #ABABC2C2E0E0",
"M c #B3B3C7C7E1E1",
"N c #B4B4C7C7E1E1",
"B c #B8B8CACAE3E3",
"V c #BBBBCECEE5E5",
"C c #BCBCCFCFE5E5",
"Z c #BCBCCFCFE6E6",
"A c #C0C0CBCBE1E1",
"S c #C6C6D0D0E3E3",
"D c #CBCBD2D2E2E2",
"F c #C9C9D3D3E7E7",
"G c #CBCBD7D7E7E7",
"H c #CCCCD5D5E7E7",
"J c #CDCDD8D8E7E7",
"K c #CFCFD7D7E8E8",
"L c #CDCDD9D9E8E8",
"P c #D1D1D8D8EAEA",
"I c #D5D5DDDDECEC",
"U c #D7D7DEDEECEC",
"Y c #D9D9E0E0EEEE",
"T c #DCDCE1E1EDED",
"R c #E1E1E7E7EEEE",
"E c #E8E8ECECF4F4",
"W c #E8E8EEEEF4F4",
"Q c #F3F3F6F6F9F9",
"! c #F7F7F9F9FBFB",
"~ c #FCFCFDFDFDFD",
/* pixels */
"<<<<<%%##%$<<<<<",
"<<<%3E~~~~W3$<<<",
"<<%Jg;eRc1r~J&<<",
"<%L~EIg*rTTs!J%<",
"<  @ZZVO  V,7~3<",
"$Rw.@toXyYY09bW%",
"%~ZhX OnCnqp:6~%",
"#~cIIjIIp==-29~#",
"#~afdBZB7,:,6f~#",
"%~Iz0sHLSbu0pG~&",
"%WTq>>7mmmq:pIW&",
"<5~Du0lKLPa0n~5<",
"<%H!u3MBNNdf!J&<",
"<<%J~AFAFKI!G%<<",
"<<<%5E~~~~W3%<<<",
"<<<<<%%##&%<<<<<"
};
