/* XPM */
static char *ooo_printeradmin[] = {
/* columns rows colors chars-per-pixel */
"16 16 77 1",
"  c #040404040404",
". c #262626262828",
"X c #2E2E32323737",
"o c #313131313131",
"O c #333334343636",
"+ c #3C3C3F3F4242",
"@ c #35354A4A6666",
"# c #383853537676",
"$ c #424243434343",
"% c #484849494B4B",
"& c #4B4B4C4C4E4E",
"* c #68686B6B6E6E",
"= c #747475757878",
"- c #757577777B7B",
"; c #7D7D7E7E7A7A",
": c #36366666A4A4",
"> c #39396767A3A3",
", c #3A3A6969A7A7",
"< c #3B3B6A6AA7A7",
"1 c #3B3B6B6BA7A7",
"2 c #5A5A75758C8C",
"3 c #787886869797",
"4 c #727289899D9D",
"5 c #5E5E8E8EBABA",
"6 c #63638989B8B8",
"7 c #65658A8AB9B9",
"8 c #88888A8A8585",
"9 c #89898B8B8686",
"0 c #8D8D8F8F8A8A",
"q c #8E8E8F8F9191",
"w c #999998989292",
"e c #9B9B9E9E9C9C",
"r c #85859A9AABAB",
"t c #9B9BAAAAB7B7",
"y c #A0A0A1A1A7A7",
"u c #ADADADADABAB",
"i c #B5B5B3B3AEAE",
"p c #B8B8B8B8B5B5",
"a c #BDBDBBBBB4B4",
"s c #ACACB8B8C4C4",
"d c #ACACBABAC5C5",
"f c #A5A5B8B8CDCD",
"g c #B6B6BCBCC7C7",
"h c #B1B1BEBECACA",
"j c #AAAAC1C1DEDE",
"k c #BABACACAE1E1",
"l c #BABACECEE5E5",
"z c #BCBCCDCDE4E4",
"x c #BCBCCFCFE6E6",
"c c #C3C3C3C3C3C3",
"v c #C5C5C5C5C5C5",
"b c #C9C9C9C9C9C9",
"n c #D3D3D3D3D0D0",
"m c #D8D8D8D8D8D8",
"M c #D9D9D9D9D9D9",
"N c #DCDCDCDCD9D9",
"B c #CBCBD7D7E7E7",
"V c #CECED6D6E5E5",
"C c #CDCDD8D8E7E7",
"Z c #CDCDD9D9E8E8",
"A c #D2D2DADAE8E8",
"S c #D5D5DADAE8E8",
"D c #D5D5DDDDEBEB",
"F c #DADAE0E0ECEC",
"G c #DCDCE2E2EEEE",
"H c #E3E3E3E3E3E3",
"J c #E4E4E4E4E4E4",
"K c #E6E6E6E6E4E4",
"L c #E1E1E7E7EEEE",
"P c #ECECECECECEC",
"I c #F0F0EFEFECEC",
"U c #E8E8ECECF4F4",
"Y c #E8E8EEEEF4F4",
"T c #F7F7F8F8FBFB",
"R c #FAFAFBFBFCFC",
"E c #FBFBFCFCFDFD",
"W c #FCFCFDFDFDFD",
/* pixels */
"5555511>:1165555",
"555,7UWWWWU71555",
"55,Cd4rLhrtWZ,55",
"5,ZWUDs2tDGGWC15",
"5  -xxx*  xxxR75",
">Lq.-y%;89998eY,",
",WxfO *8WWWWW9W,",
":WDDDgA8WvcvW8R:",
":Exlxlk8WKHJR8W:",
"1RSSDDV8PbbvP9W,",
",UDzj3+8NmmMN8$#",
"56WSV&a9008889iX",
"5,VTDoKIIIIPIINo",
"55,VEonwwwwwwwNo",
"555,6opuuuuuuupo",
"55555@oooooooooo"
};
