/* XPM */
static char *ooo_draw[] = {
/* columns rows colors chars-per-pixel */
"16 16 97 2",
"   c #000000000000",
".  c #040404040404",
"X  c #141414141414",
"o  c #1B1B1B1B1B1B",
"O  c #1F1F1F1F1F1F",
"+  c #262626262828",
"@  c #2E2E2E2E2E2E",
"#  c #333334343636",
"$  c #3C3C3C3C3C3C",
"%  c #6E6E42421414",
"&  c #717147471C1C",
"*  c #777752522B2B",
"=  c #1C1C30304A4A",
"-  c #474748484A4A",
";  c #515151515151",
":  c #5D5D5D5D5D5D",
">  c #68686B6B6E6E",
",  c #747475757373",
"<  c #747475757878",
"1  c #757577777B7B",
"2  c #A4A45D5D1111",
"3  c #A7A75F5F1212",
"4  c #80805D5D3838",
"5  c #C3C36B6B0E0E",
"6  c #C1C16C6C1515",
"7  c #E4E47E7E1212",
"8  c #8E8E6A6A4343",
"9  c #8A8A6C6C4848",
"0  c #8E8E76765D5D",
"q  c #8B8B81817676",
"w  c #909080807171",
"e  c #36366666A4A4",
"r  c #39396767A3A3",
"t  c #3A3A6969A7A7",
"y  c #3B3B6A6AA7A7",
"u  c #3B3B6B6BA7A7",
"i  c #5A5A75758C8C",
"p  c #727289899D9D",
"a  c #5E5E8E8EBABA",
"s  c #7E7E9393A6A6",
"d  c #63638989B8B8",
"f  c #65658A8AB9B9",
"g  c #88888A8A8585",
"h  c #8E8E8F8F9191",
"j  c #929294949191",
"k  c #9F9F9B9B9292",
"l  c #A1A190908484",
"z  c #85859A9AABAB",
"x  c #90909898A2A2",
"c  c #9B9BAAAAB7B7",
"v  c #9D9DACACBBBB",
"b  c #A0A0A1A1A7A7",
"n  c #A6A6A9A9ACAC",
"m  c #A2A2A7A7B3B3",
"M  c #ACACADADB2B2",
"N  c #B3B3B4B4B1B1",
"B  c #B7B7B7B7B4B4",
"V  c #ACACB8B8C4C4",
"C  c #B6B6BBBBC6C6",
"Z  c #B6B6BCBCC7C7",
"A  c #B1B1BEBECACA",
"S  c #ABABC2C2DFDF",
"D  c #B0B0C4C4DFDF",
"F  c #B5B5C8C8DEDE",
"G  c #B3B3C6C6E0E0",
"H  c #B5B5C7C7E1E1",
"J  c #B5B5C8C8E1E1",
"K  c #BABACDCDE5E5",
"L  c #BBBBCECEE5E5",
"P  c #BCBCCFCFE5E5",
"I  c #BCBCCFCFE6E6",
"U  c #C3C3C4C4C3C3",
"Y  c #C9C9CECEDEDE",
"T  c #D5D5D5D5D5D5",
"R  c #DCDCDCDCDCDC",
"E  c #C8C8D3D3E7E7",
"W  c #CDCDD8D8E7E7",
"Q  c #C9C9D4D4E8E8",
"!  c #CCCCD6D6E8E8",
"~  c #CDCDD9D9E8E8",
"^  c #D3D3D9D9E8E8",
"/  c #D0D0D8D8EAEA",
"(  c #D4D4DBDBE8E8",
")  c #D7D7DCDCEAEA",
"_  c #D5D5DDDDECEC",
"`  c #DFDFE3E3EBEB",
"'  c #DADAE0E0ECEC",
"]  c #DEDEE3E3EEEE",
"[  c #E0E0E4E4EEEE",
"{  c #E1E1E7E7EEEE",
"}  c #E7E7EDEDF4F4",
"|  c #E8E8ECECF4F4",
" . c #F5F5F4F4F2F2",
".. c #F4F4F4F4F4F4",
"X. c #F7F7F8F8FBFB",
"o. c #FAFAFBFBFCFC",
"O. c #FCFCFDFDFDFD",
/* pixels */
"a a a a a t u e e u t a a a a a ",
"a a a t f | O.O.O.O.} f t a a a ",
"a a t W V p z ` A s v O.W u a a ",
"a t ~ O.| ' V i c ' [ ` O.W u a ",
"a . . 1 P P K > . . P P P o.f a ",
"t { h + 1 b - # M ] ) _ ~ { | y ",
"t & * q # . > F P H S D S G O.y ",
"e % 3 * 0 C _ _ ! Q E E E Q O.e ",
"r 8 % 7 3 * q J H H J H H H O.e ",
"r  .4 % 7 5 & * n / / Q / / O.t ",
"r { [ , % 7 6 k j g G A D _ } t ",
"a f O.^ l % 9 B T U g m Y O.f a ",
"a t ^ X.^ b g N M R o O o x t a ",
"a a t W O.^ C g g o $ : ; + a a ",
"a a a t d } O.O..., o # @ X . a ",
"a a a a a t t e e e = X X X X X "
};
