/* XPM */
static char *pitivi[] = {
/* columns rows colors chars-per-pixel */
"16 16 73 1",
"  c #2F2F35353737",
". c #313137373939",
"X c #323238383939",
"o c #35353B3B3C3C",
"O c #37373D3D3E3E",
"+ c #525256565454",
"@ c #545458585656",
"# c #555559595757",
"$ c #59595C5C5959",
"% c #656567676262",
"& c #666668686363",
"* c #69696B6B6666",
"= c #6B6B6C6C6767",
"- c #6B6B6D6D6868",
"; c #6C6C6E6E6969",
": c #6E6E70706B6B",
"> c #6F6F71716C6C",
", c #717172726E6E",
"< c #767672726E6E",
"1 c #747476767171",
"2 c #717175757676",
"3 c #7A7A7C7C7777",
"4 c #7A7A7B7B7A7A",
"5 c #CBCB6F6F6F6F",
"6 c #7E7E83838383",
"7 c #5E5E8E8EBABA",
"8 c #89898B8B8787",
"9 c #8F8F90908D8D",
"0 c #929298988989",
"q c #949494949393",
"w c #969697979494",
"e c #9A9A9A9A9999",
"r c #9E9E9E9E9D9D",
"t c #AFAF85858383",
"y c #A3A3ADAD9898",
"u c #BCBCA0A09F9F",
"i c #8D8D9B9BB0B0",
"p c #86869C9CBBBB",
"a c #B0B0B1B1AFAF",
"s c #AAAAAFAFB4B4",
"d c #B5B5B7B7B2B2",
"f c #B2B2B4B4B4B4",
"g c #B6B6B8B8B6B6",
"h c #BCBCBDBDB9B9",
"j c #BCBCBDBDBCBC",
"k c #C6C6A3A3A1A1",
"l c #E3E3B3B3B3B3",
"z c #A5A5C6C68383",
"x c #A5A5C0C08989",
"c c #C0C0C1C1BFBF",
"v c #C3C3D6D6B0B0",
"b c #CACADEDEB7B7",
"n c #ADADB8B8C7C7",
"m c #ABABBBBBD0D0",
"M c #C9C9CACAC7C7",
"N c #CDCDCDCDCBCB",
"B c #CFCFCFCFCECE",
"V c #D2D2D2D2C9C9",
"C c #D4D4D4D4CCCC",
"Z c #DBDBDBDBD5D5",
"A c #E0E0E0E0DADA",
"S c #E3E3E3E3DEDE",
"D c #E4E4E4E4E3E3",
"F c #E7E7E7E7E2E2",
"G c #E5E5E5E5E4E4",
"H c #EAEAEAEAE6E6",
"J c #EDEDEDEDE9E9",
"K c #F0F0F0F0EDED",
"L c #F3F3F3F3F1F1",
"P c #F6F6F6F6F4F4",
"I c #F8F8F8F8F6F6",
"U c #F9F9FAFAFAFA",
"Y c #FCFCFCFCFCFC",
/* pixels */
"7;,7777777777777",
":akt<;>777777777",
":u5lYvx0;,;77777",
"7,=3yzbUmps8-,77",
"77777,*6in%***%7",
"77777777=,%PLP%7",
"%%%%&%%%%%&PVP%7",
"%G4BG4BD4NPPCP%7",
"&rwPewKq9SAZCP&7",
"&YPYYILKHDd- j47",
"&YLPPKKJHhO+ cg7",
"&UJJJJHDS:#1XMcf",
"-LSGDSSAZo=1    ",
"&IIIPPPPP2@1>1+ ",
"*=&-&=&&&$X#=#.7",
"77777777777X .77"
};
