/* XPM */
static char *preferences_desktop_sound[] = {
/* columns rows colors chars-per-pixel */
"16 16 77 1",
"  c #2F2F35353737",
". c #303035353737",
"X c #303036363838",
"o c #323238383A3A",
"O c #343439393B3B",
"+ c #34343A3A3C3C",
"@ c #37373C3C3D3D",
"# c #414175750D0D",
"$ c #434377770C0C",
"% c #444477770E0E",
"& c #424278780C0C",
"* c #444478780E0E",
"= c #454576761212",
"- c #484874741818",
"; c #4C4C79791C1C",
": c #4D4D7A7A1D1D",
"> c #4F4F61613D3D",
", c #3A3A40404141",
"< c #3E3E43434444",
"1 c #414148484848",
"2 c #44444A4A4A4A",
"3 c #46464C4C4C4C",
"4 c #47474C4C4C4C",
"5 c #4B4B50505050",
"6 c #4D4D51515151",
"7 c #555557575353",
"8 c #565659595252",
"9 c #545458585757",
"0 c #59595B5B5656",
"q c #525257575858",
"w c #5B5B5D5D5959",
"e c #5D5D5F5F5B5B",
"r c #5F5F72724D4D",
"t c #606062625E5E",
"y c #676779795454",
"u c #5B5B60606262",
"i c #5D5D62626161",
"p c #616164646363",
"a c #656567676363",
"s c #636367676666",
"d c #69696B6B6767",
"f c #6A6A6E6E6565",
"g c #666669696A6A",
"h c #6B6B6D6D6B6B",
"j c #6C6C6E6E6969",
"k c #6F6F73737272",
"l c #717173737070",
"z c #747476767474",
"x c #78787A7A7777",
"c c #79797C7C7979",
"v c #7D7D7F7F7D7D",
"b c #6A6A94943131",
"n c #6D6D96963535",
"m c #7D7D80807F7F",
"M c #8282A5A54242",
"N c #9191B0B05454",
"B c #9595B3B35A5A",
"V c #818183837E7E",
"C c #9797B4B46363",
"Z c #9E9EB9B96969",
"A c #A4A4BDBD7272",
"S c #5E5E8E8EBABA",
"D c #828285858383",
"F c #89898C8C8686",
"G c #8E8E91918F8F",
"H c #929294948F8F",
"J c #949496969393",
"K c #9B9B9E9E9C9C",
"L c #A0A0A2A29E9E",
"P c #A5A5A8A8A3A3",
"I c #A9A9ABABA9A9",
"U c #ACACADADACAC",
"Y c #B1B1B3B3AFAF",
"T c #B3B3B6B6B4B4",
"R c #B6B6B8B8B4B4",
"E c #BDBDBEBEBCBC",
"W c #D1D1D2D2D1D1",
/* pixels */
"SSSSSSSS$$$$$$&&",
"SSSS..X$ZAAAAAZ$",
"SS .6hx$A&&$$$A$",
"S ,zcae$A&cz,&A$",
"SOcd7>-$B$0r;&N&",
"Xpl88=nCM%d=bCM&",
".xt0pr;*;Dcy;&=S",
".mwtj94O4dPFDGoS",
".hdd5iTEV4sPHcXS",
"X2mh<kWRF85TLsXS",
"S qDcq<o1sRIGoSS",
"SSX4zDJPPKKvoSSS",
"SSSX@46ugk4oSSSS",
"SSSosi<o,qioSSSS",
"SSSS+GUIJl+SSSSS",
"SSSSSX+X+oSSSSSS"
};
