/* XPM */
static char *pyrenamer[] = {
/* columns rows colors chars-per-pixel */
"16 16 82 1",
"  c #000000000000",
". c #080804040101",
"X c #090909090909",
"o c #0F0F0F0F0F0F",
"O c #323216160000",
"+ c #303030303030",
"@ c #6C6C35350909",
"# c #676767676666",
"$ c #6C6C6C6C6B6B",
"% c #BEBE66661F1F",
"& c #B5B56C6C2F2F",
"* c #CECE5B5B0000",
"= c #CECE5C5C0000",
"- c #C8C85C5C0505",
"; c #CDCD61610A0A",
": c #CBCB62620C0C",
"> c #CFCF65650F0F",
", c #D1D162620606",
"< c #D2D264640909",
"1 c #D5D567670B0B",
"2 c #D6D66B6B0B0B",
"3 c #D3D369690F0F",
"4 c #D8D86F6F0E0E",
"5 c #C3C362621313",
"6 c #C4C461611111",
"7 c #D2D26A6A1111",
"8 c #D3D36C6C1919",
"9 c #D7D771711717",
"0 c #DBDB73731111",
"q c #DDDD78781414",
"w c #D8D873731B1B",
"e c #D5D573732525",
"r c #A5A575754C4C",
"t c #98987F7F6565",
"y c #DDDD82822F2F",
"u c #E5E585852121",
"i c #E0E086863131",
"p c #F6F6A7A73A3A",
"a c #F8F8A7A73838",
"s c #F8F8A8A83939",
"d c #FCFCAFAF3E3E",
"f c #8F8F85857676",
"g c #8D8D86867B7B",
"h c #8C8C86867D7D",
"j c #DEDE8F8F5151",
"k c #DEDE94945757",
"l c #EAEA9D9D4A4A",
"z c #ECECA1A14E4E",
"x c #F0F0A2A24848",
"c c #F5F5ABAB4A4A",
"v c #FCFCB2B24545",
"b c #F5F5ADAD5252",
"n c #DBDB96966060",
"m c #EFEFB0B06868",
"M c #E6E6ADAD7E7E",
"N c #FDFDC2C26B6B",
"B c #FBFBC2C27171",
"V c #FAFAC6C67E7E",
"C c #5E5E8E8EBABA",
"Z c #858585858484",
"A c #888889898383",
"S c #88888A8A8585",
"D c #939393939292",
"F c #A8A8A8A8A7A7",
"G c #B0B0B0B0AEAE",
"H c #BBBBBCBCB8B8",
"J c #E6E6AFAF8282",
"K c #CECEB8B8A4A4",
"L c #F9F9C7C78383",
"P c #F9F9CDCD9595",
"I c #FAFAD1D19898",
"U c #E6E6C9C9AFAF",
"Y c #FBFBD6D6A2A2",
"T c #FBFBD7D7A4A4",
"R c #FDFDDBDBA9A9",
"E c #E6E6CACAB1B1",
"W c #E8E8D2D2BFBF",
"Q c #C6C6C6C6C5C5",
"! c #FBFBE3E3C4C4",
"~ c #EEEEEEEEECEC",
"^ c #FEFEFAFAF8F8",
"/ c #FFFFFFFFFFFF",
/* pixels */
"CSr5-6&tSCCCCCCC",
"SMyPRImwjfCCCCCC",
"A8Li,9lVz:CCCCCC",
"h<B;.Kn3xb1CCCC=",
"A,c-o$~Weup2*C3*",
"AJ>@GHSSg%qa43!=",
"S/D  S///^k0sTN=",
"S/+F~S/~~~U7Yvd=",
"S/~~~S/~~O:!Ndd=",
"S////S/~E=======",
"CSSSSS/~~   Z/SC",
"CCCCCS/~~ ~Qo/SC",
"CCCCCS/~~  X#/SC",
"CCCCCS/~~~~~~/SC",
"CCCCCS////////SC",
"CCCCCCSSSSSSSSCC"
};
