/* XPM */
static char *rhythmbox_notplaying[] = {
/* columns rows colors chars-per-pixel */
"16 16 121 2",
"   c #8E8E00000000",
".  c #8F8F04040000",
"X  c #919106060202",
"o  c #91910A0A0000",
"O  c #93930B0B0404",
"+  c #95950D0D0505",
"@  c #969612120505",
"#  c #989818180505",
"$  c #9E9E2F2F0202",
"%  c #8F8F59590202",
"&  c #91915A5A0303",
"*  c #92925C5C0404",
"=  c #A5A546460000",
"-  c #A8A842420A0A",
";  c #B0B05B5B0A0A",
":  c #959561610606",
">  c #969663630808",
",  c #979764640909",
"<  c #969667670F0F",
"1  c #9F9F67670D0D",
"2  c #9B9B69690A0A",
"3  c #9C9C6A6A0B0B",
"4  c #8E8E79790202",
"5  c #AEAE6F6F0606",
"6  c #A1A171710F0F",
"7  c #A2A273730F0F",
"8  c #B7B77E7E0F0F",
"9  c #A8A879791313",
"0  c #A9A97B7B1414",
"q  c #F4F463630909",
"w  c #F4F468680B0B",
"e  c #F4F469690C0C",
"r  c #F5F56D6D0E0E",
"t  c #F5F56C6C4F4F",
"y  c #F6F671714E4E",
"u  c #F6F677774D4D",
"i  c #F6F67A7A4F4F",
"p  c #7B7B96960909",
"a  c #5959A2A20505",
"s  c #5D5DA5A50707",
"d  c #6868AAAA0C0C",
"f  c #7C7CB2B21515",
"g  c #ADAD81811717",
"h  c #A2A28D8D1010",
"j  c #AFAF83831818",
"k  c #B3B389891B1B",
"l  c #B4B48A8A1C1C",
"z  c #B8B88F8F1F1F",
"x  c #8F8FA3A31414",
"c  c #8585B6B61A1A",
"v  c #8888B7B71B1B",
"b  c #BBBB93932121",
"n  c #F1F18D8D0C0C",
"m  c #F2F292921010",
"M  c #F2F296961313",
"N  c #CDCDABAB1616",
"B  c #CFCFAFAF1919",
"V  c #D0D0B0B01A1A",
"C  c #D2D2B3B31D1D",
"Z  c #C3C38A8A2626",
"A  c #C8C892922B2B",
"S  c #C8C890902F2F",
"D  c #CCCC97973333",
"F  c #CECE9A9A3030",
"G  c #CCCC95953939",
"H  c #D0D09C9C3C3C",
"J  c #D1D1A1A13535",
"K  c #D5D5A5A53B3B",
"L  c #D6D6A8A83838",
"P  c #DADAADAD3B3B",
"I  c #D9D9AAAA3F3F",
"U  c #DCDCB1B13F3F",
"Y  c #D1D19A9A4242",
"T  c #F8F88C8C4B4B",
"R  c #F7F790904A4A",
"E  c #F7F795954B4B",
"W  c #F8F898984C4C",
"Q  c #D7D7A6A64444",
"!  c #DBDBABAB4646",
"~  c #D7D7A5A54949",
"^  c #DCDCADAD4A4A",
"/  c #DBDBABAB4C4C",
"(  c #DEDEAEAE4E4E",
")  c #DDDDB1B14444",
"_  c #D7D7BDBD4A4A",
"`  c #D0D0A4A45B5B",
"'  c #D2D2A9A95B5B",
"]  c #DFDFB1B15151",
"[  c #D8D8B1B15858",
"{  c #DBDBB6B65A5A",
"}  c #F4F4A9A94848",
"|  c #F5F5ACAC4848",
" . c #E0E0B3B34F4F",
".. c #F5F5B1B14848",
"X. c #F5F5B4B44949",
"o. c #E0E0B1B15252",
"O. c #E0E0B0B05656",
"+. c #E2E2B5B55555",
"@. c #E3E3B5B55B5B",
"#. c #E4E4B5B55E5E",
"$. c #D5D5A8A86464",
"%. c #D9D9ADAD6969",
"&. c #DCDCB5B56B6B",
"*. c #DEDEB3B37171",
"=. c #E5E5B4B46262",
"-. c #E1E1BDBD6161",
";. c #E2E2BABA7373",
":. c #E3E3BDBD7474",
">. c #DDDDC5C54A4A",
",. c #DFDFC7C74B4B",
"<. c #E2E2C1C15A5A",
"1. c #E6E6C5C55A5A",
"2. c #E4E4C3C35C5C",
"3. c #E8E8C2C27575",
"4. c #E6E6C0C07B7B",
"5. c #EBEBC4C47A7A",
"6. c #EBEBC6C67D7D",
"7. c #5E5E8E8EBABA",
"8. c #EAEAC2C28383",
"9. c #EDEDC7C78585",
"0. c #EDEDC6C68A8A",
/* pixels */
"7.7.7.7.7.7.7.7.7.7.7.7.7.7.7.7.",
"7.7.7.7.7.7.7.7.7.7.7.7.7.7.7.7.",
"7.7.o .   X o + # @ O X     7.7.",
"7.7.= t y u u - ; i i u y $ 7.7.",
"7.7.4 T q w E 8 h W r e R 5 7.7.",
"7.* a } n m ..x f X.M m | p , 7.",
"& 1 s _ N B >.c v ,.C V _ d < > ",
"% : 2 6 9 g k z b b l j 0 6 3 > ",
"% ` ' ' [ { +.<.1.2.1.-.-.&.&.* ",
"% ` Z A F J L P U ) P I ! Q ;.> ",
"% $.S D J K I I ) ) ) ) / / :.& ",
"% $.G H K ! ^ ^ o.]  . .o.] 4.& ",
"% %.Y Y ~ / ( ] +.+.+.@.=.=.8.& ",
"% *.*.;.;.:.3.3.5.5.6.6.9.0.0.% ",
"% % % % % * * : : : * & % % % % ",
"7.7.7.7.7.7.7.7.7.7.7.7.7.7.7.7."
};
