/* XPM */
static char *software_properties[] = {
/* columns rows colors chars-per-pixel */
"16 16 75 1",
"  c #1D1D43437C7C",
". c #1E1E46467F7F",
"X c #797997975858",
"o c #5E5E84847D7D",
"O c #7A7A9A9A7272",
"+ c #A3A3B5B52D2D",
"@ c #A8A8BBBB3434",
"# c #82829D9D5353",
"$ c #8A8AA3A34A4A",
"% c #9393ABAB4343",
"& c #A4A4B9B94949",
"* c #A1A1B9B95353",
"= c #8585A2A26D6D",
"- c #A1A1BBBB7E7E",
"; c #B6B6CBCB5252",
": c #ABABC3C36969",
"> c #21214B4B8787",
", c #22224B4B8787",
"< c #23234D4D8989",
"1 c #272750508B8B",
"2 c #3A3A60609595",
"3 c #3B3B65659E9E",
"4 c #3A3A6A6AA8A8",
"5 c #3C3C6C6CA9A9",
"6 c #4E4E7A7AB4B4",
"7 c #777798988383",
"8 c #77779D9D9F9F",
"9 c #58588181A2A2",
"0 c #5B5B8686BBBB",
"q c #5C5C8686BDBD",
"w c #5E5E8E8EBABA",
"e c #5E5E8A8ABEBE",
"r c #6D6D9696AEAE",
"t c #66668F8FB2B2",
"y c #60608989BFBF",
"u c #6D6D9898BEBE",
"i c #7D7DA5A5B1B1",
"p c #63638F8FC1C1",
"a c #6C6C9393C6C6",
"s c #69699696C7C7",
"d c #71719E9ECECE",
"f c #7D7DA1A1CBCB",
"g c #838383838383",
"h c #848484848484",
"j c #878787878787",
"k c #888888888888",
"l c #898989898989",
"z c #8F8F90908C8C",
"x c #8080A0A08D8D",
"c c #8484A4A49494",
"v c #9F9FBBBB9B9B",
"b c #9494A5A5BDBD",
"n c #9191B0B0BBBB",
"m c #ACACACACACAC",
"M c #AEAEAEAEAEAE",
"N c #BCBCBCBCBCBC",
"B c #9898ABABC6C6",
"V c #C0C0C0C0C0C0",
"C c #C6C6C6C6C6C6",
"Z c #C8C8C8C8C8C8",
"A c #CDCDCDCDCBCB",
"S c #CECECFCFCDCD",
"D c #D1D1D1D1D1D1",
"F c #D4D4D4D4D4D4",
"G c #DADADADADADA",
"H c #DDDDDDDDDDDD",
"J c #E6E6E6E6E6E6",
"K c #E9E9E9E9E9E9",
"L c #ECECECECECEC",
"P c #EEEEEEEEECEC",
"I c #EFEFEFEFEEEE",
"U c #F1F1F1F1F1F1",
"Y c #F3F3F3F3F3F3",
"T c #F8F8F8F8F8F8",
"R c #FAFAFAFAFAFA",
/* pixels */
"wwwwwwwwhlllhwww",
"wwwwwwwlZLYLAlww",
"wwwwwwhJJDGKTIlw",
"wwwwwhSJCJLLPLNw",
"wwwwwlUHKAzSJHHl",
"wwwwwhRKPzwzPDHl",
"www1<>2BPAzSJDFl",
"w<3sdds39KKJVDMw",
"03dcfn:i6bFZZNkw",
"<s=ufv-&r2JDMhww",
",d00a;;&8>ghhwww",
",s$70x*@t.wwwwww",
".s#+96O%p,wwwwww",
"w4uX45or3wwwwwww",
"w.3eqep3 wwwwwww",
"www .,.wwwwwwwww"
};
