/* XPM */
static char *stock_edit_bookmark[] = {
/* columns rows colors chars-per-pixel */
"16 16 92 1",
"  c #23231C1C1111",
". c #5A5A4E4E3B3B",
"X c #EFEF2B2B2B2B",
"o c #EDED2D2D2D2D",
"O c #8F8F59590101",
"+ c #8F8F59590202",
"@ c #B7B75D5D0202",
"# c #BABA5D5D0202",
"$ c #D0D069691616",
"% c #DBDB7E7E2B2B",
"& c #969677774848",
"* c #ABAB6D6D6A6A",
"= c #A7A775757272",
"- c #D6D64E4E4C4C",
"; c #C7C777777676",
": c #D9D980802A2A",
"> c #DDDD83832D2D",
", c #DFDF85853333",
"< c #D5D59B9B3F3F",
"1 c #B6B68E8E4A4A",
"2 c #8F8F88887B7B",
"3 c #9F9F88887272",
"4 c #999989897575",
"5 c #B9B98E8E6666",
"6 c #D6D68C8C4C4C",
"7 c #E8E89D9D5353",
"8 c #E8E89D9D5454",
"9 c #DEDEA9A95656",
"0 c #F4F4ABAB4E4E",
"q c #E1E1A1A15555",
"w c #D3D3AAAA6969",
"e c #C7C7A6A67676",
"r c #E4E4AAAA6666",
"t c #E3E3B1B16262",
"y c #E7E7B0B06A6A",
"u c #E9E9B8B86D6D",
"i c #E9E9B9B96E6E",
"p c #E5E5B6B67272",
"a c #FBFBC1C16D6D",
"s c #FCFCC1C16C6C",
"d c #5E5E8E8EBABA",
"f c #8A8A89898282",
"g c #8E8E89898484",
"h c #8C8C8E8E8888",
"j c #91918C8C8686",
"k c #8E8E90908B8B",
"l c #8F8F91918C8C",
"z c #909092928E8E",
"x c #939395958F8F",
"c c #949496969191",
"v c #969698989292",
"b c #97979A9A9494",
"n c #98989A9A9494",
"m c #9D9D9A9A9494",
"M c #9B9B9D9D9797",
"N c #B4B48C8C8686",
"B c #9E9EA1A19B9B",
"V c #A0A0A2A29C9C",
"C c #A2A2A4A49E9E",
"Z c #BDBDA6A69090",
"A c #A5A5A7A7A1A1",
"S c #A8A8ABABA5A5",
"D c #A9A9ABABA5A5",
"F c #A9A9A9A9A6A6",
"G c #AFAFB2B2ACAC",
"H c #E7E785858585",
"J c #C5C5ABAB9393",
"K c #C2C2BABAAAAA",
"L c #DBDBBEBEA0A0",
"P c #BFBFC1C1BBBB",
"I c #ECECC1C18F8F",
"U c #E2E2C0C09393",
"Y c #FDFDD6D69F9F",
"T c #DCDCC0C0AAAA",
"R c #F2F2D7D7B3B3",
"E c #C4C4C6C6C1C1",
"W c #C4C4C5C5C2C2",
"Q c #CDCDCECECBCB",
"! c #D2D2CFCFC6C6",
"~ c #D1D1D1D1CFCF",
"^ c #D5D5D7D7D3D3",
"/ c #DBDBDDDDD8D8",
"( c #DDDDDEDEDBDB",
") c #E1E1E2E2E0E0",
"_ c #E7E7E8E8E4E4",
"` c #ECECEDEDEBEB",
"' c #EFEFEFEFEEEE",
"] c #F1F1F1F1F0F0",
"[ c #F6F6F6F6F6F6",
"{ c #FBFBFBFBFAFA",
"} c #FDFDFEFEFDFD",
"| c #FEFEFEFEFEFE",
/* pixels */
"dd++OOOO1Sdddddd",
"dDw+uttpO_Gddddd",
"dA|+u99uO^{P-ood",
"dC|+a<6aOE{N==Ho",
"dC|+u<6s+T3m~f;o",
"dV{+u<6u+54cSf*d",
"dB|+u99u@%uqfh*d",
"dB|+uuu:%a0824dd",
"dM|+u+#>aq7$Lbdd",
"dn|++6,s0q$L|bdd",
"dn|+UrY0q$L/[cdd",
"dv|_pR|I$JQ^[cdd",
"dc|K&IyqZWQ({cdd",
"dx|. eJG^)''|hdd",
"dv`!]{||{{||'cdd",
"ddckhllhhhhhlddd"
};
