/* XPM */
static char *system_software_installer[] = {
/* columns rows colors chars-per-pixel */
"16 16 96 2",
"   c #8F8F59590202",
".  c #8F8F5A5A0404",
"X  c #8D8D5C5C0B0B",
"o  c #91915A5A0303",
"O  c #91915C5C0303",
"+  c #90905A5A0505",
"@  c #93935D5D0606",
"#  c #959560600909",
"$  c #959563631212",
"%  c #A0A06F6F2121",
"&  c #89896D6D4040",
"*  c #959580805F5F",
"=  c #B0B087874444",
"-  c #B4B489894545",
";  c #BCBC91914E4E",
":  c #AAAA88885353",
">  c #B1B18F8F5555",
",  c #868683837E7E",
"<  c #ADAD98987777",
"1  c #B1B19E9E7F7F",
"2  c #D7D79E9E4444",
"3  c #D9D9A1A14A4A",
"4  c #DADAA3A34D4D",
"5  c #DBDBA4A44E4E",
"6  c #CFCFA0A05555",
"7  c #DFDFABAB5858",
"8  c #E1E1AEAE5F5F",
"9  c #C2C2A3A36F6F",
"0  c #CACAACAC7D7D",
"q  c #E3E3B3B36868",
"w  c #5E5E8E8EBABA",
"e  c #838383838383",
"r  c #868685858383",
"t  c #878787878787",
"y  c #898986868282",
"u  c #8C8C89898585",
"i  c #8B8B8B8B8B8B",
"p  c #95958D8D8282",
"a  c #9E9E93938282",
"s  c #9A9A94948C8C",
"d  c #9B9B9C9C9999",
"f  c #AFAFA0A08A8A",
"g  c #B2B2A7A79696",
"h  c #A7A7A7A7A7A7",
"j  c #AAAAAAAAAAAA",
"k  c #B6B6B6B6B6B6",
"l  c #BBBBBBBBBBBB",
"z  c #D9D9BABA8989",
"x  c #E8E8C2C28585",
"c  c #E7E7C4C48C8C",
"v  c #E4E4C4C48F8F",
"b  c #EAEAC5C58B8B",
"n  c #E8E8C4C48C8C",
"m  c #EAEAC6C68F8F",
"M  c #E9E9C7C79292",
"N  c #ECECC9C99393",
"B  c #D9D9C4C4A2A2",
"V  c #E5E5CBCBA2A2",
"C  c #EFEFD0D0A0A0",
"Z  c #EDEDD3D3AAAA",
"A  c #E4E4D4D4BCBC",
"S  c #EEEEDADABBBB",
"D  c #F1F1DADAB5B5",
"F  c #C1C1C1C1C1C1",
"G  c #C5C5C5C5C5C5",
"H  c #CACACACACACA",
"J  c #D0D0D0D0D0D0",
"K  c #D4D4D4D4D4D4",
"L  c #D6D6D7D7D4D4",
"P  c #D9D9D9D9D6D6",
"I  c #D8D8D8D8D8D8",
"U  c #DCDCDBDBDBDB",
"Y  c #DEDEDEDEDEDE",
"T  c #EEEEDEDEC3C3",
"R  c #EAEADDDDC7C7",
"E  c #ECECE0E0CBCB",
"W  c #ECECE1E1CDCD",
"Q  c #E0E0E0E0DFDF",
"!  c #EFEFE6E6D8D8",
"~  c #F2F2EAEADBDB",
"^  c #E3E3E3E3E3E3",
"/  c #E6E6E6E6E6E6",
"(  c #ECECE9E9E4E4",
")  c #E8E8E8E8E8E8",
"_  c #EEEEEEEEEBEB",
"`  c #EEEEEEEEECEC",
"'  c #F6F6EEEEE1E1",
"]  c #F4F4EFEFE6E6",
"[  c #F0F0F0F0EEEE",
"{  c #FBFBF3F3E8E8",
"}  c #FBFBF5F5EBEB",
"|  c #F3F3F3F3F3F3",
" . c #F6F6F6F6F5F5",
".. c #F9F9F7F7F5F5",
"X. c #FAFAFAFAF9F9",
"o. c #FCFCFCFCFCFC",
/* pixels */
"w w w w w w O w w w w w w w w w ",
"w w w w w o A 0 % + @ w w w w w ",
"$ +         X.] ' T z - # w w w ",
". (  .o.o.  X.R V v M Z   w w w ",
"  [ ` ` ` + ..~ S M q x   w w w ",
"  ! W E E = 9 B g s u a & w w w ",
"  C b D { } 1 , F ) | ) G t w w ",
"  N 6 ; : * r ^ / K U ) X.) t w ",
"o M 7 8 8 < H ) G / ` ` ` [ k w ",
"  b 3 3 2 p ` Y / K d P ^ U I i ",
"  c 4 4 2 t X.) _ d > d _ K Q t ",
"  m 4 4 4 p  . .[ L d L ^ J H i ",
"  c m m m f I o./ / _ Y F J j e ",
"@ o       X y ` | / J H G l t w ",
"w w w w w w w i G Q ^ H h t w w ",
"w w w w w w w w t i t t e w w w "
};
