/* XPM */
static char *system_software_install[] = {
/* columns rows colors chars-per-pixel */
"16 16 123 2",
"   c #66430E",
".  c #67440E",
"X  c #68450E",
"o  c #69450F",
"O  c #7C5414",
"+  c #7E7C6A",
"@  c #7C7D72",
"#  c #9F680E",
"$  c #9E6812",
"%  c #9D6B18",
"&  c #A0670C",
"*  c #A16910",
"=  c #A26B12",
"-  c #A26F1D",
";  c #A4721F",
":  c #AD751F",
">  c #9B6C20",
",  c #936F2F",
"<  c #9C7126",
"1  c #98732F",
"2  c #947132",
"3  c #977333",
"4  c #BB7E20",
"5  c #847B5D",
"6  c #817D68",
"7  c #76817D",
"8  c #BF8A37",
"9  c #B6873F",
"0  c #C4882E",
"q  c #CB923A",
"w  c #9D8054",
"e  c #BE8E42",
"r  c #86847F",
"t  c #8D867A",
"y  c #90887C",
"u  c #AE936A",
"i  c #B29569",
"p  c #D29B47",
"a  c #DAA553",
"s  c #D4A65F",
"d  c #DEAA5B",
"f  c #DAAA5F",
"g  c #CCA367",
"h  c #D3A863",
"j  c #D6AA66",
"k  c #C9A670",
"l  c #D0AA73",
"z  c #D1AD78",
"x  c #D5B27C",
"c  c #E1AE60",
"v  c #E7B66A",
"b  c #E8B86C",
"n  c #EABA6F",
"m  c #6E848E",
"M  c #7C8680",
"N  c #7C8887",
"B  c #6B8797",
"V  c #70899F",
"C  c #738A9E",
"Z  c #74899C",
"A  c #778A9C",
"S  c #5E8EBA",
"D  c #6889A2",
"F  c #678BAC",
"G  c #658CAE",
"H  c #628CB3",
"J  c #608DB7",
"K  c #838485",
"L  c #8B8782",
"P  c #8C8982",
"I  c #8C8A87",
"U  c #838688",
"Y  c #848689",
"T  c #87888A",
"R  c #878A8E",
"E  c #8A8C8E",
"W  c #948C80",
"Q  c #8F908C",
"!  c #90928E",
"~  c #ABABAB",
"^  c #AFAFAF",
"/  c #BBBBBB",
"(  c #D9B887",
")  c #D3B78C",
"_  c #DDBE8C",
"`  c #E4BE83",
"'  c #DEC295",
"]  c #E7C188",
"[  c #E9C68D",
"{  c #E0C191",
"}  c #E2C495",
"|  c #E6C99D",
" . c #EED3A9",
".. c #F1D7AE",
"X. c #F4DBB3",
"o. c #C0C0C0",
"O. c #C4C3C3",
"+. c #C7C7C7",
"@. c #CAC9C9",
"#. c #CCCCCA",
"$. c #CECECC",
"%. c #CECFCD",
"&. c #CECECE",
"*. c #D2D2D2",
"=. c #D3D3D3",
"-. c #D4D4D4",
";. c #DADADA",
":. c #DDDDDD",
">. c #DEDEDE",
",. c #E0E0E0",
"<. c #E1E1E1",
"1. c #E6E6E4",
"2. c #E6E6E6",
"3. c #E8E8E6",
"4. c #E8E8E8",
"5. c #EBEBEB",
"6. c #EDEDED",
"7. c #EEEEEC",
"8. c #F1F1F1",
"9. c #F3F3F3",
"0. c #F6F6F6",
"q. c #FAFAFA",
"w. c #FCFCFC",
/* pixels */
"S 7 & $ $ $ $ $ $ $ $ $ $ ; m S ",
"5 ; g l z x ( _ { } |  .....- 6 ",
"< s x O o o o o . . .     X.j % ",
"& = ' | | | | | | | | | | | 9 # ",
"& N = 4 0 q p a c v n n n : 7 , ",
"S B % w y L y u f v n b n 8 6 S ",
"S @ r O.4.9.6.@.r % # # & * 2 S ",
"J Y <.4.*.;.4.q.5.I e e k = S S ",
"V @.1.+.3.7.7.6.6./ i a ` = S S ",
"R 9.>.4.$.! %.1.:.>.W d ] = S S ",
"K q.4.7.Q ) Q 7.=.,.I [ h 3 S S ",
"R 0.0.7.#.Q $.2.&.=.t = 2 D S S ",
"C <.w.3.4.6.1.o.=.^ V S S S S S ",
"J E 6.9.<.-.@.@./ K J S S S S S ",
"S G T +.2.2.*.~ K G S S S S S S ",
"S J H A R K T Z J S S S S S S S "
};
