/* XPM */
static char *system_config_rootpassword[] = {
/* columns rows colors chars-per-pixel */
"16 16 55 1",
"  c #5E5E8E8EBABA",
". c #87878A8A8383",
"X c #878789898484",
"o c #88888A8A8585",
"O c #8A8A8C8C8787",
"+ c #8B8B8D8D8888",
"@ c #8C8C8E8E8989",
"# c #8E8E93938A8A",
"$ c #8F8F91918C8C",
"% c #909093938C8C",
"& c #949496969292",
"* c #969699999191",
"= c #9B9B9C9C9797",
"- c #AAAAACACA7A7",
"; c #ADADAFAFAAAA",
": c #ACACB0B0A9A9",
"> c #B3B3B6B6B0B0",
", c #B6B6B9B9B3B3",
"< c #B7B7B9B9B6B6",
"1 c #B8B8B8B8B7B7",
"2 c #BABABDBDB7B7",
"3 c #BCBCBEBEB8B8",
"4 c #BEBEC0C0BABA",
"5 c #BFBFC1C1BDBD",
"6 c #C0C0C2C2BCBC",
"7 c #C2C2C5C5BFBF",
"8 c #C2C2C4C4C0C0",
"9 c #C4C4C7C7C1C1",
"0 c #C6C6C9C9C3C3",
"q c #C7C7C9C9C4C4",
"w c #C8C8CACAC5C5",
"e c #CACACCCCC7C7",
"r c #CBCBCDCDC8C8",
"t c #CDCDCECECBCB",
"y c #CECED0D0CBCB",
"u c #CECED0D0CCCC",
"i c #D1D1D1D1CECE",
"p c #D1D1D3D3CFCF",
"a c #D3D3D5D5D1D1",
"s c #D5D5D7D7D3D3",
"d c #D6D6D8D8D4D4",
"f c #D9D9DADAD7D7",
"g c #DBDBDCDCD9D9",
"h c #DDDDDEDEDBDB",
"j c #DFDFE0E0DDDD",
"k c #E0E0E1E1DEDE",
"l c #E3E3E5E5E2E2",
"z c #E4E4E5E5E2E2",
"x c #E6E6E6E6E4E4",
"c c #E7E7E8E8E6E6",
"v c #EBEBEBEBE9E9",
"b c #ECECECECEAEA",
"n c #EDEDEDEDECEC",
"m c #F2F2F2F2F1F1",
"M c #F9F9F9F9F8F8",
/* pixels */
"      @@@       ",
"    ++rn9$@     ",
"  OO<mMlmv8&O   ",
"XO-scxn1chdr>OO ",
"X*ieakbmcgy7t#O ",
"o%=9ihcvlfy5&OO ",
" O79ufkzjse4,X  ",
" o66rsghgi03;o  ",
" X;0qussir82=.  ",
"  #t7qryr042O   ",
"   :s60w050=O   ",
"   Oia6i4q2X    ",
"    &jl=se#     ",
"     +sb5O      ",
"      OXX       ",
"                "
};
