/* XPM */
static char *tomboy[] = {
/* columns rows colors chars-per-pixel */
"16 16 111 2",
"   c #23231C1C0F0F",
".  c #5A5A4B4B1F1F",
"X  c #77774A4A0101",
"o  c #7D7D4E4E0101",
"O  c #75754E4E2222",
"+  c #EEEE2D2D2A2A",
"@  c #EEEE2D2D2D2D",
"#  c #85854B4B0101",
"$  c #888855550101",
"%  c #8F8F59590202",
"&  c #B1B148481010",
"*  c #AAAA77773D3D",
"=  c #CECE5C5C0000",
"-  c #C9C961610C0C",
";  c #CFCF67671212",
":  c #D0D067671212",
">  c #D9D961611818",
",  c #DCDC7E7E2424",
"<  c #969677774444",
"1  c #A7A77B7B4949",
"2  c #A7A774745F5F",
"3  c #ABAB6D6D6A6A",
"4  c #A7A775757272",
"5  c #BFBF71717070",
"6  c #C7C777777676",
"7  c #DCDC8A8A0D0D",
"8  c #DCDC8C8C0D0D",
"9  c #DBDB89891010",
"0  c #C5C5A1A10404",
"q  c #DDDD81812828",
"w  c #DDDD84842A2A",
"e  c #DFDF85852C2C",
"r  c #C0C08E8E3333",
"t  c #C7C7AFAF2424",
"y  c #C6C6B5B53B3B",
"u  c #E9E9BBBB3939",
"i  c #EDEDD4D40000",
"p  c #EDEDD4D40202",
"a  c #EDEDD5D50505",
"s  c #EEEED6D60909",
"d  c #EFEFD7D70E0E",
"f  c #EFEFD7D71111",
"g  c #EFEFD8D81313",
"h  c #F0F0D8D81616",
"j  c #F0F0D8D81818",
"k  c #A9A98D8D5B5B",
"l  c #9D9D82826060",
"z  c #808081817F7F",
"x  c #8F8F88887A7A",
"c  c #9A9A8A8A7676",
"v  c #B3B387876868",
"b  c #DCDC9C9C5151",
"n  c #E7E79D9D5252",
"m  c #E8E89D9D5353",
"M  c #C5C5A9A94040",
"N  c #C9C9A3A34B4B",
"B  c #D6D6AEAE4B4B",
"V  c #D8D8A3A35C5C",
"C  c #F4F4ABAB4E4E",
"Z  c #E7E7B5B55D5D",
"A  c #E5E5AAAA6464",
"S  c #E7E7B0B06A6A",
"D  c #D8D8C9C94545",
"F  c #D9D9CBCB5151",
"G  c #DDDDC6C65C5C",
"H  c #E5E5D6D65353",
"J  c #EBEBDBDB5454",
"K  c #EAEADCDC5E5E",
"L  c #F2F2E1E14F4F",
"P  c #F2F2E1E15252",
"I  c #F1F1E0E05454",
"U  c #F3F3E3E35E5E",
"Y  c #DADACDCD6565",
"T  c #FBFBC1C16D6D",
"R  c #FCFCC1C16C6C",
"E  c #F5F5E5E56565",
"W  c #F8F8E8E86262",
"Q  c #F4F4E5E56A6A",
"!  c #F1F1E3E37676",
"~  c #F5F5E7E77474",
"^  c #FBFBEDED7575",
"/  c #5E5E8E8EBABA",
"(  c #8A8A89898282",
")  c #8E8E89898484",
"_  c #91918C8C8686",
"`  c #9D9D9A9A9494",
"'  c #A9A9A9A9A6A6",
"]  c #E7E785858585",
"[  c #CFCFC6C69797",
"{  c #EDEDC1C18E8E",
"}  c #FDFDD6D69F9F",
"|  c #F6F6E9E98080",
" . c #F6F6EBEB8A8A",
".. c #F7F7EDED9696",
"X. c #F1F1E5E59E9E",
"o. c #F2F2D7D7B2B2",
"O. c #EFEFE4E4A6A6",
"+. c #F8F8EFEFA1A1",
"@. c #FBFBF2F2A8A8",
"#. c #F9F9F1F1ACAC",
"$. c #EDEDE7E7B6B6",
"%. c #F4F4EAEAB0B0",
"&. c #F7F7EFEFB7B7",
"*. c #FAFAF2F2B3B3",
"=. c #FAFAF3F3BBBB",
"-. c #D0D0D1D1CFCF",
";. c #F7F7F1F1C0C0",
":. c #FCFCF6F6C7C7",
">. c #FDFDF8F8CCCC",
",. c #FDFDF9F9D2D2",
"<. c #FFFFFFFFFFFF",
/* pixels */
"0 0 0 0 0 0 0 0 0 0 0 0 > + + / ",
"0 I P P P P P P L L P v 4 5 ] @ ",
"0 U i i a i i a s d k ` -.) 6 @ ",
"0 Q i i i i s d f r c _ ' z 3 & ",
"0 ~ i i a s f h 8 , T V ( _ 2 % ",
"0 | i i s f j 8 q T C m x l % / ",
"0  .i s g j 7 w T C m ; 1 % 0 / ",
"0 ..a d h 9 e R C n ; * % @.0 / ",
"0 +.s f u A } C n : * $ P *.0 / ",
"0 #.d f Z o.<.{ - O o H U &.0 / ",
"0 *.d t < { S b # X F K E X.0 0 ",
"0 =.d .   N M y D J W ^ ! O.B 0 ",
"0 =.=.[ $.;.:.:.>.,.,.>.%.G 0 / ",
"0 0 0 0 0 0 0 0 0 0 0 0 0 0 = / ",
"= Y Y Y Y Y Y Y Y Y Y Y Y Y = / ",
"= = = = = = = = = = = = = = = / "
};
