/* XPM */
static char *utilities_terminal[] = {
/* columns rows colors chars-per-pixel */
"16 16 34 1",
"  c #1E1E1F1F1F1F",
". c #343434343434",
"X c #383838383838",
"o c #3C3C3C3C3C3C",
"O c #444444444444",
"+ c #454545454545",
"@ c #494949494949",
"# c #4D4D4D4D4D4D",
"$ c #515151515151",
"% c #545454545454",
"& c #5D5D5D5D5D5D",
"* c #5E5E8E8EBABA",
"= c #828282828282",
"- c #848484848484",
"; c #868686868686",
": c #888888888888",
"> c #8A8A8A8A8A8A",
", c #8C8C8C8C8C8C",
"< c #939393939393",
"1 c #959595959595",
"2 c #9A9A9A9A9A9A",
"3 c #9D9D9D9D9D9D",
"4 c #C4C4C4C4C4C4",
"5 c #CECECECECECE",
"6 c #D3D3D3D3D3D3",
"7 c #D6D6D6D6D6D6",
"8 c #DCDCDCDCDCDC",
"9 c #DFDFDFDFDFDF",
"0 c #E1E1E1E1E1E1",
"q c #E4E4E4E4E4E4",
"w c #EAEAEAEAEAEA",
"e c #EEEEEEEEECEC",
"r c #EFEFEFEFEFEF",
"t c #F0F0F0F0F0F0",
/* pixels */
"*32333223223223*",
"2qtrtttrrrrtrrq2",
"1r&          &t1",
"1w %%%%$%%%%% w1",
"<q $$$$$$$#$$ w<",
"<q #########@ 0<",
"<0 @r@@@@@+@@ 0,",
",9 ++rO+OO+++ 0,",
">8 OoOrOoOOoO 8>",
">8 oor.oooooo 8>",
":7 XtXo.eee.o 7;",
";6 .X........ 6;",
"-6$          $6=",
"-45555555555554=",
"*===;=><=&=====*",
"****************"
};
