/* XPM */
static char *vmware_workstation[] = {
/* columns rows colors chars-per-pixel */
"16 16 93 2",
"   c #707044443030",
".  c #38384D4D7777",
"X  c #4B4B59597979",
"o  c #6D6D66666E6E",
"O  c #97973F3F0000",
"+  c #9C9C43430101",
"@  c #9E9E44440101",
"#  c #999942420404",
"$  c #9C9C45450606",
"%  c #939344440B0B",
"&  c #939344440D0D",
"*  c #898946461919",
"=  c #8D8D47471818",
"-  c #909047471515",
";  c #9A9A4A4A1010",
":  c #9C9C4B4B1111",
">  c #9C9C4F4F1818",
",  c #A7A752521111",
"<  c #A3A352521515",
"1  c #A8A852521010",
"2  c #81814C4C2D2D",
"3  c #9B9B5B5B2F2F",
"4  c #A7A761612E2E",
"5  c #A8A861612D2D",
"6  c #ACAC62622C2C",
"7  c #AAAA66663535",
"8  c #A7A769693E3E",
"9  c #D5D56D6D1212",
"0  c #E6E67A7A1717",
"q  c #92926E6E5B5B",
"w  c #BBBB7A7A4949",
"e  c #FFFF8D8D1E1E",
"r  c #E8E881812020",
"t  c #F2F289892424",
"y  c #FEFE92922929",
"u  c #EEEE8F8F3636",
"i  c #EBEB91913D3D",
"p  c #FFFF99993434",
"a  c #D5D58E8E5252",
"s  c #ECEC9A9A4E4E",
"d  c #FFFF9E9E4040",
"f  c #FFFFA4A44B4B",
"g  c #FFFFB0B06464",
"h  c #E1E1A8A87676",
"j  c #E1E1ABAB7F7F",
"k  c #1F1F47478484",
"l  c #202047478484",
"z  c #222249498686",
"x  c #232349498686",
"c  c #25254C4C8888",
"v  c #616171718E8E",
"b  c #6E6E7A7A9191",
"n  c #54547D7DB1B1",
"m  c #5B5B8484B7B7",
"M  c #5E5E8E8EBABA",
"N  c #5E5E8989BCBC",
"B  c #7575A0A0CECE",
"V  c #7878A2A2CFCF",
"C  c #7575A1A1D0D0",
"Z  c #7B7BA5A5D2D2",
"A  c #B8B8A1A19494",
"S  c #E6E6B2B28585",
"D  c #EDEDC0C09898",
"F  c #EDEDC3C39E9E",
"G  c #F3F3C0C09292",
"H  c #F8F8CBCBA0A0",
"J  c #FFFFD4D4ABAB",
"K  c #FCFCD5D5B0B0",
"L  c #F9F9D6D6B6B6",
"P  c #FFFFD8D8B1B1",
"I  c #FFFFDADAB7B7",
"U  c #FFFFDDDDBDBD",
"Y  c #8484A1A1C6C6",
"T  c #8E8EA3A3C0C0",
"R  c #9B9BB2B2CFCF",
"E  c #8080A8A8D3D3",
"W  c #9696B8B8DBDB",
"Q  c #AEAEB7B7C5C5",
"!  c #B2B2BABAC7C7",
"~  c #B5B5BBBBC6C6",
"^  c #B2B2C5C5DDDD",
"/  c #BDBDD2D2E8E8",
"(  c #C0C0C5C5CECE",
")  c #C5C5CACAD2D2",
"_  c #C2C2D0D0DFDF",
"`  c #FFFFE1E1C3C3",
"'  c #CBCBD7D7E4E4",
"]  c #C4C4D6D6EBEB",
"[  c #C6C6D9D9ECEC",
"{  c #CCCCDCDCEDED",
"}  c #CFCFDEDEEEEE",
"|  c #D1D1DFDFEFEF",
" . c #D2D2E0E0F0F0",
/* pixels */
"M M M M z l z z x x l x x l x M ",
"M M M z ^ |  . . . . . . . .R c ",
"M M M X ~ ~ ~ ~ ( ) ) ' | { | l ",
"M $ 6 7 7 7 7 7 7 7 7 : A { { k ",
"$ F ` ` ` ` ` ` ` ` ` L ; ' [ k ",
"# U U U D j j j S I U U 5 ! ] k ",
"# I I w 8 q 2 % $ < K I 4 ! ] k ",
"# P H > / Y . M M $ h J 4 Q / k ",
"# J G 3 / Y z M M # a S , T W x ",
"+ g s - E B c c z   , : 2 Z E x ",
"# f i - Z Z C m n v o b Z Z Z z ",
"# p u & B C C B C C C C B B N l ",
"O p p < & = = = = = = = * . x M ",
"O y y y t r r r r r r r $ M M M ",
"+ 9 e e e e e e e e e 0 + M M M ",
"M + O O O O O O O O # + M M M M "
};
