/* XPM */
static char *vnd_fdf[] = {
/* columns rows colors chars-per-pixel */
"16 16 85 1",
"  c #000000",
". c #0B1116",
"X c #0E151B",
"o c #18242F",
"O c #620000",
"+ c #650000",
"@ c #6A0000",
"# c #6F0000",
"$ c #710000",
"% c #5B5B5B",
"& c #5C5C5C",
"* c #5E5E5E",
"= c #606060",
"- c #636363",
"; c #717171",
": c #777777",
"> c #7B7B7B",
", c #7D7D7D",
"< c #7E7E7E",
"1 c #7F7F7F",
"2 c #860000",
"3 c #8B0000",
"4 c #A00000",
"5 c #A90000",
"6 c #B20000",
"7 c #BB0000",
"8 c #C20000",
"9 c #C80000",
"0 c #CB0000",
"q c #D30000",
"w c #D10303",
"e c #D60707",
"r c #DB0000",
"t c #DF0000",
"y c #DA0A0A",
"u c #DC0C0C",
"i c #E00000",
"p c #E41111",
"a c #ED1818",
"s c #F51F1F",
"d c #FA2222",
"f c #FD2626",
"g c #416381",
"h c #436585",
"j c #456888",
"k c #456989",
"l c #476B8D",
"z c #486D8E",
"x c #5E778D",
"c c #5E788E",
"v c #496E90",
"b c #50789E",
"n c #50799F",
"m c #607990",
"M c #537DA4",
"N c #7C8B99",
"B c #5581A8",
"V c #5783AB",
"C c #5E8EBA",
"Z c #888888",
"A c #84909A",
"S c #8A959F",
"D c #939393",
"F c #949494",
"G c #A0A0A0",
"H c #A2A2A2",
"J c #A5A5A5",
"K c #C0C0C0",
"L c #D2D2D2",
"P c #DFDFDF",
"I c #E6E6E6",
"U c #ECECEC",
"Y c #EFEFEF",
"T c #F0F0F0",
"R c #F3F3F3",
"E c #F4F4F4",
"W c #F5F5F5",
"Q c #F6F6F6",
"! c #F7F7F8",
"~ c #F8F8F8",
"^ c #F9F9F9",
"/ c #FAFAFA",
"( c #FBFBFB",
") c #FCFCFC",
"_ c #FEFEFE",
/* pixels */
"CCCnccccccccBCCC",
"CCCz^WETUIKPSMCC",
"rtirq99765J)PAMC",
"qdfsapu084Z^)PNB",
"6yuuyeq973GZZFHb",
"2$$##@@+O+::;-Dl",
"CCCv!>WWEERTY:Lk",
"CCCv^>W W&=%T>Wh",
"CCCv^>^W!WW^W>!g",
"CCCv_,^ W*=%!,^g",
"CCCv_,))^^!W^,^g",
"CCCz_,_ _*=&W,^g",
"CCCv)<))^W^W_:^=",
"CCCv)111,N,N,N(h",
"CCCz))))//)))(_g",
"CCCzoXXXXXXXX.ok"
};
