/* XPM */
static char *wine_uninstaller[] = {
/* columns rows colors chars-per-pixel */
"16 16 130 2",
"   c #6B6B05050505",
".  c #70700B0B0B0B",
"X  c #76760C0C0B0B",
"o  c #747418181717",
"O  c #656543430E0E",
"+  c #676744440E0E",
"@  c #686844440E0E",
"#  c #7C7C52521212",
"$  c #89890D0D0C0C",
"%  c #93930B0B0A0A",
"&  c #84841D1D1B1B",
"*  c #A4A400000000",
"=  c #A4A404040404",
"-  c #A6A606060606",
";  c #A5A50B0B0B0B",
":  c #BEBE09090909",
">  c #BCBC13131313",
",  c #9A9A20201F1F",
"<  c #A1A12E2E2E2E",
"1  c #AEAE3C3C3B3B",
"2  c #ADAD3F3F3E3E",
"3  c #D2D229292929",
"4  c #D7D732323232",
"5  c #D4D43B3B3B3B",
"6  c #A0A067670C0C",
"7  c #A2A269690E0E",
"8  c #A3A36A6A0F0F",
"9  c #A4A46C6C1212",
"0  c #A0A06A6A1414",
"q  c #A4A46D6D1616",
"w  c #A7A770701A1A",
"e  c #A8A872721B1B",
"r  c #AEAE76761F1F",
"t  c #939371713838",
"y  c #BBBB7D7D2020",
"u  c #B7B744444444",
"i  c #BEBE46464646",
"p  c #878768686868",
"a  c #C6C64A4A4A4A",
"s  c #C4C45A5A5858",
"d  c #D7D75F5F5F5F",
"f  c #D9D958585858",
"g  c #C6C662626161",
"h  c #C7C765656565",
"j  c #C7C766666666",
"k  c #CCCC6F6F6F6F",
"l  c #D3D367676767",
"z  c #B7B787873B3B",
"x  c #C4C488882E2E",
"c  c #CBCB92923A3A",
"v  c #9E9E80805252",
"b  c #8C8C83836D6D",
"n  c #8B8B85857373",
"m  c #868682827D7D",
"M  c #949488887676",
"N  c #99998D8D7B7B",
"B  c #AFAF94946969",
"V  c #D2D29B9B4747",
"C  c #DADAA5A55353",
"Z  c #DCDCAAAA5E5E",
"A  c #CACAA2A26565",
"S  c #D7D7AAAA6464",
"D  c #DBDBB0B06E6E",
"F  c #D1D1ACAC7575",
"G  c #D6D6B2B27C7C",
"H  c #E1E1AEAE6060",
"J  c #E7E7B6B66A6A",
"K  c #EAEABABA6F6F",
"L  c #5E5E8E8EBABA",
"P  c #848484848484",
"I  c #858585858585",
"U  c #868686868686",
"Y  c #878787878787",
"T  c #8B8B87878282",
"R  c #8A8A8B8B8585",
"E  c #898989898989",
"W  c #8B8B8B8B8B8B",
"Q  c #8E8E90908B8B",
"!  c #969697979393",
"~  c #9B9B9C9C9999",
"^  c #A7A7A7A7A7A7",
"/  c #E6E69D9D9B9B",
"(  c #EAEA98989898",
")  c #C7C7A4A48888",
"_  c #C1C1ACAC8A8A",
"`  c #D8D8B6B68484",
"'  c #DBDBBBBB8A8A",
"]  c #DFDFBFBF8E8E",
"[  c #E8E8A8A8A5A5",
"{  c #E8E8B0B0B0B0",
"}  c #E1E1C2C29494",
"|  c #E4E4C7C79A9A",
" . c #E5E5C8C89C9C",
".. c #D5D5C9C9B6B6",
"X. c #EBEBD0D0A4A4",
"o. c #EDEDD2D2A6A6",
"O. c #E2E2C6C6B8B8",
"+. c #E8E8CDCDBDBD",
"@. c #F2F2D9D9B1B1",
"#. c #C1C1C1C1C1C1",
"$. c #C7C7C7C7C7C7",
"%. c #C8C8C8C8C8C8",
"&. c #CACACACACACA",
"*. c #CDCDCDCDCDCD",
"=. c #DDDDD0D0CCCC",
"-. c #D3D3D3D3D3D3",
";. c #D4D4D4D4D4D4",
":. c #D6D6D7D7D4D4",
">. c #D9D9D9D9D6D6",
",. c #DCDCDCDCDCDC",
"<. c #EFEFC2C2C2C2",
"1. c #E5E5DCDCD2D2",
"2. c #F4F4D5D5D5D5",
"3. c #E0E0E0E0DFDF",
"4. c #ECECE4E4DADA",
"5. c #E2E2E2E2E2E2",
"6. c #E3E3E3E3E3E3",
"7. c #E4E4E4E4E3E3",
"8. c #E6E6E6E6E6E6",
"9. c #E7E7E7E7E6E6",
"0. c #E9E9E9E9E9E9",
"q. c #ECECECECEAEA",
"w. c #EFEFEDEDEDED",
"e. c #EFEFEFEFEEEE",
"r. c #F0F0EDEDE9E9",
"t. c #F2F2F2F2F2F2",
"y. c #F5F5F5F5F5F5",
"u. c #F7F7F7F7F7F7",
"i. c #F9F9F9F9F9F9",
"p. c #FCFCFCFCFCFC",
/* pixels */
"L L q 6 6 6 6 6 6 6 6 6 6 w L L ",
"9 e A F G ` ` ' ] }  . .X.o.q L ",
"9 S G # @ @ @ @ O + O O O @.D 9 ",
"7 9 ]  . . . . .| |  . . . .z 7 ",
"7 L 7 y x c V C H K K K K r L 7 ",
"L L 0 v M T N B Z J K K K z L L ",
"L t m #.8.t.0.$.m b b b b b n L ",
"L Y 6.8.;.,.0.i.R R R R R m R R ",
"Y $.q.%.6.e.q.e.R t.q.4.1...0.W ",
"E e.3.9.:.~ >.6.! r.=.+.O.) e.Q ",
"Y y.q.0.~ _ ~ q.- k j g s a a - ",
"W y.y.e.:.~ >.3.- 2.<.[ / ( ( * ",
"Y ,.p.8.8.q.3.#.; { f 4 3 5 l % ",
"L E q.y.6.-.&.$.< j d : > a , & ",
"L L E $.3.6.*.^ p $ 2 u 1 & X L ",
"L L L Y W P Y Y L L . .   o L L "
};
