/* XPM */
static char *wine_notepad[] = {
/* columns rows colors chars-per-pixel */
"16 16 64 1",
"  c #6B6B04040404",
". c #6F6F0A0A0A0A",
"X c #76760D0D0D0D",
"o c #737310100F0F",
"O c #76761D1D1B1B",
"+ c #7A7A7A7A7A7A",
"@ c #8A8A0E0E0D0D",
"# c #949409090808",
"$ c #878717171616",
"% c #8A8A17171616",
"& c #97971F1F1E1E",
"* c #A4A403030303",
"= c #A3A30C0C0C0C",
"- c #A4A412121212",
"; c #A3A315151515",
": c #BEBE15151515",
"> c #BCBC18181818",
", c #AFAF3C3C3C3C",
"< c #D4D434343434",
"1 c #ADAD42424141",
"2 c #BDBD46464646",
"3 c #BABA4A4A4A4A",
"4 c #BDBD52525252",
"5 c #B0B05C5C5B5B",
"6 c #8D8D65656161",
"7 c #CECE44444343",
"8 c #C4C44C4C4B4B",
"9 c #C3C35D5D5D5D",
"0 c #CECE5D5D5D5D",
"q c #C7C762626262",
"w c #C8C866666666",
"e c #C8C869696969",
"r c #DDDD69696969",
"t c #CCCC75757575",
"y c #D9D971717171",
"u c #5E5E8E8EBABA",
"i c #878789898585",
"p c #88888A8A8585",
"a c #8A8A8C8C8787",
"s c #8E8E8F8F8B8B",
"d c #8F8F91918D8D",
"f c #969698989393",
"g c #969698989494",
"h c #A0A0A2A29E9E",
"j c #BFBFB5B5B3B3",
"k c #B8B8B8B8B8B8",
"l c #BCBCBCBCBCBC",
"z c #E4E48D8D8C8C",
"x c #E3E39A9A9999",
"c c #EAEAA6A6A6A6",
"v c #E8E8B0B0AFAF",
"b c #EDEDB3B3B3B3",
"n c #C9C9C9C9C9C9",
"m c #CCCCCCCCCCCC",
"M c #D5D5D6D6D5D5",
"N c #F2F2C9C9C9C9",
"B c #EBEBD7D7D7D7",
"V c #ECECDEDEDEDE",
"C c #F3F3D2D2D2D2",
"Z c #E7E7E7E7E7E7",
"A c #ECECECECECEC",
"S c #F1F1E8E8E8E8",
"D c #F3F3F3F3F3F3",
"F c #FFFFFFFFFFFF",
/* pixels */
"uuuuuuuuuuuuuuuu",
"uu++++++++++uuuu",
"uu+F+F+F+F+F+uuu",
"up+n+n+n+n+n+puu",
"upF+l+k+k+k+Fpuu",
"upFAAAAAAAAAFpuu",
"upFmmmmmkhgssppu",
"upFAAAAAaapppppi",
"uiFmmmmmaADDDMZs",
"uiFAAAAAfDASVjSd",
"upFmmmmm=tewq42;",
"upFAAAAA*CNbcxz*",
"upFmmmmm-vr7<70#",
"upFAAAAA59y:>8&%",
"upFFFFFFB@13,$Xu",
"upppiiiap6o. Ouu"
};
