/* XPM */
static char *wine_doors[] = {
/* columns rows colors chars-per-pixel */
"16 16 132 2",
"   c #7F7F00000000",
".  c #7D7D09090000",
"X  c #7E7E0E0E1010",
"o  c #787851516969",
"O  c #8B8B01010101",
"+  c #84840C0C0202",
"@  c #82820B0B0707",
"#  c #81810A0A0A0A",
"$  c #82820C0C0C0C",
"%  c #969618181818",
"&  c #B0B000000000",
"*  c #8D8D23232525",
"=  c #9C9C3A3A3C3C",
"-  c #B3B338383838",
";  c #C3C300000000",
":  c #C1C10A0A0A0A",
">  c #C4C425252525",
",  c #C3C32E2E2E2E",
"<  c #C9C92B2B2B2B",
"1  c #C2C237373737",
"2  c #C9C936363636",
"3  c #CECE3E3E3E3E",
"4  c #8F8F59590202",
"5  c #90905A5A0202",
"6  c #93935C5C0303",
"7  c #91915B5B0505",
"8  c #91915C5C0707",
"9  c #94945F5F0505",
"0  c #92925D5D0808",
"q  c #95955F5F0909",
"w  c #A0A050501111",
"e  c #959561610606",
"r  c #999966660909",
"t  c #9A9A68680A0A",
"y  c #9C9C6A6A0B0B",
"u  c #9D9D6C6C0C0C",
"i  c #A5A56B6B0E0E",
"p  c #A1A171710F0F",
"a  c #A3A373731010",
"s  c #A5A576761212",
"d  c #B7B77B7B1C1C",
"f  c #B5B57C7C2222",
"g  c #B5B57D7D2525",
"h  c #B5B553535252",
"j  c #B0B057575959",
"k  c #B5B55D5D5E5E",
"l  c #CCCC4E4E4E4E",
"z  c #D2D240404040",
"x  c #D7D756565656",
"c  c #D0D061616161",
"v  c #D4D460606060",
"b  c #D3D36E6E6E6E",
"n  c #DADA6E6E6E6E",
"m  c #C7C771717171",
"M  c #D8D878787878",
"N  c #B6B681812B2B",
"B  c #B7B783832E2E",
"V  c #B2B281813333",
"C  c #B8B885853232",
"Z  c #B9B986863535",
"A  c #C5C584841E1E",
"S  c #C5C586862222",
"D  c #C6C688882525",
"F  c #C8C88C8C2C2C",
"G  c #C9C98E8E3030",
"H  c #CACA90903434",
"J  c #CBCB92923838",
"K  c #CFCF99994545",
"L  c #D0D09D9D4C4C",
"P  c #CCCCA1A15D5D",
"I  c #D2D2A1A15252",
"U  c #D2D2A2A25454",
"Y  c #D4D4A4A45858",
"T  c #D5D5A7A75E5E",
"R  c #D7D7ACAC6767",
"E  c #F6F6E6E65757",
"W  c #DBDBD8D87979",
"Q  c #E5E5DEDE7373",
"!  c #E0E0DBDB7474",
"~  c #E3E3DDDD7474",
"^  c #E0E0DCDC7E7E",
"/  c #ECECE1E16666",
"(  c #EAEAE1E16C6C",
")  c #797969698686",
"_  c #7D7D6B6B8787",
"`  c #747476769A9A",
"'  c #5E5E8E8EBABA",
"]  c #77779898C3C3",
"[  c #7474A0A0CFCF",
"{  c #7C7CA6A6D2D2",
"}  c #9292B1B1BCBC",
"|  c #9999B6B6BEBE",
" . c #A5A5A4A4BCBC",
".. c #A3A3BABAB0B0",
"X. c #D2D283838383",
"o. c #BFBFCACA9A9A",
"O. c #B3B3C4C4A1A1",
"+. c #B1B1C3C3ADAD",
"@. c #B7B7C8C8BBBB",
"#. c #CACAD0D08D8D",
"$. c #D6D6D6D68383",
"%. c #D5D5D7D78B8B",
"&. c #DADADADA8D8D",
"*. c #C5C5CDCD9191",
"=. c #C0C0CACA9494",
"-. c #C6C6CFCF9A9A",
";. c #D0D0D5D59393",
":. c #D7D7D8D89191",
">. c #D1D1D6D69999",
",. c #D5D5D8D89898",
"<. c #CCCCD4D4A1A1",
"1. c #CACAD3D3AEAE",
"2. c #CCCCD5D5ADAD",
"3. c #D5D5DADAA8A8",
"4. c #DADADDDDAFAF",
"5. c #E3E3E6E6BEBE",
"6. c #ECECEBEBBBBB",
"7. c #E9E9EAEABCBC",
"8. c #8484ABABD5D5",
"9. c #8989ADADD3D3",
"0. c #9797B8B8D5D5",
"q. c #B9B9D0D0E7E7",
"w. c #DBDBE1E1C1C1",
"e. c #D9D9E0E0CCCC",
"r. c #DCDCE5E5DBDB",
"t. c #E8E8EAEAC5C5",
"y. c #EDEDEDEDC4C4",
"u. c #E4E4E8E8C9C9",
"i. c #EEEEEFEFD6D6",
"p. c #EBEBEEEED8D8",
"a. c #C7C7D8D8E6E6",
"s. c #EEEEF3F3F5F5",
/* pixels */
"' ' ' ' ' ' ' ' ' ' ' ' ' 6 4 ' ",
"' ' 4 4 e y u r 5 4 4 q V P 0 ' ",
"' ' 4 r.u.7.6.y.i.s.5 Z U R 0 ' ",
"' ' t w.<.:.&.,.2.p.5 C J T 8 ' ",
"' ' a 4.%.Q ( ^ >.t.6 B H Y 8 ' ",
"' ' s 3.$./ E ~ ;.5.6 N G I 8 ' ",
"' ' p 1.#.W ! $.-.e.5 N F L 7 ' ",
"' ' 9 @.O.=.*.o.+.a.5 g D K 7 ' ",
"' ' 4 0.} ....| 9.q.5 f D K 4 ' ",
"' ' 4 8.[ ] ) o _  .6 f S H 7 ' ",
"' ' 4 { ` X j m k = @ w A H 4 ' ",
"' ' 4 o * X.M x n M v + S F 4 ' ",
"' ' 4 . h b , 2 3 x l . i d 4 ' ",
"' ' ' ' $ c < > < z % . ' 6 4 ' ",
"' ' ' . - 1 > : & ; &   ' ' ' ' ",
"' ' ' # $ $ $ O O O     ' ' ' ' "
};
