/* XPM */
static char *xfce__backdrop[] = {
/* columns rows colors chars-per-pixel */
"16 16 56 1",
"  c #090909",
". c #0D0D0D",
"X c #404649",
"o c #646464",
"O c #9D0909",
"+ c #A00C0C",
"@ c #A10D0D",
"# c #A20E0E",
"$ c #A51111",
"% c #B01414",
"& c #BC1313",
"* c #BF1717",
"= c #BC3A3A",
"- c #E33131",
"; c #E43131",
": c #8A5A0B",
"> c #8D5C0E",
", c #916012",
"< c #946315",
"1 c #956416",
"2 c #986718",
"3 c #98691C",
"4 c #B44848",
"5 c #B49A6D",
"6 c #C99B52",
"7 c #D9AE69",
"8 c #DEB370",
"9 c #E6BB77",
"0 c #7C828A",
"q c #79838F",
"w c #5A88B2",
"e c #5E8EBA",
"r c #6E89A3",
"t c #808083",
"y c #898989",
"u c #8D8D8D",
"i c #818C99",
"p c #929292",
"a c #9B9B9C",
"s c #9D9D9E",
"d c #A2A2A2",
"f c #A4A4A5",
"g c #A4B0BB",
"h c #B0B0B0",
"j c #BEBEBE",
"k c #CBCBCD",
"l c #CECECF",
"z c #D1D1D3",
"x c #D3D3D2",
"c c #D0D3D5",
"v c #D4D4D6",
"b c #D7D9DD",
"n c #E7E8EA",
"m c #EEEEEC",
"M c #F9F9F9",
"N c #FCFDFD",
/* pixels */
"eeeeeeeeeeeeeeee",
"itttttttttttttti",
"tmmmmmmmmmmmmmmt",
"tmoooooooooooomt",
"tmojj********omt",
"tmohh**%$%@@@Omt",
"tmodd4&@;@@--Omt",
"tmopu=y.XXXXX mt",
"tmooooo:>:::::mt",
"tmxxxxx<999991mt",
"tmmmmmm2226222mt",
"ttttttttt>8>tttt",
"eee0gasdf,7<qeee",
"eertcklzv535tree",
"eetNnbbbbbbbMtee",
"eettttttttttttwe"
};
