/* XPM */
static char *xscreensaver[] = {
/* columns rows colors chars-per-pixel */
"16 16 45 1",
"  c #2E3436",
". c #3F494B",
"X c #3F4A4F",
"o c #3F4A52",
"O c #3E4A53",
"+ c #3D4D5C",
"@ c #3B4E62",
"# c #3B4F66",
"$ c #3A526D",
"% c #39526E",
"& c #395372",
"* c #395373",
"= c #37567B",
"- c #345A84",
"; c #335B8B",
": c #335C8D",
"> c #7C828A",
", c #5A88B2",
"< c #5E8DB9",
"1 c #5E8EBA",
"2 c #6D88A2",
"3 c #808083",
"4 c #818C99",
"5 c #828D99",
"6 c #9B9B9C",
"7 c #9D9D9E",
"8 c #A1A1A2",
"9 c #A4A4A5",
"0 c #AAAAAB",
"q c #A4B0BB",
"w c #C1C5CB",
"e c #CBCBCD",
"r c #CECECF",
"t c #D1D1D3",
"y c #D3D3D2",
"u c #D2D3D4",
"i c #D4D4D6",
"p c #D1D5DA",
"a c #D6DADD",
"s c #D7DADE",
"d c #DADADB",
"f c #E7E8EA",
"g c #EEEEEC",
"h c #F9F9F9",
"j c #FCFDFD",
/* pixels */
"111111111<111111",
"43333>3333333334",
"3gggggggggggggg3",
"3g            g3",
"3g .....u.... g3",
"3g .u.ooooX.. g3",
"3g o+#p&**$u+ g3",
"3g @%=-;:;-=$ g3",
"3g            g3",
"3gyyyyttyyyyyyg3",
"3gggggggggggggg3",
"33333333>3333333",
"111>q678990w>111",
"1123ueruidda3211",
"113jfsaaassah311",
"11333333333333,1"
};
