/* XPM */
static char *abiword[] = {
/* columns rows colors chars-per-pixel */
"16 16 130 2",
"   c #204A87",
".  c #204B88",
"X  c #214B88",
"o  c #224C88",
"O  c #224C89",
"+  c #224D89",
"@  c #234D89",
"#  c #234D8A",
"$  c #244D8A",
"%  c #244E8A",
"&  c #254E8A",
"*  c #254F8A",
"=  c #244E8B",
"-  c #254E8B",
";  c #254F8B",
":  c #264F8B",
">  c #27508B",
",  c #26518B",
"<  c #28518C",
"1  c #2A538F",
"2  c #2A548D",
"3  c #2B548E",
"4  c #2C558F",
"5  c #285390",
"6  c #2D5690",
"7  c #2E5790",
"8  c #345B93",
"9  c #3B6299",
"0  c #3E669C",
"q  c #3E669E",
"w  c #446A9E",
"e  c #436AA0",
"r  c #446DA5",
"t  c #496DA0",
"y  c #486EA1",
"u  c #486EA3",
"i  c #4C70A2",
"p  c #4E72A3",
"a  c #4F73A4",
"s  c #4F73A5",
"d  c #4F77AB",
"f  c #5176A9",
"g  c #5277AA",
"h  c #5378AB",
"j  c #5379AB",
"k  c #5679AA",
"l  c #5179AD",
"z  c #547AAE",
"x  c #507CB3",
"c  c #557DB2",
"v  c #537FB5",
"b  c #547FB5",
"n  c #5980B2",
"m  c #5D82B2",
"M  c #5883B7",
"N  c #5983B8",
"B  c #5984B9",
"V  c #5C86B9",
"C  c #5F89BD",
"Z  c #6385B3",
"A  c #6186B6",
"S  c #6187B7",
"D  c #6B8CB7",
"F  c #6389B9",
"G  c #648CBB",
"H  c #698BB8",
"J  c #6C8EBA",
"K  c #688DBD",
"L  c #688FBE",
"P  c #6E90BC",
"I  c #6C90BE",
"U  c #6D92BE",
"Y  c #7392BB",
"T  c #6890C0",
"R  c #6E96C4",
"E  c #7195C1",
"W  c #7596C0",
"Q  c #7498C2",
"!  c #7598C3",
"~  c #7698C3",
"^  c #7699C5",
"/  c #7D9BC2",
"(  c #789BC5",
")  c #7B9DC5",
"_  c #7E9FC9",
"`  c #7EA2CD",
"'  c #84A1C7",
"]  c #83A3CB",
"[  c #84A3CB",
"{  c #81A4CC",
"}  c #84A5CC",
"|  c #8CA8CA",
" . c #8EA9CB",
".. c #8CA9CD",
"X. c #8CAACF",
"o. c #84A9D2",
"O. c #86AAD2",
"+. c #86AAD3",
"@. c #8AAAD0",
"#. c #8CABD1",
"$. c #8EAED4",
"%. c #91AFD3",
"&. c #95B2D3",
"*. c #92B1D4",
"=. c #93B1D5",
"-. c #90B2D7",
";. c #96B2D4",
":. c #95B3D6",
">. c #94B4D7",
",. c #9AB4D5",
"<. c #9DB6D5",
"1. c #9BB9DA",
"2. c #9DB9D8",
"3. c #A0BBDA",
"4. c #A3BCDA",
"5. c #A4BDDA",
"6. c #A1BDDD",
"7. c #A8BFDA",
"8. c #ABC4DF",
"9. c #AEC4DD",
"0. c #B0C5DE",
"q. c #AFC6E0",
"w. c #B0C6E0",
"e. c #B2C8E2",
"r. c #B4CAE3",
"t. c #B9CEE5",
"y. c #B8CEE6",
"u. c #C1D3E8",
"i. c #CBDAEC",
"p. c None",
/* pixels */
"p.p.p.p.p.p.p.< X < p.p.p.p.p.p.",
"p.p.p.p.p.: i 0.i.| : p.p.p.p.p.",
"p.p.p.p.p.t u.6.-.y. .: p.p.p.p.",
"p.p.p.p., 9.1.+.o.o.y.a p.p.p.p.",
"p.p.p.: Y 8.>.r.e.;.$.5.< p.p.p.",
"p.p.p.8 q.$.9.k s 5.*.1.D : p.p.",
"p.p.: ' =.3.H : : 4 ,.X.<.: p.p.",
"p.p.4 4.` ;.@ p.p.p.y &.%.a p.p.",
"p.@ A #.{ P : p.p.p.@ W ] / : p.",
"p.@  .R } u p.p.p.p.@ 0 [ #., p.",
"p.w { C _ 6 @ : @ 9 m ~ A ) e p.",
": J T V ^ n z A E ^ c 3 X g j X ",
"X ! M v V V V L E g @ p.p.< r @ ",
"@ P v x M G I l 3 @ p.p.p.@ 5 @ ",
"# d L F l 0 : @ p.p.p.p.p.p.X X ",
"p.X   X @ X p.p.p.p.p.p.p.p.p.p."
};
