/* XPM */
static char *accessories_dictionary[] = {
/* columns rows colors chars-per-pixel */
"16 16 130 2",
"   c #3E263B",
".  c #3F273C",
"X  c #40273D",
"o  c #472D45",
"O  c #4B304A",
"+  c #5F4063",
"@  c #644469",
"#  c #65456A",
"$  c #787975",
"%  c #797A76",
"&  c #7A7B77",
"*  c #7A7C77",
"=  c #7B7C78",
"-  c #7C7D79",
";  c #7D7D7A",
":  c #7D7E7A",
">  c #7E7E7A",
",  c #7E7F7A",
"<  c #A40000",
"1  c #A40303",
"2  c #A60707",
"3  c #AC0E0E",
"4  c #A41413",
"5  c #A51515",
"6  c #AA1F1E",
"7  c #BE3B3B",
"8  c #B64241",
"9  c #A05E5A",
"0  c #BE7C7A",
"q  c #C86262",
"w  c #C26D6D",
"e  c #C67777",
"r  c #81827E",
"t  c #828480",
"y  c #838481",
"u  c #848582",
"i  c #868783",
"p  c #878884",
"a  c #888985",
"s  c #8A8B87",
"d  c #8C8D89",
"f  c #8E8F8B",
"g  c #90918D",
"h  c #939490",
"j  c #969793",
"k  c #9C9590",
"l  c #979894",
"z  c #999B95",
"x  c #9A9B97",
"c  c #9B9D97",
"v  c #9C9C99",
"b  c #9C9D99",
"n  c #9E9F9B",
"m  c #B09291",
"M  c #9FA09C",
"N  c #A1A29E",
"B  c #A1A29F",
"V  c #A2A39F",
"C  c #A1A2A0",
"Z  c #A7A8A5",
"A  c #ACADA8",
"S  c #ADAFA9",
"D  c #BDABA6",
"F  c #B1B4AD",
"G  c #B6B7B4",
"H  c #B6B8B2",
"J  c #B6B9B3",
"K  c #B9B9B7",
"L  c #BABEB7",
"P  c #B9BAB8",
"I  c #BBBCBA",
"U  c #BEBFBB",
"Y  c #C88181",
"T  c #D48989",
"R  c #C0AEA7",
"E  c #D3AAAA",
"W  c #C6B0AC",
"Q  c #BFC0BE",
"!  c #C3C6BF",
"~  c #C4C8C1",
"^  c #C7CAC3",
"/  c #C9CAC7",
"(  c #CACDC6",
")  c #CACCC8",
"_  c #CCCECA",
"`  c #D9C1C1",
"'  c #DEC0C0",
"]  c #CDD0C9",
"[  c #CDD1CA",
"{  c #D0D3CC",
"}  c #D3D7CF",
"|  c #D3D6D1",
" . c #D5D7D2",
".. c #D5D7D3",
"X. c #D7D9D4",
"o. c #D7D9D5",
"O. c #D7D8D6",
"+. c #DFDCDA",
"@. c #E3E3E3",
"#. c #E3E4E1",
"$. c #E7E7E7",
"%. c #E9E9E9",
"&. c #EAEBE9",
"*. c #EBEBEB",
"=. c #EBECEA",
"-. c #ECECEC",
";. c #ECEDEC",
":. c #EDEDEC",
">. c #EEEFED",
",. c #EFEFEF",
"<. c #EFF0EE",
"1. c #F1F1F1",
"2. c #F2F2F2",
"3. c #F2F3F2",
"4. c #F4F4F3",
"5. c #F4F5F4",
"6. c #F5F6F5",
"7. c #F6F6F6",
"8. c #F7F7F7",
"9. c #F8F0F0",
"0. c #F8F8F8",
"q. c #F9F9F9",
"w. c #FAFAFA",
"e. c #FAFBFA",
"r. c #FBFBFB",
"t. c #FCFCFC",
"y. c #FDFDFD",
"u. c #FEFEFE",
"i. c #FFFFFF",
"p. c None",
/* pixels */
"p.p.p.p.p.p.p.p.p.p.p.p.p.p.p.p.",
"p.p.p.p.- = - p.p.- - , p.p.p.p.",
"p.% - P 1.i.,.H m 4.i.1.Q u y p.",
". $ i.i.i.t.8.8.8 +.%.%.8.i.u . ",
"  % i.i.i.i.<.o.9 0 $.@.@.i.u   ",
"  % i.i.i.q.:.o.k 6 e @.@.i.d   ",
"  - i.i.i.q.:. .c W 2 Y @.i.g   ",
"  r i.i.i.8.:. .z _ w 1 ' i.g   ",
"  y i.i.e.0.=. .z ) E < T i.j   ",
"  p i.i.e.8.=.| z / ` < q i.z   ",
"  s i.i.i.i.e.#.U 8.9.< 7 i.n . ",
". d t.o.B v K <.:.I M < 3 0.n   ",
". d l A ! ! J V V F J 5 4 n v . ",
"  A ]  .} { } { ] ( ^ D D L Z   ",
". @ @ @ @ o O @ @ O o + @ @ @ . ",
".   . .   p.X     X p.. .     . "
};
