/* XPM */
static char *accessibility_directory[] = {
/* columns rows colors chars-per-pixel */
"16 16 170 2",
"   c #1B3F77",
".  c #1C4176",
"X  c #1D4177",
"o  c #1E4277",
"O  c #1C4278",
"+  c #1E4279",
"@  c #1E4379",
"#  c #1E437A",
"$  c #1E4479",
"%  c #1F4479",
"&  c #204479",
"*  c #20447A",
"=  c #20457A",
"-  c #22467B",
";  c #24487A",
":  c #24487D",
">  c #25497D",
",  c #27497C",
"<  c #284B7E",
"1  c #284C7E",
"2  c #294C7E",
"3  c #294D7F",
"4  c #204A87",
"5  c #2B4C80",
"6  c #2A4E81",
"7  c #2C5081",
"8  c #2C5288",
"9  c #2D5488",
"0  c #335485",
"q  c #33578B",
"w  c #34588D",
"e  c #375B8E",
"r  c #385C8F",
"t  c #325D99",
"y  c #335E99",
"u  c #386199",
"i  c #3E659C",
"p  c #3A71B7",
"a  c #3D74B8",
"s  c #3E74B8",
"d  c #456695",
"f  c #466896",
"g  c #466BA0",
"h  c #486DA1",
"j  c #4A6FA2",
"k  c #426EA9",
"l  c #4D71A3",
"z  c #4671AA",
"x  c #5678A9",
"c  c #5B7CAB",
"v  c #4B7AB7",
"b  c #4075B9",
"n  c #4277BA",
"m  c #4378BA",
"M  c #4378BB",
"N  c #4478BB",
"B  c #4679BB",
"V  c #467ABB",
"C  c #477ABC",
"Z  c #477BBC",
"A  c #477BBD",
"S  c #4E7CB8",
"D  c #487BBC",
"F  c #497CBC",
"G  c #4A7DBD",
"H  c #4B7DBD",
"J  c #497CBE",
"K  c #4A7DBE",
"L  c #4B7DBE",
"P  c #4D7FBE",
"I  c #4C7EBF",
"U  c #4D7FBF",
"Y  c #4E7FBE",
"T  c #4E7FBF",
"R  c #4E80BF",
"E  c #5C82B4",
"W  c #5E84B6",
"Q  c #5080BF",
"!  c #5181BF",
"~  c #5885BC",
"^  c #5F88BE",
"/  c #6287B7",
"(  c #6286B8",
")  c #698CBA",
"_  c #6B8EBB",
"`  c #4E80C0",
"'  c #4F80C0",
"]  c #5081C0",
"[  c #5081C1",
"{  c #5082C0",
"}  c #5283C1",
"|  c #5283C2",
" . c #5384C2",
".. c #5384C3",
"X. c #5584C1",
"o. c #5585C1",
"O. c #5586C3",
"+. c #5887C4",
"@. c #5A88C3",
"#. c #5C89C3",
"$. c #5888C5",
"%. c #5B89C4",
"&. c #5A89C6",
"*. c #5C8BC7",
"=. c #5E8BC7",
"-. c #5E8CC7",
";. c #5F8DC7",
":. c #638EC6",
">. c #688FC4",
",. c #608DC8",
"<. c #6990C3",
"1. c #6892C7",
"2. c #6E93C5",
"3. c #6691C8",
"4. c #6894CA",
"5. c #6D96CA",
"6. c #6894CC",
"7. c #6994CC",
"8. c #6D97CE",
"9. c #6D98CF",
"0. c #7297C7",
"q. c #7498C7",
"w. c #7098CA",
"e. c #7699C8",
"r. c #769BCB",
"t. c #779CCB",
"y. c #769CCF",
"u. c #789BC9",
"i. c #799BC9",
"p. c #7D9FCB",
"a. c #789ECF",
"s. c #749CD2",
"d. c #769ED2",
"f. c #779ED2",
"g. c #789FD2",
"h. c #7FA0CB",
"j. c #78A0D2",
"k. c #7FA3D2",
"l. c #7AA1D4",
"z. c #7BA2D5",
"x. c #7DA2D4",
"c. c #7FA4D5",
"v. c #7EA4D7",
"b. c #82A5D1",
"n. c #8BACD7",
"m. c #9BB7DD",
"M. c #BACEE7",
"N. c #BED0E9",
"B. c #BFD1E9",
"V. c #C4D0E1",
"C. c #C4D1E2",
"Z. c #CAD9ED",
"A. c #CDDBED",
"S. c #D3DFF0",
"D. c #D9E4F2",
"F. c #DEE7F4",
"G. c #DEE8F4",
"H. c #EFF4F9",
"J. c #F5F8FB",
"K. c #F6F8FC",
"L. c #F7F9FC",
"P. c #F7FAFC",
"I. c #F8FAFC",
"U. c #F9FAFD",
"Y. c #FAFBFD",
"T. c #FBFCFE",
"R. c #FDFDFE",
"E. c #FEFFFF",
"W. c #FFFFFF",
"Q. c None",
/* pixels */
"Q.Q.Q.Q.Q.- : ; ; : - Q.Q.Q.Q.Q.",
"Q.Q.Q.Q.6 x _ u.q./ l 3 Q.Q.Q.Q.",
"Q.Q.3 d p.5.#.y t X.:.<.r : Q.Q.",
"Q.Q.f b.@.P F C.V.D V ! 1.e Q.Q.",
"Q.0 h.%.P P P A.A.F B B R ^ : Q.",
"5 c w.R 4 4 4 4 4 4 4 4 V X.i % ",
"5 _ #.F H.K.I.I.I.R.R.I.p V z O ",
"3 u.R F P ] T K.R.F s a p s S . ",
", w.' F R ] ' P.R.] I A M M D . ",
"% E | I ' ] f.R.R.b...' I I k O ",
". h 3.' O.%.S.M.C.G.*.&...+.u   ",
"Q.O 2.;.*.n.F.8.9.D.m.,.;.~ O Q.",
"Q.Q.e g.7.N.c.f.f.x.Z.7.4.8 Q.Q.",
"Q.Q.O q 0.g.g.l.x.l.f.>.9 % Q.Q.",
"Q.Q.Q.Q.- j ( i.r.W g * Q.Q.Q.Q.",
"Q.Q.Q.Q.Q.O = O O = O Q.Q.Q.Q.Q."
};
