/* XPM */
static char *adobe_pdf[] = {
/* columns rows colors chars-per-pixel */
"16 16 96 2",
"   c #000000",
".  c #620000",
"X  c #650000",
"o  c #680000",
"O  c #6A0000",
"+  c #6D0000",
"@  c #6F0000",
"#  c #710000",
"$  c #720000",
"%  c #860000",
"&  c #8B0000",
"*  c #A00000",
"=  c #A90000",
"-  c #B20000",
";  c #B30000",
":  c #BB0000",
">  c #C20000",
",  c #C30000",
"<  c #C80000",
"1  c #CB0000",
"2  c #D30000",
"3  c #D00202",
"4  c #D10303",
"5  c #D60707",
"6  c #D80000",
"7  c #DB0000",
"8  c #DF0000",
"9  c #DA0A0A",
"0  c #DB0A0A",
"q  c #DC0C0C",
"w  c #E00000",
"e  c #E41111",
"r  c #ED1818",
"t  c #F51F1F",
"y  c #FA2222",
"u  c #FD2626",
"i  c #FD3D3D",
"p  c #FD4C4C",
"a  c #FF4E4E",
"s  c #FD5A5A",
"d  c #FB6969",
"f  c #FC6A6A",
"g  c #FA7878",
"h  c #FD7B7B",
"j  c #FE7C7C",
"k  c #888888",
"l  c #8A8A8A",
"z  c #909090",
"x  c #939393",
"c  c #949494",
"v  c #979797",
"b  c #A0A0A0",
"n  c #A2A2A2",
"m  c #A5A5A5",
"M  c #FB8989",
"N  c #FD8C8C",
"B  c #FB9B9B",
"V  c #FE9E9E",
"C  c #F9ABAB",
"Z  c #F9ACAC",
"A  c #FCAFAF",
"S  c #FDAFAF",
"D  c #FDB0B0",
"F  c #F9BEBE",
"G  c #FABFBF",
"H  c #C0C0C0",
"J  c #C7C7C7",
"K  c #D2D2D2",
"L  c #DFDFDF",
"P  c #F7CECE",
"I  c #F6CFCF",
"U  c #FBD2D2",
"Y  c #FCD3D3",
"T  c #E3E3E3",
"R  c #E6E6E6",
"E  c #E8E8E8",
"W  c #ECECEC",
"Q  c #EEEEEE",
"!  c #EFEFEF",
"~  c #FBE6E6",
"^  c #F0F0F0",
"/  c #F2F2F2",
"(  c #F3F3F3",
")  c #F4F4F4",
"_  c #F5F5F5",
"`  c #F6F6F6",
"'  c #F7F7F7",
"]  c #F8F8F8",
"[  c #F9F9F9",
"{  c #FAFAFA",
"}  c #FBFBFB",
"|  c #FCFCFC",
" . c #FDFDFD",
".. c #FEFEFE",
"X. c #FFFFFF",
"o. c None",
/* pixels */
"o.o.o.o.o.o.o.o.o.o.o.o.o.o.o.o.",
"o.o.o.o.[ ' ) ^ W R m T m o.o.o.",
"7 8 w 7 2 < > : - = m | L z o.o.",
"2 y u t r e q 2 > * k [ [ T z o.",
"- 9 q q 9 5 2 < : & n k k c n o.",
"% # # @ @ O X . . X W R R J z o.",
"o.o.o.o.] ' ) ' g I / / W W K o.",
"o.o.o.o.[ ' ' ' d I ' ' ' ' ' o.",
"o.o.o.o.] ] ] ] C Z ' ' ' ' ] o.",
"o.o.o.o.| | ] ] d i ' ' ' [ [ o.",
"o.o.o.o.| | | ~ s G p G C Y [ o.",
"o.o.o.o.| | | h Y D S B M j [ o.",
"o.o.o.o.| Y N S | | | | [ | | o.",
"o.o.o.o.| a C | | | | | | | | o.",
"o.o.o.o.| | | | | | | | | | | o.",
"o.o.o.o.                      o."
};
