/* XPM */
static char *adobe_reader[] = {
/* columns rows colors chars-per-pixel */
"16 16 149 2",
"   c #7B1616",
".  c #7C1616",
"X  c #7F4646",
"o  c #747474",
"O  c #7F7575",
"+  c #797979",
"@  c #7B7B7B",
"#  c #7E7E7E",
"$  c #7F7F7F",
"%  c #811717",
"&  c #8D1818",
"*  c #8E1818",
"=  c #8F1818",
"-  c #8E1A1A",
";  c #8F1A1A",
":  c #8E1B1B",
">  c #921919",
",  c #921A1A",
"<  c #8E2D2D",
"1  c #8A3030",
"2  c #8E3333",
"3  c #8F3737",
"4  c #B03C3C",
"5  c #CB2222",
"6  c #CD2323",
"7  c #CB2626",
"8  c #CB2828",
"9  c #D02323",
"0  c #D32424",
"q  c #D62424",
"w  c #D62525",
"e  c #D92525",
"r  c #DD2525",
"t  c #CB3535",
"y  c #D93535",
"u  c #E02626",
"i  c #E52727",
"p  c #E62727",
"a  c #E82727",
"s  c #E12E2E",
"d  c #E92828",
"f  c #EF2929",
"g  c #ED2A2A",
"h  c #EF2B2B",
"j  c #EF3131",
"k  c #EF3232",
"l  c #934040",
"z  c #904F4F",
"x  c #8E6565",
"c  c #8D6C6C",
"v  c #CC4040",
"b  c #EF4E4E",
"n  c #CE6363",
"m  c #CD6767",
"M  c #CE7777",
"N  c #CF7B7B",
"B  c #D47E7E",
"V  c #D67F7F",
"C  c #EF6363",
"Z  c #EF6464",
"A  c #F26E6E",
"S  c #EF7171",
"D  c #F47C7C",
"F  c #858585",
"G  c #878787",
"H  c #8A8A8A",
"J  c #8D8D8D",
"K  c #8E8E8E",
"L  c #8F8F8F",
"P  c #908585",
"I  c #968F8F",
"U  c #909090",
"Y  c #919191",
"T  c #969696",
"R  c #979797",
"E  c #989898",
"W  c #CD8383",
"Q  c #CD8787",
"!  c #CD8A8A",
"~  c #CD8D8D",
"^  c #D08585",
"/  c #D28686",
"(  c #CD9090",
")  c #CF9F9F",
"_  c #D29292",
"`  c #E08686",
"'  c #EA8B8B",
"]  c #EC8888",
"[  c #EA8C8C",
"{  c #F08080",
"}  c #F08888",
"|  c #E69191",
" . c #F39191",
".. c #F69393",
"X. c #F19494",
"o. c #F69D9D",
"O. c #D1A1A1",
"+. c #D4A9A9",
"@. c #D9AAAA",
"#. c #D2BCBC",
"$. c #F3A1A1",
"%. c #F4A0A0",
"&. c #F4A5A5",
"*. c #F6A4A4",
"=. c #F6A9A9",
"-. c #F4ABAB",
";. c #F6B1B1",
":. c #F7B5B5",
">. c #C4C4C4",
",. c #D4C2C2",
"<. c #D3C4C4",
"1. c #D3D2D2",
"2. c #D3D3D3",
"3. c #D4D4D4",
"4. c #D5D5D5",
"5. c #D9D0D0",
"6. c #D8D8D8",
"7. c #DADADA",
"8. c #DCDCDC",
"9. c #DEDEDE",
"0. c #EFCECE",
"q. c #F3C0C0",
"w. c #F0C5C5",
"e. c #F6D5D5",
"r. c #F6D9D9",
"t. c #E1E1E1",
"y. c #E5E5E5",
"u. c #E6E6E6",
"i. c #E9E7E7",
"p. c #EAE9E9",
"a. c #ECECEC",
"s. c #EFEFEF",
"d. c #F7E6E6",
"f. c #F7E9E9",
"g. c #FBE9E9",
"h. c #F1F1F1",
"j. c #F3F0F0",
"k. c #F2F2F2",
"l. c #F3F3F3",
"z. c #F4F4F4",
"x. c #F5F5F5",
"c. c #F6F6F6",
"v. c #F7F7F7",
"b. c #F8F8F8",
"n. c #F9F9F9",
"m. c #FBFBFB",
"M. c #FCFCFC",
"N. c #FDFDFD",
"B. c None",
/* pixels */
"B.Y E E E R R R I l > > > 1 @ B.",
"K a.n.n.n.n.n.d.$.-.&.' V ) >.o ",
"E M.M.M.M.m.;.k A 0.q 5 5 W 1.@ ",
"R M.M.M.g.D g | 8.M 5 5 5 ! 2.@ ",
"R n.f.] s y +.2.1.t 5 5 5 ! 1.@ ",
"z _ 8 7 n ,.4.4.O.5 5 5 5 ~ 1.@ ",
"  ^ N <.4.4.2.2.m 5 5 5 6 ( 1.# ",
"o 1.1.1.1.2.2.2.v 5 5 5 5 W y.Y ",
"H y.t.9.6.6.6.5.w e r u a C v.F ",
"z v.v.v.n.v.v.q.f g f f f j i.@ ",
"> :.h.z.v.h.v.X.f f f f g i #.# ",
"3 ..} h.v.h.h.{ f f f f a 6 @.K ",
"P o.h w.h.h.h.S f f f f q 9 %.K ",
"L e.g b h.a.a.Z f f f r 5 i ..c ",
"G p.&...r.v.v.=..... .V ` ..' 3 ",
"B.G x = 2 K K < : & % . & & > 4 "
};
