/* XPM */
static char *amule[] = {
/* columns rows colors chars-per-pixel */
"16 16 114 2",
"   c #4D3B3C",
".  c #712323",
"X  c #7B520D",
"o  c #444439",
"O  c #524B38",
"+  c #5D533F",
"@  c #685125",
"#  c #3C4142",
"$  c #3E4545",
"%  c #434441",
"&  c #404647",
"*  c #484842",
"=  c #4E4E4E",
"-  c #4F504A",
";  c #545656",
":  c #5B5E5C",
">  c #615D51",
",  c #79705D",
"<  c #5F6160",
"1  c #666661",
"2  c #636464",
"3  c #626866",
"4  c #626867",
"5  c #6B6B6B",
"6  c #6F716F",
"7  c #6F7472",
"8  c #727471",
"9  c #747776",
"0  c #7A7F7C",
"q  c #920000",
"w  c #9E0000",
"e  c #A10000",
"r  c #B30000",
"t  c #8F5A03",
"y  c #885708",
"u  c #905802",
"i  c #905A02",
"p  c #915A02",
"a  c #905A03",
"s  c #915A03",
"d  c #925B03",
"f  c #935C03",
"g  c #915B04",
"h  c #905A06",
"j  c #925C05",
"k  c #935D05",
"l  c #925D07",
"z  c #935D07",
"x  c #935E07",
"c  c #955C04",
"v  c #955E05",
"b  c #945D06",
"n  c #925D10",
"m  c #935F11",
"M  c #96620F",
"N  c #9C660F",
"B  c #946011",
"V  c #986212",
"C  c #9C6815",
"Z  c #9A6918",
"A  c #9E6B1A",
"S  c #B0761A",
"D  c #BC7F1E",
"F  c #AF7D2B",
"G  c #B67F27",
"H  c #A77A34",
"J  c #A47B37",
"K  c #816C4A",
"L  c #B28234",
"P  c #B5873D",
"I  c #B88A3E",
"U  c #CC891E",
"Y  c #DF9D33",
"T  c #DDA03E",
"R  c #AD8442",
"E  c #A38149",
"W  c #BE8E41",
"Q  c #8D8066",
"!  c #A99065",
"~  c #A8936C",
"^  c #AA9A7E",
"/  c #C89646",
"(  c #D09F4F",
")  c #CBA05E",
"_  c #888B8A",
"`  c #949696",
"'  c #999995",
"]  c #9A9E9A",
"[  c #9B9D9C",
"{  c #AC9F87",
"}  c #BAAF9C",
"|  c #ABA9A3",
" . c #ACB0AA",
".. c #B1B4AF",
"X. c #B4B7B0",
"o. c #B9BCB5",
"O. c #BABDB6",
"+. c #B9BBB8",
"@. c #BEBEBD",
"#. c #C2BDB0",
"$. c #C2C5C1",
"%. c #C5C8C2",
"&. c #CBCDC8",
"*. c #CDCDCB",
"=. c #CFCFCF",
"-. c #D4D5D2",
";. c #D8D9D6",
":. c #D8D8D7",
">. c #DADCD9",
",. c #DFE0DE",
"<. c #DFE0E0",
"1. c #EBEBE9",
"2. c #EDEDEC",
"3. c None",
/* pixels */
"3.3.a k 3.3.3.3.3.3.3.3.3.3.3.3.",
"3.3.k v k 3.m 3.3.n 3.3.3.3.3.3.",
"3.3.3.k ) C g B B V 3.3.3.3.3.3.",
"3.3.3.3.A W b a v B H Z k 3.3.3.",
"3.3.3.3.a g I ( / F v N a a 3.3.",
"3.3.3.3.a L T Y U D G a a f a 3.",
"3.3.3.3.f P ^ ~ R #.! a 3.3.3.3.",
"3.3.3.3.a E 1.*.{ @.} a 3.3.3.3.",
"3.3.3.3.k J | 5 , = Q v 3.3.3.3.",
"3.3.3.3.a S K % 8 [ ' > X 3.3.3.",
"3.3.3.3.y + < <.2.>.-.2 1 @ 3.3.",
"3.3.3.3.O =.9 ` :.%.o.: >.- 3.3.",
"3.3.3.3.* <.&.0 X.O.X._ o.& 3.3.",
"3.3.3.3.o 8 $.]  .O.O.2   3.3.3.",
"3.3.3.3.3.3.# $ 2 7 ; . r e 3.3.",
"3.3.3.3.3.3.3.3.3.3.3.q w 3.3.3."
};
