/* XPM */
static char *anyremote[] = {
/* columns rows colors chars-per-pixel */
"16 16 33 1",
"  c #2E3436",
". c #3A4141",
"X c #D94040",
"o c #80817E",
"O c #3465A4",
"+ c #4777B0",
"@ c #4777B2",
"# c #4A78B2",
"$ c #487AB3",
"% c #4F7FB6",
"& c #4F80B7",
"* c #5181B9",
"= c #888A85",
"- c #8A8C87",
"; c #878B89",
": c #B6B7B3",
"> c #B8BAB6",
", c #B9BAB6",
"< c #C3C5C0",
"1 c #C3C5C1",
"2 c #CBCDC8",
"3 c #E8E8E6",
"4 c #EEEEED",
"5 c #F0F0EF",
"6 c #F2F2F1",
"7 c #F4F4F3",
"8 c #F6F6F4",
"9 c #F6F6F5",
"0 c #F8F8F7",
"q c #FAFAF9",
"w c #FCFCFB",
"e c #FEFEFD",
"r c None",
/* pixels */
"rrrrrrrrrrrrrrrr",
"rrrrr@#&*%#@rrrr",
"rrr;==OOOOO==;rr",
"rrr=8wq088643=rr",
"rrr=e.     .4=rr",
"rrr=e o o o 4=rr",
"rrr=e       4=rr",
"rrr=e o o o 4=rr",
"rrr=e       4=rr",
"rrr=e o o o 4=rr",
"rrr=e       4=rr",
"rrr=e o o X 4=rr",
"rrr=e.     .4=rr",
"rrr=e21>:><24=rr",
"rrr=8wq087663=rr",
"rrr-=========-rr"
};
