/* XPM */
static char *applets_screenshooter[] = {
/* columns rows colors chars-per-pixel */
"16 16 112 2",
"   c #0F1112",
".  c #161817",
"X  c #151718",
"o  c #161718",
"O  c #171A1C",
"+  c #181A1A",
"@  c #181B1C",
"#  c #181B1D",
"$  c #202426",
"%  c #202526",
"&  c #242627",
"*  c #242728",
"=  c #272C2D",
"-  c #292A28",
";  c #2A2B29",
":  c #282C2E",
">  c #282D2F",
",  c #292D30",
"<  c #2E3436",
"1  c #363734",
"2  c #373836",
"3  c #3C3D3B",
"4  c #3D3F3D",
"5  c #3E3F3D",
"6  c #40413F",
"7  c #414342",
"8  c #424442",
"9  c #444542",
"0  c #444745",
"q  c #454746",
"w  c #484946",
"e  c #4C4E4D",
"r  c #4C4F4D",
"t  c #4E504D",
"y  c #4F514E",
"u  c #50524E",
"i  c #535551",
"p  c #545652",
"a  c #555753",
"s  c #565854",
"d  c #575955",
"f  c #585A56",
"g  c #5C5E59",
"h  c #5D5E5A",
"j  c #5F615D",
"k  c #60625E",
"l  c #61635F",
"z  c #636561",
"x  c #646662",
"c  c #656763",
"v  c #686A66",
"b  c #696B66",
"n  c #6A6C68",
"m  c #6B6C69",
"M  c #6B6D69",
"N  c #6C6E6A",
"B  c #6E706C",
"V  c #70726E",
"C  c #727470",
"Z  c #737571",
"A  c #757671",
"S  c #747672",
"D  c #757773",
"F  c #777976",
"G  c #787A76",
"H  c #797B76",
"J  c #7A7C77",
"K  c #7B7D79",
"L  c #7C7E7A",
"P  c #7D7F7A",
"I  c #7F817D",
"U  c #82847F",
"Y  c #848681",
"T  c #848682",
"R  c #858782",
"E  c #868884",
"W  c #878985",
"Q  c #888A85",
"!  c #888A86",
"~  c #898B86",
"^  c #898B87",
"/  c #8A8C87",
"(  c #8A8D87",
")  c #8B8D88",
"_  c #8B8C89",
"`  c #8D8F8A",
"'  c #8D8F8B",
"]  c #90928E",
"[  c #909394",
"{  c #A0A39D",
"}  c #A2A59F",
"|  c #A3A4A3",
" . c #A3A5A3",
".. c #A4A6A0",
"X. c #A4A5A3",
"o. c #A5A7A4",
"O. c #A6A9A2",
"+. c #A8ABA5",
"@. c #A9ACA5",
"#. c #AAADA7",
"$. c #A5A7A8",
"%. c #A6A7A8",
"&. c #ADB0AA",
"*. c #AFB1AB",
"=. c #B1B4AE",
"-. c #DADBDB",
";. c #EBEBEB",
":. c #ECECEC",
">. c #F9F9F9",
",. c #FDFDFD",
"<. c #FFFFFF",
"1. c None",
/* pixels */
"1.1.1.1.1.1.1.1.1.1.1.1.1.1.1.1.",
"1.1.1.1.1.! ! ! ! ! ! 1.1.1.1.1.",
"1.1.1.1.1.! :.;.;.>.! 1.1.1.1.1.",
"1.1.< < < ! ,.,.,.,.! < 1.1.1.1.",
"< < < N *.I D Z Z B B ..< < < < ",
"< =.*.*.! ` o.X. . .K K { X.} < ",
"< #.l f m ) 4 . @ 7 W b p W ) 1 ",
"< #.l y ] 4   X @ O 0 W i T W < ",
"< #.j l ^ o X -.$.% & W s H ^ < ",
"< #.l m ^ O O o.> = = R 6 B ) < ",
"< #.j s ` 7 @ & , [ e I 2 c ^ < ",
"< O.l s H ! 0 * = t T 3 ; x F < ",
"< O.b b i g D R U j 1 - i b F < ",
"< R U H D N l u t w 7 B F ` ^ < ",
"1.< < < < < < < < < < < < < < < ",
"1.1.1.1.1.1.1.1.1.1.1.1.1.1.1.1."
};
