/* XPM */
static char *assogiate[] = {
/* columns rows colors chars-per-pixel */
"16 16 41 1",
"  c #757F2A",
". c #777E45",
"X c #798333",
"o c #838D30",
"O c #848E32",
"+ c #8B9633",
"@ c #A0AD3A",
"# c #A8B53E",
"$ c #C4A000",
"% c #8D9455",
"& c #B2BF46",
"* c #909566",
"= c #919474",
"- c #9BA16E",
"; c #B3C047",
": c #B7C350",
"> c #B7C354",
", c #C0CA67",
"< c #C2CC6B",
"1 c #C2CD6E",
"2 c #C6D077",
"3 c #C8D17B",
"4 c #C9D37E",
"5 c #FDED6B",
"6 c #818181",
"7 c #999999",
"8 c #9FA381",
"9 c #D5DB9A",
"0 c #C4C4C4",
"q c #C5C5C5",
"w c #C6C6C6",
"e c #C7C7C7",
"r c #EDEDE5",
"t c #EAEAEA",
"y c #EBEBEB",
"u c #ECECEC",
"i c #EDEDED",
"p c #EEEEEE",
"a c #F0F0F0",
"s c #FFFFFF",
"d c None",
/* pixels */
"d7666666666666dd",
"d6ssssssssssss6d",
"d6sutttutuuuas6d",
"d6st0wwwwwwwas6d",
"d6sttuuuuuuuas6d",
"d6suwwwweeeeas6d",
"d6sttuuuuruuas6d",
"5555555555555555",
"$$$$$$$$$$$$$$$$",
"dddd 3 ddddd 3 d",
"ddddX3 dddddX3 d",
"dd*  1 ddd*X 1 d",
"8o:29;+d8o:29;+d",
" <,4&O-d <,4&Odd",
" @#>+%dd @#>+%dd",
"d.  =dddd.  =ddd"
};
