/* XPM */
static char *blender[] = {
/* columns rows colors chars-per-pixel */
"16 16 103 2",
"   c #BF5703",
".  c #C85A02",
"X  c #CA5B02",
"o  c #CA5C03",
"O  c #CE5C00",
"+  c #CD5C02",
"@  c #CC5D02",
"#  c #CE5D02",
"$  c #CE5E03",
"%  c #CE5E04",
"&  c #CE5F05",
"*  c #D25F00",
"=  c #D0640B",
"-  c #D0640D",
";  c #D0650D",
":  c #D0650E",
">  c #D0660F",
",  c #D1660F",
"<  c #CF6814",
"1  c #CE6C1A",
"2  c #D06710",
"3  c #D16710",
"4  c #D26811",
"5  c #D16812",
"6  c #D26913",
"7  c #D16915",
"8  c #DB6E11",
"9  c #D56F19",
"0  c #D76F18",
"q  c #F57900",
"w  c #F57A01",
"e  c #F57D07",
"r  c #F57E0A",
"t  c #D47220",
"y  c #D57322",
"u  c #DB7C29",
"i  c #DC7F2E",
"p  c #E37D23",
"a  c #F48416",
"s  c #E4812A",
"d  c #F68A20",
"f  c #F48A23",
"g  c #F68B23",
"h  c #F18C29",
"j  c #F68E29",
"k  c #F58F2B",
"l  c #F6912E",
"z  c #EC8F3A",
"x  c #EB903E",
"c  c #EC913C",
"v  c #F2943B",
"b  c #F79739",
"n  c #F7983B",
"m  c #E48E44",
"M  c #EB964C",
"N  c #ED9A4E",
"B  c #F89B41",
"V  c #ED9F58",
"C  c #F5A04D",
"Z  c #EEA058",
"A  c #EFA15C",
"S  c #F8A452",
"D  c #F2A55B",
"F  c #F9AA5E",
"G  c #F8AB5F",
"H  c #F2A862",
"J  c #F4A861",
"K  c #F6AB63",
"L  c #F7AD66",
"P  c #F6AF6B",
"I  c #F5AF6C",
"U  c #F8AF68",
"Y  c #F6B16D",
"T  c #F8B068",
"R  c #F8B06B",
"E  c #F8B16C",
"W  c #F9B26D",
"Q  c #F7B371",
"!  c #F7B473",
"~  c #F9B370",
"^  c #F9B572",
"/  c #F9B573",
"(  c #F9B675",
")  c #FABC7F",
"_  c #3465A4",
"`  c #4B77AE",
"'  c #FBC28B",
"]  c #F5D9BD",
"[  c #B3C5DD",
"{  c #F7DDC5",
"}  c #F2E4D7",
"|  c #FDE7D1",
" . c #FDE7D2",
".. c #FDEBD8",
"X. c #F4F0EC",
"o. c #FEF4EA",
"O. c #FCFBFB",
"+. c #FEFCFB",
"@. c #FEFDFB",
"#. c #FDFDFD",
"$. c #FDFDFE",
"%. c #FFFFFF",
"&. c None",
/* pixels */
"&.&.&.&.&.&.&.&.6 6 &.&.&.&.&.&.",
"&.&.&.&.&.&.&.&.6 V y &.&.&.&.&.",
"&.&.&.&.&.&.&.&.- x K y &.&.&.&.",
"&.&.&.= = = = 7 = * J I : &.&.&.",
"&.&.: T E E ~ P / / / T J & &.&.",
"&.&.8 9 3 m ! '  .#.#...K N % &.",
"&.&.&.&.: ~ / | [ _ ` [ o.l p O ",
"&.&.&.: Y ) F #.` _ _ ` #.C f O ",
"&.&.3 R V A S $.` _ _ ` #.D a = ",
"&.3 P 6 X M B { [ _ ` [ X.a k O ",
": L 6 &.o 9 k w ] #.+.} h r s % ",
"6 : &.&.&.O s g w w w w r z O &.",
"&.&.&.&.&.&.O 1 x n b v u o &.&.",
"&.&.&.&.&.&.&.% X O O X . &.&.&.",
"&.&.&.&.&.&.&.&.&.&.&.&.&.&.&.&.",
"&.&.&.&.&.&.&.&.&.&.&.&.&.&.&.&."
};
