/* XPM */
static char *bluefish[] = {
/* columns rows colors chars-per-pixel */
"16 16 139 2",
"   c #303739",
".  c #353E44",
"X  c #393E41",
"o  c #3B4142",
"O  c #3A4044",
"+  c #3D4447",
"@  c #39454C",
"#  c #3D484F",
"$  c #3F4F5F",
"%  c #2F4665",
"&  c #2C496E",
"*  c #3B4F63",
"=  c #314A6B",
"-  c #294974",
";  c #2A4A76",
":  c #23497F",
">  c #414C56",
",  c #414C58",
"<  c #434E58",
"1  c #4D5357",
"2  c #495259",
"3  c #4F5A5E",
"4  c #515657",
"5  c #4B5D6E",
"6  c #525A60",
"7  c #575E60",
"8  c #575E65",
"9  c #5A5F61",
"0  c #50606F",
"q  c #56636E",
"w  c #5D6B7A",
"e  c #606D7A",
"r  c #777E7B",
"t  c #757D7E",
"y  c #1F4985",
"u  c #204A87",
"i  c #244D87",
"p  c #204A88",
"a  c #204B88",
"s  c #214B88",
"d  c #214B89",
"f  c #214C89",
"g  c #224C89",
"h  c #224D89",
"j  c #224C8A",
"k  c #234D8A",
"l  c #244D89",
"z  c #244E8A",
"x  c #254E8B",
"c  c #254F8B",
"v  c #244F8C",
"b  c #27508B",
"n  c #26518F",
"m  c #29528C",
"M  c #2C548F",
"N  c #2D558F",
"B  c #2D568F",
"V  c #2E568F",
"C  c #305284",
"Z  c #295693",
"A  c #325991",
"S  c #315892",
"D  c #335C96",
"F  c #365E95",
"G  c #385E95",
"H  c #3D6292",
"J  c #3C6196",
"K  c #33609C",
"L  c #3F669B",
"P  c #3465A4",
"I  c #3B68A2",
"U  c #3A68A5",
"Y  c #406397",
"T  c #41669A",
"R  c #45689B",
"E  c #476B9A",
"W  c #45689D",
"Q  c #6F7980",
"!  c #4C6FA1",
"~  c #4B75A9",
"^  c #4E79AB",
"/  c #577BA5",
"(  c #5177A8",
")  c #5379AA",
"_  c #527AAE",
"`  c #597DAB",
"'  c #4877B1",
"]  c #4B77B0",
"[  c #4A78B1",
"{  c #507CB3",
"}  c #788592",
"|  c #5A81B2",
" . c #5A85B4",
".. c #5584BB",
"X. c #5886BC",
"o. c #7D94AB",
"O. c #6184B2",
"+. c #6285B4",
"@. c #718FB8",
"#. c #7893BA",
"$. c #7997BF",
"%. c #7D99BF",
"&. c #608EC2",
"*. c #618FC3",
"=. c #6290C4",
"-. c #6592C4",
";. c #6893C1",
":. c #6E93C0",
">. c #6893C4",
",. c #6A96C8",
"<. c #7497C3",
"1. c #7D9BC0",
"2. c #7E9BC2",
"3. c #7A9CC5",
"4. c #989C98",
"5. c #A2A6A5",
"6. c #ADB1AB",
"7. c #AEB2AD",
"8. c #A2ADBB",
"9. c #C2C6BF",
"0. c #849FC4",
"q. c #80A5CF",
"w. c #94A9C4",
"e. c #87ACD3",
"r. c #9EB4D2",
"t. c #9FB9D8",
"y. c #9FBADA",
"u. c #A8C0DC",
"i. c #B7CAE2",
"p. c #BACCE2",
"a. c #C1C5C3",
"s. c #C4C7C0",
"d. c #CED2CB",
"f. c #D2D6CE",
"g. c #D3D7CF",
"h. c #C7D6E7",
"j. c #DEE0E3",
"k. c #E3E5E4",
"l. c None",
/* pixels */
"l.l.l.l.l.l.l.l.l.l.l.l.l.l.l.l.",
"l.l.p l.l.p l.l.l.l.l.l.l.l.l.l.",
"l.: @ & - # ; l.l.l.l.l.l.l.l.l.",
"l.= 5.> > k.< b k l.l.l.l.l.l.p ",
"p * a.2 8 k.9 h.r.S l.l.l.l.k u ",
"l.% o 1 > q 3 u.i.p.W l.l.l.V p ",
"l.C X } 7   q e o.t.t.T l.Z 2.V ",
"l.#.8.e r 6.9.9.0 e.q.3.W +.@.m ",
"p $.t g.g.g.7.3 >.,.=.<.J L ^ v ",
"l.@.t d.4.4 .  .=.=.>.| k V D p ",
"l.G w.5   $ ^ ..../ _ b y l.k y ",
"l.l.S 0.1.{ ' [ ~ ` b K k l.l.l.",
"l.l.l.k ! $.O.( ) F I =.n k l.l.",
"l.l.l.l.l.b Y E H i c U P Z p l.",
"l.l.l.l.l.l.l.p k l.l.p k p k l.",
"l.l.l.l.l.l.l.l.l.l.l.l.l.l.l.l."
};
