/* XPM */
static char *computerjanitor[] = {
/* columns rows colors chars-per-pixel */
"16 16 114 2",
"   c #77521D",
".  c #77541E",
"X  c #7E581A",
"o  c #5C3566",
"O  c #77537D",
"+  c #8F5902",
"@  c #8D5A09",
"#  c #925E07",
"$  c #855B16",
"%  c #8C5D13",
"&  c #855C1B",
"*  c #946009",
"=  c #95600A",
"-  c #93690E",
";  c #9C6714",
":  c #9E7217",
">  c #BA7E1D",
",  c #95752F",
"<  c #AB7826",
"1  c #C17F15",
"2  c #815F5C",
"3  c #89686A",
"4  c #A98D0C",
"5  c #AB8E0C",
"6  c #AD910B",
"7  c #AF920B",
"8  c #AB900C",
"9  c #AF940C",
"0  c #B4990B",
"q  c #B59A0C",
"w  c #B79C0D",
"e  c #A98D1B",
"r  c #BCA00B",
"t  c #BCA30D",
"y  c #BDA40D",
"u  c #BEA40C",
"i  c #BDA40F",
"p  c #C2AA0D",
"a  c #C8AF0B",
"s  c #C9B00B",
"d  c #CCB60E",
"f  c #D3B707",
"g  c #D6BA0B",
"h  c #D5BD0B",
"j  c #D1BC0E",
"k  c #D2BC0E",
"l  c #C6AF11",
"z  c #CEAB14",
"x  c #CAB413",
"c  c #C8B115",
"v  c #CEB81D",
"b  c #D4BF15",
"n  c #D5BF15",
"m  c #D8BE19",
"M  c #C58B30",
"N  c #C0A83C",
"B  c #D7C20F",
"V  c #DEC509",
"C  c #DBC30C",
"Z  c #DAC30D",
"A  c #DCC20D",
"S  c #D8C311",
"D  c #DAC316",
"F  c #D9C416",
"G  c #D9C517",
"H  c #DAC417",
"J  c #D6C21F",
"K  c #DEC51E",
"L  c #E1CA0B",
"P  c #E2CB0B",
"I  c #E2CB0D",
"U  c #DAC528",
"Y  c #E0C92F",
"T  c #E7D226",
"R  c #E7D327",
"E  c #E0C930",
"W  c #E3D23C",
"Q  c #E3D23F",
"!  c #E4D23C",
"~  c #C08F40",
"^  c #D59C46",
"/  c #C69D5C",
"(  c #CFA461",
")  c #C7B06A",
"_  c #DFB472",
"`  c #D5C05E",
"'  c #E1CF41",
"]  c #E6D644",
"[  c #ECDA40",
"{  c #E6D44D",
"}  c #EAD74C",
"|  c #E7D84B",
" . c #EAD84E",
".. c #ECDC55",
"X. c #ECDB5E",
"o. c #F0E059",
"O. c #F1E25C",
"+. c #F2E25E",
"@. c #F1E36A",
"#. c #F6E771",
"$. c #F4E775",
"%. c #F7E975",
"&. c #F7E977",
"*. c #F7EA77",
"=. c #F7EA7E",
"-. c #9B7D96",
";. c #A28587",
":. c #A0848A",
">. c #B89F8F",
",. c #DCCB87",
"<. c #FAEF8B",
"1. c #FCF08E",
"2. c #FDF191",
"3. c None",
/* pixels */
"3.3.3.3.3.3.3.3.3.3.3.3.* + * 3.",
"3.3.3.3.3.3.3.3.3.3.3.; / _ @ 3.",
"3.3.3.3.3.3.3.3.3.3.# ( % ~ $ 3.",
"3.3.3.3.3.3.3.3.3.3.< ^ M X 3.3.",
"3.3.3.3.3.3.3.S 3.- > 1 &   3.3.",
"3.3.3.3.3.3.3.n ] n z : . 3.3.3.",
"3.3.3.3.3.3.;.-.>.,.' l i 3.3.3.",
"3.3.3.3.3.D J ) :.O 3 N t 3.3.3.",
"3.3.3.3.F W 1.1.@.` 2 o , 3.3.3.",
"3.3.3.F | =.1.*.} [ T e 3.3.3.3.",
"3.3.F ] $.X.*.o.E R I 0 3.3.3.3.",
"3.F ! @.U %.+.Y K Z I 7 3.3.3.3.",
"3.S  .j { +.v m A s P 5 3.3.3.3.",
"3.3.j d ..c y g V 0 A 8 3.3.3.3.",
"3.3.3.x p y r f h 4 a 6 3.3.3.3.",
"3.3.3.3.3.3.w 9 4 4 4 3.3.3.3.3."
};
