/* XPM */
static char *conduit[] = {
/* columns rows colors chars-per-pixel */
"16 16 88 1",
"  c #A40000",
". c #A50000",
"X c #A50101",
"o c #A50303",
"O c #A60202",
"+ c #A70202",
"@ c #A60303",
"# c #A70303",
"$ c #A60606",
"% c #A60707",
"& c #A80202",
"* c #A80404",
"= c #A90404",
"- c #A90505",
"; c #AA0404",
": c #AA0505",
"> c #A80606",
", c #AE0707",
"< c #AC0808",
"1 c #B00909",
"2 c #B61616",
"3 c #BE1616",
"4 c #BC2323",
"5 c #BD2727",
"6 c #C51F1F",
"7 c #C61F1F",
"8 c #C52D2D",
"9 c #D63F3F",
"0 c #CE5353",
"q c #D05151",
"w c #D35656",
"e c #E24D4D",
"r c #F04141",
"t c #F04A4A",
"y c #E55959",
"u c #DE6161",
"i c #E77E7E",
"p c #F37979",
"a c #204A87",
"s c #214B88",
"d c #214C89",
"f c #224C88",
"g c #224C89",
"h c #224D8A",
"j c #234D8B",
"k c #234E8B",
"l c #254F8B",
"z c #234E8C",
"x c #25508B",
"c c #25518F",
"v c #2A5490",
"b c #295492",
"n c #2A5592",
"m c #2F5A95",
"M c #315A95",
"N c #365F9A",
"B c #3965A3",
"V c #3868AA",
"C c #386AAB",
"Z c #3D6BAB",
"A c #527EB9",
"S c #537EB9",
"D c #4E85CC",
"F c #6D92C3",
"G c #6593CE",
"H c #6A98D5",
"J c #709BD2",
"K c #719ED7",
"L c #7AA1D5",
"P c #7FA5D8",
"I c #7DA6DB",
"U c #EB8585",
"Y c #EC8585",
"T c #F68D8D",
"R c #EF9696",
"E c #F8A7A7",
"W c #F9AEAE",
"Q c #84A8D7",
"! c #83A8D8",
"~ c #89AFDE",
"^ c #90B2DE",
"/ c #8FB2E0",
"( c #A2BEE2",
") c #ACC8EA",
"_ c #B6CDEC",
"` c #FAC4C4",
"' c #FBD2D2",
"] c None",
/* pixels */
"] ]]]]]]]]]]]]]]",
"] &]]]>&,>]]]]]]",
"]>0 >wUYiu8 ]]]]",
"]%'qRTe424y9&]]]",
"]%`Wp6&]]]&81]]]",
"]%Etr6>]]]]<]]]]",
"]    >, ]]]]]]]]",
"]]]]]]]]]]]]]]]]",
"]]]]]]]]aasaaas]",
"]]]]Sb]]]jF)_^d]",
"]]]]SM]]]]l(PPd]",
"]]]]BHNdlMQ~DGd]",
"]]]]zZKLQ/JCcCd]",
"]]]]]ldxbnsd]dd]",
"]]]]]]]]]]]]]]s]",
"]]]]]]]]]]]]]]]]"
};
