/* XPM */
static char *cups[] = {
/* columns rows colors chars-per-pixel */
"16 16 92 1",
"  c #000000",
". c #010101",
"X c #020201",
"o c #030302",
"O c #040403",
"+ c #050504",
"@ c #060604",
"# c #070705",
"$ c #080806",
"% c #090907",
"& c #0A0A07",
"* c #0B0B08",
"= c #0C0C09",
"- c #0D0D0A",
"; c #0F0F0B",
": c #10100C",
"> c #11110D",
", c #12120D",
"< c #13130E",
"1 c #14140F",
"2 c #161610",
"3 c #1A1A13",
"4 c #1D1D16",
"5 c #1F1F17",
"6 c #1F1F18",
"7 c #27271E",
"8 c #28281E",
"9 c #2A2A1F",
"0 c #2B2B21",
"q c #2C2C21",
"w c #333326",
"e c #373729",
"r c #3F3F2F",
"t c #424231",
"y c #474735",
"u c #484836",
"i c #4E4E3A",
"p c #54543F",
"a c #575741",
"s c #585842",
"d c #5A5A43",
"f c #5C5C45",
"g c #5F5F47",
"h c #606048",
"j c #65654C",
"k c #66664C",
"l c #68684E",
"z c #69694F",
"x c #6A6A4F",
"c c #6C6C51",
"v c #707054",
"b c #737357",
"n c #767658",
"m c #7F7F5F",
"M c #808060",
"N c #898967",
"B c #8C8C69",
"V c #8E8E6A",
"C c #8F8F6B",
"Z c #93936F",
"A c #959570",
"S c #979771",
"D c #989872",
"F c #9B9B75",
"G c #9C9C75",
"H c #9D9D76",
"J c #9F9F77",
"K c #A0A078",
"L c #A1A179",
"P c #A3A37B",
"I c #A4A47B",
"U c #A5A57C",
"Y c #A6A67C",
"T c #A7A77E",
"R c #ACAC81",
"E c #B2B285",
"W c #B7B789",
"Q c #B8B88A",
"! c #BBBB8C",
"~ c #BCBC8D",
"^ c #BDBD8E",
"/ c #BFBF8F",
"( c #C0C090",
") c #C3C392",
"_ c #C4C493",
"` c #C5C594",
"' c #C7C795",
"] c #C8C896",
"[ c #CACA97",
"{ c #CBCB98",
"} c #CCCC99",
"| c None",
/* pixels */
"|||||04:+%:|||||",
"||||2  :7%  %|||",
"|||; 9H}]]Z3 %||",
"||7 0(_]('}Q: ||",
"||+ TBtcsM}}j+||",
"|| 9}BFIZTQ('/}|",
"|1 p}ssgivbyhzB|",
"|% k}URUDZKBLHE|",
"|; g}zbblnzzt_}|",
"|: u}HQWGQIKH~(|",
"|| 9}}}}}}}}M %|",
"||+ R}}}}}}}e ||",
"||6 w]}}{{}N +||",
"|||% qA]}/zO |||",
"||||;   ;  O||||",
"||||||:*;%1|||||"
};
