/* XPM */
static char *eclipse[] = {
/* columns rows colors chars-per-pixel */
"16 16 59 1",
"  c #4F3566",
". c #4F3667",
"X c #5E3B65",
"o c #5F3C66",
"O c #513768",
"+ c #553868",
"@ c #563868",
"# c #573A68",
"$ c #543A6A",
"% c #553A6A",
"& c #593C6B",
"* c #5A3C6B",
"= c #5E3E6B",
"- c #5A3E6C",
"; c #5A3E6D",
": c #633E68",
"> c #654069",
", c #60406E",
"< c #6F466F",
"1 c #6F4772",
"2 c #6C4C7A",
"3 c #7B4F78",
"4 c #7C4F78",
"5 c #75507B",
"6 c #75517B",
"7 c #73527F",
"8 c #77527D",
"9 c #7D5079",
"0 c #7F517A",
"q c #78527D",
"w c #79527D",
"e c #78537D",
"r c #78527E",
"t c #78537E",
"y c #79537E",
"u c #79537F",
"i c #79547E",
"p c #775581",
"a c #7A5480",
"s c #805884",
"d c #805984",
"f c #835C86",
"g c #926A94",
"h c #926B95",
"j c #966C96",
"k c #976C96",
"l c #976D96",
"z c #986D97",
"x c #9A7099",
"c c #9B7099",
"v c #9C729C",
"b c #A77BA4",
"n c #AC7EA7",
"m c #AC7FA7",
"M c #AD7FA8",
"N c #BCA3C2",
"B c #D2B5D2",
"V c #EAD3EA",
"C c None",
/* pixels */
"CCCCCat66aCCCCCC",
"CCCraxh2$O.;CCCC",
"CCrkmp*19091%OCC",
"Cizma=3<:X:<0=.C",
"CfMv*4::XXXX:4@C",
"rcBVVVVVVVVVVVVN",
"rbM%4:XXXXXXX:4 ",
"6mBVVVVVVVVVVVVN",
"6bM%3:XXXXXXX:3.",
"acBVVVVVVVVVVVVN",
"CfMv*3::XXXX>9 C",
"CikMa=41:::<9: C",
"CCikMp%19031%OCC",
"CCC6dcg2$O ;CCCC",
"CCCCCa666aCCCCCC",
"CCCCCCCCCCCCCCCC"
};
