/* XPM */
static char *emerald[] = {
/* columns rows colors chars-per-pixel */
"16 16 137 2",
"   c #396D05",
".  c #3A6E05",
"X  c #427E06",
"o  c #458207",
"O  c #468607",
"+  c #498A07",
"@  c #4B8D09",
"#  c #4B8E08",
"$  c #4D8F0B",
"%  c #4D8E0C",
"&  c #4E9309",
"*  c #50950A",
"=  c #50960A",
"-  c #51920F",
";  c #51940C",
":  c #52950F",
">  c #53980B",
",  c #539A0B",
"<  c #549C0C",
"1  c #569F0D",
"2  c #539510",
"3  c #559616",
"4  c #5A9F14",
"5  c #5D9C1E",
"6  c #56A00D",
"7  c #57A10D",
"8  c #59A30E",
"9  c #58A30F",
"0  c #5AA60F",
"q  c #5AA610",
"w  c #5AA612",
"e  c #5CA612",
"r  c #5CA116",
"t  c #5CA516",
"y  c #5CA913",
"u  c #5EAC14",
"i  c #5DA01D",
"p  c #61A91B",
"a  c #61AB1A",
"s  c #61AC1A",
"d  c #65B21B",
"f  c #67B51F",
"g  c #65AB20",
"h  c #65A924",
"j  c #68AD24",
"k  c #69A52C",
"l  c #69AB2B",
"z  c #6BAF29",
"x  c #6AAC2B",
"c  c #6AA82E",
"v  c #6BAA2E",
"b  c #6CAB2F",
"n  c #6BB527",
"m  c #6FBD25",
"M  c #6DB22B",
"N  c #6DB42A",
"B  c #70BA29",
"V  c #6CAA30",
"C  c #71AF34",
"Z  c #74B636",
"A  c #75B934",
"S  c #74B139",
"D  c #75B438",
"F  c #78B53C",
"G  c #79B53D",
"H  c #79BA3B",
"J  c #7ABD38",
"K  c #73C12A",
"L  c #7BC13B",
"P  c #7DBD41",
"I  c #7EB845",
"U  c #80BB47",
"Y  c #82B74F",
"T  c #81BE48",
"R  c #82BF48",
"E  c #88BF53",
"W  c #80C440",
"Q  c #82C047",
"!  c #86C54C",
"~  c #87CD49",
"^  c #8AC94F",
"/  c #8ACB4F",
"(  c #88C053",
")  c #89C550",
"_  c #8AC752",
"`  c #89C154",
"'  c #8BC455",
"]  c #8CC754",
"[  c #8CC656",
"{  c #8DC756",
"}  c #8DC757",
"|  c #8FCC57",
" . c #8EC659",
".. c #91CB5B",
"X. c #94CC5F",
"o. c #92C263",
"O. c #93C761",
"+. c #94C763",
"@. c #95C765",
"#. c #96C767",
"$. c #95CC61",
"%. c #96CE63",
"&. c #96C46A",
"*. c #97C76A",
"=. c #99CB6A",
"-. c #96D360",
";. c #A0CE74",
":. c #A0D372",
">. c #A8D37F",
",. c #ABDD7F",
"<. c #AEDA85",
"1. c #AFDB86",
"2. c #AFD788",
"3. c #B0DB89",
"4. c #B4D990",
"5. c #B8DF93",
"6. c #BCDF9B",
"7. c #BCDF9D",
"8. c #B8E094",
"9. c #BEE09D",
"0. c #BEDFA0",
"q. c #C0E39E",
"w. c #C1E4A0",
"e. c #C2E1A4",
"r. c #C5E5A7",
"t. c #CBE7B0",
"y. c #CDE7B5",
"u. c #CCE8B2",
"i. c #D0E9B9",
"p. c #D2EBBC",
"a. c #D6EDC0",
"s. c #D6EFC0",
"d. c #DFF0CF",
"f. c #E4F3D5",
"g. c #E7F5DB",
"h. c #F5FBF0",
"j. c None",
/* pixels */
"j.j.j.j.j.j.j.j.j.j.j.j.j.j.j.j.",
"j.j.j.j.j.j.0 e A 9 j.j.j.j.j.j.",
"j.j.j.j.j.q  .g.h.p.G 7 j.j.j.j.",
"j.j.j.j.j.g a.,.-.~ 8.x j.j.j.j.",
"j.j.j.j.9 { f.a.q.K <.7.4 j.j.j.",
"j.j.j.j.7 5.w.r.| 2.3.i.;.> j.j.",
"j.j.j.j.U u./ m W %.X.w.y.G = j.",
"j.j.j.1 0.t./ L %._ n 2.3.O.& j.",
"j.j.j.r f.:...! { ) n N R ` ; j.",
"j.j.1 O.6.B ] d R P u M y ( ; j.",
"j.j.> 7.J _ ` H a a z D p I 2 j.",
"j.j.l >.R R Z j q t S C h v $ j.",
"j.= E =.@.@.*.&.o.Y V v 5 %   j.",
"j.= b k 5 3 2 % % + O o o   j.j.",
"j.j.j.j.j.j.j.j.j.j.j.j.j.j.j.j.",
"j.j.j.j.j.j.j.j.j.j.j.j.j.j.j.j."
};
