/* XPM */
static char *empathy[] = {
/* columns rows colors chars-per-pixel */
"16 16 136 2",
"   c #224D8A",
".  c #234E8C",
"X  c #24508E",
"o  c #24508F",
"O  c #26528F",
"+  c #275391",
"@  c #285492",
"#  c #2A5593",
"$  c #2B5693",
"%  c #295694",
"&  c #2A5694",
"*  c #2A5794",
"=  c #2A5896",
"-  c #2B5997",
";  c #2C5A99",
":  c #2C5B99",
">  c #2D5B99",
",  c #2E5B99",
"<  c #2E5C9A",
"1  c #2F5D9A",
"2  c #2F5E9D",
"3  c #305C98",
"4  c #315F9E",
"5  c #36609A",
"6  c #31609D",
"7  c #30609E",
"8  c #31619F",
"9  c #33629F",
"0  c #34609C",
"q  c #34629D",
"w  c #35639F",
"e  c #37649F",
"r  c #3B649D",
"t  c #39659F",
"y  c #3C669F",
"u  c #3161A0",
"i  c #3362A0",
"p  c #3262A1",
"a  c #3363A1",
"s  c #3263A2",
"d  c #3364A1",
"f  c #3364A2",
"g  c #3364A3",
"h  c #3464A1",
"j  c #3564A1",
"k  c #3764A0",
"l  c #3664A1",
"z  c #3464A2",
"x  c #3565A2",
"c  c #3464A3",
"v  c #3465A3",
"b  c #3664A2",
"n  c #3767A3",
"m  c #3465A4",
"M  c #3566A4",
"N  c #3864A0",
"B  c #3B66A1",
"V  c #3D68A1",
"C  c #3868A6",
"Z  c #3D6AA4",
"A  c #3E6AA4",
"S  c #3C69A6",
"D  c #3C6BA7",
"F  c #396AA8",
"G  c #3A6AA8",
"H  c #3B6CA9",
"J  c #3C6CA9",
"K  c #3F6DA8",
"L  c #3E6EAA",
"P  c #3F6FAB",
"I  c #3F6FAC",
"U  c #406CA5",
"Y  c #4870A6",
"T  c #4371AC",
"R  c #4272AE",
"E  c #4273AE",
"W  c #4373AE",
"Q  c #4373AF",
"!  c #4474AF",
"~  c #4873AC",
"^  c #4B75AC",
"/  c #4D77AE",
"(  c #4D78AE",
")  c #5178AD",
"_  c #5179AE",
"`  c #4978B2",
"'  c #4979B3",
"]  c #4A78B2",
"[  c #4C7BB5",
"{  c #4C7CB5",
"}  c #4D7CB5",
"|  c #4E7CB4",
" . c #4F7EB7",
".. c #527CB2",
"X. c #5881B6",
"o. c #5382B9",
"O. c #5382BA",
"+. c #5584BB",
"@. c #5786BD",
"#. c #5A89BE",
"$. c #6088BA",
"%. c #6189BC",
"&. c #608ABD",
"*. c #5C8BC0",
"=. c #5D8BC0",
"-. c #5D8CC1",
";. c #658EC0",
":. c #6290C4",
">. c #6593C6",
",. c #6694C7",
"<. c #6A91C0",
"1. c #6C92C1",
"2. c #6D96C6",
"3. c #6F98C7",
"4. c #6E99C9",
"5. c #6C9ACB",
"6. c #7096C3",
"7. c #7499C6",
"8. c #7A9AC3",
"9. c #709DCD",
"0. c #709DCE",
"q. c #7FA3CE",
"w. c #75A1D0",
"e. c #78A3D1",
"r. c #7DA6D3",
"t. c #82AAD4",
"y. c #8BACD2",
"u. c #8AAED6",
"i. c #98B5D6",
"p. c #92B5D9",
"a. c #99B9DC",
"s. c #9DBCDD",
"d. c #C6D7EA",
"f. c #EEF3F9",
"g. c #FFFFFF",
"h. c None",
/* pixels */
"h.h.h.h.h.h.h.h.h.h.h.h.h.h.h.h.",
"h.h.h.h.h.l n l l l l l h.h.h.h.",
"h.h.h.a ~ 6.y.s.a.p.r.%.S a h.h.",
"h.h.l 1.u.t.r.e.w.5.5.2.7.~ 2 h.",
"h.6 <.3.>.5.0.f.g.,.-.o.{ %.A h.",
"< ( &.+.*.:.,.d.g.*.@.{ W T ) < ",
"; ..] [ o.@.#.i.g.o.{ ! H l ) < ",
"= / L W ] { { ;.g.' ! H m 6 Y = ",
"# A K D T W ! ! W I F g 6 B r * ",
"h.# U S m C F X.g.8.a 7 w r * h.",
"h.h.# 4 S z z 6 a w w r 4 * + h.",
"h.h.h.O 3 z z w w 4 , # O h.h.h.",
"h.h.h.O 4 z , O . O O h.h.h.h.h.",
"h.h.h.. ; O h.h.h.h.h.h.h.h.h.h.",
"h.h.h..   h.h.h.h.h.h.h.h.h.h.h.",
"h.h.h.h.h.h.h.h.h.h.h.h.h.h.h.h."
};
