/* XPM */
static char *eq[] = {
/* columns rows colors chars-per-pixel */
"16 16 96 2",
"   c #8E0000",
".  c #8F0000",
"X  c #8F0200",
"o  c #8F0300",
"O  c #920900",
"+  c #910A00",
"@  c #920C00",
"#  c #971B00",
"$  c #9B2800",
"%  c #9C2A00",
"&  c #9D2D05",
"*  c #A03700",
"=  c #F12800",
"-  c #F23D00",
";  c #A54500",
":  c #A54600",
">  c #A64800",
",  c #A64900",
"<  c #986E00",
"1  c #8B7600",
"2  c #8C7600",
"3  c #887800",
"4  c #A76500",
"5  c #A96300",
"6  c #AA6300",
"7  c #AA6705",
"8  c #F35200",
"9  c #F35D00",
"0  c #F46800",
"q  c #EF7C00",
"w  c #F07C00",
"e  c #4E9C00",
"r  c #4E9D00",
"t  c #4D9E00",
"y  c #4E9E00",
"u  c #6A8B00",
"i  c #6C8A00",
"p  c #6C8D04",
"a  c #7C8000",
"s  c #50A004",
"d  c #93BB10",
"f  c #AAAB0C",
"g  c #AAAC0C",
"h  c #D88C04",
"j  c #CD9306",
"k  c #C19C08",
"l  c #BFDF7F",
"z  c #C5DA7F",
"x  c #FAB28E",
"c  c #FABB8C",
"v  c #FAB88F",
"b  c #FABD8F",
"n  c #FAAE94",
"m  c #FAAE95",
"M  c #FAAF96",
"N  c #F9A29B",
"B  c #FAA69B",
"V  c #F9A49D",
"C  c #F9A59E",
"Z  c #F9A898",
"A  c #F9AA9A",
"S  c #FAA89D",
"D  c #F8AB9C",
"F  c #FAA99E",
"G  c #F8AC9D",
"H  c #F9AD9E",
"J  c #FAB490",
"K  c #FAB693",
"L  c #FAB795",
"P  c #FAB991",
"I  c #FAB198",
"U  c #B8E380",
"Y  c #B9E382",
"T  c #BAE383",
"R  c #DFCC80",
"E  c #C5DB80",
"W  c #C6DB80",
"Q  c #C6DB81",
"!  c #C0DF81",
"~  c #C0DF82",
"^  c #C8DC84",
"/  c #D3D482",
"(  c #D4D583",
")  c #D4D584",
"_  c #D5D686",
"`  c #E6CA85",
"'  c #E0CE85",
"]  c #E1CE86",
"[  c #ECC887",
"{  c #E7CB88",
"}  c #E1CF88",
"|  c #EDC989",
" . c #F8C084",
".. c #F8C288",
"X. c #F8C38B",
"o. c None",
/* pixels */
"o.o.o.o.o.o.o.o.o.o.o.o.o.o.o.o.",
"+ o o o o o.o.o.o.o.o.o.o.o.o.o.",
"$ C N N @ o.o.o.o.o.o.o.o.o.o.o.",
": A = B % o.o.o.o.o.o.o.o.o.o.o.",
"5 M - M , o.o.o.o.o.o.o.o.o.o.o.",
"1 K 8 x 4 + o o o o o.o.o.o.o.o.",
"u b 0 c 3 * F F B # o.o.o.o.o.o.",
"e X.q X.u 6 I - M : O o o o o o.",
"t | h [ e a P 9 v < : H H F & o.",
"t ] k ] t e X.w ..u 3 L 8 J 7 o.",
"t _ g ) t t { j ` e e X.w  .p o.",
"t ^ d E t t ( g / e e R k R s o.",
"t T T T t t ~ l l t t E E E s o.",
"t t t t t t t s t t t t e t e o.",
"o.o.o.o.o.o.o.o.o.o.o.o.o.o.o.o.",
"o.o.o.o.o.o.o.o.o.o.o.o.o.o.o.o."
};
