/* XPM */
static char *fedora_logo_icon[] = {
/* columns rows colors chars-per-pixel */
"16 16 144 2",
"   c #294172",
".  c #2B4373",
"X  c #2C4374",
"o  c #2D4375",
"O  c #2E4675",
"+  c #2F4777",
"@  c #2C4679",
"#  c #2C487D",
"$  c #304776",
"%  c #314877",
"&  c #354B79",
"*  c #364C7A",
"=  c #364D7A",
"-  c #374D7B",
";  c #374E7B",
":  c #324C7D",
">  c #384E7B",
",  c #384F7C",
"<  c #3A507C",
"1  c #3B517E",
"2  c #3C527E",
"3  c #3E537F",
"4  c #355287",
"5  c #3A5688",
"6  c #365991",
"7  c #3F68A2",
"8  c #3C6EB3",
"9  c #3C6EB4",
"0  c #405580",
"q  c #435882",
"w  c #435883",
"e  c #455A84",
"r  c #485C85",
"t  c #485C86",
"y  c #51648B",
"u  c #51658D",
"i  c #54668D",
"p  c #54678D",
"a  c #55678D",
"s  c #566990",
"d  c #516995",
"f  c #586A90",
"g  c #596B90",
"h  c #5A6C91",
"j  c #5B6D91",
"k  c #5B6D92",
"l  c #5B6E93",
"z  c #5C6E92",
"x  c #5E6F93",
"c  c #596F95",
"v  c #5E7093",
"b  c #5F749A",
"n  c #617295",
"m  c #627498",
"M  c #637498",
"N  c #63769B",
"B  c #68799A",
"V  c #6A7A9B",
"C  c #6B7C9E",
"Z  c #426BA6",
"A  c #4D72A8",
"S  c #5A77A5",
"D  c #5E7CAA",
"F  c #537AB4",
"G  c #697FA5",
"H  c #6D83AB",
"J  c #7181A0",
"K  c #7080A1",
"L  c #7483A3",
"P  c #7584A4",
"I  c #7585A4",
"U  c #7988A7",
"Y  c #7B89A6",
"T  c #7A89A7",
"R  c #7B8AA7",
"E  c #7A89A8",
"W  c #7C8BA9",
"Q  c #7B8CAB",
"!  c #6986B1",
"~  c #708BB3",
"^  c #708CB7",
"/  c #7A8FB3",
"(  c #718FBA",
")  c #7F93B5",
"_  c #7E93B6",
"`  c #7391BE",
"'  c #7892B9",
"]  c #7A99C6",
"[  c #799BCC",
"{  c #7A9CCC",
"}  c #7E9DCC",
"|  c #8593AE",
" . c #8593AF",
".. c #8795AE",
"X. c #8794AF",
"o. c #8894B0",
"O. c #8E99B3",
"+. c #8D9BB7",
"@. c #869ABC",
"#. c #899CBB",
"$. c #919CB5",
"%. c #8CA0BE",
"&. c #96A1B8",
"*. c #98A3BA",
"=. c #9DA7BC",
"-. c #9EA8BD",
";. c #9FAABE",
":. c #94A5C0",
">. c #95A8C7",
",. c #96ADCC",
"<. c #8AA7D1",
"1. c #9BB1D1",
"2. c #9CB0D0",
"3. c #9AB2D4",
"4. c #A3AEC3",
"5. c #A7B0C3",
"6. c #AAB3C4",
"7. c #A4B1C9",
"8. c #A4B2CA",
"9. c #A6B3CA",
"0. c #AAB9D1",
"q. c #BAC4D6",
"w. c #B6C5DD",
"e. c #B9C7DD",
"r. c #C8D0DD",
"t. c #C9D2E1",
"y. c #D2DAE6",
"u. c #D3DCE9",
"i. c #D3DCEA",
"p. c #D3DCEB",
"a. c #DFE5EE",
"s. c #DFE6F0",
"d. c #E0E6F0",
"f. c #E0E7F2",
"g. c #E5EBF3",
"h. c #EAEEF2",
"j. c #EAEFF6",
"k. c #ECF0F6",
"l. c #EDF1F7",
"z. c #F1F3F7",
"x. c #F8F8F9",
"c. c #F8FAFC",
"v. c #FFFFFF",
"b. c None",
/* pixels */
"b.b.b.b.b.b.        b.b.b.b.b.b.",
"b.b.b.b.0 R O.;.=...J 1 b.b.b.b.",
"b.b.  k 4.*.X.R q.h.x.r.N . b.b.",
"b.b.V 6.o.Y L y.v.z.t.0.%.m b.b.",
"b.> 5. .Y I +.v.a.M c c ! #.; b.",
"b.Y *.E I G 7.v.9.z s u D ~ z   ",
"  $. .I J C 9.v.:.1 % 5 A S V   ",
"  ;.Q ' 2.d.j.v.j.i.( Z 7 : B   ",
"  4.} { 3.f.l.v.g.i.^ 6 # O x   ",
"  ,.{ H m 0 _ v. .        ; u   ",
"  ] F e %   @.v./         t 0 . ",
"  ` 9 #   X i.v.d       = p X b.",
"  G 9 <.e.j.v.e.  . . * p = b.b.",
"  n 4 2.x.d.>.$ $ > r y &   b.b.",
"  t k z j j f f i r 5 . b.b.b.b.",
"b.                  b.b.b.b.b.b."
};
