/* XPM */
static char *firewall[] = {
/* columns rows colors chars-per-pixel */
"16 16 128 2",
"   c #695600",
".  c #685800",
"X  c #725A00",
"o  c #7B5D00",
"O  c #666B74",
"+  c #6A6F76",
"@  c #BF2B2A",
"#  c #CA0000",
"$  c #CB0000",
"%  c #CA0100",
"&  c #CB0100",
"*  c #CC0000",
"=  c #CD0000",
"-  c #CF0000",
";  c #CD0F0E",
":  c #D00000",
">  c #D20000",
",  c #D30000",
"<  c #D50000",
"1  c #D60000",
"2  c #D90000",
"3  c #DA0000",
"4  c #DC0000",
"5  c #C00B14",
"6  c #C10F16",
"7  c #E00000",
"8  c #E10000",
"9  c #E70000",
"0  c #E90000",
"q  c #EA0000",
"w  c #ED0000",
"e  c #F30000",
"r  c #F40000",
"t  c #F80000",
"y  c #FC0000",
"u  c #FE0000",
"i  c #EA1111",
"p  c #CD2E2C",
"a  c #D23B3A",
"s  c #904800",
"d  c #A14002",
"f  c #A35300",
"g  c #A55B00",
"h  c #BF5503",
"j  c #806700",
"k  c #876C00",
"l  c #866B06",
"z  c #8E7200",
"x  c #967B00",
"c  c #AC6000",
"v  c #B46100",
"b  c #B66300",
"n  c #854D4B",
"m  c #8E625E",
"M  c #A56664",
"N  c #B26F6C",
"B  c #A47673",
"V  c #AB7873",
"C  c #8A8D11",
"Z  c #8D8917",
"A  c #8F8D1A",
"S  c #9D8813",
"D  c #91801F",
"F  c #A48100",
"G  c #A79618",
"H  c #B79D11",
"J  c #D3BE00",
"K  c #C5BD2D",
"L  c #D6B92D",
"P  c #E1BC2D",
"I  c #E1BC2E",
"U  c #DDC802",
"Y  c #D6C314",
"T  c #D6C61E",
"R  c #E5D005",
"E  c #F0DA07",
"W  c #FBE202",
"Q  c #DDCD39",
"!  c #DDCE3C",
"~  c #E0CD21",
"^  c #E9D72E",
"/  c #E3C330",
"(  c #FFEA33",
")  c #80837C",
"_  c #87847D",
"`  c #E6D747",
"'  c #E0D34E",
"]  c #EBDD4A",
"[  c #EADE51",
"{  c #ECDE51",
"}  c #F3E344",
"|  c #F3E550",
" . c #FBEB54",
".. c #F5E65C",
"X. c #FAED5C",
"o. c #FBEC60",
"O. c #FFF66C",
"+. c #EFE77D",
"@. c #FFFD75",
"#. c #FFF17C",
"$. c #98938E",
"%. c #939592",
"&. c #B7BCB3",
"*. c #BEB9B6",
"=. c #F1E888",
"-. c #FFF282",
";. c #F8F29B",
":. c #C9C3BF",
">. c #FFFFA0",
",. c #FDF7AA",
"<. c #FFFFBA",
"1. c #FFFEBB",
"2. c #B9D4D6",
"3. c #C4C8C4",
"4. c #C6CFC8",
"5. c #CBCFC8",
"6. c #D0D3CE",
"7. c #D8DCD6",
"8. c #FFFFC7",
"9. c #FFFFD8",
"0. c #FFFFDD",
"q. c #FFFFDE",
"w. c #D7F1FD",
"e. c #F0F3F0",
"r. c #F5F5F3",
"t. c #FFFFF6",
"y. c #FFFFFF",
"u. c None",
/* pixels */
"* * $ * 0 u.0 * * * * u.: $ * * ",
"* * * 1 u u.r : : 1 3 u.8 * $ $ ",
"u.u.u.u.u.u.M B m n u.u.u.u.u.u.",
"$ * u.e a :.7.4.6.3.$.p 8 * u.* ",
"$ $ u.i *.e.V p u.N 5._ ; $ u.* ",
"u.u.u.u.r.%.u.u.u.u.) &.u.u.u.u.",
"$ $ $ 5 w.O t w w u + 2.6 * * * ",
"$ * $ h H F v c g f l D d * * * ",
"u.u.u./ y.q.8.1.,.;.=.+.G u.u.u.",
"u.* u.P q.-.o...[ ` Q ' A 3 u.* ",
"u.* u.P 9.#. .} ^ ~ Y ! Z 3 u.* ",
"u.u.u.L 1.( W E R U J T S u.u.u.",
"u.* : K t.>.@.O.X.| ] [ C 3 $ $ ",
"u.u.* b x z k j o X   . s 1 u.u.",
"u.u.u.: u.u.u.1 u.3 u.u.u.u.u.u.",
"u.* u.8 * * * 0 u.4 * * $ * u.$ "
};
