/* XPM */
static char *glipper[] = {
/* columns rows colors chars-per-pixel */
"16 16 81 1",
"  c #6A4200",
". c #6B4301",
"X c #6C4301",
"o c #6B4403",
"O c #6C4401",
"+ c #6D4401",
"@ c #6E4502",
"# c #6E4602",
"$ c #6F4602",
"% c #5C5C5B",
"& c #5C5C5C",
"* c #5E5E5E",
"= c #5F5F5E",
"- c #796E57",
"; c #666864",
": c #676964",
"> c #6E6C64",
", c #6E6D64",
"< c #636768",
"1 c #676C6C",
"2 c #6A6C68",
"3 c #686C6D",
"4 c #686D6D",
"5 c #686D6E",
"6 c #696D6E",
"7 c #696D6F",
"8 c #6A6E6F",
"9 c #706D63",
"0 c #706D64",
"q c #716F64",
"w c #736F64",
"e c #7E7E7B",
"r c #7F7F7C",
"t c #B37B22",
"y c #B97F23",
"u c #BA7F23",
"i c #A77D3B",
"p c #A37C3D",
"a c #A47E3E",
"s c #847251",
"d c #A17C40",
"f c #C08424",
"g c #C58726",
"h c #C58727",
"j c #C68827",
"k c #C28628",
"l c #80807D",
"z c #959589",
"x c #97978A",
"c c #B7B7B4",
"v c #B8B9B5",
"b c #B9B9B6",
"n c #B9BAB6",
"m c #BBBBBB",
"M c #C1C2BE",
"N c #CCCDCA",
"B c #CDCECB",
"V c #D8D8D5",
"C c #D9D9D6",
"Z c #DBDBD9",
"A c #E0E0E0",
"S c #E7E7E4",
"D c #E7E7E5",
"F c #E8E8E6",
"G c #E9E9E7",
"H c #EAEAE8",
"J c #EBEBEA",
"K c #ECECEA",
"L c #EDEDEB",
"P c #EDEDEC",
"I c #EDEEED",
"U c #EEEEED",
"Y c #EFEFED",
"T c #EFEFEE",
"R c #F0F0EF",
"E c #F1F1F1",
"W c #F2F2F2",
"Q c #FEFEFD",
"! c #FEFEFE",
"~ c #FFFFFF",
"^ c None",
/* pixels */
"^^^^^***&&*^^^^^",
"^^OOo&zzzz&oOO^^",
"^Ofa7*lsll*3duo^",
"^$jqWDMmmmAW,h ^",
"^$g:~RRRRRR~:k ^",
"^$g;~R8888T~:k ^",
"^$j;~R8RRTL~:k ^",
"^Oj:~R8R88H~:k ^",
"^Og;~T8TH1Z~:k ^",
"^Og;~T111<N~:k ^",
"^$g;~HGDNbb~:k ^",
"^Og;~HSVb~~~:k ^",
"^$j:~SVMc~~:sk ^",
"^$gqT~~~T~:sgh ^",
"^ouaw22222-ppt ^",
"^^ooOOOOO OOOO^^"
};
