/* XPM */
static char *gnome_panel_force_quit[] = {
/* columns rows colors chars-per-pixel */
"16 16 76 1",
"  c #1F4B87",
". c #204A87",
"X c #204A88",
"o c #214D89",
"O c #27528D",
"+ c #2B548C",
"@ c #3465A4",
"# c #637487",
"$ c #78848E",
"% c #7F878C",
"& c #5D84B6",
"* c #5D84B7",
"= c #7191BC",
"- c #7091BD",
"; c #7695BF",
": c #7897C1",
"> c #888A85",
", c #898B86",
"< c #898C86",
"1 c #8C8E8A",
"2 c #949691",
"3 c #949692",
"4 c #959792",
"5 c #959793",
"6 c #969893",
"7 c #969894",
"8 c #989A96",
"9 c #819EC5",
"0 c #81A0C7",
"q c #CCD1D8",
"w c #DADDD7",
"e c #DBDDD7",
"r c #DBDED8",
"t c #DDDFD9",
"y c #DDDFDA",
"u c #DDE0DA",
"i c #DEE0DB",
"p c #DFE1DC",
"a c #E0E2DD",
"s c #E1E3DE",
"d c #E2E3DF",
"f c #E2E2E0",
"g c #E4E5E1",
"h c #E5E5E3",
"j c #E5E6E2",
"k c #E6E7E4",
"l c #E7E8E4",
"z c #E7E8E5",
"x c #E9E9E6",
"c c #E9EAE7",
"v c #EAEAE7",
"b c #E9EAE8",
"n c #EAEBE9",
"m c #EBECE9",
"M c #ECECEA",
"N c #EDEDEB",
"B c #EDEEEB",
"V c #EEEFEC",
"C c #F0F0EE",
"Z c #F1F1EF",
"A c #F1F2EF",
"S c #F1F1F0",
"D c #F1F2F0",
"F c #F3F4F2",
"G c #F4F4F3",
"H c #F5F5F4",
"J c #F5F6F5",
"K c #F6F6F5",
"L c #F6F7F6",
"P c #F7F7F6",
"I c #F9F9F8",
"U c #FAFAF9",
"Y c #FAFAFA",
"T c #FBFBFA",
"R c #FFFFFF",
"E c None",
/* pixels */
"EEEEEEEEEEEEEEEE",
"Eo .XXXX.XEE...o",
"EX90000:OEEO;09X",
"E.0@@*-OEE+-&@0.",
"E#SNCk>EE$qCNNC#",
"E>YCY2EE>sYxxxY>",
"E>RxGP2EE7LPllR>",
"E>RkkGP7EE2PFjR>",
"E>RjgjRb>EE8RmR>",
"E>RssSP2EE2PCsR>",
"E>RpxR8EE>bRuuR>",
"E>RttCG2EE2PVrR>",
"E>RwwwVP7EE2PNR>",
"E>RRRRRRY7EE2YR<",
"E1>>>>>>>>>EE>>1",
"EEEEEEEEEEEEEEEE"
};
