/* XPM */
static char *gnome_panel_notification_area[] = {
/* columns rows colors chars-per-pixel */
"16 16 148 2",
"   c #204A87",
".  c #214C89",
"X  c #224C88",
"o  c #224D89",
"O  c #254E89",
"+  c #254F8A",
"@  c #244E8B",
"#  c #264F8A",
"$  c #264F8B",
"%  c #27508B",
"&  c #28508B",
"*  c #2D558E",
"=  c #2E548E",
"-  c #30568F",
";  c #32588F",
":  c #315890",
">  c #335A91",
",  c #3A5E93",
"<  c #3B5F96",
"1  c #3A6093",
"2  c #3B6193",
"3  c #3C6196",
"4  c #3F6399",
"5  c #556B86",
"6  c #406498",
"7  c #406598",
"8  c #506C90",
"9  c #4575B0",
"0  c #4777B1",
"q  c #4B79B1",
"w  c #4878B2",
"e  c #4978B2",
"r  c #4979B3",
"t  c #4B79B2",
"y  c #4A79B3",
"u  c #4A7AB3",
"i  c #4C7BB4",
"p  c #4D7CB5",
"a  c #4E7DB6",
"s  c #4F7FB7",
"d  c #507FB7",
"f  c #617DA2",
"g  c #5180B8",
"h  c #5382B9",
"j  c #5382BA",
"k  c #5482B8",
"l  c #5483BA",
"z  c #5584BB",
"x  c #5784BA",
"c  c #5685BC",
"v  c #5886BD",
"b  c #5887BD",
"n  c #5B87BD",
"m  c #5988BE",
"M  c #5A89BF",
"N  c #5B8ABF",
"B  c #5C8ABF",
"V  c #5F8BBE",
"C  c #758DA9",
"Z  c #748DAA",
"A  c #7B92AC",
"S  c #7F9ABF",
"D  c #5D8BC0",
"F  c #5E8CC1",
"G  c #5E8DC1",
"H  c #618FC3",
"J  c #6391C5",
"K  c #6492C5",
"L  c #6694C7",
"P  c #6794C7",
"I  c #6795C7",
"U  c #6A97C9",
"Y  c #6E99C9",
"T  c #6C99CA",
"R  c #6D9ACB",
"E  c #6F9BCB",
"W  c #6F9CCD",
"Q  c #7195C1",
"!  c #7196C2",
"~  c #7297C3",
"^  c #789CC7",
"/  c #7A9EC9",
"(  c #888A85",
")  c #8D8F89",
"_  c #939691",
"`  c #9A9D96",
"'  c #9D9E99",
"]  c #94A5B6",
"[  c #97A8B7",
"{  c #98A9B7",
"}  c #9DADBA",
"|  c #819CC0",
" . c #809CC1",
".. c #849FC3",
"X. c #88A1C3",
"o. c #88A2C3",
"O. c #80A3CD",
"+. c #8EA7C8",
"@. c #90A9C9",
"#. c #89ABD3",
"$. c #8DB0D6",
"%. c #98B2D3",
"&. c #9AB4D4",
"*. c #A4BEDB",
"=. c #A9C2DE",
"-. c #BBCCE2",
";. c #BDCEE3",
":. c #C3CAC6",
">. c #C4CAC9",
",. c #C5CCCA",
"<. c #CAD0CB",
"1. c #D2D7CF",
"2. c #D3D7CF",
"3. c #D4D7CE",
"4. c #DFE2DB",
"5. c #DFE2DD",
"6. c #E2E4DF",
"7. c #C1D2E5",
"8. c #C5D4E6",
"9. c #C6D4E7",
"0. c #C4D4E8",
"q. c #CEDCEC",
"w. c #D0DBE9",
"e. c #D1DCEA",
"r. c #D2DDEB",
"t. c #D3DDEB",
"y. c #D3DEEB",
"u. c #D0DEED",
"i. c #D4DFEC",
"p. c #D6E0ED",
"a. c #D7E1EE",
"s. c #D8E2EE",
"d. c #D9E2EE",
"f. c #D8E2EF",
"g. c #DDE6F0",
"h. c #DEE7F1",
"j. c #E5E8E3",
"k. c #E9EBE7",
"l. c #EDEFEB",
"z. c #F1F2F0",
"x. c #F2F3F1",
"c. c #F5F8FB",
"v. c #F6F8FB",
"b. c #F6F9FB",
"n. c #F7F9FB",
"m. c #F8FAFC",
"M. c #FFFFFF",
"N. c None",
/* pixels */
"( ( ( ( ( ( ( ( ( ( ( ( ) _ ` ' ",
"( x.x.x.x.z.x.x.x.z.l.k.j.6.4.4.",
"( x.2.2.2.,.C , % O , C >.1.1.3.",
"( x.2.2.{ * X.q.b.b.e.X.* [ 1.3.",
"( x.2.} 4 d.8.Q t u Q 8.d.6 ] 3.",
"( x.<.; e.%.0 0 e y y u &.y.- :.",
"( x.A S -.0 u p v.v.d p p -.| f ",
"( x.2 e.~ p p z b.b.z l g ^ y.: ",
"( x.$ v.l g l b M B M M z M v.X ",
"( x.$ v.x g b B M.M.H F M V b.X ",
"( x.7 y./ z M H M.M.P J F O.i.> ",
"( ( 5 | 7.b D J M.M.T P J 0...8 ",
"N.N.N.$ a.*.D P U W T U =.d.$ N.",
"N.N.N.N.< g.q.#.T E $.q.g.3 N.N.",
"N.N.N.N.N.% +.a.m.m.a.@.& N.N.N.",
"N.N.N.N.N.N.  $ X X $ X N.N.N.N."
};
