/* XPM */
static char *gnome_session_hibernate[] = {
/* columns rows colors chars-per-pixel */
"16 16 162 2",
"   c #3C3133",
".  c #373C3D",
"X  c #7F1E1F",
"o  c #4E2B2D",
"O  c #5B2729",
"+  c #54292B",
"@  c #422E30",
"#  c #432F31",
"$  c #473C3E",
"%  c #652526",
"&  c #723738",
"*  c #42770C",
"=  c #44780E",
"-  c #45790F",
";  c #427015",
":  c #497C12",
">  c #4A7D14",
",  c #424645",
"<  c #4C4749",
"1  c #484B4C",
"2  c #4A504F",
"3  c #4D5151",
"4  c #505555",
"5  c #545855",
"6  c #575A57",
"7  c #575A58",
"8  c #5B5D5A",
"9  c #656763",
"0  c #666864",
"q  c #676A6A",
"w  c #7B6163",
"e  c #70736F",
"r  c #6F7373",
"t  c #747671",
"y  c #747777",
"u  c #747878",
"i  c #7D7F7B",
"p  c #861C1D",
"a  c #931819",
"s  c #8E2425",
"d  c #8D292A",
"f  c #903C3D",
"g  c #B02021",
"h  c #CD3636",
"j  c #CA3D3E",
"k  c #A35D5D",
"l  c #B57474",
"z  c #C04D4E",
"x  c #C76363",
"c  c #7DA445",
"v  c #7E807C",
"b  c #84AA4E",
"n  c #90B357",
"m  c #95B654",
"M  c #92B55A",
"N  c #96B85B",
"B  c #98B858",
"V  c #9BBB5C",
"C  c #9EBD60",
"Z  c #A6C46F",
"A  c #818181",
"S  c #828282",
"D  c #848484",
"F  c #878787",
"G  c #898989",
"H  c #8A8A8A",
"J  c #8A8C8C",
"K  c #8E8E8E",
"L  c #8F8F8F",
"P  c #92948F",
"I  c #939393",
"U  c #919494",
"Y  c #949795",
"T  c #969696",
"R  c #999999",
"E  c #9A9A9A",
"W  c #9B9B9B",
"Q  c #9C9C9C",
"!  c #9D9D9D",
"~  c #9E9E9E",
"^  c #A08889",
"/  c #A88C8D",
"(  c #98A689",
")  c #9FA09D",
"_  c #A1A1A1",
"`  c #A2A3A4",
"'  c #A4A4A4",
"]  c #A5A5A5",
"[  c #A6A6A6",
"{  c #A7A7A7",
"}  c #A8A8A8",
"|  c #A8A9AA",
" . c #ABABAB",
".. c #ACACAC",
"X. c #AFAFAF",
"o. c #AEB0AB",
"O. c #BCAFB0",
"+. c #B0B0B0",
"@. c #B1B1B1",
"#. c #B3B3B3",
"$. c #B4B4B4",
"%. c #B7B7B7",
"&. c #B6B8B3",
"*. c #BABABA",
"=. c #BBBBBB",
"-. c #BBBEB8",
";. c #BCBFB8",
":. c #C18889",
">. c #D3A0A0",
",. c #C9B2B3",
"<. c #D7B8B8",
"1. c #BED78A",
"2. c #C1D98E",
"3. c #C3DC92",
"4. c #C6DE95",
"5. c #C1C3BE",
"6. c #C2C3BF",
"7. c #C0C0C0",
"8. c #C3C4C0",
"9. c #C2C4C1",
"0. c #C3C5C1",
"q. c #C4C5C1",
"w. c #C4C6C1",
"e. c #C4C6C4",
"r. c #C5C6C4",
"t. c #C6C7C5",
"y. c #C9CAC8",
"u. c #CACBC9",
"i. c #C9CACA",
"p. c #CBCDCA",
"a. c #CDCECA",
"s. c #CCCCCC",
"d. c #CDCFCC",
"f. c #CECECE",
"g. c #CFCFCF",
"h. c #D1D3CE",
"j. c #D1D1D1",
"k. c #D2D3D1",
"l. c #D2D2D2",
"z. c #D4D3D3",
"x. c #D4D4D2",
"c. c #D4D5D3",
"v. c #D6D7D5",
"b. c #D7D5D6",
"n. c #D6D6D6",
"m. c #DFD5D5",
"M. c #D7D8D5",
"N. c #D8D8D6",
"B. c #D9D9D7",
"V. c #D7D8D8",
"C. c #E2C9C9",
"Z. c #FCD0D0",
"A. c #F5D9D9",
"S. c #F6DCDC",
"D. c #E4E4E3",
"F. c #E5E5E3",
"G. c #ECE4E4",
"H. c #E9E9E9",
"J. c #EEEEEE",
"K. c #F6E6E6",
"L. c #F1F0F0",
"P. c None",
/* pixels */
"P.P.P.P.P.Q _ Q Q _ * * * * * * ",
"P.P.P.P.Q *.l.H.J.V.* 4.3.2.1.* ",
"P.P.W ' l.l.5.-.;.q.* * : Z b * ",
"P.P._ g.5.o.t 6 6 e ( - M n - P.",
"P.T 7.8.P 7 ` V.l. .; c N : * * ",
"T ' r.&.8 i.L.m.,./ * C V B m * ",
"I  .q.v J b.G.C.>.l * * * * * * ",
"K #.a.0 U O.<.K.S.x f o 3 a.*.L ",
"K #.h.0 y H :.Z.Z.j s o 1 h.%.K ",
"K ' p.v 3 k k k h g s o r p. .K ",
"H ! r.8., $ & d a p %   8.i.! H ",
"P.H +.c.) . @ O % O # U c.#.H P.",
"P.P.K *.b.p.y 1 < q 8.M.7.L P.P.",
"P.P.H K +.p.b.D.F.V.g.#.L F P.P.",
"P.P.P.P.D W { #.$. .W D P.P.P.P.",
"P.P.P.P.P.A D A A D A P.P.P.P.P."
};
