/* XPM */
static char *gnome_power_manager[] = {
/* columns rows colors chars-per-pixel */
"16 16 124 2",
"   c #2E2E34343636",
".  c #48084CE84CE8",
"X  c #56565B5B5A5A",
"o  c #57575C5C5B5B",
"O  c #588B5CAF5B66",
"+  c #646467676565",
"@  c #666669696868",
"#  c #6A6A6D6D6A6A",
"$  c #757578787575",
"%  c #7A7A7C7C7878",
"&  c #7E7E80807C7C",
"*  c #7E7E81817D7D",
"=  c #828284847F7F",
"-  c #4E4E69698A8A",
";  c #4E4E6B6B9292",
":  c #525271719A9A",
">  c #535373739B9B",
",  c #575775759A9A",
"<  c #575774749B9B",
"1  c #592676509CFF",
"2  c #5E1278C4986B",
"3  c #5FF9777792F9",
"4  c #61C878AB9461",
"5  c #59597979A3A3",
"6  c #5E5E7C7CA1A1",
"7  c #5F5F8282AEAE",
"8  c #5F5F8888BEBE",
"9  c #6F6F8585A2A2",
"0  c #60608080A8A8",
"q  c #75108A16A30C",
"w  c #67678A8AB5B5",
"e  c #6A6A8C8CB7B7",
"r  c #6E6E8D8DB4B4",
"t  c #60608888BFBF",
"y  c #67678D8DBFBF",
"u  c #68688C8CBCBC",
"i  c #7A7A9393B3B3",
"p  c #7E7E9898B9B9",
"a  c #6F6F9595C8C8",
"s  c #76769595C2C2",
"d  c #838385858181",
"f  c #858587878282",
"g  c #858589898181",
"h  c #878788888383",
"j  c #888A8A8C8587",
"k  c #898B8B8D8688",
"l  c #8D8D8F8F8A8A",
"z  c #8E8E90908C8C",
"x  c #8F8F91918C8C",
"c  c #8E8E91918D8D",
"v  c #909092928E8E",
"b  c #939394948D8D",
"n  c #949496969494",
"m  c #969698989393",
"M  c #959598989494",
"N  c #969699999696",
"B  c #99999B9B9999",
"V  c #9A9A9C9C9898",
"C  c #9C9C9F9F9C9C",
"Z  c #9D9DA0A09D9D",
"A  c #83A99746AF4C",
"S  c #8A5D9AE6AEF0",
"D  c #8989A1A1BFBF",
"F  c #8A8AA0A0BEBE",
"G  c #A2A2A3A3A0A0",
"H  c #A2A2A3A3A1A1",
"J  c #A5A5A7A7A2A2",
"K  c #A7A7A8A8A5A5",
"L  c #ABABADADA7A7",
"P  c #A3DCB00ABCC2",
"I  c #B6B6B7B7B5B5",
"U  c #BDBDBFBFBBBB",
"Y  c #C0C0C1C1BEBE",
"T  c #8585A1A1C3C3",
"R  c #8888A3A3CACA",
"E  c #9494ABABC6C6",
"W  c #9393ACACCACA",
"Q  c #9B9BB0B0CACA",
"!  c #B364BDEAC9BA",
"~  c #C7C7C9C9C7C7",
"^  c #CACACBCBCACA",
"/  c #CBCBCCCCCBCB",
"(  c #CCCCCCCCCBCB",
")  c #D0D0D0D0CFCF",
"_  c #D3D3D4D4D4D4",
"`  c #D6D6D7D7D4D4",
"'  c #D6D6D7D7D5D5",
"]  c #D8D8D9D9D6D6",
"[  c #D9D9DADAD8D8",
"{  c #DBDBDBDBDBDB",
"}  c #DDDDDEDEDCDC",
"|  c #DDDDDFDFDCDC",
" . c #DEDEDFDFDCDC",
".. c #DEDEDFDFDEDE",
"X. c #DFDFDFDFDEDE",
"o. c #DFDFE0E0DEDE",
"O. c #E0E0E1E1DFDF",
"+. c #E1E1E2E2E0E0",
"@. c #E5E5E6E6E3E3",
"#. c #E4E4E5E5E4E4",
"$. c #E5E5E5E5E4E4",
"%. c #E5E5E6E6E4E4",
"&. c #E7E7E7E7E4E4",
"*. c #E6E6E7E7E5E5",
"=. c #E7E7E7E7E5E5",
"-. c #E7E7E8E8E7E7",
";. c #E9E9EAEAE8E8",
":. c #EAEAEAEAE9E9",
">. c #EAEAEBEBEAEA",
",. c #EBEBEBEBEAEA",
"<. c #EBEBEBEBEBEB",
"1. c #EBEBECECEBEB",
"2. c #EDEDEDEDECEC",
"3. c #EEEEEFEFEDED",
"4. c #EEEEEFEFEEEE",
"5. c #EFEFEFEFEFEF",
"6. c #F2F2F2F2F2F2",
"7. c #F3F3F3F3F3F3",
"8. c #F4F4F5F5F4F4",
"9. c #F5F5F5F5F4F4",
"0. c #F6F6F6F6F6F6",
"q. c #F9F9F9F9F9F9",
"w. c #FFFFFFFFFFFF",
"e. c None",
/* pixels */
"e.e.e.e.e.j j h e.e.e.k k k k e.",
"e.e.h j b $.$.l j h k k e.' $ e.",
"e.K ( >.I H H k 1.X.j O.j X.@ e.",
"j 6.P A 4 1 > 3 S -.2.j j ~ # e.",
"j 2., 0 u a a a 5 r >.j / % e.e.",
"j 2.: s t a a u R ; j _ * e.e.e.",
"j >.6 T E E Q T 9 j [ * e.e.e.e.",
"j >.> p w w 6 1 j j Y = j j e.e.",
"j >.> p w e 0 k 6.,.$.4.8.m j e.",
"j >.> p w e c 8.$.$.X.+.-.q.x j ",
"j ;.> p w j w.w.w.w.w.w.w.w.w.j ",
"j ;.> p w j 2.C B N V n n c @.j ",
"j >.2 i T j O.+ N + U + Z + ] j ",
"j ^ ! q - j ] + } + ` + 8.+ ] j ",
"j d ) X.[ j j + J + j + L + j j ",
"e.e.j f j j j . X O e.  O   e.e."
};
