/* XPM */
static char *gnome_panel_clock[] = {
/* columns rows colors chars-per-pixel */
"16 16 154 2",
"   c #000000",
".  c #2F3537",
"X  c #303637",
"o  c #303737",
"O  c #323739",
"+  c #32383A",
"@  c #33383A",
"#  c #34393B",
"$  c #353A3B",
"%  c #373C3C",
"&  c #363C3D",
"*  c #393E3F",
"=  c #3A3F3F",
"-  c #3A4041",
";  c #3D4141",
":  c #3C4243",
">  c #3F4545",
",  c #434645",
"<  c #464948",
"1  c #464C4C",
"2  c #4B4F4C",
"3  c #505350",
"4  c #555753",
"5  c #575955",
"6  c #575A56",
"7  c #585A54",
"8  c #585A55",
"9  c #595B56",
"0  c #565A58",
"q  c #5A5C58",
"w  c #5B5D59",
"e  c #5B5E58",
"r  c #595D5B",
"t  c #5A5E5B",
"y  c #5C5E5A",
"u  c #5C5F5A",
"i  c #5D605D",
"p  c #5F6360",
"a  c #5F6261",
"s  c #646661",
"d  c #626664",
"f  c #676B68",
"g  c #6B6D68",
"h  c #6A6C69",
"j  c #6C706B",
"k  c #6F736E",
"l  c #737670",
"z  c #747574",
"x  c #767675",
"c  c #767676",
"v  c #757873",
"b  c #767A77",
"n  c #787C78",
"m  c #7D807A",
"M  c #80837C",
"N  c #828580",
"B  c #858882",
"V  c #8D8F8A",
"C  c #8D918A",
"Z  c #919291",
"A  c #929591",
"S  c #949591",
"D  c #979797",
"F  c #959893",
"G  c #959994",
"H  c #9A9B9A",
"J  c #9BA099",
"K  c #9CA099",
"L  c #9EA29A",
"P  c #A4A6A0",
"I  c #A4A8A2",
"U  c #A5AAA4",
"Y  c #A6AAA4",
"T  c #A7AAA4",
"R  c #AFB1AD",
"E  c #B0B3AC",
"W  c #B2B6AE",
"Q  c #B3B4B3",
"!  c #B4B8B1",
"~  c #B7B9B5",
"^  c #BABDB6",
"/  c #B9BAB9",
"(  c #BDBEBD",
")  c #C0C0BF",
"_  c #C7C7C6",
"`  c #C6C9C1",
"'  c #CAD0C6",
"]  c #CBD0C6",
"[  c #CCD1C7",
"{  c #CDD0C8",
"}  c #CCD1C8",
"|  c #CED2CB",
" . c #CFD4CA",
".. c #CFD5CC",
"X. c #D2D7CE",
"o. c #D4D7D2",
"O. c #D5D9D2",
"+. c #D6DAD2",
"@. c #DADDD7",
"#. c #DDDFDA",
"$. c #DCE0DA",
"%. c #DFE0DE",
"&. c #E0E3DD",
"*. c #E0E1DE",
"=. c #E1E5DF",
"-. c #E0E2E0",
";. c #E3E3E2",
":. c #E2E5E0",
">. c #E4E7E2",
",. c #E4E7E3",
"<. c #E7E9E4",
"1. c #E8EAE5",
"2. c #E8EAE6",
"3. c #E8EBE6",
"4. c #E9EBE7",
"5. c #E9EAE8",
"6. c #EAECE8",
"7. c #EBEDE9",
"8. c #EBEDEA",
"9. c #EBEDEB",
"0. c #ECEEEB",
"q. c #EDEEEB",
"w. c #EDEEEC",
"e. c #EDEFEC",
"r. c #EDEFED",
"t. c #EEEFEC",
"y. c #EEF0ED",
"u. c #EFF0EE",
"i. c #EFF1EE",
"p. c #EFF1EF",
"a. c #F1F2EF",
"s. c #F0F0F0",
"d. c #F1F3F0",
"f. c #F2F3F1",
"g. c #F3F4F2",
"h. c #F4F5F2",
"j. c #F4F5F3",
"k. c #F4F5F4",
"l. c #F5F5F4",
"z. c #F5F6F4",
"x. c #F5F6F5",
"c. c #F7F8F7",
"v. c #F8F8F8",
"b. c #F8F9F8",
"n. c #F9F9F8",
"m. c #F9FAF9",
"M. c #FAFAF9",
"N. c #FAFAFA",
"B. c #FAFBFA",
"V. c #FBFBFB",
"C. c #FBFCFB",
"Z. c #FCFCFC",
"A. c #FDFDFD",
"S. c None",
/* pixels */
"S.S.S.S.S.u 9 4 5 w S.S.S.S.S.S.",
"S.S.S.w g L W ! I C s 9 S.S.S.S.",
"S.S.w H { X.] ] ] ] W m 9 S.S.S.",
"S.u J  .] @.1.3.3.$.X.^ n 5 S.S.",
"S.h ` X.>.9.9.9.0.t.  O.T i S.S.",
"3 A O.&.3.0.y.a.)   Q >.O.v 2 S.",
"< I $.3.y.y.  H   Z g.0.&.N , S.",
"; Y :.9.a.a.z A.z 6.x.g.3.B = S.",
"* G <.t.s.g.  c   _ c.g.t.n & S.",
"& b -.p.g.x./ -.D   M.x.-.d & S.",
"S.1 P x.g.j.c.M.s.( M.M.S > S.S.",
"S.$ f ~ M.M.v.M.A.Z.Z.E w @ S.S.",
"S.S.@ a G %.M.V.M.%.V 0 O S.S.S.",
"S.S.S.@ : a k l g t - O S.S.S.S.",
"S.S.S.S.S.+ o o o + S.S.S.S.S.S.",
"S.S.S.S.S.S.S.S.S.S.S.S.S.S.S.S."
};
