/* XPM */
static char *gnome_settings_theme[] = {
/* columns rows colors chars-per-pixel */
"16 16 84 1",
"  c #204A87",
". c #214A88",
"X c #224B88",
"o c #224B89",
"O c #214C88",
"+ c #214D89",
"@ c #224C89",
"# c #234C89",
"$ c #234C8A",
"% c #244E89",
"& c #254F8A",
"* c #254E8B",
"= c #254F8B",
"- c #234E8C",
"; c #24508B",
": c #24518C",
"> c #26508C",
", c #26518D",
"< c #28538F",
"1 c #2A538E",
"2 c #29548F",
"3 c #2C5590",
"4 c #2B5896",
"5 c #315D99",
"6 c #315D9A",
"7 c #35639F",
"8 c #3764A0",
"9 c #3E6AA6",
"0 c #426FA9",
"q c #4270AB",
"w c #4370AB",
"e c #4572AC",
"r c #4474AF",
"t c #4B77AD",
"y c #4A76AE",
"u c #4C78AF",
"i c #5A7EAF",
"p c #5A7FAF",
"a c #4877B1",
"s c #4A79B3",
"d c #4E7AB1",
"f c #4D7AB2",
"g c #4E7CB4",
"h c #517DB4",
"j c #527EB4",
"k c #507FB7",
"l c #5580B6",
"z c #5581B7",
"x c #5382B8",
"c c #5584BB",
"v c #5984B9",
"b c #5886BC",
"n c #5B89BF",
"m c #6684AE",
"M c #6784AF",
"N c #688BB9",
"B c #698BB9",
"V c #5E8BC0",
"C c #618FC3",
"Z c #638FC3",
"A c #6491C4",
"S c #6692C4",
"D c #6693C4",
"F c #6694C7",
"G c #6995C7",
"H c #6996C8",
"J c #6C99CB",
"K c #6F9BCC",
"L c #719ECE",
"P c #74A0CF",
"I c #81A1C8",
"U c #85A5CB",
"Y c #89A8CE",
"T c #8EABCE",
"R c #8DACD0",
"E c #8FADD0",
"W c #90AFD3",
"Q c #94B2D5",
"! c #96B3D4",
"~ c #98B6D8",
"^ c #9BB9DB",
"/ c #9FBDDD",
"( c #A3C0DF",
") c None",
/* pixels */
")XX+>+ XXX#%+#X)",
"XpNmW%%44$>TMNp ",
"+If1Gl-  %jS1kI ",
"%Ur8-yFFFCu-7aU ",
"%Ys906<XX3600kY ",
"%Rk0k0xgkk0k0jT ",
"%WcececcccecebW ",
"%QnyVynnVVynyVQ ",
"%!ChCfCFVVfCfA~ ",
"%^FkFhFSFFkFhG^ ",
"%/JlJjJJJJcJjL/ ",
"%(LvLvLLLLvLvL( ",
"%(LvLvLLLLvLvP(X",
"%(LvLvLLLLvLvP( ",
"%((!(!((((!(!(( ",
"                "
};
