/* XPM */
static char *gnome_fs_bookmark_missing[] = {
/* columns rows colors chars-per-pixel */
"16 16 66 1",
"  c #A40000",
". c #CC0000",
"X c #D92E15",
"o c #DD3B1B",
"O c #8F5902",
"+ c #DF421E",
"@ c #C96C36",
"# c #984745",
"$ c #D59B3F",
"% c #B68E4A",
"& c #DEA956",
"* c #D3AA69",
"= c #E3B162",
"- c #E9B96E",
"; c #8E908B",
": c #92958F",
"> c #949691",
", c #969892",
"< c #969893",
"1 c #979A94",
"2 c #999B96",
"3 c #9B9D97",
"4 c #9D9F99",
"5 c #9EA19B",
"6 c #A0A29C",
"7 c #A1A49D",
"8 c #A2A49E",
"9 c #A3A6A0",
"0 c #A5A7A1",
"q c #A8ABA5",
"w c #A9ABA5",
"e c #AAACA8",
"r c #ACB0AA",
"t c #AFB2AC",
"y c #B2B3B1",
"u c #BDBEBA",
"i c #BFC1BB",
"p c #C4C6C1",
"a c #C9CDC6",
"s c #CED2CB",
"d c #D5D9D1",
"f c #D9DAD8",
"g c #D9DBD8",
"h c #DADBD9",
"j c #F8D9D2",
"k c #DFE2DC",
"l c #E2E4DF",
"z c #E3E5E0",
"x c #E5E7E3",
"c c #E6E8E3",
"v c #E7E8E4",
"b c #E8EAE6",
"n c #E9EAE7",
"m c #E9E9E8",
"M c #ECEDEA",
"N c #ECEDEB",
"B c #EDEEEB",
"V c #FCFDFC",
"C c #FDFDFD",
"Z c #FDFEFD",
"A c #FEFEFD",
"S c #FEFEFE",
"D c #FEFFFE",
"F c #FFFFFE",
"G c #FFFFFF",
"H c None",
/* pixels */
"HHOOOOOO%qHHHHHH",
"Hw*O-==-OmtHHHHH",
"H0SO-&&-OfVuHHHH",
"H8SO-$$-OpSVeHHH",
"H8SO-$$-Oiryg8HH",
"H6VO-$$-Odsag4HH",
"H5SO-&@         ",
"H5SO-- +++++++o ",
"H3SO-O +Sj..jSX ",
"H2VOOl +jSSSSjX ",
"H1SOll +.SSSS.X ",
"H,Svxc +.SSSS.X ",
"H>Sbbb +jSSSSjX ",
"H:SBBB +Sj..jSX ",
"H,BSSS oXXXXXXX ",
"HH>;;;#         "
};
