/* XPM */
static char *gnome_fs_blockdev[] = {
/* columns rows colors chars-per-pixel */
"16 16 109 2",
"   c #42770C",
".  c #555752",
"X  c #555753",
"o  c #585A56",
"O  c #5D5F5B",
"+  c #646763",
"@  c #686A65",
"#  c #737470",
"$  c #737571",
"%  c #757877",
"&  c #797B76",
"*  c #7C7D7D",
"=  c #A40000",
"-  c #C93333",
";  c #D23A3A",
":  c #CE5C00",
">  c #7E807B",
",  c #86AB3B",
"<  c #F78912",
"1  c #F99E2B",
"2  c #99BE4E",
"3  c #81847F",
"4  c #204A87",
"5  c #4676B0",
"6  c #5F8DC2",
"7  c #848584",
"8  c #888B86",
"9  c #8D8F8A",
"0  c #909190",
"q  c #949492",
"w  c #989B95",
"e  c #9B9B9B",
"r  c #9C9E99",
"t  c #A2A59F",
"y  c #A4A6A0",
"u  c #A5A6A2",
"i  c #A5A6A3",
"p  c #A6A6A3",
"a  c #A9ABA5",
"s  c #AFB2AB",
"d  c #AFB0AE",
"f  c #B7B7B6",
"g  c #B5B8B2",
"h  c #B9BCB5",
"j  c #BABCB5",
"k  c #BABDB6",
"l  c #BBBEB7",
"z  c #BCBCBB",
"x  c #BCBDBB",
"c  c #C1C1BF",
"v  c #C3C3C3",
"b  c #C6C6C6",
"n  c #C7C7C7",
"m  c #C8C8C7",
"M  c #C8C8C8",
"N  c #C9C9C8",
"B  c #C9C9C9",
"V  c #CACACA",
"C  c #CCCCCC",
"Z  c #CDCDCD",
"A  c #CECECE",
"S  c #CFCFCF",
"D  c #D0D0D0",
"F  c #D1D1D1",
"G  c #D1D2D1",
"H  c #D2D2D2",
"J  c #D3D3D3",
"K  c #D4D4D3",
"L  c #D5D5D5",
"P  c #D6D7D5",
"I  c #D6D6D6",
"U  c #D7D7D7",
"Y  c #D8D8D8",
"T  c #D8D9D8",
"R  c #D9D9D9",
"E  c #DADADA",
"W  c #DBDBDB",
"Q  c #DCDCDC",
"!  c #DEDEDE",
"~  c #DFDFDF",
"^  c #E0E0E0",
"/  c #E1E1E1",
"(  c #E1E2E1",
")  c #E2E2E2",
"_  c #E3E3E3",
"`  c #E4E4E4",
"'  c #E5E5E5",
"]  c #E5E6E5",
"[  c #E6E6E6",
"{  c #E7E7E7",
"}  c #E8E8E8",
"|  c #EAEAEA",
" . c #EAEBEA",
".. c #EEEEEE",
"X. c #F1F1F1",
"o. c #F1F3F1",
"O. c #F3F3F3",
"+. c #F4F4F4",
"@. c #F5F5F5",
"#. c #F6F6F6",
"$. c #F7F7F7",
"%. c #F8F8F8",
"&. c #F9F9F9",
"*. c #FBFBFB",
"=. c #FCFCFC",
"-. c #FDFDFD",
";. c #FEFEFE",
":. c #FFFFFF",
">. c None",
/* pixels */
">.>.>.>.>.>.>.>.>.>.>.>.>.>.>.>.",
">.>.l l l l l l l g s a t r >.>.",
">.l X.-.%.%.%.#.#.#.X.` I z 8 >.",
">.l -.>./ } ..{ } E H v b H > >.",
">.l -./ / / K P ~ E H E b H # >.",
">.h -.Q A N ` _ Q Y S d b I @ >.",
">.s -.A c Q } $.%./ H z f I O >.",
">.y -.p I E S W E ` S N y I o >.",
">.w -.p H I A N 4 4 4 4 : : : : ",
">.9 -.M } ` Y I 4 6 6 4 : 1 1 : ",
">.7 -.M A ` O.*.4 5 5 4 : < < : ",
">.% %.e M N N H 4 4 4 4 : : : : ",
">.$ ` -.*.-.-.%.= = = =         ",
">.+ q J 0 7 * % = ; ; =   2 2   ",
">.>.. . X X X X = - - =   , ,   ",
">.>.>.>.>.>.>.>.= = = =         "
};
