/* XPM */
static char *gnome_sound_recorder[] = {
/* columns rows colors chars-per-pixel */
"16 16 153 2",
"   c #555753",
".  c #565854",
"X  c #575955",
"o  c #585A56",
"O  c #585B56",
"+  c #595B57",
"@  c #5A5B58",
"#  c #5A5D58",
"$  c #5A5D59",
"%  c #5C5D59",
"&  c #5D5F59",
"*  c #5E605C",
"=  c #5F625D",
"-  c #61635F",
";  c #666763",
":  c #676864",
">  c #676964",
",  c #696B67",
"<  c #706864",
"1  c #71726E",
"2  c #70726F",
"3  c #71746F",
"4  c #767975",
"5  c #797A77",
"6  c #7D7E7B",
"7  c #CC0000",
"8  c #CC0101",
"9  c #CD0101",
"0  c #CD0202",
"q  c #CE0202",
"w  c #CE0303",
"e  c #E61C1C",
"r  c #E61E1E",
"t  c #CB2E2E",
"y  c #D82424",
"u  c #D82727",
"i  c #D92828",
"p  c #DC3E3E",
"a  c #E42626",
"s  c #E82121",
"d  c #E92525",
"f  c #E73131",
"g  c #EE3D3D",
"h  c #814E4B",
"j  c #A75250",
"k  c #936361",
"l  c #807A76",
"z  c #A17371",
"x  c #DD4343",
"c  c #D95B5A",
"v  c #E84747",
"b  c #E95353",
"n  c #EB5252",
"m  c #EA5454",
"M  c #EF5B5B",
"N  c #E96262",
"B  c #EC6C6C",
"V  c #ED6D6D",
"C  c #F16060",
"Z  c #EF7171",
"A  c #7F807C",
"S  c #7F817C",
"D  c #828580",
"F  c #8B8682",
"G  c #868884",
"H  c #8B918B",
"J  c #90908D",
"K  c #92928C",
"L  c #949491",
"P  c #959991",
"I  c #979895",
"U  c #959B94",
"Y  c #979A96",
"T  c #989A97",
"R  c #999B97",
"E  c #979C98",
"W  c #9B9B98",
"Q  c #9B9E98",
"!  c #9E9F9C",
"~  c #9CA19B",
"^  c #9DA39D",
"/  c #A1A2A0",
"(  c #A1A5A1",
")  c #A5A6A4",
"_  c #A3AAA1",
"`  c #A4A8A2",
"'  c #A8A8A6",
"]  c #A9AFA7",
"[  c #A7ACA8",
"{  c #ABAFA9",
"}  c #AAADAB",
"|  c #A9AEAA",
" . c #AAAEAA",
".. c #AFB4AC",
"X. c #B0B4B0",
"o. c #B3B4B1",
"O. c #B4B5B2",
"+. c #B5BAB3",
"@. c #B5BAB4",
"#. c #B5B8B6",
"$. c #B6B8B6",
"%. c #B6BAB6",
"&. c #B7BDB6",
"*. c #B7B9B8",
"=. c #B9BBB9",
"-. c #BABFB9",
";. c #BABDBA",
":. c #BBBFBD",
">. c #BCBFBD",
",. c #EF8181",
"<. c #EF8282",
"1. c #EE8A8A",
"2. c #F08D8D",
"3. c #F38E8E",
"4. c #EF9191",
"5. c #F49393",
"6. c #F09A9A",
"7. c #F59898",
"8. c #F2A3A3",
"9. c #F6B7B7",
"0. c #F5B9B9",
"q. c #BDC1BB",
"w. c #BEC2BB",
"e. c #C3C5C1",
"r. c #C1C4C2",
"t. c #C6C8C6",
"y. c #C7CCC5",
"u. c #C8CCC6",
"i. c #C9CCC6",
"p. c #C8CAC8",
"a. c #CBCEC9",
"s. c #CCCFCA",
"d. c #CDCFCF",
"f. c #CDD0CD",
"g. c #CFD1CE",
"h. c #CED0CF",
"j. c #D0D3CE",
"k. c #D1D4D1",
"l. c #D1D5D1",
"z. c #D2D5D1",
"x. c #D3D5D1",
"c. c #D4D5D4",
"v. c #D4D7D4",
"b. c #D6D8D5",
"n. c #D9DBD7",
"m. c #DADCD8",
"M. c #DCDFDB",
"N. c #E1E3E0",
"B. c #E6E7E6",
"V. c #E7E7E6",
"C. c #E8E8E7",
"Z. c #F6F6F6",
"A. c None",
/* pixels */
"A.A.A.A.A.A.A.A.A.A.T J G 6 A.A.",
"A.A.A.A.A.A.A.A.! O.v.g.k.T 1 A.",
"A.A.A.A.A.A.A.A.' N.t.M.X.a.! > ",
"A.A.A.A.A.A.A.W g.>.B.*.+.~ -.; ",
"A.A.A.A.A.A.A.L g.k.d.k.U _ @.> ",
"A.A.A.A.A.A.A.! n.#.Z. .P 4 T - ",
"A.A.A.9 9 9 j o.:.n.r.q., { T . ",
"A.9 x 6.0.4.z #.p.@.v.E + / 5 . ",
"A.p 9.1.B ,.F j.{ v.[ ] * C.. A.",
"9 1.<.m v a l *.t. .-.H 6 V.. A.",
"9 8.m f r e k [ i.u.^ ..) v.. A.",
"9 N n s d d c < K ;.r.( 1 a.  A.",
"A.y 3.M g C 5.t h $ + + D @.. A.",
"A.9 u V 7.Z i 9 A.* S $ % @ $ A.",
"A.A.A.9 9 9 A.A.A.3 q.3 A.A.A.A.",
"A.A.A.A.A.A.A.A.A.A.A.A.A.A.A.A."
};
