/* XPM */
static char *gnome_session_reboot[] = {
/* columns rows colors chars-per-pixel */
"16 16 142 2",
"   c #1F4987",
".  c #1F4B87",
"X  c #204A86",
"o  c #204A87",
"O  c #214B87",
"+  c #204A88",
"@  c #214A88",
"#  c #204B88",
"$  c #214B88",
"%  c #214A89",
"&  c #214B89",
"*  c #224B88",
"=  c #234B88",
"-  c #234B89",
";  c #204C88",
":  c #214C88",
">  c #204C89",
",  c #214C89",
"<  c #224C89",
"1  c #234D89",
"2  c #214D8A",
"3  c #234D8A",
"4  c #224D8B",
"5  c #244E89",
"6  c #244C8A",
"7  c #244D8A",
"8  c #244E8A",
"9  c #254E8A",
"0  c #244E8B",
"q  c #264F8B",
"w  c #254F8C",
"e  c #27518D",
"r  c #27538D",
"t  c #25518E",
"y  c #26528E",
"u  c #265390",
"i  c #2A5490",
"p  c #2B5591",
"a  c #2B5691",
"s  c #2E5792",
"d  c #2E5993",
"f  c #2F5A96",
"g  c #2D5C9A",
"h  c #315892",
"j  c #315E98",
"k  c #315F9C",
"l  c #35609B",
"z  c #37619B",
"x  c #31619E",
"c  c #386099",
"v  c #3A6298",
"b  c #3D649A",
"n  c #3F679D",
"m  c #3664A1",
"M  c #3566A4",
"N  c #3667A5",
"B  c #3C68A3",
"V  c #3B68A4",
"C  c #3868A6",
"Z  c #3A69A6",
"A  c #3A6AA7",
"S  c #3B6AA7",
"D  c #3E6BA6",
"F  c #3D6CA8",
"G  c #3E6CA8",
"H  c #3E6DA9",
"J  c #416BA3",
"K  c #476FA6",
"L  c #486EA2",
"P  c #406EA9",
"I  c #406DAA",
"U  c #426FAA",
"Y  c #4370AA",
"T  c #4370AB",
"R  c #4371AB",
"E  c #4773AB",
"W  c #4771AC",
"Q  c #4673AC",
"!  c #4773AC",
"~  c #4A73A8",
"^  c #4872AB",
"/  c #4D74A8",
"(  c #4A76AF",
")  c #4C76AF",
"_  c #4C78AF",
"`  c #557DAF",
"'  c #597CAB",
"]  c #507BB0",
"[  c #507AB1",
"{  c #517BB1",
"}  c #597FB0",
"|  c #5581B6",
" . c #5D81B0",
".. c #5D82B2",
"X. c #5D82B3",
"o. c #5981B5",
"O. c #5885BA",
"+. c #6389BA",
"@. c #6689B8",
"#. c #658EBF",
"$. c #6C8EB9",
"%. c #688EBC",
"&. c #6A8FBD",
"*. c #6A90BF",
"=. c #6C91BE",
"-. c #6A93C4",
";. c #6B93C4",
":. c #6D95C5",
">. c #6F96C4",
",. c #6F99C8",
"<. c #7093C0",
"1. c #7797C0",
"2. c #7698C3",
"3. c #7D9EC7",
"4. c #729BC9",
"5. c #769ECB",
"6. c #799DC8",
"7. c #7C9EC8",
"8. c #7C9FC9",
"9. c #7FA5CF",
"0. c #7EA6D1",
"q. c #81A1C9",
"w. c #87A7CB",
"e. c #81A4CD",
"r. c #86A6CE",
"t. c #86A7CF",
"y. c #8CAACF",
"u. c #80A7D2",
"i. c #8EACD0",
"p. c #8CAED3",
"a. c #8FAED2",
"s. c #8FAED3",
"d. c #90AFD2",
"f. c #8CB0D6",
"g. c #91B1D5",
"h. c #93B2D6",
"j. c #93B3D6",
"k. c #98B5D6",
"l. c #93B5D9",
"z. c #98B6D8",
"x. c #9BB7D8",
"c. c None",
/* pixels */
"c.c.c.c.c.; 7 ; O 3 7 c.c.c.c.O ",
"c.c.c.= e  .w.k.k.s.$.h 7 c.7 O ",
"c.c.3 b s.l.u.0.u.0.f.z.' 3 1.O ",
"c.c.v s.5.,.s.h.h.g.e.4.s.s.y.  ",
"c.7 3.-.:.r.` d e n >.r.-.e.q.O ",
"  L >.O.6.v 3 c.c.O O 3.6.#.2.O ",
"3 X.| *.K 3 c.c.c.O / =.&.%.@.  ",
"  X.( +.w c.c.c.O     O   O   O ",
"; ` Y o.3 c.c.c.c.c.c.c.c.c.c.c.",
"O ^ I { l 3 c.c.c.c.c.c.c.c.c.c.",
"= v Q F ) e = c.c.f B ^ c.c.c.c.",
"c.= E A Y Q j e 3 f E _ I { c.c.",
"c.= p T A A Y Y F I F F _ J c.c.",
"c.c.. e V F A N N N A D a = c.c.",
"c.c.c.= O i x m x g u 3 3 c.c.c.",
"c.c.c.c.c.  O 3 O ;   c.c.c.c.c."
};
