/* XPM */
static char *gnucash_icon[] = {
/* columns rows colors chars-per-pixel */
"16 16 108 2",
"   c #796201",
".  c #7E6703",
"X  c #7F6803",
"o  c #7F6804",
"O  c #746417",
"+  c #7B6C23",
"@  c #555752",
"#  c #555753",
"$  c #5C5E5A",
"%  c #806904",
"&  c #8F7502",
"*  c #8F7503",
"=  c #8E7505",
"-  c #917703",
";  c #917804",
":  c #927804",
">  c #927908",
",  c #8F7B1E",
"<  c #9C830B",
"1  c #9C840B",
"2  c #99810D",
"3  c #9A820E",
"4  c #9C830C",
"5  c #9C840C",
"6  c #9C840E",
"7  c #9D840F",
"8  c #9E850E",
"9  c #9E8610",
"0  c #A7921D",
"q  c #A6911E",
"w  c #B19A1B",
"e  c #B39D1D",
"r  c #B59D1E",
"t  c #9B8523",
"y  c #9E8926",
"u  c #9E8B2E",
"i  c #998738",
"p  c #A08C2E",
"a  c #A18D2F",
"s  c #A49139",
"d  c #A5933C",
"f  c #B39F36",
"g  c #B49F35",
"h  c #B5A036",
"j  c #B7A23A",
"k  c #DDC93C",
"l  c #E1CD3C",
"z  c #E2CD3C",
"x  c #AA9A51",
"c  c #F1DE48",
"v  c #F3DF48",
"b  c #E3D470",
"n  c #4A6B99",
"m  c #4E709E",
"M  c #5B79A1",
"N  c #5B7AA4",
"B  c #6783AA",
"V  c #708AAB",
"C  c #888983",
"Z  c #888A85",
"A  c #9EA09B",
"S  c #9FA19D",
"D  c #8095AF",
"F  c #A7B3BE",
"G  c #BBBCB9",
"H  c #F5E787",
"J  c #A7B5C3",
"K  c #A4B3C4",
"L  c #AFBCC6",
"P  c #BDC3C4",
"I  c #CFCFC4",
"U  c #C1C6C9",
"Y  c #C4CBCF",
"T  c #D4D4CE",
"R  c #D5D6D1",
"E  c #D2D6D5",
"W  c #D5D7D5",
"Q  c #D6D8D3",
"!  c #D8D9D5",
"~  c #DADDD7",
"^  c #D7DBDE",
"/  c #DBDDD8",
"(  c #DCDCD8",
")  c #DCDED9",
"_  c #DDDEDA",
"`  c #DCDFDA",
"'  c #DDE0DA",
"]  c #DEE0DA",
"[  c #DEE0DB",
"{  c #E0E2DD",
"}  c #E4E5E0",
"|  c #E4E6E1",
" . c #E5E6E2",
".. c #E6E7E3",
"X. c #E6E7E4",
"o. c #E7E7E4",
"O. c #E9EAE6",
"+. c #EAEBE7",
"@. c #EAEBE8",
"#. c #EBEBE9",
"$. c #ECECE9",
"%. c #ECEDEA",
"&. c #ECEDEB",
"*. c #EDEDEB",
"=. c #EDEEEB",
"-. c #EEEEEC",
";. c #EFF0EE",
":. c None",
/* pixels */
":.$ # # # # # # # # # # # $ :.:.",
"$ G -.-.-.=.-.-.-.-.-.-.-.G $ :.",
"# -.;.=.=._ $.=._ =.$./ -.-.# :.",
"# -.S _ _ _ _ _ _ _ ! R R -.# :.",
"# -.S #.#._ +.#._  . .R X.-.# :.",
"# -.S +.^ E +.+.Q  . .R  .-.# :.",
"# -.S Y N V ! U F I x t = y + :.",
"# -.A m K V n M P d j b H b f > ",
"# -.Z J [ R V L T s h b H b f : ",
"# =.Z R Q R R R T u 8 8 = 8 6 ; ",
"# -.Z ] ] R _ _ T p r z v z w ; ",
"# -.Z ] _ R / ~ T p 8 8 & < 6 ; ",
"# -.S Z Z Z Z Z C , r l v l w : ",
"$ G -.-.-.-.-.-.=.i 2 2 & < 2 X ",
":.$ # # # # # # # O 0 k c k 0 o ",
":.:.:.:.:.:.:.:.:.:.. %   % . :."
};
