/* XPM */
static char *gnumeric[] = {
/* columns rows colors chars-per-pixel */
"16 16 148 2",
"   c #670000",
".  c #670101",
"X  c #660302",
"o  c #690101",
"O  c #6A0000",
"+  c #680201",
"@  c #680202",
"#  c #670C0B",
"$  c #670F0E",
"%  c #680E0D",
"&  c #760707",
"*  c #750B0B",
"=  c #63131E",
"-  c #741313",
";  c #761615",
":  c #791B1A",
">  c #62201F",
",  c #5A182A",
"<  c #5F2321",
"1  c #5B3B39",
"2  c #7D2121",
"3  c #7F3332",
"4  c #5B601D",
"5  c #4B2D52",
"6  c #555753",
"7  c #565753",
"8  c #565854",
"9  c #575955",
"0  c #585A56",
"q  c #595B57",
"w  c #5A557F",
"e  c #821E01",
"r  c #801313",
"t  c #841717",
"y  c #8E1A1A",
"u  c #931F1F",
"i  c #AA0E0E",
"p  c #AA1C1C",
"a  c #C13535",
"s  c #864645",
"d  c #8E4241",
"f  c #964C4C",
"g  c #8C5856",
"h  c #C65749",
"j  c #DE5C48",
"k  c #EB4646",
"l  c #ED5E5E",
"z  c #F05151",
"x  c #F25656",
"c  c #F35B5C",
"v  c #D7646E",
"b  c #EC6868",
"n  c #F66060",
"m  c #F76161",
"M  c #FA6666",
"N  c #F46E6E",
"B  c #F96969",
"V  c #FB6A6A",
"C  c #FC6B6B",
"Z  c #FA6F6F",
"A  c #FB6F6F",
"S  c #FC6F6F",
"D  c #ED7575",
"F  c #FD7070",
"G  c #FD7373",
"H  c #FF7272",
"J  c #4F9705",
"K  c #529005",
"L  c #BBB05D",
"P  c #95DE4E",
"I  c #AFCA64",
"U  c #ADD96B",
"Y  c #B8D97B",
"T  c #35548A",
"R  c #B57187",
"E  c #5684BA",
"W  c #5785BC",
"Q  c #5C87BB",
"!  c #6E80AB",
"~  c #748EBA",
"^  c #6290C4",
"/  c #6492C4",
"(  c #6F9CCD",
")  c #769AC5",
"_  c #848683",
"`  c #868784",
"'  c #878785",
"]  c #8D8D8C",
"[  c #929390",
"{  c #989997",
"}  c #999A97",
"|  c #9A9B98",
" . c #9C9C9A",
".. c #9C9C9B",
"X. c #9D9E9B",
"o. c #9D9E9C",
"O. c #9E9F9D",
"+. c #AF8280",
"@. c #BF9B85",
"#. c #9FA09D",
"$. c #A5B592",
"%. c #8A80A3",
"&. c #8687AD",
"*. c #9281A3",
"=. c #809EA8",
"-. c #A2A3A0",
";. c #A4A5A3",
":. c #A5A6A2",
">. c #A6A7A3",
",. c #A8A8A6",
"<. c #A9AAA8",
"1. c #ABACAA",
"2. c #B1B2AE",
"3. c #B1B1B0",
"4. c #B2B3B1",
"5. c #B4B5B2",
"6. c #B5B6B3",
"7. c #F58383",
"8. c #FD8686",
"9. c #FA9898",
"0. c #CBB4B1",
"q. c #849CC2",
"w. c #C6C6C2",
"e. c #C8C8C3",
"r. c #CACAC7",
"t. c #CBCBC9",
"y. c #CCCCCA",
"u. c #CECECB",
"i. c #DCC5C5",
"p. c #D1D1CD",
"a. c #D2D2CE",
"s. c #D2D2D0",
"d. c #D5D5D2",
"f. c #D4D4D3",
"g. c #D6D6D3",
"h. c #D7D7D5",
"j. c #D9D9D6",
"k. c #DDDDDB",
"l. c #DFDFDD",
"z. c #E1E1DF",
"x. c #E6E6E5",
"c. c #E7E7E6",
"v. c #E9E9E6",
"b. c #EAEAE8",
"n. c #EBEBEA",
"m. c #FEFEFE",
"M. c #FFFFFF",
"N. c None",
/* pixels */
"N.0 6 6 7 7 7 7 7 7 7 7 7 0 N.N.",
"0 h.c.c.c.c.c.c.c.c.c.c.x.b.0 N.",
"8 c.z.l.3.l.l.l.l.l.l.l.3.M.8 N.",
"8 c.k.k.1.s.s.s.s.s.s.s.-.M.8 N.",
"8 v.,.;.] { } } { { { | ` M.8 N.",
"8 c.h.y.O.b.b.b.b.b.b.b.5.M.8 N.",
"8 c.j.u.O.v.v.0.d - o ; 3 i.0 N.",
"0 c.,.#.` 5.s ; a l F l a t > N.",
"9 c.f.t.*.L u Z A F C C B A y N.",
"9 c.d.e...2 b H M m c v R *.R o ",
"9 c.;.#.R X 8.n x z @.( ^ W ^ # ",
"9 c.u.w.=.X D N k j U / W Q ! X ",
"9 c.p.w.} : p 9.8.L P ~ ) q.w o ",
"9 x.2.;.[ g & i h I Y $.! T , o ",
"q l.m.m.m.m.f * e K J 4 5 = % N.",
"N.q 6 6 9 9 9 1 $ X o X % < N.N."
};
