/* XPM */
static char *google_calendar[] = {
/* columns rows colors chars-per-pixel */
"16 16 232 2",
"   c #02771F",
".  c #1D7020",
"X  c #037631",
"o  c #007A34",
"O  c #007B3C",
"+  c #007B3D",
"@  c #007A3E",
"#  c #007D3E",
"$  c #017D3E",
"%  c #027C3F",
"&  c #3A652D",
"*  c #007A41",
"=  c #007943",
"-  c #007C40",
";  c #1C7849",
":  c #8A2B0F",
">  c #B62011",
",  c #B12611",
"<  c #D50100",
"1  c #DA0203",
"2  c #DF0000",
"3  c #CC1005",
"4  c #C21906",
"5  c #E00200",
"6  c #E10200",
"7  c #E50000",
"8  c #EB0100",
"9  c #EE0000",
"0  c #EC0004",
"q  c #E70C0A",
"w  c #F30100",
"e  c #F00003",
"r  c #F60100",
"t  c #F40004",
"y  c #F90001",
"u  c #F90101",
"i  c #FA0202",
"p  c #FD0000",
"a  c #FD0100",
"s  c #FF0100",
"d  c #FC0300",
"f  c #FD0002",
"g  c #FD0003",
"h  c #FE0103",
"j  c #C72928",
"k  c #C33F3A",
"l  c #DD5350",
"z  c #E04646",
"x  c #00822C",
"c  c #018D2A",
"v  c #018D2D",
"b  c #00942D",
"n  c #008934",
"m  c #098936",
"M  c #01833B",
"N  c #008639",
"B  c #00813E",
"V  c #03823F",
"C  c #00853C",
"Z  c #00843D",
"A  c #00863C",
"S  c #00863D",
"D  c #00853E",
"F  c #01873E",
"G  c #0D863F",
"H  c #008938",
"J  c #028B39",
"K  c #008F38",
"L  c #008D3B",
"P  c #00883C",
"I  c #02893D",
"U  c #008A3D",
"Y  c #018B3D",
"T  c #028B3D",
"R  c #038C3C",
"E  c #008F3D",
"W  c #018F3D",
"Q  c #009537",
"!  c #009637",
"~  c #009B35",
"^  c #009937",
"/  c #009A37",
"(  c #009039",
")  c #009338",
"_  c #01913A",
"`  c #00903B",
"'  c #00933B",
"]  c #02923B",
"[  c #009438",
"{  c #009639",
"}  c #029739",
"|  c #02973B",
" . c #00933F",
".. c #01943C",
"X. c #00963C",
"o. c #03963D",
"O. c #03983A",
"+. c #039A3B",
"@. c #028040",
"#. c #058143",
"$. c #028541",
"%. c #018742",
"&. c #1D854A",
"*. c #259155",
"=. c #269A51",
"-. c #49A66D",
";. c #46A86B",
":. c #DFB00A",
">. c #D8A21B",
",. c #E2AE02",
"<. c #EAAA00",
"1. c #ECA70C",
"2. c #E3B500",
"3. c #EFB400",
"4. c #F0B20F",
"5. c #F2B50F",
"6. c #F6BE09",
"7. c #F1B90C",
"8. c #F1AA1E",
"9. c #F1B215",
"0. c #F0B116",
"q. c #F7B910",
"w. c #F4B31B",
"e. c #D6A92A",
"r. c #CCA637",
"t. c #CEB038",
"y. c #E7AB2F",
"u. c #FEC502",
"i. c #FBC30A",
"p. c #DBB04A",
"a. c #DFB75F",
"s. c #EFB64D",
"d. c #EFB64F",
"f. c #F1B145",
"g. c #EBC57C",
"h. c #EEC47C",
"j. c #084A9E",
"k. c #114898",
"l. c #104F9C",
"z. c #22498E",
"x. c #275E9F",
"c. c #385E9D",
"v. c #044CA1",
"b. c #1C55A4",
"n. c #1556A8",
"m. c #0053B9",
"M. c #0057B9",
"N. c #0054BB",
"B. c #0258BD",
"V. c #0E5DB9",
"C. c #2759A2",
"Z. c #205FA6",
"A. c #0E62BC",
"S. c #246CB6",
"D. c #286CB5",
"F. c #3B7CBE",
"G. c #426FA6",
"H. c #567EB2",
"J. c #0059C1",
"K. c #025AC4",
"L. c #025DC6",
"P. c #0063C8",
"I. c #0266C8",
"U. c #0464CA",
"Y. c #0263CC",
"T. c #0066CF",
"R. c #5083B8",
"E. c #578ECE",
"W. c #5990C8",
"Q. c #6E90C0",
"!. c #85B899",
"~. c #99B19B",
"^. c #84A2BE",
"/. c #A9CAB7",
"(. c #DECF96",
"). c #F6CE93",
"_. c #E8DDB0",
"`. c #82A9D2",
"'. c #83AFD2",
"]. c #86ACD1",
"[. c #A6BBD0",
"{. c #ACBED6",
"}. c #A0BFDE",
"|. c #BFDAC9",
" X c #B9CFE4",
".X c #F6D4D5",
"XX c #D1E1DE",
"oX c #F3E9D0",
"OX c #F1ECD9",
"+X c #F2ECDE",
"@X c #FAF0D5",
"#X c #CCDBE2",
"$X c #CFDAEE",
"%X c #D7E8E0",
"&X c #DBE1ED",
"*X c #DAE2ED",
"=X c #DCE6F2",
"-X c #DFE8F1",
";X c #E1ECE4",
":X c #EBF2EB",
">X c #F7F3EA",
",X c #F9F1EF",
"<X c #FBF4EC",
"1X c #EBEEFD",
"2X c #E8F1F6",
"3X c #EFF2F9",
"4X c #FFF9F3",
"5X c #F8FBF4",
"6X c #F9FBF6",
"7X c #F6FBFE",
"8X c #FBFBFB",
"9X c #FAFCFB",
"0X c #FFFFFB",
"qX c #FFF8FF",
"wX c #FCFBFF",
"eX c #FBFCFE",
"rX c #FBFCFF",
"tX c #FDFFFC",
"yX c #FFFEFC",
"uX c #FEFFFD",
"iX c #FFFFFD",
"pX c #FFFDFE",
"aX c #FEFCFF",
"sX c #FFFCFF",
"dX c #FEFDFF",
"fX c #FFFDFF",
"gX c #FDFFFE",
"hX c #FEFEFE",
"jX c #FFFEFF",
"kX c #FEFFFF",
"lX c #FFFFFF",
"zX c None",
/* pixels */
"zXrX#XZ.v.].yX,Xk < y s s r 9 zX",
"wXkXR.M.Y.A.=XyX.Xq y s y r 0 5 ",
"kX8XS.P.T.J.'.kXkXz y s y e 8 2 ",
"wXkXF.L.I.J.E.yXkXl t s h w 7 1 ",
"kXkX`.m.U.M.W.kXwXj 4 , > 3 5 < ",
"&XkX2XD.N.V. XkX~.. } ....m & : ",
"x.{.kX3X}.&XkX!.x O.O.! } ( %.%.",
"n.l.G.^.yXyX|.  / / / ....( E E ",
"C.b.v.k.*XkX;X=.b } | } ( E T H ",
"z.c.H.Q.$XkXkX:X;.v | ( ..E T D ",
"[.1XkX@X_.(.>XkXyX-.c } ( H D A ",
"wXoXt.,.2.2.e.OXyXXXG ( R T D B ",
"6Xr.3.u.i.6.<.p.kXwX*.n E D #.$ ",
"+X>.q.7.5.4.w.y.4X7X&.A $.D B O ",
"rXa.1.0.9.w.8.h.kX/.X M V $ @ = ",
"zX<Xh.d.f.s.).6XXX; o $ $ O = zX"
};
