/* XPM */
static char *gtranslator[] = {
/* columns rows colors chars-per-pixel */
"16 16 129 2",
"   c #5C3566",
".  c #5D3667",
"X  c #5E3767",
"o  c #5E3868",
"O  c #5F3868",
"+  c #5F3969",
"@  c #603969",
"#  c #603A6A",
"$  c #613A6A",
"%  c #613B6A",
"&  c #623B6B",
"*  c #623C6B",
"=  c #633C6C",
"-  c #623D6C",
";  c #633D6C",
":  c #633E6C",
">  c #643E6D",
",  c #653E6D",
"<  c #643F6D",
"1  c #653F6D",
"2  c #653F6E",
"3  c #663F6E",
"4  c #64406E",
"5  c #65406E",
"6  c #65416F",
"7  c #66406F",
"8  c #67416F",
"9  c #674370",
"0  c #694371",
"q  c #684471",
"w  c #694471",
"e  c #694671",
"r  c #694572",
"t  c #6A4472",
"y  c #6A4572",
"u  c #6B4572",
"i  c #6A4672",
"p  c #6B4673",
"a  c #6C4673",
"s  c #6C4774",
"d  c #6D4774",
"f  c #6B4873",
"g  c #6D4875",
"h  c #6E4875",
"j  c #6F4875",
"k  c #6E4975",
"l  c #6F4876",
"z  c #6D4B76",
"x  c #6F4A76",
"c  c #704B77",
"v  c #714B77",
"b  c #714C77",
"n  c #714C78",
"m  c #734D79",
"M  c #714F78",
"N  c #734E79",
"B  c #744F7A",
"V  c #754F7A",
"C  c #715079",
"Z  c #75507B",
"A  c #77517C",
"S  c #75557D",
"D  c #78527D",
"F  c #78537D",
"G  c #7A547F",
"H  c #785980",
"J  c #795980",
"K  c #7F5883",
"L  c #805783",
"P  c #805984",
"I  c #865F89",
"U  c #875F89",
"Y  c #826689",
"T  c #8D658F",
"R  c #8E658F",
"E  c #85698C",
"W  c #876C8D",
"Q  c #896D8F",
"!  c #896E8F",
"~  c #8A6F90",
"^  c #8B7192",
"/  c #907795",
"(  c #927997",
")  c #9C719A",
"_  c #9E739C",
"`  c #937B98",
"'  c #947C99",
"]  c #967F9B",
"[  c #9A849F",
"{  c #A18DA6",
"}  c #A28EA6",
"|  c #A390A7",
" . c #A693AA",
".. c #A896AC",
"X. c #AD9BAF",
"o. c #AE9DB2",
"O. c #AF9FB3",
"+. c #B1A1B4",
"@. c #B4A5B7",
"#. c #B5A6B7",
"$. c #B5A7B8",
"%. c #B7A8B9",
"&. c #B9ABBB",
"*. c #B9ABBC",
"=. c #BBAEBE",
"-. c #BFB2C1",
";. c #C1B5C3",
":. c #C5BBC6",
">. c #C5BBC7",
",. c #C7BCC8",
"<. c #C8BECA",
"1. c #C9BFCA",
"2. c #C9C0CA",
"3. c #CAC0CB",
"4. c #D7D0D6",
"5. c #D9D3D9",
"6. c #DAD5DA",
"7. c #DDD9DC",
"8. c #DEDADD",
"9. c #E0DCDF",
"0. c #E0DDE0",
"q. c #E1DDE0",
"w. c #E3E0E2",
"e. c #E4E1E2",
"r. c #E5E3E4",
"t. c #E7E5E5",
"y. c #E9E8E8",
"u. c #ECEBEA",
"i. c None",
/* pixels */
"i.i.i.i.4 * . . . . . i.i.i.i.i.",
"i.i.i.q &...f _ ) R L # i.i.i.i.",
"i.i.# } :.5.f Z D K U R j . i.i.",
"i.i.* 4.* ' | q V Z Z G U j i.i.",
"i.. J ;.: 4 5.4 Z Z Z Z A K # i.",
". q @.~ # # 2.J j Z n c n A c . ",
". # r.1.} | t.@.q a 4 ( ^ 9 d . ",
"  Q :.O O O z w.* * 5.-.:.8.n   ",
": ~ A d V V 0 ' f [ &.O * } o.. ",
"  1 1 1 # # # . . #.` 1 q ` =.  ",
"  p d 1 1 # : #  .r.9.Y # 1.Q . ",
"i.  V 0 1 1 1 q w.4 ^ 2.C 8.o i.",
"i.i.1 n q 0 8 1 0.W X.=.+. .. i.",
"i.i.. 9 n j a 4 E 1.=.( 7.4 . i.",
"i.i.i.i.. d n n j 4 O o.u.y.o.. ",
"i.i.i.i.i.. .   . .         . i."
};
