/* XPM */
static char *im_icq[] = {
/* columns rows colors chars-per-pixel */
"16 16 30 1",
"  c #C4A000",
". c #C7A715",
"X c #DABC13",
"o c #D6C004",
"O c #F7DD05",
"+ c #FAE31C",
"@ c #EAD122",
"# c #E1D03C",
"$ c #FBE52F",
"% c #FBE631",
"& c #FBE637",
"* c #DDC757",
"= c #E4CD47",
"- c #FBE94F",
"; c #FCEB5A",
": c #FBEB5C",
"> c #E9DB63",
", c #EBD96B",
"< c #EFE37F",
"1 c #F3E472",
"2 c #FCEF80",
"3 c #FDF085",
"4 c #EBE192",
"5 c #FDF293",
"6 c #FDF295",
"7 c #FDF39F",
"8 c #F6EBA9",
"9 c #FDF5AF",
"0 c #FEF7C2",
"q c None",
/* pixels */
"qqqqqqqqqqqqqqqq",
"qqqqq  q   qqqqq",
"qqqq 93 *39 qqqq",
"qqqq 5%X=%5 qqqq",
"qq   7$@1$7   qq",
"q 62&.O%:$.&26 q",
"q 0;-+.  .+-;0 q",
"q  ooo 00 ooo  q",
"q 8<>> 00 #<<4 q",
"q 0;-+.  .+-;0 q",
"q 62&.O%%O.&26 q",
"qq   7$@1$7   qq",
"qqqq 5%X,%5 qqqq",
"qqqq 93 *39 qqqq",
"qqqqq  q   qqqqq",
"qqqqqqqqqqqqqqqq"
};
