/* XPM */
static char *im[] = {
/* columns rows colors chars-per-pixel */
"16 16 86 1",
"  c #6C7A4C",
". c #405F7B",
"X c #799758",
"o c #5E847D",
"O c #7A9A72",
"+ c #8B8C2E",
"@ c #A5A32F",
"# c #A3B52D",
"$ c #A8BB34",
"% c #C29E00",
"& c #C4A000",
"* c #C4A721",
"= c #BBCD3E",
"- c #DAC300",
"; c #E1CA00",
": c #EAD100",
"> c #EDD400",
", c #EED819",
"< c #F5E13C",
"1 c #829D53",
"2 c #8AA34A",
"3 c #93AB43",
"4 c #A4B949",
"5 c #A1B953",
"6 c #A3BA54",
"7 c #85A26D",
"8 c #A1BB7E",
"9 c #B6CB52",
"0 c #ABC369",
"q c #F0DE43",
"w c #FCE94F",
"e c #F1E155",
"r c #F5E555",
"t c #F6E559",
"y c #F5E560",
"u c #F8E761",
"i c #FCEB60",
"p c #FBEB6E",
"a c #FCEC6F",
"s c #FCED7D",
"d c #1E4680",
"f c #224A83",
"g c #234B84",
"h c #204986",
"j c #204A87",
"k c #214B87",
"l c #224C88",
"z c #234D89",
"x c #234E8A",
"c c #27508B",
"v c #28518C",
"b c #3B659E",
"n c #3A6AA8",
"m c #3C6CA9",
"M c #426280",
"N c #4E7AB4",
"B c #547FB4",
"V c #779883",
"C c #779D9F",
"Z c #5881A2",
"A c #5B86BB",
"S c #5C86BD",
"D c #5F8BBA",
"F c #5E8ABE",
"G c #6D96AE",
"H c #668FB2",
"J c #6089BF",
"K c #608CBE",
"L c #6D98BE",
"P c #7199B1",
"I c #7DA5B1",
"U c #648FC0",
"Y c #6B93C1",
"T c #6C93C6",
"R c #6995C6",
"E c #6996C7",
"W c #719ECE",
"Q c #799ECE",
"! c #7DA1CB",
"~ c #80A08D",
"^ c #84A494",
"/ c #9FBB9B",
"( c #91B0BB",
") c #FCEE89",
"_ c #FCEF94",
"` c None",
/* pixels */
"```czjv`````````",
"`zbEWWEbx```````",
"`bW^!(0Ib```````",
"zE7YQ/86Px``````",
"jWBJT9=4Cj``````",
"jE2VS~5$Hg&&&&&*",
"jE1#ZNO3KMyyyy<&",
"`bLXnmoGb@>>>>r&",
"`dbFDJKb ;>>>>t&",
"```ddg.+-:>>>>u&",
"`````%a,,,,,,,a&",
"`````&aqqqqqeqa&",
"`````&)))))))_s&",
"`````&q>>>>>>>q&",
"`````&iwwwwwwwi&",
"`````&&&&&&&&&&&"
};
