/* XPM */
static char *internet_news_reader[] = {
/* columns rows colors chars-per-pixel */
"16 16 41 1",
"  c #6C6C6C",
". c #888A85",
"X c #969595",
"o c #969695",
"O c #969596",
"+ c #959696",
"@ c #969696",
"# c #A0A0A0",
"$ c #A1A1A1",
"% c #B7B7B6",
"& c #BBBCBB",
"* c #BEBEBE",
"= c #CBCBCB",
"- c #CCCCCB",
"; c #CBCBCC",
": c #CCCBCC",
"> c #CCCCCC",
", c #CFCFCF",
"< c #CFCFD0",
"1 c #D0CFD0",
"2 c #D0D0D0",
"3 c #D3D4D3",
"4 c #D6D5D6",
"5 c #D6D6D6",
"6 c #D8D7D7",
"7 c #D8D8D8",
"8 c #DDDCDD",
"9 c #DCDDDD",
"0 c #DDDDDD",
"q c #E2E2E1",
"w c #E2E2E2",
"e c #E3E3E3",
"r c #E5E5E5",
"t c #E9E9E9",
"y c #EAEAEB",
"u c #EAEBEB",
"i c #EEEEEF",
"p c #F3F3F3",
"a c #F9F9F9",
"s c #FFFFFF",
"d c None",
/* pixels */
"................",
".ssssssssssssss.",
".stttttttttttts.",
".st  #  #tt##ts.",
".st      tt##ts.",
".stttttttttttts.",
".st####t#####ts.",
".st#**#ttttttts.",
".st$**#t#####ts.",
".se$**#weerrees.",
".se$###w#####ea.",
".s888888777778p.",
".s5oOoOoOoooo5i.",
".t<<=;=;:<<,23t.",
".&eeqqqeeeeeee%.",
"d..............d"
};
