/* XPM */
static char *invest_applet[] = {
/* columns rows colors chars-per-pixel */
"16 16 131 2",
"   c #603B6A",
".  c #633C6C",
"X  c #633E6D",
"o  c #643F6D",
"O  c #535252",
"+  c #545353",
"@  c #535451",
"#  c #535551",
"$  c #545452",
"%  c #545453",
"&  c #565555",
"*  c #555654",
"=  c #565755",
"-  c #575657",
";  c #585456",
":  c #585956",
">  c #595A57",
",  c #595B57",
"<  c #585259",
"1  c #59535A",
"2  c #595758",
"3  c #5C575B",
"4  c #5C565C",
"5  c #5D575C",
"6  c #5D565D",
"7  c #5D575D",
"8  c #595B58",
"9  c #5B585A",
"0  c #5B595B",
"q  c #5B5D59",
"w  c #5C5E5B",
"e  c #5D5E5B",
"r  c #5D5F5B",
"t  c #5E5F5C",
"y  c #5E605C",
"u  c #5F605D",
"i  c #65416E",
"p  c #684471",
"a  c #6A4572",
"s  c #6A4773",
"d  c #6B4874",
"f  c #6C4975",
"g  c #6F4A76",
"h  c #715576",
"j  c #75507B",
"k  c #74557B",
"l  c #77527D",
"z  c #76557D",
"x  c #78547E",
"c  c #7A617F",
"v  c #7A5880",
"b  c #7C5981",
"n  c #7D5A82",
"m  c #7E5C83",
"M  c #7F6186",
"N  c #7F6A81",
"B  c #815F86",
"V  c #816086",
"C  c #806386",
"Z  c #826386",
"A  c #826387",
"S  c #806684",
"D  c #846D87",
"F  c #846788",
"G  c #84648A",
"H  c #87678C",
"J  c #876A8C",
"K  c #886B8E",
"L  c #886C8C",
"P  c #896F8C",
"I  c #8D6F90",
"U  c #8C7391",
"Y  c #8E7694",
"T  c #917994",
"R  c #927897",
"E  c #967E9B",
"W  c #968D96",
"Q  c #978399",
"!  c #978598",
"~  c #99809D",
"^  c #99879D",
"/  c #9A959A",
"(  c #9E86A2",
")  c #9F8EA1",
"_  c #9F8FA1",
"`  c #9E90A0",
"'  c #A38CA7",
"]  c #A091A1",
"[  c #A699A7",
"{  c #A796AA",
"}  c #A996AC",
"|  c #A99EAB",
" . c #AC9AB0",
".. c #AF9CB1",
"X. c #AF9DB1",
"o. c #AD9EB0",
"O. c #AE9FB0",
"+. c #AEA0AF",
"@. c #ACA4AC",
"#. c #AFA5AF",
"$. c #B4A5B7",
"%. c #B2AAB3",
"&. c #BAAABC",
"*. c #BCB2BF",
"=. c #BAB8B9",
"-. c #C1B3C2",
";. c #C7BAC7",
":. c #C6C2C4",
">. c #CACBC8",
",. c #CDCDCB",
"<. c #CECECC",
"1. c #CFCECD",
"2. c #CFCFCD",
"3. c #CFD0CD",
"4. c #D1D1CF",
"5. c #D1D2CF",
"6. c #CFCAD0",
"7. c #D1CAD2",
"8. c #D4D4D2",
"9. c #DDD7DC",
"0. c #DBDADB",
"q. c #DCDCDA",
"w. c #DDD8DC",
"e. c #DFDEDD",
"r. c #E0E0DE",
"t. c #E1E1DF",
"y. c #E1E1E0",
"u. c #E4E4E2",
"i. c #E9E8E8",
"p. c #EEEEEC",
"a. c None",
/* pixels */
"a.a.a.a.a.a.a.a.a.a.a.a.a.a.a.a.",
"a.# > > > > > > , , 8 > 8 8 # a.",
"a.t 5.5.5.,.3.3.3.2.>.2.2.,.q a.",
"a.t p.p.p.u.p.p.p.p.u.p.p.p.t a.",
"a.y y.t.t.8.t.t.t.y.^ O.e.t.r a.",
"a.y p.p.p.q.p.p.p.w.. a p ..t a.",
"a.0 p.p.p.+.i.p.p.Q z n g . < a.",
"a.< *.y.0.o Y y.6.i Z m j j 4 a.",
"a.7 V y.{ k s ..U M G C l j 4 a.",
"a.t d 7.d ' | o a E J G z j 4 a.",
"a.y } f M #.-.R I ( J J n j 7 a.",
"a.t =.  / W [ ` Q Y Z Z x l 4 a.",
"a.t p.$.w.@.;.&.| ' P U C j 4 a.",
"a.t 8.2.:./ %.| ] ! S D c h 4 a.",
"a.$ = = ; = $ $ + & ; ; 8 3 ; a.",
"a.a.a.a.a.a.a.a.a.a.a.a.a.a.a.a."
};
