/* XPM */
static char *jdownloader[] = {
/* columns rows colors chars-per-pixel */
"16 16 146 2",
"   c #57675B",
".  c #55675E",
"X  c #676F4F",
"o  c #616C53",
"O  c #405C72",
"+  c #6B7C74",
"@  c #788771",
"#  c #74957F",
"$  c #B4990F",
"%  c #B99B08",
"&  c #BC9D08",
"*  c #BE9F0F",
"=  c #AF9713",
"-  c #AD9614",
";  c #BA9D12",
":  c #BBA112",
">  c #BAA015",
",  c #BFA314",
"<  c #BAA31C",
"1  c #9B8B23",
"2  c #998924",
"3  c #988925",
"4  c #A39C34",
"5  c #AC9D30",
"6  c #A09539",
"7  c #98AD39",
"8  c #9BB037",
"9  c #AFA322",
"0  c #A4B72F",
"q  c #C29F02",
"w  c #C19F04",
"e  c #C2A003",
"r  c #C2A103",
"t  c #C4A000",
"y  c #C4A002",
"u  c #C3A305",
"i  c #C3A106",
"p  c #C3A207",
"a  c #C6A205",
"s  c #C7A404",
"d  c #C5A407",
"f  c #C6A406",
"g  c #C6A805",
"h  c #CDAD02",
"j  c #CEAD03",
"k  c #C9AB04",
"l  c #CAAB04",
"z  c #CBAD07",
"x  c #CDAF05",
"c  c #C3A209",
"v  c #C4A309",
"b  c #C6A708",
"n  c #C1A10C",
"m  c #C8A608",
"M  c #CCAC0F",
"N  c #DABC00",
"B  c #C0A817",
"V  c #C8AB12",
"C  c #C0AA1D",
"Z  c #CDB227",
"A  c #CFB329",
"S  c #CCB22C",
"D  c #DFC200",
"F  c #DFC300",
"G  c #E4C800",
"H  c #E4C900",
"J  c #E9CF00",
"K  c #E9D000",
"L  c #ECD200",
"P  c #ECD300",
"I  c #EDD400",
"U  c #EFD917",
"Y  c #F1DC3D",
"T  c #8D9650",
"R  c #9B9A56",
"E  c #8DA75B",
"W  c #91A253",
"Q  c #9AB35F",
"!  c #B2AB5D",
"~  c #9AB279",
"^  c #9DB278",
"/  c #E3CC4E",
"(  c #EAD547",
")  c #EAD548",
"_  c #F6E555",
"`  c #F5E45C",
"'  c #EAD660",
"]  c #F9EA64",
"[  c #F7E875",
"{  c #214A88",
"}  c #204B88",
"|  c #214B88",
" . c #214B89",
".. c #224B88",
"X. c #224B89",
"o. c #234B89",
"O. c #214B8A",
"+. c #214C89",
"@. c #224C89",
"#. c #224D89",
"$. c #234D8A",
"%. c #234E8A",
"&. c #244E8B",
"*. c #244F8C",
"=. c #28508B",
"-. c #355C94",
";. c #486C9F",
":. c #527591",
">. c #4F73A4",
",. c #4F7AA5",
"<. c #4D74A8",
"1. c #6E8F81",
"2. c #70868F",
"3. c #5681B4",
"4. c #5A80B2",
"5. c #6585B1",
"6. c #6F8EB6",
"7. c #6088B9",
"8. c #6A8CB9",
"9. c #7F9ABA",
"0. c #79A0BD",
"q. c #658FC0",
"w. c #6F96C8",
"e. c #799EC3",
"r. c #7FA4D2",
"t. c #899D9E",
"y. c #88A686",
"u. c #92AE92",
"i. c #94AB98",
"p. c #A0BA84",
"a. c #8499A6",
"s. c #88A2A0",
"d. c #90AFA2",
"f. c #8DA6B4",
"g. c #85A7BA",
"h. c #85A0BE",
"j. c #A5BBA4",
"k. c #A7BBB3",
"l. c #ADC1AB",
"z. c #AFC4B9",
"x. c #85A3C9",
"c. c #8BAACC",
"v. c #92ACCE",
"b. c #8BADD0",
"n. c #91B0D8",
"m. c None",
/* pixels */
"m.m.m.m.m.m.m.m.m.m.m.m.m.m.m.m.",
"m.m.m.m.m.m.&.+.+.*.m.m.m.m.m.m.",
"m.m.m.m.} >.f.l.z.v.5.*.m.m.m.m.",
"m.m.m.=.x.j.u.8 p.n.l.! r 2 m.m.",
"m.m.+.9.~ y.e.g.c.d.B j H w m.m.",
"m.m.;.^ 0 Q e.x.c.C M P P j 1 m.",
"m.X.6.7 E q.w.a., m ) I j < O m.",
"m.X.s.# 3.4.R b F f ` H u i.X.m.",
"m.X a.1.T ; z J Y f ] N 9 x.X.m.",
"m.- q u g G U [ Z a ] N 4 8.+.m.",
"m.2 x J I _ / c 6 u ] N 5 + o m.",
"m.m.& V S b > ; b A ] D b t % m.",
"m.m.m.. @ W ,.:.; ' ] P g = m.m.",
"m.m.m.m.X.-.<.4.2.w ) k $ m.m.m.",
"m.m.m.m.m.m.O.X.X.  t u m.m.m.m.",
"m.m.m.m.m.m.m.m.m.m.m.m.m.m.m.m."
};
