/* XPM */
static char *kcharselect[] = {
/* columns rows colors chars-per-pixel */
"16 16 95 2",
"   c #090909",
".  c #111111",
"X  c #181818",
"o  c #2A2A2A",
"O  c #515151",
"+  c #525252",
"@  c #565655",
"#  c #575756",
"$  c #585857",
"%  c #5A5B59",
"&  c #737372",
"*  c #7F807F",
"=  c #878885",
"-  c #888A85",
";  c #898B86",
":  c #8A8C87",
">  c #8C8E89",
",  c #8D8F89",
"<  c #8C8C8B",
"1  c #8D8F8A",
"2  c #969695",
"3  c #A4A4A3",
"4  c #B1B1B0",
"5  c #B8B9B6",
"6  c #BCBCBA",
"7  c #BDBDBB",
"8  c #C3C3C1",
"9  c #C5C7C2",
"0  c #C8CAC6",
"q  c #CBCEC8",
"w  c #CCCFC9",
"e  c #D0D2CC",
"r  c #D1D1CF",
"t  c #D2D2D0",
"y  c #D5D5D3",
"u  c #D7D7D5",
"i  c #DCDFD8",
"p  c #DDDFD9",
"a  c #DDE0D9",
"s  c #DEE0DA",
"d  c #E0E2DC",
"f  c #E0E3DD",
"g  c #E0E0DE",
"h  c #E1E3DE",
"j  c #E1E4DE",
"k  c #E3E5DF",
"l  c #E3E5E0",
"z  c #E4E6E0",
"x  c #E5E7E2",
"c  c #E6E7E3",
"v  c #E6E8E2",
"b  c #E7E8E4",
"n  c #E7E9E4",
"m  c #E7E9E5",
"M  c #E8EAE5",
"N  c #E8EAE6",
"B  c #E9EAE6",
"V  c #E9EAE7",
"C  c #E9EBE7",
"Z  c #EAEBE8",
"A  c #EBEBE8",
"S  c #EAEBE9",
"D  c #EBEBE9",
"F  c #EAECE8",
"G  c #EBECE8",
"H  c #EBECE9",
"J  c #EBEDE9",
"K  c #ECEDE9",
"L  c #ECECEA",
"P  c #ECEDEA",
"I  c #EDEDEA",
"U  c #EDEDEB",
"Y  c #ECEEEA",
"T  c #EDEEEB",
"R  c #EEEEEC",
"E  c #EEEFEC",
"W  c #EFF0ED",
"Q  c #EFF1EE",
"!  c #F0F0ED",
"~  c #F0F1EF",
"^  c #F1F1EF",
"/  c #F1F2F0",
"(  c #F2F2F0",
")  c #F3F3F1",
"_  c #F3F3F2",
"`  c #F4F4F2",
"'  c #F7F8F7",
"]  c #F8F8F7",
"[  c #F8F9F7",
"{  c #FBFBFA",
"}  c #FBFBFB",
"|  c #FCFCFA",
" . c #FEFEFE",
".. c #FFFFFF",
"X. c None",
/* pixels */
"X.1 - - - - - - - - = ; = ; 1 X.",
"1 0 W ^ ^ ^ ! P G A n n n n w 1 ",
"; P G P P P V x l s a a s v n : ",
"; P V ^ _ _ ^ ^ W G G n W l n : ",
"; P V ' ) P V h % e i l / i n ; ",
"; P V ..P P A = 5 c l l ..i n : ",
"; G n ..P P & + * t A S ..i n : ",
"; G v ..E P 8 L 4 O E E ..a n : ",
"- V h ..E E < @ $ X U E ..i c : ",
"- V h ..E 7 @ E g   E E ..i c : ",
"- x p ..E r o 2 @ . E E ..i n : ",
"- x p } _ E y 3 u 6 E _ | p n : ",
"; x x } } ............| } x n ; ",
"; v ] x i a i a i a a a x ' V : ",
", 9 V v n n n n v n V v n n q 1 ",
"X., ; ; : : : : : ; : ; ; ; 1 X."
};
