/* XPM */
static char *kedit[] = {
/* columns rows colors chars-per-pixel */
"16 16 19 1",
"  c #000000",
". c #6B5736",
"X c #7A7A7A",
"o c #CE5C00",
"O c #F57900",
"+ c #A17955",
"@ c #FCAF3E",
"# c #F5D400",
"$ c #888A85",
"% c #B8B8B8",
"& c #BCBCBC",
"* c #CCB5A3",
"= c #E6CFBC",
"- c #C9C9C9",
"; c #CCCCCC",
": c #F5DECC",
"> c #ECECEC",
", c #FFFFFF",
"< c None",
/* pixels */
"<<<<<<<<<<<<<<<<",
"<<XXXXXXXXXX<<<<",
"<<X,X,X,X,X,X<<<",
"<$X-X-X-X-X-X$<<",
"<$,X&X%X%X%X,$<<",
"<$,>>>>>>>>>,oo<",
"<$,;;;;;;;;;o#@o",
"<$,>>>>>>>>o#@Oo",
"<$,;;;;;;;o#@Oo<",
"<$,>>>>>>o#@Oo<<",
"<$,;;;;;o#@Oo+<<",
"<$,>>>>>o@Oo:$<<",
"<$,;;;;o .o*,$<<",
"<$,>>>> o=>>,$<<",
"<$,,,,,,,,,,,$<<",
"<$$$$$$$$$$$$$<<"
};
