/* XPM */
static char *key_bindings[] = {
/* columns rows colors chars-per-pixel */
"16 16 30 1",
"  c #4E9A06",
". c #529F09",
"X c #5E9C23",
"o c #7F926B",
"O c #89E234",
"+ c #8AE234",
"@ c #829271",
"# c #839273",
"$ c #9FE75A",
"% c #A0E75A",
"& c #A0E85C",
"* c #A1E85C",
"= c #888A85",
"- c #8D8F89",
"; c #8D8F8A",
": c #8E908C",
"> c #8F908C",
", c #8E918C",
"< c #CDF2A7",
"1 c #CFF3AB",
"2 c #D3D7CF",
"3 c #DCF6C2",
"4 c #E6E7E3",
"5 c #E6E7E4",
"6 c #F2F2F0",
"7 c #F2F2F1",
"8 c #FAFBFA",
"9 c #FBFBFB",
"0 c #FFFFFF",
"q c None",
/* pixels */
">====>====X    .",
"=6666=6666 $$%$ ",
"=8448=8548 <++< ",
"=0000=0000 3333 ",
"=2222=2222 ++++ ",
";;=====>====o  .",
"q=66666=6666=qqq",
"q=85559=8448=qqq",
"q=00000=0000=qqq",
"q=22222=2222=qqq",
".       #====>qq",
" &******=6666=qq",
" 1++O++1=8448=qq",
" 3333333=0000=qq",
" +++OOOO=2222=qq",
".       #====;qq"
};
