/* XPM */
static char *khelpcenter[] = {
/* columns rows colors chars-per-pixel */
"16 16 135 2",
"   c #AC1313",
".  c #AD1514",
"X  c #AD1515",
"o  c #AC1615",
"O  c #AD1616",
"+  c #AC1716",
"@  c #A41F1F",
"#  c #9C3331",
"$  c #9A3D3A",
"%  c #9A3D3C",
"&  c #9A3E3C",
"*  c #A42221",
"=  c #A42222",
"-  c #A52524",
";  c #A62625",
":  c #A72928",
">  c #A32C2B",
",  c #A03937",
"<  c #A03B3A",
"1  c #C62D2D",
"2  c #C83333",
"3  c #C83434",
"4  c #F03636",
"5  c #F03939",
"6  c #F03A3A",
"7  c #F03C3C",
"8  c #F03F3F",
"9  c #984340",
"0  c #994642",
"q  c #984743",
"w  c #984946",
"e  c #994946",
"r  c #9B4946",
"t  c #984A46",
"y  c #984A47",
"u  c #BC4D4C",
"i  c #BD4E4D",
"p  c #BC504E",
"a  c #BD5150",
"s  c #B66363",
"d  c #B86766",
"f  c #B36867",
"g  c #B77373",
"h  c #BB7371",
"j  c #BE7775",
"k  c #BA7877",
"l  c #F14242",
"z  c #F04343",
"x  c #F24B4B",
"c  c #ED5858",
"v  c #EE5A5A",
"b  c #F15F5F",
"n  c #EF6363",
"m  c #EF6A6A",
"M  c #F26262",
"N  c #F36363",
"B  c #F16464",
"V  c #F26969",
"C  c #F36F6F",
"Z  c #F17373",
"A  c #F17776",
"S  c #F37676",
"D  c #F57474",
"F  c #F47777",
"G  c #F47F7F",
"H  c #8E827D",
"J  c #8F847F",
"K  c #8E8580",
"L  c #8A8C87",
"P  c #8D8F8B",
"I  c #8F908B",
"U  c #8E908C",
"Y  c #8F928C",
"T  c #929490",
"R  c #BE8482",
"E  c #C99796",
"W  c #C99D9B",
"Q  c #CA9F9D",
"!  c #F28584",
"~  c #F39291",
"^  c #F39493",
"/  c #F39594",
"(  c #F39998",
")  c #F49C9C",
"_  c #CFA5A4",
"`  c #CBAEAB",
"'  c #CFB1B0",
"]  c #D3BAB8",
"[  c #F5A0A0",
"{  c #F3B7B6",
"}  c #F4B5B4",
"|  c #F0BCBC",
" . c #DBC7C5",
".. c #F1C5C5",
"X. c #F5C5C4",
"o. c #F4C6C5",
"O. c #F7C9C8",
"+. c #F7CECE",
"@. c #F6D3D3",
"#. c #F7D5D5",
"$. c #F3DBDA",
"%. c #FADEDE",
"&. c #E3E3E3",
"*. c #E4E4E3",
"=. c #E6E6E4",
"-. c #E8E8E6",
";. c #EAEAE9",
":. c #EDEDEB",
">. c #EFEFED",
",. c #F5E2E1",
"<. c #F1E7E5",
"1. c #FAE7E7",
"2. c #F1E8E6",
"3. c #F2E8E7",
"4. c #F4EBE9",
"5. c #F0F0EE",
"6. c #F0F0EF",
"7. c #F1F1EF",
"8. c #F1F1F0",
"9. c #F2F2F0",
"0. c #F2F2F1",
"q. c #F2F2F2",
"w. c #F7F3F2",
"e. c #F4F4F3",
"r. c #F5F5F4",
"t. c #F7F7F5",
"y. c #F7F7F6",
"u. c #F9F7F6",
"i. c #F9F9F8",
"p. c #F9F9F9",
"a. c #FBFAF9",
"s. c #FAFAFA",
"d. c #FCFCFB",
"f. c #FCFCFC",
"g. c None",
/* pixels */
"g.g.g.g.g.J I L L I J g.g.g.g.g.",
"g.g.g.& :  .e.s.s.5.] - & g.g.g.",
"g.g.# j 1.O.8.>.>.5.X.#.d # g.g.",
"g.& h %.B 8 <.8.8.3.l A +.s $ g.",
"g.* #.b l c i P P p n x Z o.* g.",
"K ' } 7 c o e g.g.e o m l { ` H ",
"Y :.5.3.i 9 g.g.g.g.q a 4.5.-.Y ",
"L r.>.r.Y g.g.g.g.g.g.Y r.>.8.L ",
"L r.8.u.P g.g.g.g.g.g.Y s.4.8.L ",
"Y ;.8.9.f e g.g.g.g.q g u.8.=.Y ",
"H _ ) V | * y g.g.y - $.! ^ E K ",
"g.o F 5 G o.j T T R ,.[ 4 B X g.",
"g.< 3 D 6 F u.f.f.a.~ 4 B 1 , g.",
"g.g.> 2 C ( 9.9.9.8./ M 1 > g.g.",
"g.g.g.< o Q *.6.5.*.W o < g.g.g.",
"g.g.g.g.g.K I L L I J g.g.g.g.g."
};
