/* XPM */
static char *krfb[] = {
/* columns rows colors chars-per-pixel */
"16 16 42 1",
"  c #000000",
". c #535355",
"X c #555555",
"o c #545456",
"O c #585858",
"+ c #666666",
"@ c #666669",
"# c #3465A4",
"$ c #446485",
"% c #527DA8",
"& c #5680AA",
"* c #5D86AE",
"= c #6189B0",
"- c #6289B0",
"; c #648BB2",
": c #678DB3",
"> c #6A8FB5",
", c #6C91B5",
"< c #6E93B7",
"1 c #7496B9",
"2 c #808080",
"3 c #808083",
"4 c #868686",
"5 c #8C8C8F",
"6 c #8D8D90",
"7 c #9C9C9C",
"8 c #9D9D9D",
"9 c #9E9E9D",
"0 c #A0A0A0",
"q c #A2A2A1",
"w c #84A2C1",
"e c #8CA9C5",
"r c #96B0CA",
"t c #A9BED4",
"y c #C0C0C0",
"u c #C7C7C7",
"i c #C8C8C8",
"p c #D3D3D2",
"a c #D8D8D7",
"s c #E2E2E2",
"d c #EEEEEC",
"f c None",
/* pixels */
"5333-22222%22226",
"3dddddddddddddd2",
"3d$$$$$$@$$$$$d2",
"3d$tttttttttt@d2",
"3d$rr###rre1=$d3",
"3d$wwddd<##%%$d3",
"3d$<:ddd*dd**$d3",
"3d$:----=;>>>$d3",
"3d$$$$$$$$$$$$d3",
"3dppppppppppppd3",
"3dddddd9aqddddd3",
"33332@oO8Oo@3333",
"XXXXXXXssuXXoooo",
"fiiiuq2suq+3qiii",
"fXXXXXXy84XXXXoo",
"fffffff   ffffff"
};
