/* XPM */
static char *kwin[] = {
/* columns rows colors chars-per-pixel */
"16 16 42 1",
"  c #204A87",
". c #3465A4",
"X c #729FCF",
"o c #888A85",
"O c #9C9E99",
"+ c #D8D9D5",
"@ c #D8DAD6",
"# c #DADAD7",
"$ c #DADBD7",
"% c #DBDBD8",
"& c #DBDCD9",
"* c #DCDCD9",
"= c #DCDDD9",
"- c #DDDDD9",
"; c #DDDED9",
": c #DDDEDA",
"> c #DDDEDB",
", c #DDDFDB",
"< c #DEDFDB",
"1 c #DEDFDC",
"2 c #DFDFDC",
"3 c #DFE0DC",
"4 c #E0E0DD",
"5 c #E0E1DD",
"6 c #E0E1DE",
"7 c #E1E2DE",
"8 c #E0E2DF",
"9 c #E1E2DF",
"0 c #E2E2DF",
"q c #E2E3E0",
"w c #E3E3E1",
"e c #E3E4E0",
"r c #E3E4E1",
"t c #E4E4E2",
"y c #E5E5E2",
"u c #E5E5E3",
"i c #E5E6E3",
"p c #E6E6E4",
"a c #E8E8E5",
"s c #E9E8E6",
"d c #FFFFFF",
"f c None",
/* pixels */
"f           ffff",
" XXXXXXXXXXX fff",
" X.........X fff",
"odaapueeee8do  f",
"oduuuww3w33doXX ",
"oduew03w31:do.X ",
"oduew03833:do0do",
"ode033331:&do3do",
"od00033:::%do:do",
"od303::3:%#do:do",
"od1::&#$#@@do%do",
"odddddddddddo:do",
"ooooooooooooO#do",
"fffod:::$####@do",
"fffodddddddddddo",
"fffooooooooooooo"
};
