/* XPM */
static char *meld[] = {
/* columns rows colors chars-per-pixel */
"16 16 111 2",
"   c #7B6C68",
".  c #7D706F",
"X  c #6C6B73",
"o  c #787170",
"O  c #F47500",
"+  c #F57600",
"@  c #F67E07",
"#  c #C77C38",
"$  c #856D5F",
"%  c #A2734D",
"&  c #B17A4C",
"*  c #AF7E55",
"=  c #897D7A",
"-  c #F7800A",
";  c #F78210",
":  c #F28217",
">  c #F38217",
",  c #F58415",
"<  c #F98714",
"1  c #F1871E",
"2  c #F4881D",
"3  c #F68B1F",
"4  c #F98A1A",
"5  c #DA8337",
"6  c #F48B25",
"7  c #F08D2F",
"8  c #F6912A",
"9  c #F7902B",
"0  c #F6922E",
"q  c #F6932F",
"w  c #E88D34",
"e  c #EB8F34",
"r  c #F59331",
"t  c #F2983F",
"y  c #FA9C3B",
"u  c #BA8255",
"i  c #B5865C",
"p  c #93827D",
"a  c #AE8261",
"s  c #A1826B",
"d  c #A4846E",
"f  c #A8856B",
"g  c #B8906D",
"h  c #BE956F",
"j  c #A88870",
"k  c #AB8B70",
"l  c #A08B7E",
"z  c #A98D7A",
"x  c #BB9474",
"c  c #BB9575",
"v  c #C3834A",
"b  c #D48740",
"n  c #C9915F",
"m  c #CB935F",
"M  c #D39254",
"N  c #DD9C5B",
"B  c #D8985F",
"V  c #DB9D5E",
"C  c #DD9D5F",
"Z  c #E19041",
"A  c #E19349",
"S  c #E59648",
"D  c #E1954D",
"F  c #E79D53",
"G  c #E19D5C",
"H  c #E7A05A",
"J  c #C38C60",
"K  c #C29267",
"L  c #C0936B",
"P  c #CD9969",
"I  c #DAA774",
"U  c #DBAE7D",
"Y  c #E1A164",
"T  c #F8B266",
"R  c #214B87",
"E  c #244F8B",
"W  c #5C7493",
"Q  c #5E799B",
"!  c #707C8F",
"~  c #4B78A9",
"^  c #467BB2",
"/  c #427DBA",
"(  c #427DBB",
")  c #417DBC",
"_  c #417EBD",
"`  c #427EBC",
"'  c #447FBC",
"]  c #7F8088",
"[  c #7590AD",
"{  c #7E94AF",
"}  c #7C96B4",
"|  c #4984C2",
" . c #7B9CC3",
".. c #7CA2CC",
"X. c #7CA7D4",
"o. c #8F8281",
"O. c #98908D",
"+. c #878B97",
"@. c #838A99",
"#. c #A99181",
"$. c #A99F9A",
"%. c #8096B0",
"&. c #9DA3AC",
"*. c #8DA1B9",
"=. c #91A2B4",
"-. c #82A6CC",
";. c #80A8D2",
":. c #81ABD6",
">. c #83ADD6",
",. c #D9D4C6",
"<. c None",
/* pixels */
"<.E R R R R R R R R R R R R E <.",
"E =.,.,.,.,.,.,.,.,.,.,.,.,.=.E ",
"R ,.T 8 0 U z ;.;.>.>.>.>.>.,.R ",
"R ,.8 @ D [ -.&.c J L $.*.X.,.R ",
"R ,.0 3 O...P 6 T T < , F  .,.R ",
"R ,.6 S } J T F a a Y T O B ,.R ",
"R ,.9 C @.T Z f I C l c T T ,.R ",
"R ,.9 N o.T L u d T T p G 8 ,.R ",
"R ,.9 e +.T A { %.#.0 f L > ,.R ",
"R ,.T ; i = t T b * 6 s k > ,.R ",
"R ,.m O q v .   $ w T X g > ,.R ",
"R ,.Q T - 4 r 7 y T % ~ M > ,.R ",
"R ,.| ! & T T T # o ^ ] 6 8 ,.R ",
"R ,.| / / _ _ _ _ W 5 T 8 T ,.R ",
"E =.,.,.,.,.,.,.,.,.,.,.,.,.=.R ",
"<.R R R R R R R R R R R R R E <."
};
