/* XPM */
static char *miro[] = {
/* columns rows colors chars-per-pixel */
"16 16 137 2",
"   c #7A1234",
".  c #7A1235",
"X  c #7B1235",
"o  c #811534",
"O  c #821534",
"+  c #831636",
"@  c #891833",
"#  c #8A1833",
"$  c #8A1834",
"%  c #861638",
"&  c #8B183B",
"*  c #901B31",
"=  c #901B32",
"-  c #951E37",
";  c #991E30",
":  c #981E31",
">  c #921A3F",
",  c #931A3F",
"<  c #971F3D",
"1  c #AE1F37",
"2  c #AD1F39",
"3  c #9F2130",
"4  c #9B2339",
"5  c #A8242E",
"6  c #A8252F",
"7  c #B0282D",
"8  c #B72B2C",
"9  c #B72C2D",
"0  c #BE2E2C",
"q  c #BE2F2C",
"w  c #A62735",
"e  c #A0273D",
"r  c #AE203A",
"t  c #AB203C",
"y  c #AC233E",
"u  c #BE2331",
"i  c #B92334",
"p  c #BE2C3C",
"a  c #B73236",
"s  c #C1242F",
"d  c #C2252F",
"f  c #C4252E",
"g  c #C7292F",
"h  c #C5312A",
"j  c #C6332B",
"k  c #CC342A",
"l  c #CD372B",
"z  c #D43829",
"x  c #DB3B28",
"c  c #DB3C2A",
"v  c #DC3D2A",
"b  c #C72930",
"n  c #C62B34",
"m  c #C92C31",
"M  c #CA2E32",
"N  c #CA2E33",
"B  c #CE3637",
"V  c #CF3738",
"C  c #CF3839",
"Z  c #DC402C",
"A  c #D64030",
"S  c #D3403D",
"D  c #D5423F",
"F  c #961B41",
"G  c #991D42",
"H  c #9C2040",
"J  c #A92643",
"K  c #A92644",
"L  c #AE2C46",
"P  c #B52D41",
"I  c #AF3142",
"U  c #B73044",
"Y  c #BC3746",
"T  c #BF3C43",
"R  c #B8374C",
"E  c #C63C46",
"W  c #CF3F42",
"Q  c #CE454A",
"!  c #C74949",
"~  c #CC494F",
"^  c #D44442",
"/  c #D34444",
"(  c #D04447",
")  c #D54946",
"_  c #D74B47",
"`  c #D84943",
"'  c #DA4C45",
"]  c #D55347",
"[  c #DB514B",
"{  c #DE5349",
"}  c #DB574C",
"|  c #CE5153",
" . c #D35A56",
".. c #D85C56",
"X. c #E25C4E",
"o. c #D9635A",
"O. c #E76E58",
"+. c #E66C5B",
"@. c #E3685E",
"#. c #D55F60",
"$. c #D86060",
"%. c #DB6D6B",
"&. c #DF6E6A",
"*. c #E67C63",
"=. c #EA7C60",
"-. c #EB7F64",
";. c #E17068",
":. c #E37B73",
">. c #E17B79",
",. c #EC8163",
"<. c #EC866C",
"1. c #E7837A",
"2. c #E5847E",
"3. c #F19E7D",
"4. c #ED9686",
"5. c #EE9B8E",
"6. c #E79490",
"7. c #EFA087",
"8. c #F1AA93",
"9. c #F1A897",
"0. c #F5B091",
"q. c #D2BFCB",
"w. c #D3C0CC",
"e. c #DAC5CD",
"r. c #DAC6CD",
"t. c #E3CACE",
"y. c #E3CBCF",
"u. c #EEDEE1",
"i. c #D4EEFC",
"p. c #DDF2FC",
"a. c #EEE4E7",
"s. c #EFEBEF",
"d. c #E7F6FD",
"f. c #F9F1F1",
"g. c #F1F9FE",
"h. c #FBFDFE",
"j. c None",
/* pixels */
"j.j.j.j.j.j.j.j.j.j.j.j.j.j.j.j.",
"j.j.j.j.j.j.j.j.j.Z v x c j.j.j.",
"j.j.j.j.j.j.j.A *.7.9.5.1.} z j.",
"j.j.j.j.j.l ] 8.0.3.-.+.@.2...l ",
"j.j.j.j.j o.4.<.,.=.O.X.{ { >.g ",
"j.j.j.q  .h.h.h.h.h.h.f.6.) %.q ",
"j.j.9 ! &.g.u.:.g.g.;.a.s.) o.7 ",
"j.j.a $.^ d.y.' d.d.) y.d./ | 7 ",
"j.6 ~ W V p.e.^ p.p.S e.p.( T 5 ",
"3 I E b M i.q.V i.i.B w.i.Q w j.",
"; 4 R p f b m M M M m b n Y ; j.",
"j.- - L P i u f f f u i U 4 * j.",
"j.j.# $ H K y r 1 2 t J < # j.j.",
"j.j.j.j.O + & > G F > % O j.j.j.",
"j.j.j.j.j.j.. X . . . j.j.j.j.j.",
"j.j.j.j.j.j.j.j.j.j.j.j.j.j.j.j."
};
