/* XPM */
static char *nm_device_wired[] = {
/* columns rows colors chars-per-pixel */
"16 16 44 1",
"  c #163561",
". c #1B3C6B",
"X c #25416A",
"o c #204476",
"O c #204577",
"+ c #2B4770",
"@ c #244A7E",
"# c #314F7A",
"$ c #375177",
"% c #3A547A",
"& c #3B577E",
"* c #3D587F",
"= c #40597D",
"- c #425A7E",
"; c #275086",
": c #2D5283",
"> c #335482",
", c #2C5892",
"< c #445D80",
"1 c #455D81",
"2 c #737B88",
"3 c #808083",
"4 c #818184",
"5 c #888A85",
"6 c #88888B",
"7 c #898A8A",
"8 c #8A8A8D",
"9 c #B9BBB5",
"0 c #BABDB6",
"q c #BBBDB7",
"w c #BCBFB8",
"e c #BEC1BB",
"r c #BFC1BB",
"t c #C3C5BF",
"y c #C8C9C4",
"u c #CED0CB",
"i c #CED0CC",
"p c #D9DAD7",
"a c #DBDDD9",
"s c #DDDEDA",
"d c #FDFDFD",
"f c #FEFEFE",
"g c #FFFFFF",
"h c None",
/* pixels */
"hhhh633433433436",
"hhhh4ffffffffff3",
"hhhh3f        f4",
"6333333443321 f3",
"3ffffffffff3X f4",
"4f        f3. f3",
"3f ---111 f4O f4",
"3f $%>-+X f4  f3",
"4f #>:@O. f4fff4",
"3f O;,,;O f34338",
"3f        f30a9h",
"4ffffffffff4r0y5",
"8333333333365555",
"hs0p0u0u0a0hhhhh",
"50t0r0w0r0y5hhhh",
"555555555555hhhh"
};
