/* XPM */
static char *notification_properties[] = {
/* columns rows colors chars-per-pixel */
"16 16 49 1",
"  c #222628",
". c #25292B",
"X c #252A2C",
"o c #2E3436",
"O c #2E3437",
"+ c #2F3537",
"@ c #303638",
"# c #353B3C",
"$ c #42484B",
"% c #4A5155",
"& c #515B63",
"* c #6C7982",
"= c #6F7A83",
"- c #2D69C1",
"; c #2E6AC1",
": c #2F6AC2",
"> c #5580BE",
", c #5A89CE",
"< c #618DCD",
"1 c #628ECD",
"2 c #7797C8",
"3 c #608DD0",
"4 c #618DD0",
"5 c #84A6D7",
"6 c #87A8D8",
"7 c #B6C7D9",
"8 c #BACAD8",
"9 c #BDCEDF",
"0 c #B6CEE7",
"q c #B7CFE7",
"w c #B9CFE7",
"e c #B8CFE8",
"r c #BAD0E7",
"t c #BBD1E7",
"y c #B9D0E8",
"u c #BBD1E9",
"i c #BED3EA",
"p c #C1CFDC",
"a c #C4D6E7",
"s c #C0D5EA",
"d c #C3D7EB",
"f c #C4D6E8",
"g c #C5D6E8",
"h c #C5D7E8",
"j c #C5D7E9",
"k c #C8D8E9",
"l c #C8DAED",
"z c #D2DFED",
"x c None",
/* pixels */
"xxxxxxxxxxxxxxxx",
"xxxxxxxxxxxxxxxx",
"xoooooo+oooooo&x",
"o266zzzzzzzzzpox",
"o633lllllllllzox",
"o63,lllllllllzox",
"o53,jsiyyyy0ykox",
"o1::y00000000jox",
"o1-:000000qqqgox",
"o1::000000qq0sox",
"o:11ggggsrqwg7ox",
".#@@@@@@%9ta*o x",
"xxxxxxxxX$8=+xxx",
"xxxxxxxxxo#oxxxx",
"xxxxxxxxxxxxxxxx",
"xxxxxxxxxxxxxxxx"
};
