/* XPM */
static char *ooo_draw[] = {
/* columns rows colors chars-per-pixel */
"16 16 145 2",
"   c #000000",
".  c #040404",
"X  c #141414",
"o  c #151515",
"O  c #191919",
"+  c #1A1A1A",
"@  c #1B1B1B",
"#  c #1F1F1F",
"$  c #252526",
"%  c #262628",
"&  c #2E2E2E",
"*  c #2F3031",
"=  c #333436",
"-  c #353535",
";  c #3C3C3C",
":  c #6E4214",
">  c #6F461B",
",  c #71471C",
"<  c #76512B",
"1  c #77522B",
"2  c #77532D",
"3  c #77532E",
"4  c #1C304A",
"5  c #47484A",
"6  c #515151",
"7  c #5D5D5D",
"8  c #686B6E",
"9  c #696A70",
"0  c #747573",
"q  c #747578",
"w  c #75777B",
"e  c #A45D11",
"r  c #A75F12",
"t  c #805D38",
"y  c #C36B0E",
"u  c #C16C15",
"i  c #E47E12",
"p  c #8E6A43",
"a  c #8A6C48",
"s  c #806C58",
"d  c #8E765D",
"f  c #8B8176",
"g  c #908071",
"h  c #3465A4",
"j  c #3566A4",
"k  c #3666A4",
"l  c #3666A5",
"z  c #3967A3",
"x  c #3968A4",
"c  c #3A69A6",
"v  c #3A69A7",
"b  c #3A6AA6",
"n  c #3B6AA7",
"m  c #3B6BA7",
"M  c #5A758C",
"N  c #72899D",
"B  c #7E93A6",
"V  c #6389B8",
"C  c #6389B9",
"Z  c #658AB9",
"A  c #888A85",
"S  c #8E8F91",
"D  c #929491",
"F  c #9F9B92",
"G  c #A19084",
"H  c #859AAB",
"J  c #9098A2",
"K  c #9D9EA3",
"L  c #9BAAB7",
"P  c #9DACBB",
"I  c #A0A1A7",
"U  c #A6A9AC",
"Y  c #AEAEAE",
"T  c #A2A7B3",
"R  c #ACADB2",
"E  c #B3B4B1",
"W  c #B7B7B4",
"Q  c #ACB8C4",
"!  c #ACBAC5",
"~  c #B6BBC6",
"^  c #B6BCC7",
"/  c #B1BECA",
"(  c #A9C0DF",
")  c #AAC1DF",
"_  c #ABC2DF",
"`  c #ADC2DF",
"'  c #AEC3DF",
"]  c #B0C4DF",
"[  c #B5C8DE",
"{  c #B3C6E0",
"}  c #B3C7E1",
"|  c #B4C6E1",
" . c #B5C7E1",
".. c #B5C8E1",
"X. c #B8CAE3",
"o. c #BACDE5",
"O. c #BACEE5",
"+. c #BBCEE5",
"@. c #BCCFE5",
"#. c #BCCFE6",
"$. c #C3C4C3",
"%. c #C9CEDE",
"&. c #D5D5D5",
"*. c #DCDCDC",
"=. c #C7D2E6",
"-. c #C7D2E7",
";. c #C8D3E7",
":. c #CBD7E7",
">. c #CCD8E7",
",. c #CDD8E7",
"<. c #C9D4E8",
"1. c #CCD6E8",
"2. c #CDD9E8",
"3. c #CED9E8",
"4. c #D0D7E9",
"5. c #D1D8E8",
"6. c #D3D9E8",
"7. c #D0D8EA",
"8. c #D1D8EA",
"9. c #D1D9EA",
"0. c #D5DAE8",
"q. c #D4DBE8",
"w. c #D7DCEA",
"e. c #D5DDEC",
"r. c #DAE0EB",
"t. c #DFE3EB",
"y. c #DAE0EC",
"u. c #D9E0EE",
"i. c #DCE1ED",
"p. c #DCE2EE",
"a. c #DDE3EE",
"s. c #DEE3EE",
"d. c #E0E4EE",
"f. c #E1E7EE",
"g. c #E7EDF4",
"h. c #E8ECF4",
"j. c #E8EEF4",
"k. c #F5F4F2",
"l. c #F4F4F4",
"z. c #F7F8FB",
"x. c #FAFBFC",
"c. c #FBFCFD",
"v. c #FCFDFD",
"b. c #FFFFFF",
"n. c None",
/* pixels */
"n.n.n.n.n.v m k k m m n.n.n.n.n.",
"n.n.n.v Z h.v.v.v.v.j.Z n n.n.n.",
"n.n.v ,.! N H t./ B P v.2.v n.n.",
"n.v 2.v.h.y.Q M L i.i.s.x.2.v n.",
"n.. . w @.@.o.8 . . +.+.#.v.Z n.",
"x f.S % q I 5 = R i.i.w.6.d.j.v ",
"m , 2 f = . 9 [ +...` ` ` ] v.v ",
"k : r 1 d ^ e.e.1.<.<.;.;.;.v.k ",
"z p : i e 1 g X. ..... . .{ v.k ",
"z k.t : i y , 1 U 7.7.7.4.7.v.v ",
"z f.t.0 : i u F D A _ _ _ y.j.v ",
"n.Z v.q.G : a W &.$.A T %.v.Z n.",
"n.n 5.z.6.I A E Y *.+ # + J v n.",
"n.n.c ,.v.q.~ A A @ ; 7 6 % n.n.",
"n.n.n.c V g.v.v.l.0 + = & X   n.",
"n.n.n.n.n.v v k k v 4 X X X X X "
};
