/* XPM */
static char *ooo_writer[] = {
/* columns rows colors chars-per-pixel */
"16 16 97 2",
"   c #040404",
".  c #262628",
"X  c #2F3031",
"o  c #333436",
"O  c #47484A",
"+  c #686B6E",
"@  c #696A70",
"#  c #747578",
"$  c #75777B",
"%  c #3465A4",
"&  c #3566A4",
"*  c #3666A4",
"=  c #3666A5",
"-  c #3967A3",
";  c #3A69A6",
":  c #3A69A7",
">  c #3A6AA6",
",  c #3B6AA7",
"<  c #3B6BA7",
"1  c #5A758C",
"2  c #67778C",
"3  c #64768F",
"4  c #72899D",
"5  c #7E93A6",
"6  c #6389B8",
"7  c #6389B9",
"8  c #658AB9",
"9  c #818181",
"0  c #8E8F91",
"q  c #859AAB",
"w  c #9F9FA1",
"e  c #9BAAB7",
"r  c #9DACBB",
"t  c #A0A1A7",
"y  c #ACADB2",
"u  c #ACB8C4",
"i  c #ACBAC5",
"p  c #A5B8CD",
"a  c #B6BCC7",
"s  c #B1BECA",
"d  c #A9C0DD",
"f  c #AAC0DE",
"g  c #AAC1DE",
"h  c #ACC2DF",
"j  c #B2C5DF",
"k  c #B3C6E0",
"l  c #BBCCE3",
"z  c #BBCDE3",
"x  c #BACEE5",
"c  c #BBCEE5",
"v  c #BCCDE4",
"b  c #BCCDE5",
"n  c #BCCFE5",
"m  c #BCCFE6",
"M  c #C4C4C4",
"N  c #C5C5C5",
"B  c #C6C6C6",
"V  c #C9D3E7",
"C  c #CBD7E7",
"Z  c #CCD8E7",
"A  c #CDD8E7",
"S  c #CFD6E8",
"D  c #CFD7E8",
"F  c #CDD9E8",
"G  c #CED9E8",
"H  c #D0D7E8",
"J  c #D1D9E9",
"K  c #D3D9E8",
"L  c #D3DBEA",
"P  c #D5DAE8",
"I  c #D6DCE9",
"U  c #D5DCEA",
"Y  c #D5DCEB",
"T  c #D5DDEB",
"R  c #D7DCEA",
"E  c #D5DDEC",
"W  c #DFE3EB",
"Q  c #DAE0EC",
"!  c #D9E0EE",
"~  c #DCE1ED",
"^  c #DCE2EE",
"/  c #DDE3EE",
"(  c #DEE3EE",
")  c #E0E4EE",
"_  c #E1E7EE",
"`  c #EBEBEB",
"'  c #ECECEC",
"]  c #EDEDED",
"[  c #E7EDF4",
"{  c #E8ECF4",
"}  c #E8EEF4",
"|  c #F7F8FB",
" . c #FAFBFC",
".. c #FBFCFD",
"X. c #FCFDFD",
"o. c #FFFFFF",
"O. c None",
/* pixels */
"O.O.O.O.O.: , * * , , O.O.O.O.O.",
"O.O.O.: 8 } X.X.X.X.} 8 , O.O.O.",
"O.O.: A i 4 q ) s 5 r X.F : O.O.",
"O.: F X.{ ~ u 1 e ~ ~ (  .F : O.",
"O.    $ m m n +     n m n X.8 O.",
"- _ 0 . # t O X y ( ~ R K ) } : ",
"< X.m p o   + w 9 9 9 9 9 9 9 3 ",
"* X.E T T a E 9 X.X.X.X.X.X.X.9 ",
"* X.b b n n n 9 X.B M B B B X.9 ",
", X.K Y K K K 9 X.' ` ' ` ' X.9 ",
": } ^ h h p f 9 X.B B B B B X.9 ",
"O.7 X.E J E K 9 X.' ' ' ' ] X.9 ",
"O.: C | K k k 9 X.B B B B B X.9 ",
"O.O.: A X.! V 9 X.' ' ' ' ' X.9 ",
"O.O.O.: 8 } X.9 X.X.X.X.X.X.X.9 ",
"O.O.O.O.O., , 2 9 9 9 9 9 9 9 9 "
};
