/* XPM */
static char *ordbogen[] = {
/* columns rows colors chars-per-pixel */
"16 16 64 1",
"  c #416F4B",
". c #426F4C",
"X c #43704D",
"o c #477451",
"O c #497553",
"+ c #4C7755",
"@ c #507A59",
"# c #557E5E",
"$ c #578060",
"% c #5D8465",
"& c #5F8668",
"* c #608668",
"= c #658A6D",
"- c #678C6F",
"; c #6D8973",
": c #6D9075",
"> c #729379",
", c #74967C",
"< c #78987F",
"1 c #78997F",
"2 c #819F87",
"3 c #82A088",
"4 c #84A28B",
"5 c #87A48E",
"6 c #89A58F",
"7 c #8DA993",
"8 c #92AC98",
"9 c #94AE99",
"0 c #97B09D",
"q c #99B29E",
"w c #9AB3A0",
"e c #9CB4A2",
"r c #A2B9A7",
"t c #A7BCAC",
"y c #A9BEAE",
"u c #ACC0B0",
"i c #B7C8BA",
"p c #BACBBE",
"a c #C0CFC4",
"s c #C2D1C5",
"d c #C7D5CA",
"f c #CBD8CE",
"g c #CFDAD1",
"h c #D0DBD2",
"j c #D0DCD3",
"k c #D4DED6",
"l c #DBE4DD",
"z c #DCE5DE",
"x c #DFE6E0",
"c c #E1E8E3",
"v c #E2E9E4",
"b c #E4EAE5",
"n c #E6ECE7",
"m c #E7ECE8",
"M c #E8EEE9",
"N c #EBF0EC",
"B c #EDF1ED",
"V c #F2F5F3",
"C c #F3F6F3",
"Z c #F6F8F6",
"A c #FAFBFA",
"S c #FBFCFB",
"D c #FBFCFC",
"F c #FFFFFF",
/* pixels */
"FFFFFFFFFFFFFFFF",
"FFFFFm1#uFFFFFFF",
"DFFFS2  odFFFFFF",
"0AFFZ=   ygkFFFF",
"&sBBFtoX%cAd0bFF",
"9=+$vShiNFFFB7gF",
"c:  -mFFFFFFFN3m",
"FM- .,VFFFFMFFae",
"FFb*O@0AFFFBdFV>",
"FFFMi8uvlbZV5bF;",
"FFFFnxSFFZSNzAF>",
"FFFFAydAFFFFFFD1",
"FFFFpt77MFFFFFkw",
"FFFx9FFj4fFFFg3M",
"Ddr6BFFFVy804qmF",
"FFFFFFFFFFFFFFFF"
};
