/* XPM */
static char *pidgin[] = {
/* columns rows colors chars-per-pixel */
"16 16 149 2",
"   c #3C1942",
".  c #3C1A42",
"X  c #3D1A43",
"o  c #3D1A44",
"O  c #3E1B44",
"+  c #3E1B45",
"@  c #3F1B45",
"#  c #3F1B46",
"$  c #3F1C45",
"%  c #401C47",
"&  c #411C47",
"*  c #411C48",
"=  c #421C48",
"-  c #421D49",
";  c #422049",
":  c #432049",
">  c #432149",
",  c #47214D",
"<  c #4B2A51",
"1  c #4D2855",
"2  c #4F2E54",
"3  c #522259",
"4  c #56245F",
"5  c #513155",
"6  c #5B2664",
"7  c #5B3762",
"8  c #684B6D",
"9  c #6B516F",
"0  c #6C4B73",
"q  c #724E79",
"w  c #794C7B",
"e  c #705674",
"r  c #765E7A",
"t  c #A95732",
"y  c #D86C13",
"u  c #D06918",
"i  c #F37901",
"p  c #F57900",
"a  c #D07E3C",
"s  c #894B4A",
"d  c #955046",
"f  c #8B4D50",
"g  c #8B5E79",
"h  c #9E6E68",
"j  c #976974",
"k  c #A3746A",
"l  c #FBB558",
"z  c #D49F69",
"x  c #D59F69",
"c  c #DEA76A",
"v  c #F4BA6A",
"b  c #FDC26A",
"n  c #774784",
"m  c #7F4E89",
"M  c #7F518B",
"N  c #814D8D",
"B  c #825D8A",
"V  c #864995",
"C  c #8A4D98",
"Z  c #855092",
"A  c #8C519A",
"S  c #8D539B",
"D  c #8F509E",
"F  c #8E549C",
"G  c #8F559D",
"H  c #8F569D",
"J  c #91579F",
"K  c #8E6697",
"L  c #8E6996",
"P  c #8F6A97",
"I  c #906A9A",
"U  c #966F9F",
"Y  c #9154A0",
"T  c #9457A2",
"R  c #965AA4",
"E  c #985DA6",
"W  c #9763A4",
"Q  c #9A62A7",
"!  c #9A60A8",
"~  c #9B61A8",
"^  c #9D64AA",
"/  c #9E66AB",
"(  c #9F68AC",
")  c #9C74A7",
"_  c #9A78A2",
"`  c #A06AAD",
"'  c #A16BAE",
"]  c #A16DAD",
"[  c #A16CAE",
"{  c #A26DAE",
"}  c #A26DAF",
"|  c #A36EAF",
" . c #A273AC",
".. c #A27EAA",
"X. c #A36EB0",
"o. c #A46FB0",
"O. c #A672B2",
"+. c #A774B3",
"@. c #A875B3",
"#. c #A876B4",
"$. c #AD7EB8",
"%. c #AE7FB9",
"&. c #9E8DA1",
"*. c #A595A8",
"=. c #AF80B9",
"-. c #AF83B9",
";. c #B083BB",
":. c #B089B9",
">. c #B08DB8",
",. c #B18FB9",
"<. c #B489BE",
"1. c #B58ABF",
"2. c #AE9FB0",
"3. c #B792BF",
"4. c #B596BD",
"5. c #B796BE",
"6. c #B68CC0",
"7. c #B78DC1",
"8. c #BA98C2",
"9. c #BB99C3",
"0. c #BC99C5",
"q. c #BFAAC4",
"w. c #C19DC9",
"e. c #C0A0C8",
"r. c #C1A2C9",
"t. c #C2A0CA",
"y. c #C4A5CB",
"u. c #C5A5CD",
"i. c #C6A6CD",
"p. c #C7A6CE",
"a. c #D2C2D5",
"s. c #ECE5DB",
"d. c #EEE6DA",
"f. c #DCCDE0",
"g. c #DDD3E0",
"h. c #E1D0E5",
"j. c #E5D7E9",
"k. c #E6D8EA",
"l. c #EADEEC",
"z. c #EEE5F1",
"x. c #F0E7F2",
"c. c #F1E9F3",
"v. c #F5EFF6",
"b. c #F6F2F7",
"n. c #F9F5F9",
"m. c #FBF9FC",
"M. c #FCFAFC",
"N. c #FFFFFF",
"B. c None",
/* pixels */
"B.B.B.B.3 4 6 B.B.B.B.B.B.B.B.B.",
"B.B.B.B.B.- - . - # B.B.B.B.B.B.",
"B.B.B.B.- L >.y.5._ 2 # B.B.B.B.",
"B.B.B.7 9.1.X.~ ` =.e.0 # B.B.B.",
"B.B.: 9.#.E ~ ^ ^ ` #.e.< B.B.B.",
"B.# L 7.;.z.x.w.O.#.u.v.q.# B.B.",
"B.& >.@.k.N.N.c.$.;.z.N.b.& B.B.",
"B.. u.[ n.r *.m.1.1.e 2.N.5 B.B.",
"B.. u.` h.e &.j.) I 8 2.m.- B.B.",
"B.# e.X.;.a.l.U d.a d.g.a., B.B.",
"B.# 9.X.N k j g x l y d t 1 B.B.",
"B.# 3.O.W w c b b b p i s B.B.B.",
"B.# :.[ R E M k c v u f B B.B.B.",
"B.& &.[ D Y T J V n N [ 5.: B.B.",
"B.B.w E V C A G S F G S  .L # B.",
"B.B.B.B.B.B.B.B.B.B.B.B.B.B.B.B."
};
