/* XPM */
static char *preferences_desktop_font[] = {
/* columns rows colors chars-per-pixel */
"16 16 78 1",
"  c #000000",
". c #060606",
"X c #0A0B0A",
"o c #0B0B0B",
"O c #0D0D0D",
"+ c #111110",
"@ c #121211",
"# c #191918",
"$ c #191919",
"% c #1A1A19",
"& c #1B1B1B",
"* c #1F1F1E",
"= c #212120",
"- c #252625",
"; c #262625",
": c #262626",
"> c #272726",
", c #272827",
"< c #282827",
"1 c #282828",
"2 c #292928",
"3 c #2A2B2A",
"4 c #2F2F2E",
"5 c #323231",
"6 c #333433",
"7 c #353635",
"8 c #383937",
"9 c #3F3F3E",
"0 c #424241",
"q c #444443",
"w c #4B4B4A",
"e c #4F4F4D",
"r c #525251",
"t c #5B5B5A",
"y c #5E5E5D",
"u c #61615F",
"i c #6B6C6A",
"p c #6F6F6E",
"a c #727370",
"s c #767775",
"d c #7D7E7B",
"f c #7F7F7D",
"g c #888A85",
"h c #8A8C87",
"j c #8B8D88",
"k c #8C8D89",
"l c #8D8E8A",
"z c #91928F",
"x c #9A9C98",
"c c #A0A19E",
"v c #B9BBB6",
"b c #BFC0BC",
"n c #C4C6C1",
"m c #C6C7C5",
"M c #C7C8C4",
"N c #C9CBC7",
"B c #CACBC7",
"V c #CACCC7",
"C c #CBCDC8",
"Z c #CDCFCA",
"A c #D0D2CD",
"S c #D2D4CF",
"D c #D3D5D0",
"F c #D6D7D3",
"G c #D9DAD6",
"H c #DCDCD9",
"J c #DCDDD9",
"K c #DFE0DC",
"L c #E1E1DE",
"P c #E2E2DF",
"I c #E4E4E2",
"U c #E5E5E2",
"Y c #E7E8E5",
"T c #E8E8E6",
"R c #EAEAE8",
"E c #F0F0EF",
"W c #FFFFFF",
"Q c None",
/* pixels */
"QhgggggggggggghQ",
"kIWWWWWWWWWWWWIk",
"gWCVVVVVVVVVVCWg",
"gWb62,xZZZZZZZWg",
"gWNnAv2AAAAAAAWg",
"gWSs98XF-#DDDDWg",
"gWzwNF@F-#FFFFWg",
"gWdiGc G-#a*0MWg",
"gWN55u5J2 ry eWg",
"gWKLKKKL2XJJ&@Wg",
"gWPPLLLI-OLI=OWg",
"gWUIIIII2 pf qWg",
"gWUYYYYY7-t.2mWg",
"gWRRRRRRRRRTRRWg",
"kEWWWWWWWWWWWWEk",
"QhggggggggggggkQ"
};
