/* XPM */
static char *preferences_desktop_keyboard[] = {
/* columns rows colors chars-per-pixel */
"16 16 31 1",
"  c #729FCF",
". c #888A85",
"X c #8D8E8A",
"o c #8E908B",
"O c #8F918C",
"+ c #93958F",
"@ c #979994",
"# c #9FA19C",
"$ c #A1A29E",
"% c #A3A5A1",
"& c #B2B5AF",
"* c #B4B7B0",
"= c #B5B7B0",
"- c #B5B6B3",
"; c #BABDB6",
": c #BDC0B9",
"> c #BEC1BB",
", c #C0C2BC",
"< c #CED0CA",
"1 c #D1D2CE",
"2 c #D2D3CF",
"3 c #D4D5D1",
"4 c #D5D7D3",
"5 c #E1E1DF",
"6 c #E5E5E2",
"7 c #E4E4E3",
"8 c #ECECEA",
"9 c #EDEDEB",
"0 c #EEEEEC",
"q c #FFFFFF",
"w c None",
/* pixels */
"wwwwwwwwwwwwwwww",
"wwwwwwwwwwwwwwww",
"wwwww wwwwwwwwww",
"wwww  wwwwwwwwww",
"wwwww         ww",
"wwwwwwwwwwwww ww",
"wwwwwwwwww   www",
"wwwwwwwww  wwwww",
"wwwwwwwww wwwwww",
"ww=;;;;;;;;;&.+w",
"w$4;2;<;3;2;.0.w",
"w-;2;3;6;6;3;%0.",
"o7>2>;;;;&.2>@0.",
"O6qqqqqqq.9$$00.",
"X..........90990",
"wwwwwwwwwww....0"
};
