/* XPM */
static char *rapidsvn[] = {
/* columns rows colors chars-per-pixel */
"16 16 172 2",
"   c #264672",
".  c #264B7B",
"X  c #274D7E",
"o  c #31507A",
"O  c #32527B",
"+  c #34537C",
"@  c #264D80",
"#  c #204A87",
"$  c #204B88",
"%  c #214D8A",
"&  c #224D8A",
"*  c #234E8B",
"=  c #244F8D",
"-  c #25518F",
";  c #265390",
":  c #2B5790",
">  c #285492",
",  c #295694",
"<  c #2A5896",
"1  c #2F5B95",
"2  c #2D5B96",
"3  c #2B5A98",
"4  c #2D5B9A",
"5  c #2E5D9B",
"6  c #2F5E9D",
"7  c #2F5F9D",
"8  c #2F5F9E",
"9  c #3D6396",
"0  c #366099",
"q  c #36609A",
"w  c #30609D",
"e  c #30609E",
"r  c #30609F",
"t  c #3E659A",
"y  c #3F679C",
"u  c #3263A1",
"i  c #3364A2",
"p  c #3364A3",
"a  c #3565A3",
"s  c #3667A5",
"d  c #3869A7",
"f  c #3A6AA8",
"g  c #3F70AC",
"h  c #415E84",
"j  c #48698D",
"k  c #416998",
"l  c #40699F",
"z  c #436C9E",
"x  c #516D90",
"c  c #526F91",
"v  c #4E7198",
"b  c #5A7697",
"n  c #607C9B",
"m  c #416BA3",
"M  c #426BA3",
"N  c #456FA3",
"B  c #426BA4",
"V  c #436CA4",
"C  c #436DA5",
"Z  c #4171AD",
"A  c #4972A9",
"S  c #4A73AA",
"D  c #4A78AE",
"F  c #4B79AF",
"G  c #5379A3",
"H  c #5379A4",
"J  c #517AAF",
"K  c #517BAF",
"L  c #5C7DA8",
"P  c #4676B0",
"I  c #4776B1",
"U  c #4978B2",
"Y  c #4F7DB4",
"T  c #4E7DB6",
"R  c #507FB7",
"E  c #5681B2",
"W  c #5982B5",
"Q  c #5B83B7",
"!  c #5584BB",
"~  c #5785BA",
"^  c #5786BC",
"/  c #5B8ABF",
"(  c #5C8ABF",
")  c #6E8AA9",
"_  c #7289A6",
"`  c #648BBB",
"'  c #658DBD",
"]  c #6C8EB8",
"[  c #5C8BC0",
"{  c #5D8BC0",
"}  c #5F8DC1",
"|  c #6290C4",
" . c #6593C6",
".. c #6A91C0",
"X. c #6892C2",
"o. c #6E93C1",
"O. c #6A93C4",
"+. c #6896C8",
"@. c #6C99CB",
"#. c #6D9BCC",
"$. c #7095C2",
"%. c #779CC7",
"&. c #729FCF",
"*. c #7A9DC8",
"=. c #73A0CF",
"-. c #75A1D0",
";. c #76A2D0",
":. c #77A2D0",
">. c #79A4D1",
",. c #7CA6D2",
"<. c #7FA8D3",
"1. c #8097B3",
"2. c #92A3B9",
"3. c #92A6BB",
"4. c #96A7BB",
"5. c #97A9BD",
"6. c #81A3CC",
"7. c #83A5CD",
"8. c #86A8CF",
"9. c #8AA8CD",
"0. c #91ABC9",
"q. c #81A9D4",
"w. c #82AAD4",
"e. c #83AAD5",
"r. c #85AAD4",
"t. c #86ADD6",
"y. c #88AAD0",
"u. c #8AAAD0",
"i. c #8CACD2",
"p. c #8EB2D8",
"a. c #92B2D5",
"s. c #94B4D7",
"d. c #90B3D9",
"f. c #99B8D9",
"g. c #9CBADB",
"h. c #A3B4C8",
"j. c #A0B7D2",
"k. c #A0BDDD",
"l. c #A3C0DF",
"z. c #A6C2DF",
"x. c #BBC7D4",
"c. c #BDC7D5",
"v. c #A9C5E2",
"b. c #AEC7E3",
"n. c #B0C9E4",
"m. c #B2CBE5",
"M. c #B5CDE6",
"N. c #B7CEE6",
"B. c #B9CFE7",
"V. c #B9D0E7",
"C. c #C8D2DC",
"Z. c #C4D3E6",
"A. c #C3D6EA",
"S. c #CFDDEC",
"D. c #D4DDE7",
"F. c #D5E2F1",
"G. c #D9E5F2",
"H. c #E2E8EE",
"J. c #E6EEF7",
"K. c #E7EEF7",
"L. c #EAF0F7",
"P. c #EDF3F9",
"I. c #EFF4F9",
"U. c #F1F3F6",
"Y. c #F2F4F7",
"T. c #F3F5F9",
"R. c #F5F6F8",
"E. c #FAFBFC",
"W. c #FAFCFD",
"Q. c #FDFDFE",
"!. c #FFFFFF",
"~. c None",
/* pixels */
"~.s p p s i i p p p p p p a s ~.",
"a 8.b.n.m.M.M.B.V.B.B.M.n.n.u.a ",
"r z.=.-.>.,.<.q.q.q.q.,.>.-.v.r ",
"7 k.#.&.q.G.K.K.F.d.>.-.t.&.l.7 ",
"5 f.+.r.I.!.!.!.!.!.A.p.I.#.g.7 ",
"4 a.| S.H.3.5.x.E.!.!.!.!.| s.4 ",
"3 u.( D.j G G v b C.!.!.!.{ i.< ",
"< 6.! ) ! ( { { W h.!.!.!.^ 7.< ",
", %.Y !.!.!.L...X.0._ b c R *., ",
", o.P !.!.!.1.D F k z N ] U $.> ",
"; ` g !.!.!.!.Z...Y P 9.j.Z ' ; ",
"; W d !.c.U.!.!.!.!.W.T.L f W - ",
"* R w 2.. + 4.R.!.!.U.c 1 a K = ",
"* S 5 X r 2 X O h O   > r r S * ",
"$ 0 B M C C C t 9 t l V V B 0 * ",
"~.$ # # # # # # # # # # # # $ ~."
};
