/* XPM */
static char *rhythmbox[] = {
/* columns rows colors chars-per-pixel */
"16 16 181 2",
"   c #A0321A",
".  c #9C2424",
"X  c #A02D2D",
"o  c #A43636",
"O  c #A83F3E",
"+  c #8F5902",
"@  c #905B03",
"#  c #925C04",
"$  c #935E05",
"%  c #AC5610",
"&  c #956006",
"*  c #976107",
"=  c #976307",
"-  c #98660A",
";  c #99670A",
":  c #97690F",
">  c #9C6A0B",
",  c #9D6B0C",
"<  c #A26B0F",
"1  c #A2720F",
"2  c #A1790A",
"3  c #A37410",
"4  c #A97B14",
"5  c #A97C15",
"6  c #BF763D",
"7  c #F47E1F",
"8  c #F36324",
"9  c #F36C2D",
"0  c #AC4B47",
"q  c #B55A46",
"w  c #B65F4D",
"e  c #B15750",
"r  c #BC7546",
"t  c #B76455",
"y  c #B9685D",
"u  c #BA6E66",
"i  c #BD756F",
"p  c #F47564",
"a  c #F37E6A",
"s  c #7A9609",
"d  c #62A709",
"f  c #67A90B",
"g  c #6AAA0D",
"h  c #AF8319",
"j  c #B08519",
"k  c #B58C1D",
"l  c #B68D1E",
"z  c #91BB1F",
"x  c #BB9421",
"c  c #BD9622",
"v  c #8EBA21",
"b  c #94BD20",
"n  c #90BB32",
"m  c #A1AF25",
"M  c #A8A836",
"N  c #F29719",
"B  c #CFAE19",
"V  c #D8A918",
"C  c #DBAD1E",
"Z  c #C1BD1F",
"A  c #D2B31C",
"S  c #C28926",
"D  c #C78E2F",
"F  c #C29C26",
"G  c #C8912B",
"H  c #CD982F",
"J  c #CB9433",
"K  c #CF9A37",
"L  c #C89C37",
"P  c #C3943E",
"I  c #CB9238",
"U  c #CF983C",
"Y  c #D09E33",
"T  c #D29E3F",
"R  c #F58527",
"E  c #F29D23",
"W  c #D4A436",
"Q  c #D3A13A",
"!  c #D6A53E",
"~  c #D7A839",
"^  c #D8AB3C",
"/  c #D9AB3E",
"(  c #D8AA3F",
")  c #F2A52F",
"_  c #F2A537",
"`  c #C6C023",
"'  c #8EBC4D",
"]  c #B7A959",
"[  c #D09842",
"{  c #D39B45",
"}  c #F39343",
"|  c #F3934A",
" . c #F6885A",
".. c #F79B52",
"X. c #D5A342",
"o. c #D5A343",
"O. c #D6A641",
"+. c #D8A645",
"@. c #D8A840",
"#. c #D8A940",
"$. c #D9AB43",
"%. c #DAAB45",
"&. c #DAAC46",
"*. c #D6A148",
"=. c #D8A64B",
"-. c #D9A74C",
";. c #DAAA48",
":. c #DAAB48",
">. c #DAA94A",
",. c #DCAC4A",
"<. c #DBA94E",
"1. c #DDAD4D",
"2. c #DDAD4F",
"3. c #D9BF4A",
"4. c #CFA25A",
"5. c #DCAC51",
"6. c #DEAD51",
"7. c #DEAD53",
"8. c #DEAE53",
"9. c #DEAC57",
"0. c #D0A55B",
"q. c #D1A55F",
"w. c #D3A95A",
"e. c #D5AD59",
"r. c #D8B158",
"t. c #DBB659",
"y. c #DEBB5A",
"u. c #F4AC49",
"i. c #E1BB49",
"p. c #E0B056",
"a. c #E0B159",
"s. c #E2B15C",
"d. c #E1B05F",
"f. c #E1BF5B",
"g. c #E1BE5F",
"h. c #F5BB55",
"j. c #F4BB59",
"k. c #C69164",
"l. c #F5866F",
"z. c #F59C6A",
"x. c #F48D74",
"c. c #F59F71",
"v. c #D5A864",
"b. c #D9AD69",
"n. c #DFBA65",
"m. c #DDB768",
"M. c #DCB56B",
"N. c #DDB16F",
"B. c #DEB371",
"V. c #F6AB61",
"C. c #F6AF68",
"Z. c #E3B063",
"A. c #E0BC62",
"S. c #F3BC6D",
"D. c #F4A179",
"F. c #E0B574",
"G. c #E1B775",
"H. c #E0B871",
"J. c #E2B976",
"K. c #E1BA76",
"L. c #E5BB79",
"P. c #E6BE79",
"I. c #E5BD7E",
"U. c #F5B17C",
"Y. c #CDCA4A",
"T. c #D7D04C",
"R. c #E6C54D",
"E. c #E0C84A",
"W. c #E3C15B",
"Q. c #E3C05D",
"!. c #E8C07C",
"~. c #E9C17E",
"^. c #F3A280",
"/. c #F3A487",
"(. c #E9C282",
"). c #EAC284",
"_. c #EBC285",
"`. c #ECC587",
"'. c #EDC68A",
"]. c #EEC78B",
"[. c None",
/* pixels */
"[.[.[.[.[.[.[.[.e 0 O o X . [.[.",
"[.[.[.[.[.[.[.[.r x.l.a p   [.[.",
"[.[.i u y t w q P z.9 8  .% [.[.",
"[.[.k./.^.D.c.6 M V.R 7 ..2 [.[.",
"[.[.] U.| } C.L n j.E N u.s [.[.",
"[.* ' S._ ) h.m b R.C V i.f ; [.",
"# < d E.B A E.v b T.Z Z Y.g : ; ",
"@ * , 3 4 h k x F x k h 4 3 , $ ",
"+ 0.w.e.r.t.y.f.Q.g.y.A.n.m.M.# ",
"+ 0.S G H Y W ~ / / ( ( O.o.B.# ",
"+ q.D J Y T O.@.$.%.%.,.>.<.K.# ",
"+ v.I U T X.o.%.,.1.1.8.8.9.I.+ ",
"+ b.{ { *.=.<.8.p.p.t.s.t.Z./.$ ",
"+ b.B.F.G.J.L.P.!.~.(.`.'.'.].@ ",
"+ @ + + + + + + @ + + + + @ @ @ ",
"[.[.[.[.[.[.[.[.[.[.[.[.[.[.[.[."
};
