/* XPM */
static char *seahorse_applet[] = {
/* columns rows colors chars-per-pixel */
"16 16 106 2",
"   c #714C16",
".  c #724D16",
"X  c #744E17",
"o  c #754F17",
"O  c #7D6400",
"+  c #7D6707",
"@  c #6E4E20",
"#  c #685333",
"$  c #5C5C5B",
"%  c #5C5C5C",
"&  c #5C5D5C",
"*  c #5D5D5D",
"=  c #5E5E5D",
"-  c #7C6B4F",
";  c #68645C",
":  c #646463",
">  c #646464",
",  c #666666",
"<  c #777975",
"1  c #7B7D79",
"2  c #816804",
"3  c #816805",
"4  c #856F18",
"5  c #867014",
"6  c #BB842D",
"7  c #B8883B",
"8  c #C08426",
"9  c #C38626",
"0  c #C68827",
"q  c #C3882C",
"w  c #C2882D",
"e  c #EFDC36",
"r  c #F0DD3A",
"t  c #F4E136",
"y  c #9E8F4D",
"u  c #9A8D51",
"i  c #988E5A",
"p  c #988E5B",
"a  c #B58940",
"s  c #A19043",
"d  c #A78954",
"f  c #9A9160",
"g  c #808075",
"h  c #858578",
"j  c #8A897F",
"k  c #F7E95F",
"l  c #FDEE60",
"z  c #838383",
"x  c #868685",
"c  c #858984",
"v  c #878A85",
"b  c #878B86",
"n  c #8D8B80",
"m  c #8F8C80",
"M  c #888A85",
"N  c #898B86",
"B  c #8A8E89",
"V  c #8C8E8A",
"C  c #8D8F8B",
"Z  c #8F9187",
"A  c #95978E",
"S  c #999A8D",
"D  c #9B9C8F",
"F  c #979A96",
"G  c #9D9E94",
"H  c #999D98",
"J  c #9E9E9A",
"K  c #9EA097",
"L  c #9FA29C",
"P  c #A0A18F",
"I  c #A5A492",
"U  c #A0A29C",
"Y  c #ADB0AC",
"T  c #F3E988",
"R  c #F3EA9B",
"E  c #E7E1A9",
"W  c #E8E2A9",
"Q  c #F6ECA0",
"!  c #F6EDA2",
"~  c #F5EDAB",
"^  c #F6EEAF",
"/  c #F8F0A7",
"(  c #FBF3AF",
")  c #FBF5B6",
"_  c #FEF8BD",
"`  c #CACAC3",
"'  c #CACBC8",
"]  c #D0D0C9",
"[  c #D5D5CF",
"{  c #DADAD5",
"}  c #DCDDDB",
"|  c #DFDFDA",
" . c #E9E9E9",
".. c #EBEBEA",
"X. c #EFEFEF",
"o. c #F1F1F0",
"O. c #F1F1F1",
"+. c #F2F2F2",
"@. c #F4F4F4",
"#. c #F8F8F8",
"$. c #F9F9F9",
"%. c #FAFAFA",
"&. c #FDFDFD",
"*. c #FEFEFE",
"=. c #FFFFFF",
"-. c None",
/* pixels */
"o         @ $ * $ #           o ",
"  0 0 0 - : g h h , ; 6 0 0 9   ",
"  0 m M x | { [ ' ` U 1 M j 0   ",
"  0 M =.z * * * = * :  .=.M 0   ",
"  0 M =. .M L C C U B  .=.M 0   ",
"  0 M =.y A G p p K A u =.M 0   ",
"  0 M =.5 I D W E D P 4 =.M 0   ",
"  0 M =.O R e t k k ^ 2 =.M 0   ",
"  0 M =.2 ! r t l k ~ 3 #.v 0   ",
"  0 M =.2 T / ( _ ) R 3 %.v 0   ",
"  0 M #.s O O O O O + f ' v 7   ",
"  0 M +.+.X.+.@.%.=.| F Y v w   ",
"  0 j M M M M M M M < H v j 0   ",
"  9 0 0 0 0 0 0 0 0 a d w 0 6   ",
"o                           . . ",
"-.-.-.-.-.-.-.-.-.-.-.-.-.-.-.-."
};
