/* XPM */
static char *skype[] = {
/* columns rows colors chars-per-pixel */
"16 16 146 2",
"   c #017FA9",
".  c #027FA9",
"X  c #0381AB",
"o  c #0381AC",
"O  c #0382AC",
"+  c #0382AD",
"@  c #0582AC",
"#  c #0583AC",
"$  c #0482AD",
"%  c #0483AE",
"&  c #0886AE",
"*  c #0D87B0",
"=  c #0C89B1",
"-  c #0F89B2",
";  c #0E8AB2",
":  c #118BB2",
">  c #128DB7",
",  c #1391BD",
"<  c #229CC7",
"1  c #27A0CA",
"2  c #2FA8D2",
"3  c #29A9D5",
"4  c #2BAAD6",
"5  c #2CA8D4",
"6  c #2DAAD7",
"7  c #31A9D2",
"8  c #32A8D2",
"9  c #38ABD3",
"0  c #37B1DC",
"q  c #3DB4DB",
"w  c #38B1DC",
"e  c #3FB4DC",
"r  c #3BB6E1",
"t  c #2ABEF5",
"y  c #2BBEF5",
"u  c #2DBFF5",
"i  c #46B4DA",
"p  c #42B5DD",
"a  c #40B5DE",
"s  c #44B5DD",
"d  c #49B5DB",
"f  c #4CB8DD",
"g  c #50B9DE",
"h  c #50BADF",
"j  c #43BAE5",
"k  c #44BDE9",
"l  c #55BFE4",
"z  c #2FC0F5",
"x  c #30C0F5",
"c  c #32C1F5",
"v  c #3BC3F6",
"b  c #3BC4F7",
"n  c #3CC4F6",
"m  c #3DC4F6",
"M  c #3CC5F7",
"N  c #3FC4F6",
"B  c #3FC5F7",
"V  c #4BC2EA",
"C  c #4EC0E8",
"Z  c #50C3EA",
"A  c #40C5F6",
"S  c #42C7F6",
"D  c #44C7F5",
"F  c #44C6F6",
"G  c #46C7F6",
"H  c #47C7F6",
"J  c #4EC5F0",
"K  c #48C7F6",
"L  c #45C8F7",
"P  c #46C8F7",
"I  c #48C8F7",
"U  c #48C9F7",
"Y  c #4AC9F7",
"T  c #4CC9F5",
"R  c #4DC9F7",
"E  c #4DCAF8",
"W  c #4FCBF8",
"Q  c #53CBF6",
"!  c #54CBF7",
"~  c #57CCF7",
"^  c #59CDF5",
"/  c #59CCF7",
"(  c #5ACDF7",
")  c #5DCEF4",
"_  c #5DCEF7",
"`  c #56CDF8",
"'  c #58CEF8",
"]  c #62C4E8",
"[  c #66C9ED",
"{  c #60CCF0",
"}  c #61CFF5",
"|  c #62CFF7",
" . c #61CFF8",
".. c #62D0F8",
"X. c #64D0F8",
"o. c #66D0F8",
"O. c #67D0F8",
"+. c #66D1F8",
"@. c #67D1F8",
"#. c #68D1F8",
"$. c #69D1F8",
"%. c #6AD2F8",
"&. c #6BD2F8",
"*. c #6CD2F8",
"=. c #6CD3F8",
"-. c #6FD3F9",
";. c #68D4F8",
":. c #70D3F8",
">. c #73D5F8",
",. c #74D5F8",
"<. c #75D5F9",
"1. c #76D5F8",
"2. c #77D6F8",
"3. c #76D6F9",
"4. c #78D5F8",
"5. c #7BD7F9",
"6. c #78D7FA",
"7. c #7DD6F8",
"8. c #7CD7F9",
"9. c #7ED7F9",
"0. c #90DDFA",
"q. c #92DEFA",
"w. c #95DFFA",
"e. c #9BE0FA",
"r. c #9DE1FA",
"t. c #A8E4FB",
"y. c #ABE6FB",
"u. c #BEEBFC",
"i. c #C3EDFC",
"p. c #D4F2FD",
"a. c #D5F2FD",
"s. c #D9F3FD",
"d. c #DBF4FD",
"f. c #DDF5FD",
"g. c #DFF5FE",
"h. c #E5F7FE",
"j. c #EDFAFE",
"k. c #EEFAFE",
"l. c #F0FAFE",
"z. c #F1FAFE",
"x. c #F3FBFE",
"c. c #F4FBFE",
"v. c #F7FCFF",
"b. c #FDFEFF",
"n. c #FFFFFF",
"m. c None",
/* pixels */
"m.m.m.$ $ O m.m.m.m.m.m.m.m.m.m.",
"m.$ : h ] f 9 8 2 1 * O m.m.m.m.",
"m.: 7.5.,.>.-.&.@.| _ 0 $ m.m.m.",
"$ f 7.,.-.-.@.&.&.( ~ ( k X m.m.",
"$ [ 5.-.-.q.h.b.b.a.4.R Q 6 $ m.",
"$ l ,.&.&.x.k.,.q.x.u.c A V $ m.",
"  i 5.@.| k.c.@.u v K t t G , m.",
"m.d ,...G 7.b.b.x.e.n t t n 3 m.",
"X s | z y y U e.s.b.h.z t n 6 m.",
"m.< U y y y.#.t t i.b.n t L 6 m.",
"m.$ ^ z y s.v.t.q.b.f.t t S r $ ",
"m.$ j L y G e.h.v.a.Q t t n V % ",
"m.m.= _ U z t t t t t t t ~ 0 % ",
"m.m.m.= Z ;.` U E Q L b ` | % m.",
"m.m.m.m.O > 8 a e e C { a & m.m.",
"m.m.m.m.m.m.m.m.m.m.$ $ $ m.m.m."
};
