/* XPM */
static char *touchpad[] = {
/* columns rows colors chars-per-pixel */
"16 16 119 2",
"   c #888A85",
".  c #898B86",
"X  c #8A8C87",
"o  c #8A8C88",
"O  c #8B8C88",
"+  c #8B8D88",
"@  c #8B8D89",
"#  c #8C8D88",
"$  c #8C8D89",
"%  c #8C8E89",
"&  c #8D8F8A",
"*  c #8F908B",
"=  c #8F908C",
"-  c #8F918C",
";  c #90928D",
":  c #959792",
">  c #959793",
",  c #999B96",
"<  c #9C9E9A",
"1  c #A2A39F",
"2  c #A1A3A0",
"3  c #A9AAA7",
"4  c #AFB1AE",
"5  c #B5B7B3",
"6  c #B9BAB7",
"7  c #BABBB8",
"8  c #BDBFBD",
"9  c #C4C5C3",
"0  c #C7C8C6",
"q  c #C9CAC8",
"w  c #CBCCCA",
"e  c #CCCDCB",
"r  c #CDCECC",
"t  c #CECFCD",
"y  c #CFCFCD",
"u  c #CECFCE",
"i  c #CFD0CE",
"p  c #CFD0CF",
"a  c #D0D0CF",
"s  c #D0D1CF",
"d  c #D1D1CF",
"f  c #D0D1D0",
"g  c #D1D2D0",
"h  c #D2D3D1",
"j  c #D3D4D2",
"k  c #D3D4D3",
"l  c #D4D4D2",
"z  c #D4D5D3",
"x  c #D5D5D3",
"c  c #D5D6D4",
"v  c #D6D6D4",
"b  c #D7D7D5",
"n  c #D7D8D7",
"m  c #D8D8D6",
"M  c #D8D8D7",
"N  c #D9DAD8",
"B  c #DBDBDA",
"V  c #DBDCDA",
"C  c #DBDCDB",
"Z  c #DDDDDA",
"A  c #DDDDDB",
"S  c #DCDDDC",
"D  c #DDDDDC",
"F  c #DDDEDC",
"G  c #DEDFDD",
"H  c #DEDFDE",
"J  c #DFE0DE",
"K  c #E0E0DE",
"L  c #E0E0DF",
"P  c #E1E1E0",
"I  c #E2E2E0",
"U  c #E2E2E1",
"Y  c #E2E3E1",
"T  c #E3E3E2",
"R  c #E3E4E1",
"E  c #E3E4E2",
"W  c #E4E4E2",
"Q  c #E4E4E3",
"!  c #E4E5E3",
"~  c #E5E5E3",
"^  c #E6E6E4",
"/  c #E6E6E5",
"(  c #E7E7E5",
")  c #E7E7E6",
"_  c #E8E8E6",
"`  c #E9E9E7",
"'  c #E9E9E8",
"]  c #EAEAE9",
"[  c #EAEBE9",
"{  c #EAEAEA",
"}  c #EBEBEA",
"|  c #ECECEA",
" . c #ECECEB",
".. c #ECEDEC",
"X. c #EDEEED",
"o. c #EEEEED",
"O. c #EFEFED",
"+. c #EFEFEE",
"@. c #F0F0EF",
"#. c #F0F1F0",
"$. c #F1F1F0",
"%. c #F1F2F1",
"&. c #F2F2F0",
"*. c #F3F3F1",
"=. c #F3F3F2",
"-. c #F3F3F3",
";. c #F4F4F3",
":. c #F5F5F3",
">. c #F4F5F4",
",. c #F5F5F4",
"<. c #F6F6F4",
"1. c #F6F6F5",
"2. c #F7F7F5",
"3. c #F7F7F6",
"4. c #F8F8F7",
"5. c #FAFAF9",
"6. c #FAFAFA",
"7. c #FBFBFA",
"8. c None",
/* pixels */
"8.8.8.& X X   X     X     & O 8.",
"8.8.O v 7.7.5.,.,.%.@...] N O 8.",
"8.8.- | ,.,.=.@...( U H n U - 8.",
"8.8.& %.,.;.%...] ~ L N j H , 8.",
"8.8.X ,.%.@.+.} ( T V x r n 2 8.",
"8.8.> ,.....} ( ~ V x f e j 3 8.",
"8.8.3 %.} ` ( T V m f d r r 4 8.",
"8.8.6 | ( ~ U H m x f e w w 5 X ",
"8.8.9 ( L L V n x x y e 9 q 6 % ",
"8.& < 1 < : X X   X % % & * X * ",
"8.- ~ ;.,.;.;.;.  ;.;.@.@.O.m ; ",
"8.* ~ ` ~ ~ E }   | ` ~ ~ ( V * ",
"8.O V v j f f N   U x j x x x X ",
"8.O 8 i i i f d   p i r i w 7 X ",
"8.O & X X     X   X X     X O O ",
"8.8.8.8.8.8.8.8.8.8.8.8.8.8.8.8."
};
