/* XPM */
static char *user_info[] = {
/* columns rows colors chars-per-pixel */
"16 16 139 2",
"   c #204B88",
".  c #214B88",
"X  c #214B89",
"o  c #214C89",
"O  c #224C88",
"+  c #224C89",
"@  c #244D89",
"#  c #254F8A",
"$  c #264F8A",
"%  c #264F8B",
"&  c #27508A",
"*  c #295088",
"=  c #28508A",
"-  c #2A528C",
";  c #2A528D",
":  c #2C558E",
">  c #2D558E",
",  c #2E5B99",
"<  c #2D5C9A",
"1  c #2D5C9B",
"2  c #2E5D9B",
"3  c #2F5E9D",
"4  c #2F5F9E",
"5  c #305790",
"6  c #325991",
"7  c #305A95",
"8  c #355E97",
"9  c #32609D",
"0  c #30609F",
"q  c #33619F",
"w  c #34629F",
"e  c #38619A",
"r  c #39639C",
"t  c #38639E",
"y  c #3A649D",
"u  c #39659F",
"i  c #3B659E",
"p  c #3D659D",
"a  c #3C669E",
"s  c #3161A0",
"d  c #3262A1",
"f  c #3263A2",
"g  c #3363A2",
"h  c #3464A2",
"j  c #3665A3",
"k  c #3465A4",
"l  c #3767A5",
"z  c #3B67A1",
"x  c #3E69A3",
"c  c #3968A6",
"v  c #44618A",
"b  c #4069A1",
"n  c #446FA8",
"m  c #4970A5",
"M  c #4A72A7",
"N  c #4471AA",
"B  c #4E74A8",
"V  c #4F76AB",
"C  c #4C77AE",
"Z  c #5D7BA4",
"A  c #5E7CA6",
"S  c #5075A8",
"D  c #5176A9",
"F  c #527AAE",
"G  c #527AAF",
"H  c #4E79B0",
"J  c #507AB1",
"K  c #517BB1",
"L  c #577DB0",
"P  c #567EB1",
"I  c #5B82B3",
"U  c #5F84B4",
"Y  c #6684AD",
"T  c #6186B5",
"R  c #6486B4",
"E  c #668AB9",
"W  c #688CBB",
"Q  c #799AC3",
"!  c #82898D",
"~  c #898D8A",
"^  c #8C8E89",
"/  c #8D8F8A",
"(  c #8E908B",
")  c #91938E",
"_  c #92948F",
"`  c #9B9D98",
"'  c #A6A7A4",
"]  c #AEB0AC",
"[  c #AFB0AD",
"{  c #B0B2AE",
"}  c #BABCB7",
"|  c #BABBB8",
" . c #BBBCB9",
".. c #BEBFBC",
"X. c #85A0C4",
"o. c #84A2C8",
"O. c #90AACB",
"+. c #A3B2C6",
"@. c #B2C0D5",
"#. c #B9C8DD",
"$. c #BCCCE1",
"%. c #C2C9CE",
"&. c #C9CFD5",
"*. c #D6D8D7",
"=. c #D2D7DE",
"-. c #DCDDDA",
";. c #DDDEDA",
":. c #E0E2DE",
">. c #CDD8E7",
",. c #E3E4E1",
"<. c #E5E7E4",
"1. c #E7E9E6",
"2. c #E8E9E6",
"3. c #E9EAE7",
"4. c #EBECEA",
"5. c #ECEDEB",
"6. c #EDEEED",
"7. c #EEEEED",
"8. c #EEEFED",
"9. c #EEEFEE",
"0. c #EFEFEE",
"q. c #EFF0EE",
"w. c #F0F1EF",
"e. c #F2F3F2",
"r. c #F3F3F2",
"t. c #F3F4F3",
"y. c #F5F4F3",
"u. c #F5F6F5",
"i. c #F6F7F6",
"p. c #F8F8F7",
"a. c #F2F5F9",
"s. c #F5F8FA",
"d. c #F9F9F9",
"f. c #F9FAF9",
"g. c #FBFBFB",
"h. c #FBFCFB",
"j. c #F8FAFC",
"k. c #FEFEFE",
"l. c None",
/* pixels */
"l.l.l.l.' / / ' l.l.l.l.l.l.l.l.",
"l.l...[ r.k.k.r.{ ..l.l.l.l.l.l.",
"l.l.[ k.p.f.g.f.k.[ l.l.l.l.l.l.",
"l.' r.t.r.f.h.u.u.r.' l.l.l.l.l.",
"l./ k.4.w.y.u.t.7.k.~ l.l.l.l.l.",
"l./ k.2.4.7.7.=.A 6 = X o l.l.l.",
"l.' r.7.1.1.+.: S E W E S # l.l.",
"l. .[ k.4.&.: T K c Q o.J U # l.",
"l._ } { y.Y B H k k a.$.h C m o ",
"[ 7.:. .` = I k g g N h d k L o ",
"_ k.-.-.*.& P d d J s.n 0 0 F # ",
"_ k.3.2.2.5 S g 4 O.f.g 3 9 m . ",
"( k.,.,.,.Z p b 2 #.>.2 2 z e X ",
"~ k.-.-.-.%.= b u X.R , t p o l.",
"_ w.k.k.k.k.@.= 8 t p t 7 X l.l.",
"{ ) ) _ ) _ _ ! v * O = X l.l.l."
};
