/* XPM */
static char *vinagre[] = {
/* columns rows colors chars-per-pixel */
"16 16 169 2",
"   c #10223D",
".  c #102647",
"X  c #153055",
"o  c #1B3B66",
"O  c #1B3F74",
"+  c #274D78",
"@  c #2B5176",
"#  c #547C5F",
"$  c #425A76",
"%  c #636561",
"&  c #646662",
"*  c #656762",
"=  c #656763",
"-  c #666863",
";  c #666864",
":  c #686A65",
">  c #686966",
",  c #6A6C67",
"<  c #6A6D68",
"1  c #6B6D69",
"2  c #6C6F6A",
"3  c #6D6F6A",
"4  c #6D6F6B",
"5  c #6F716C",
"6  c #70726D",
"7  c #72746F",
"8  c #6A767E",
"9  c #6F747C",
"0  c #727470",
"q  c #727570",
"w  c #747772",
"e  c #737674",
"r  c #777974",
"t  c #797B76",
"y  c #797C77",
"u  c #7A7C77",
"i  c #73767C",
"p  c #777B78",
"a  c #7B7B7B",
"s  c #7A7D78",
"d  c #7B7D78",
"f  c #7B7E79",
"g  c #7D7F7A",
"h  c #78A65E",
"j  c #7F817C",
"k  c #66947D",
"l  c #6D987F",
"z  c #6D9F7E",
"x  c #749D7D",
"c  c #73A67F",
"v  c #92BA32",
"b  c #93BC31",
"n  c #88B757",
"m  c #87B658",
"M  c #80827D",
"N  c #81AC60",
"B  c #91C254",
"V  c #95C755",
"C  c #1E4986",
"Z  c #1F4986",
"A  c #204A87",
"S  c #204A88",
"D  c #204B88",
"F  c #204B89",
"G  c #214B89",
"H  c #214C89",
"J  c #254E89",
"K  c #2B558F",
"L  c #335584",
"P  c #355584",
"I  c #345688",
"U  c #2B5590",
"Y  c #2D5691",
"T  c #2D5692",
"R  c #44699D",
"E  c #446A9F",
"W  c #757B82",
"Q  c #657790",
"!  c #4671AD",
"~  c #4A70A8",
"^  c #4B72AA",
"/  c #477BB0",
"(  c #4175B9",
")  c #4276B9",
"_  c #4377BB",
"`  c #4379BC",
"'  c #477BBC",
"]  c #587FB0",
"[  c #607FAC",
"{  c #5B919E",
"}  c #6A9B87",
"|  c #74869F",
" . c #75A088",
".. c #7BA38E",
"X. c #5082AA",
"o. c #5481B1",
"O. c #6787B3",
"+. c #6186B6",
"@. c #6E8CB4",
"#. c #658AB9",
"$. c #638CBD",
"%. c #688DBB",
"&. c #718EB6",
"*. c #6D91BD",
"=. c #7AA0AF",
"-. c #5E8EC5",
";. c #6794C5",
":. c #6893C3",
">. c #6D91C5",
",. c #6F93C6",
"<. c #6E98C9",
"1. c #6F9BCC",
"2. c #898989",
"3. c #8D8F8A",
"4. c #8D8D8D",
"5. c #8E8E8E",
"6. c #8F8F8F",
"7. c #919191",
"8. c #949494",
"9. c #969696",
"0. c #9B9C9A",
"q. c #82A8B5",
"w. c #84AABA",
"e. c #A5A5A5",
"r. c #B3B5B0",
"t. c #BEBEBE",
"y. c #BFC1BC",
"u. c #81A2D0",
"i. c #81A2D1",
"p. c #80A3D4",
"a. c #81A4D6",
"s. c #84A7D6",
"d. c #9BB8E0",
"f. c #9CB9E3",
"g. c #A5BFE2",
"h. c #A3BEE4",
"j. c #A5BFE6",
"k. c #B7CDED",
"l. c #C4C5C1",
"z. c #C6C7C3",
"x. c #C4C4C4",
"c. c #C5C5C5",
"v. c #C8CBC5",
"b. c #CACCC7",
"n. c #C8C8C8",
"m. c #CCCEC9",
"M. c #CED0CB",
"N. c #D0D2CD",
"B. c #D2D4CF",
"V. c #D3D3D3",
"C. c #D8D9D5",
"Z. c #DBDCD8",
"A. c #DCDDDA",
"S. c #DDDEDA",
"D. c #DEDEDB",
"F. c #DEDFDB",
"G. c #DEDFDC",
"H. c #DFE0DC",
"J. c #E1E2DF",
"K. c #E1E1E1",
"L. c #E2E3E0",
"P. c #E3E4E1",
"I. c #E4E4E1",
"U. c #E5E5E3",
"Y. c #E9EAE7",
"T. c #EAEBE8",
"R. c #EDEDED",
"E. c #F6F6F6",
"W. c None",
/* pixels */
"W.W.W.W.W.W.W.D H A D D W.W.W.W.",
"W.W.W.W.W.D T i.h.k.h.i.T D W.W.",
"W.W.W.W.D ^ j.q.x V -.w.g.~ A W.",
"W.W.W.W.U f. .} X.' { n N f.K W.",
"W.W.W.D ,.=.v z ` `  .m b ..>.A ",
"W.W.W.A a.l k ) ) / B h # + i.A ",
"W.j f f f u u t t p $ o X O s.C ",
"g y.C.F.L.Y.T.U.H.l.e .   Q | Z ",
"t N.A A A A A A C Z.q J W E.2.P ",
"w m.A R [ R @.&.C H.7 @ 8 x.x.i ",
"7 m.A ] +.#.*.%.C H.5 X.O.7.R.a ",
"5 b.C $.:.1.1.;.A H.: ! I 6.L.a ",
"2 b.A A A A A A A J.> L 9 e.n.a ",
"2 r.m.N.C.F.J.U.J.x.1 4.9.V.6.W.",
"W., & - & & & & % 1 0.t.t.8.a W.",
"W.W.& w M 3.M q > f a a a a W.W."
};
