/* XPM */
static char *vnd_fdf[] = {
/* columns rows colors chars-per-pixel */
"16 16 82 1",
"  c #000000",
". c #620000",
"X c #650000",
"o c #680000",
"O c #6A0000",
"+ c #6D0000",
"@ c #6F0000",
"# c #710000",
"$ c #720000",
"% c #5A5A5A",
"& c #5B5B5B",
"* c #5C5C5C",
"= c #5E5E5E",
"- c #5F5F5F",
"; c #606060",
": c #636363",
"> c #717171",
", c #747474",
"< c #777777",
"1 c #7A7A7A",
"2 c #7B7B7B",
"3 c #7D7D7D",
"4 c #7E7E7E",
"5 c #7F7F7F",
"6 c #860000",
"7 c #8B0000",
"8 c #A00000",
"9 c #A90000",
"0 c #B20000",
"q c #B30000",
"w c #BB0000",
"e c #C20000",
"r c #C30000",
"t c #C80000",
"y c #CB0000",
"u c #D30000",
"i c #D00202",
"p c #D10303",
"a c #D60707",
"s c #D80000",
"d c #DB0000",
"f c #DF0000",
"g c #DA0A0A",
"h c #DB0A0A",
"j c #DC0C0C",
"k c #E00000",
"l c #E41111",
"z c #ED1818",
"x c #F51F1F",
"c c #FA2222",
"v c #FD2626",
"b c #888888",
"n c #8A8A8A",
"m c #909090",
"M c #939393",
"N c #949494",
"B c #979797",
"V c #A0A0A0",
"C c #A2A2A2",
"Z c #A5A5A5",
"A c #C0C0C0",
"S c #D2D2D2",
"D c #DFDFDF",
"F c #E6E6E6",
"G c #ECECEC",
"H c #EFEFEF",
"J c #F0F0F0",
"K c #F2F2F2",
"L c #F3F3F3",
"P c #F4F4F4",
"I c #F5F5F5",
"U c #F6F6F6",
"Y c #F7F7F7",
"T c #F8F8F8",
"R c #F9F9F9",
"E c #FAFAFA",
"W c #FBFBFB",
"Q c #FCFCFC",
"! c #FDFDFD",
"~ c #FEFEFE",
"^ c #FFFFFF",
"/ c None",
/* pixels */
"////////////////",
"////WPPJGFADB///",
"dfkdutew09ZWFn//",
"ucvxzljpr8bWRFb/",
"0gjjgaptw7BbbNC/",
"6##@@OOXXX2<>;M/",
"////T2PPPPJPG<S/",
"////R2P P--&P2P/",
"////R4PRTTPTP2T/",
"////Q4R T&-&T4R/",
"////Q4QRRTTTT4R/",
"////Q4Q Q--&P4R/",
"////Q4QRQQQRQ4Q/",
"////Rbb2b44b55Q/",
"////QQQQRQQQQQQ/",
"////           /"
};
