/* XPM */
static char *vnd_adobe_pdx[] = {
/* columns rows colors chars-per-pixel */
"16 16 84 1",
"  c #5A0000",
". c #5D0000",
"X c #600000",
"o c #640000",
"O c #690000",
"+ c #6C0000",
"@ c #780000",
"# c #7D7D7D",
"$ c #800000",
"% c #890000",
"& c #960000",
"* c #9C0000",
"= c #A20000",
"- c #A60000",
"; c #A80000",
": c #AF0000",
"> c #B50000",
", c #BB0000",
"< c #BD0000",
"1 c #C10000",
"2 c #C60000",
"3 c #C90101",
"4 c #CD0202",
"5 c #D30000",
"6 c #D30303",
"7 c #D40404",
"8 c #DC0000",
"9 c #DF0000",
"0 c #DA0808",
"q c #DF0C0C",
"w c #D7071C",
"e c #E00000",
"r c #E00E0E",
"t c #F50000",
"y c #E41111",
"u c #E91515",
"i c #EE1919",
"p c #F31D1D",
"a c #DE1121",
"s c #F72121",
"d c #FA2222",
"f c #FD2626",
"g c #818181",
"h c #848484",
"j c #878787",
"k c #888888",
"l c #8A8A8A",
"z c #8C8C8C",
"x c #8D8D8D",
"c c #929292",
"v c #949494",
"b c #989898",
"n c #999999",
"m c #9C9C9C",
"M c #9E9E9E",
"N c #A0A0A0",
"B c #A3A3A3",
"V c #A6A6A6",
"C c #AAAAAA",
"Z c #ACACAC",
"A c #AEAEAF",
"S c #B0B0B0",
"D c #B7B7B7",
"F c #BABABA",
"G c #BEBEBE",
"H c #EEA5A7",
"J c #FAAFB1",
"K c #C4C4C4",
"L c #C8C8C8",
"P c #DEDEDE",
"I c #E3E3E3",
"U c #E5E5E5",
"Y c #E8E8E8",
"T c #EAEAEA",
"R c #EBEBEB",
"E c #ECECEC",
"W c #EFEFEF",
"Q c #F0F0F0",
"! c #F1F1F1",
"~ c #F4F4F4",
"^ c #F7F7F7",
"/ c #FAFAFA",
"( c #FCFCFC",
") c #FDFDFD",
/* pixels */
"DGKLLLKGDSCNMvxl",
"D~~~/~^~~~!WQTTl",
"D~///VjkkllQWETl",
"A///(A(/~(j!WETz",
"A~/((S(MM/j!WETz",
"V//(/A/Q!/j!WTTz",
"N~///AIx#gjWWTTl",
"n~~~~CUxUJwttTYk",
"c!!!!Mhj(HattTYj",
"l!!!!MMMNvgnFUIg",
"jWWWWWWTTTTTUIP#",
"68eee66431,>>-=*",
"6dffspiuyq0742<&",
"1uuuuuyyrr7632<%",
"-3364643321<>>-@",
"$++O++OOooX.    "
};
