/* XPM */
static char *vnd_adobe_xfdf[] = {
/* columns rows colors chars-per-pixel */
"16 16 105 2",
"   c #000000",
".  c #620000",
"X  c #650000",
"o  c #680000",
"O  c #6A0000",
"+  c #6D0000",
"@  c #6F0000",
"#  c #710000",
"$  c #720000",
"%  c #860000",
"&  c #8B0000",
"*  c #A00000",
"=  c #A90000",
"-  c #B20000",
";  c #B30000",
":  c #BB0000",
">  c #C20000",
",  c #C30000",
"<  c #C80000",
"1  c #CB0000",
"2  c #D30000",
"3  c #D00202",
"4  c #D10303",
"5  c #D60707",
"6  c #D80000",
"7  c #DB0000",
"8  c #DF0000",
"9  c #DA0A0A",
"0  c #DB0A0A",
"q  c #DC0C0C",
"w  c #E00000",
"e  c #E41111",
"r  c #ED1818",
"t  c #F51F1F",
"y  c #FA2222",
"u  c #FD2626",
"i  c #888888",
"p  c #8A8A8A",
"a  c #909090",
"s  c #939393",
"d  c #949494",
"f  c #959595",
"g  c #979797",
"h  c #989898",
"j  c #9B9B9B",
"k  c #9C9C9C",
"l  c #9E9E9E",
"z  c #9F9F9F",
"x  c #A0A0A0",
"c  c #A1A1A1",
"v  c #A2A2A2",
"b  c #A3A3A3",
"n  c #A5A5A5",
"m  c #A6A6A6",
"M  c #A8A8A8",
"N  c #A9A9A9",
"B  c #AAAAAA",
"V  c #ADADAD",
"C  c #AFAFAF",
"Z  c #B5B5B5",
"A  c #C0C0C0",
"S  c #C1C1C1",
"D  c #C4C4C4",
"F  c #C5C5C5",
"G  c #C7C7C7",
"H  c #CACACA",
"J  c #CFCFCF",
"K  c #D2D2D2",
"L  c #D3D3D3",
"P  c #D8D8D8",
"I  c #DADADA",
"U  c #DBDBDB",
"Y  c #DEDEDE",
"T  c #DFDFDF",
"R  c #E0E0E0",
"E  c #E1E1E1",
"W  c #E3E3E3",
"Q  c #E4E4E4",
"!  c #E5E5E5",
"~  c #E6E6E6",
"^  c #E7E7E7",
"/  c #E8E8E8",
"(  c #E9E9E9",
")  c #EAEAEA",
"_  c #EBEBEB",
"`  c #ECECEC",
"'  c #EEEEEE",
"]  c #EFEFEF",
"[  c #F0F0F0",
"{  c #F1F1F1",
"}  c #F2F2F2",
"|  c #F3F3F3",
" . c #F4F4F4",
".. c #F5F5F5",
"X. c #F6F6F6",
"o. c #F7F7F7",
"O. c #F8F8F8",
"+. c #F9F9F9",
"@. c #FAFAFA",
"#. c #FBFBFB",
"$. c #FCFCFC",
"%. c #FDFDFD",
"&. c #FEFEFE",
"*. c #FFFFFF",
"=. c None",
/* pixels */
"=.=.=.=.=.=.=.=.=.=.=.=.=.=.=.=.",
"=.=.=.=.#.....[ ` ~ A T g =.=.=.",
"7 8 w 7 2 < > : - = n #.R a =.=.",
"2 y u t r e 9 4 > * i #.#.R i =.",
"- 9 q q 9 5 2 < : & v i i d v =.",
"% # # @ @ O X X . X ` ( W G s =.",
"=.=.=.=.O...I ~ ..N A R | ` L =.",
"=.=.=.=.+.L h L ~ d V z Y | ..=.",
"=.=.=.=.I z v | H z _ n z ~ +.=.",
"=.=.=.=.v z +.+.Z z o...v n +.=.",
"=.=.=.=.v n &.+.N N o.| v v +.=.",
"=.=.=.=.( z V ..z A | n d ( +.=.",
"=.=.=.=.&.Y j D j ( J d R &.&.=.",
"=.=.=.=.&.&.~ I V +.| ~ &.&.&.=.",
"=.=.=.=.&.&.&.&.&.&.&.&.&.&.&.=.",
"=.=.=.=.                      =."
};
