/* XPM */
static char *wine_winefile[] = {
/* columns rows colors chars-per-pixel */
"16 16 150 2",
"   c #6B0404",
".  c #6F0A0A",
"X  c #730E0D",
"o  c #750D0D",
"O  c #761817",
"+  c #5E4B48",
"@  c #555752",
"#  c #555753",
"$  c #646763",
"%  c #686A65",
"&  c #737470",
"*  c #737571",
"=  c #757877",
"-  c #797B76",
";  c #7C7D7D",
":  c #890D0C",
">  c #940908",
",  c #861716",
"<  c #8A1716",
"1  c #961F1E",
"2  c #A40101",
"3  c #A40303",
"4  c #A40C0C",
"5  c #B60D0E",
"6  c #A31515",
"7  c #A51414",
"8  c #BB1818",
"9  c #8D3A3A",
"0  c #AD3A3A",
"q  c #AA3F3E",
"w  c #D33333",
"e  c #B64545",
"r  c #B74747",
"t  c #C24A4A",
"y  c #D94242",
"u  c #D44949",
"i  c #C15656",
"p  c #C15B5B",
"a  c #C65C5C",
"s  c #C45F5F",
"d  c #C76666",
"f  c #CE6666",
"g  c #C86969",
"h  c #CD7676",
"j  c #E26E6E",
"k  c #7E807B",
"l  c #81847F",
"z  c #848584",
"x  c #868883",
"c  c #878985",
"v  c #888A85",
"b  c #888A86",
"n  c #888B86",
"m  c #898B86",
"M  c #8A8C87",
"N  c #8B8D88",
"B  c #8C8E89",
"V  c #8D8F8A",
"C  c #8F918D",
"Z  c #909190",
"A  c #949691",
"S  c #949492",
"D  c #979894",
"F  c #979995",
"G  c #989B95",
"H  c #9B9B9B",
"J  c #9C9E99",
"K  c #A2A59F",
"L  c #A4A6A0",
"P  c #A5A6A2",
"I  c #A6A6A3",
"U  c #A9ABA5",
"Y  c #A8A9A6",
"T  c #AFB2AB",
"R  c #AFB0AE",
"E  c #B5B8B2",
"W  c #B9BCB5",
"Q  c #BABCB5",
"!  c #BABDB6",
"~  c #BBBEB7",
"^  c #BCBDBB",
"/  c #D88887",
"(  c #E89F9F",
")  c #E7A2A2",
"_  c #EAB2B1",
"`  c #ECB1B1",
"'  c #C1C1BF",
"]  c #C2C3C2",
"[  c #C3C3C3",
"{  c #C6C6C6",
"}  c #C7C7C7",
"|  c #C8C8C7",
" . c #C8C8C8",
".. c #C9C9C8",
"X. c #C9C9C9",
"o. c #CACACA",
"O. c #CDCCCB",
"+. c #CCCCCC",
"@. c #CDCDCD",
"#. c #CFCFCF",
"$. c #DACDCD",
"%. c #D0D0D0",
"&. c #D1D2D1",
"*. c #D2D2D2",
"=. c #D3D3D3",
"-. c #D4D4D3",
";. c #D5D5D5",
":. c #D6D7D5",
">. c #D6D6D6",
",. c #DBD0D0",
"<. c #D8D8D8",
"1. c #D8D9D8",
"2. c #DADADA",
"3. c #DBDBDB",
"4. c #DCDCDC",
"5. c #DDDDDC",
"6. c #DEDEDE",
"7. c #DFDFDF",
"8. c #F1C8C8",
"9. c #F3D2D2",
"0. c #E0E0E0",
"q. c #E1E2E1",
"w. c #E2E2E2",
"e. c #E3E3E3",
"r. c #E4E4E4",
"t. c #E5E5E5",
"y. c #E5E6E5",
"u. c #E6E6E6",
"i. c #E7E7E7",
"p. c #E8E8E8",
"a. c #EAEAEA",
"s. c #EAEBEA",
"d. c #EFEDED",
"f. c #EEEEEE",
"g. c #F2E8E8",
"h. c #F1F1F1",
"j. c #F1F3F1",
"k. c #F3F3F3",
"l. c #F4F4F4",
"z. c #F5F5F5",
"x. c #F6F6F6",
"c. c #F7F7F7",
"v. c #F8F8F8",
"b. c #F9F9F9",
"n. c #FBFBFB",
"m. c #FCFCFC",
"M. c #FDFDFD",
"N. c #FEFEFE",
"B. c #FFFFFF",
"V. c None",
/* pixels */
"V.V.V.V.V.V.V.V.V.V.V.V.V.V.V.V.",
"V.V.~ ~ ~ ~ ~ ~ ~ E T U L J V.V.",
"V.~ h.M.v.v.v.x.x.x.h.r.:.^ n V.",
"V.~ M.V.0.p.f.i.p.3.%.[ { %.k V.",
"V.~ M.0.0.0.-.:.4.3.%.3.{ %.* V.",
"V.W M.4.@.o.r.e.7.<.%.R { :.% V.",
"V.T M.@.' 4.p.c.4.Y D N n D - V.",
"V.L M.Y :.3.%.3.n n n n n n c c ",
"V.G M.L %.:.@.o.M g.k.x.r.p.[ N ",
"V.V M.{ s.r.<.:.A h.f.g.$.,.O.Z ",
"V.z M.o.@.r.x.v.4 h g d s i r 6 ",
"V.- v.H  .o.o.%.3 9.8._ ) ( / 2 ",
"V.* r.M.n.M.M.v.7 _ j y w u a > ",
"V.$ A %.Z z ; = 9 p f 5 8 t 1 < ",
"V.V.# # # # # # + : q e 0 , o V.",
"V.V.V.V.V.V.V.V.V.V.X .   O V.V."
};
