/* XPM */
static char * right_xpm[] = {
"6 18 41 1",
" 	c None",
".	c #DBDBDB",
"+	c #6794BC",
"@	c #8FACC7",
"#	c #C8CFD6",
"$	c #D9DADA",
"%	c #DADADA",
"&	c #5C8CB8",
"*	c #5588B7",
"=	c #6390BA",
"-	c #AEBFCE",
";	c #D9D9DA",
">	c #5E8EBA",
",	c #598AB7",
"'	c #6491BA",
")	c #BBC7D2",
"!	c #5D8DB9",
"~	c #789DC0",
"{	c #D6D8D9",
"]	c #5689B7",
"^	c #BCC7D2",
"/	c #588BB8",
"(	c #90ACC7",
"_	c #5B8CB9",
":	c #729BBF",
"<	c #5C8DB9",
"[	c #6291BB",
"}	c #5F8FBA",
"|	c #5C8CB9",
"1	c #6B96BC",
"2	c #5A8BB8",
"3	c #83A4C4",
"4	c #ABBDCE",
"5	c #6592BC",
"6	c #D1D4D8",
"7	c #588AB8",
"8	c #A4B9CC",
"9	c #8EACC6",
"0	c #D4D6D8",
"a	c #6391BA",
"b	c #A1B7CB",
"......",
"+@#$.%",
"&*=-;.",
">>,')%",
">>!,~{",
">>>!]^",
">>>>/(",
">>>>_:",
">>>><[",
">>>>!}",
">>>>|1",
">>>>23",
">>>>*4",
">>>_56",
">><78%",
">|]90%",
"!ab{%%",
"......"};
