/* XPM */
static char *AdobeReader_[] = {
/* columns rows colors chars-per-pixel */
"16 16 33 1",
"  c #22FA22FA22FA",
". c #2AE62AE62AE6",
"X c #312931293129",
"o c #368D368D368D",
"O c #3B2C3B2C3B2C",
"+ c #408040804080",
"@ c #455445544554",
"# c #4A224A224A22",
"$ c #516151615161",
"% c #587958795879",
"& c #5B4E5B4E5B4E",
"* c #644B644B644B",
"= c #658D658D658D",
"- c #6BED6BED6BED",
"; c #71B571B571B5",
": c #74C974C974C9",
"> c #7C087C087C08",
", c #83E083E083E0",
"< c #8ABE8ABE8ABE",
"1 c #965096509650",
"2 c #99AB99AB99AB",
"3 c #A273A273A273",
"4 c #ADC6ADC6ADC6",
"5 c #AF29AF29AF29",
"6 c #B6AFB6AFB6AF",
"7 c #B8EAB8EAB8EA",
"8 c #C41FC41FC41F",
"9 c #CD30CD30CD30",
"0 c #D0A6D0A6D0A6",
"q c #D6C8D6C8D6C8",
"w c #DB3FDB3FDB3F",
"e c #E387E387E387",
"r c None",
/* pixels */
"r;;;;--==*&&%$$r",
"=;:;;--=**&&%$$@",
"=;;;;-;3;*%&$$$@",
"*---==>9-&%$$$#+",
"&*===*-q;&&$$##+",
"$*&*&&&w,$####@+",
"$&&%%$&e4#$#@@+O",
"#$$$$$<36>@#@++O",
"###$$&7-<w061&Oo",
"+#@@@<4;=&;32=O.",
"O++%26#OOOooOOOX",
"OOO38*ooooooooX.",
"Xoo%$XoXXXXXXXX.",
".XX..X....XXX...",
"    .      .... ",
"rrrrrrrrrrrrrrrr"
};
