/* XPM */
static char *arts[] = {
/* columns rows colors chars-per-pixel */
"16 16 11 1",
"  c #55BA55BA55BA",
". c #910891089108",
"X c #93AE93AE93AE",
"o c #99B999B999B9",
"O c #A33EA33EA33E",
"+ c #AFFDAFFDAFFD",
"@ c #C1B8C1B8C1B8",
"# c #C5F0C5F0C5F0",
"$ c #FEE5FEE5FEE5",
"% c #FFFFFFFFFFFF",
"& c None",
/* pixels */
"&&&&&&&&&&&&&&&&",
"&&&&&&+Xo&  &&&&",
"&&&&OXXXo&  &&&&",
"&&XX&&&&&&&&&&&&",
"&+&&&&&&&@@&&&&&",
"&&&&&&@@%%@&&&&&",
"&&&&@%%%%%%%@&&&",
"&&&&@%%%%%%%@&&&",
"&&&&#%%%%%%%#&&&",
"&&&&#%%%%%%%#&&&",
"&&&&#%%%%%%%#&&&",
"&&&&#%%%%%%%#&&&",
"&&&&&#%%%%%#&&&&",
"&&&&&&#####&&&&&",
"&&&&&&&&&&&&&&&&",
"&&&&&&&&&&&&&&&&"
};
