/* XPM */
static char *blender[] = {
/* columns rows colors chars-per-pixel */
"16 16 20 1",
"  c #837483748374",
". c #9D929D929D92",
"X c #A049A049A049",
"o c #A6A1A6A1A6A1",
"O c #ABB8ABB8ABB8",
"+ c #AF5EAF5EAF5E",
"@ c #B3D6B3D6B3D6",
"# c #B93AB93AB93A",
"$ c #BDD5BDD5BDD5",
"% c #CBD5CBD5CBD5",
"& c #D0F9D0F9D0F9",
"* c #D6F7D6F7D6F7",
"= c #DE00DE00DE00",
"- c #E272E272E272",
"; c #E660E660E660",
": c #EEE6EEE6EEE6",
"> c #F4E0F4E0F4E0",
", c #F7A7F7A7F7A7",
"< c #FFFFFFFFFFFF",
"1 c None",
/* pixels */
"11111111@+111111",
"11111111+,$11111",
"11111111+-<#1111",
"111OOOO+Oo<<+111",
"11+<<<<<<<<<<o11",
"11##+-<<<<<<<:o1",
"1111O<<<< .<<;%o",
"111O<<<<X  .<,=X",
"11+<>,<<X  X<,*O",
"1+<+.;,<< X<<*-o",
"+<+1o@-%<<<<=&&o",
"+O111o&=%%%%&-X1",
"111111o+-::;%X11",
"1111111oXXoXX111",
"1111111111111111",
"1111111111111111"
};
