/* XPM */
static char *checkbox[] = {
/* columns rows colors chars-per-pixel */
"16 16 27 1",
"  c #46E346E346E3",
". c #49B249B249B2",
"X c #702470247024",
"o c #7D6C7D6C7D6C",
"O c #815781578157",
"+ c #89A989A989A9",
"@ c #8E758E758E75",
"# c #94E794E794E7",
"$ c #984B984B984B",
"% c #A026A026A026",
"& c #A434A434A434",
"* c #ACAEACAEACAE",
"= c #AFACAFACAFAC",
"- c #B7D5B7D5B7D5",
"; c #B99BB99BB99B",
": c #C298C298C298",
"> c #C902C902C902",
", c #CA11CA11CA11",
"< c #D44FD44FD44F",
"1 c #D9E6D9E6D9E6",
"2 c #E6D7E6D7E6D7",
"3 c #E823E823E823",
"4 c #EEBCEEBCEEBC",
"5 c #F4B0F4B0F4B0",
"6 c #FB04FB04FB04",
"7 c #FFFFFFFFFFFF",
"8 c None",
/* pixels */
"8*****&%*%*%&%&8",
"*77777777777775&",
"&7    .. .    7$",
"%7 $$&:$@*1<< 7#",
"$7 ##*;##>>>:.7#",
"$7 %$;*#;::;-.7#",
"#7 %&-%*;;-**.7+",
"#7 &*-*-----&.7+",
"#7       .XooX7+",
"@57777777@176;-$",
"8+O++oOOO171137-",
"88888:53#>:><77&",
"8888><77-76;77;O",
"888:7777;6777>$O",
"888ooO+OO+473#O8",
"8888888888OOoO88"
};
