/* XPM */
static char *computerjanitor[] = {
/* columns rows colors chars-per-pixel */
"16 16 24 1",
"  c #62BA62BA62BA",
". c #7C1D7C1D7C1D",
"X c #81B881B881B8",
"o c #86B986B986B9",
"O c #8C078C078C07",
"+ c #96A496A496A4",
"@ c #99BD99BD99BD",
"# c #A05BA05BA05B",
"$ c #A422A422A422",
"% c #B0F4B0F4B0F4",
"& c #BD43BD43BD43",
"* c #BF4FBF4FBF4F",
"= c #C76FC76FC76F",
"- c #CD28CD28CD28",
"; c #D0EBD0EBD0EB",
": c #D8EBD8EBD8EB",
"> c #DFDCDFDCDFDC",
", c #E52AE52AE52A",
"< c #E673E673E673",
"1 c #EDFAEDFAEDFA",
"2 c #F52AF52AF52A",
"3 c #FA74FA74FA74",
"4 c #FFFFFFFFFFFF",
"5 c None",
/* pixels */
"555555555555OoO5",
"55555555555@,4o5",
"5555555555O1O;o5",
"5555555555%,-X55",
"555555545+**o.55",
"5555555343,$.555",
"555555=*,44,:555",
"55555442=o#,:555",
"5555444444+ #555",
"55544444444*5555",
"55444444444-5555",
"54444444444*5555",
"544244234,4*5555",
"55214,:24-4*5555",
"5551>::12&,=5555",
"555555-=&&*55555"
};
