/* XPM */
static char *conduit[] = {
/* columns rows colors chars-per-pixel */
"16 16 28 1",
"  c #44EB44EB44EB",
". c #489248924892",
"X c #501150115011",
"o c #618961896189",
"O c #64FF64FF64FF",
"+ c #6F2B6F2B6F2B",
"@ c #716971697169",
"# c #76B776B776B7",
"$ c #7F1F7F1F7F1F",
"% c #8D4F8D4F8D4F",
"& c #980098009800",
"* c #A736A736A736",
"= c #A86DA86DA86D",
"- c #ADC4ADC4ADC4",
"; c #B7EBB7EBB7EB",
": c #BCDCBCDCBCDC",
"> c #C580C580C580",
", c #CC12CC12CC12",
"< c #D097D097D097",
"1 c #DA3ADA3ADA3A",
"2 c #DD47DD47DD47",
"3 c #E4F2E4F2E4F2",
"4 c #E636E636E636",
"5 c #ED85ED85ED85",
"6 c #F2E2F2E2F2E2",
"7 c #F839F839F839",
"8 c #FFFFFFFFFFFF",
"9 c None",
/* pixels */
"9 99999999999999",
"9 .999X.X.999999",
"9X= .-444:$ 9999",
"9.8*76-@o@;&.999",
"9.882+.999.$X999",
"9X8-*@.9999X9999",
"9    .X 99999999",
"9999999999999999",
"99999999ooooooo9",
"9999=+999O>886o9",
"9999=#9999O824o9",
"9999$,$oO#45->o9",
"9999O%1146<%O%o9",
"99999OoO++oo9Oo9",
"99999999999999o9",
"9999999999999999"
};
