/* XPM */
static char *dia[] = {
/* columns rows colors chars-per-pixel */
"16 16 36 1",
"  c #313C313C313C",
". c #374737473747",
"X c #398239823982",
"o c #41E541E541E5",
"O c #484B484B484B",
"+ c #4B5C4B5C4B5C",
"@ c #52D652D652D6",
"# c #56E956E956E9",
"$ c #5BF85BF85BF8",
"% c #5F375F375F37",
"& c #66EC66EC66EC",
"* c #716871687168",
"= c #761976197619",
"- c #7E1B7E1B7E1B",
"; c #83F083F083F0",
": c #890B890B890B",
"> c #8ED58ED58ED5",
", c #94F494F494F4",
"< c #975D975D975D",
"1 c #A29EA29EA29E",
"2 c #A853A853A853",
"3 c #B056B056B056",
"4 c #B4F9B4F9B4F9",
"5 c #BB02BB02BB02",
"6 c #C1E1C1E1C1E1",
"7 c #C471C471C471",
"8 c #CA27CA27CA27",
"9 c #D296D296D296",
"0 c #D58ED58ED58E",
"q c #DC95DC95DC95",
"w c #E39CE39CE39C",
"e c #E93BE93BE93B",
"r c #EC0BEC0BEC0B",
"t c #FA1EFA1EFA1E",
"y c #FFFFFFFFFFFF",
"u c None",
/* pixels */
"uuuuuuuuuuuuuuuu",
"u1<<,>uuuuuuuuuu",
"u<yyy-####$#uuuu",
"u:yty*rerq6>@uuu",
"u=yyy%rewwqq4@uu",
"u&%%%%@@O@%30=Ou",
"uu>r&uuuuuuO62Ou",
"uu:w%uuuuuuO,5ou",
"uu;q%uuuuuuO:2Ou",
"uu-9%uuuuuuO3,ou",
"uu=8%ooXoo#<4Ouu",
"uX*6%.<66554&Xuu",
"uo&5%&2652;O.uuu",
"uu.&.@+X.X uuuuu",
"uuu uuuuuuuuuuuu",
"uuuuuuuuuuuuuuuu"
};
