/* XPM */
static char *dropbox[] = {
/* columns rows colors chars-per-pixel */
"16 16 28 1",
"  c #428D428D428D",
". c #579557955795",
"X c #63AF63AF63AF",
"o c #678967896789",
"O c #6AAA6AAA6AAA",
"+ c #858D858D858D",
"@ c #87F487F487F4",
"# c #901E901E901E",
"$ c #93D393D393D3",
"% c #A10EA10EA10E",
"& c #A769A769A769",
"* c #A862A862A862",
"= c #ADE2ADE2ADE2",
"- c #B7BFB7BFB7BF",
"; c #BC69BC69BC69",
": c #C336C336C336",
"> c #C692C692C692",
", c #CBCBCBCBCBCB",
"< c #D496D496D496",
"1 c #D65DD65DD65D",
"2 c #DCB7DCB7DCB7",
"3 c #E254E254E254",
"4 c #E975E975E975",
"5 c #EEA8EEA8EEA8",
"6 c #F494F494F494",
"7 c #F8C3F8C3F8C3",
"8 c #FFF6FFF6FFF6",
"9 c None",
/* pixels */
"9999999999999999",
"9999%$9999$%9999",
"99X:88&99$881X99",
"o%58888=@77788:O",
"o28688888517888O",
"9.;88888888682.9",
"99 -88888888> 99",
"99*2<88888828;99",
"o:84-,8881%;886O",
"o;85;248>@;>885O",
"99@<>2884>=16$99",
"999$88884668$999",
"9999-888388=9999",
"99999X688;X99999",
"9999999*%9999999",
"9999999999999999"
};
