/* XPM */
static char *emacs[] = {
/* columns rows colors chars-per-pixel */
"16 16 26 1",
"  c #79D579D579D5",
". c #7EA77EA77EA7",
"X c #83A383A383A3",
"o c #87D487D487D4",
"O c #8CF88CF88CF8",
"+ c #961796179617",
"@ c #98D398D398D3",
"# c #A1D5A1D5A1D5",
"$ c #A2EBA2EBA2EB",
"% c #A8A5A8A5A8A5",
"& c #AE59AE59AE59",
"* c #B3AEB3AEB3AE",
"= c #BB9BBB9BBB9B",
"- c #BEF7BEF7BEF7",
"; c #C4E0C4E0C4E0",
": c #D067D067D067",
"> c #D337D337D337",
", c #D7EFD7EFD7EF",
"< c #DB2ADB2ADB2A",
"1 c #E265E265E265",
"2 c #E7D8E7D8E7D8",
"3 c #F3DAF3DAF3DA",
"4 c #F8BBF8BBF8BB",
"5 c #FD73FD73FD73",
"6 c #FFFFFFFFFFFF",
"7 c None",
/* pixels */
"77777XXXX  77777",
"777X.X@#=><;o777",
"77XX#,1<<2666O77",
"7ooX666666666* 7",
"7Xo+266666663OX7",
"ooO#*666>>-#OooX",
"XOXO&-466-&#+OXo",
"oX*4666666&++oOo",
"X>66666644,@OOOo",
".6666&##%%#@OoOX",
"X#666+#*-=%#+ooo",
"7X#6666<:=*&#OO7",
"7OoX:666664;@Oo7",
"77o+%>366666#o77",
"777O#=>121>*7777",
"77777oXXXXX77777"
};
