/* XPM */
static char *emesene[] = {
/* columns rows colors chars-per-pixel */
"16 16 23 1",
"  c #84DC84DC84DC",
". c #878387838783",
"X c #8ECD8ECD8ECD",
"o c #938993899389",
"O c #981298129812",
"+ c #A1CAA1CAA1CA",
"@ c #A2E7A2E7A2E7",
"# c #AC08AC08AC08",
"$ c #BA24BA24BA24",
"% c #BA3EBA3EBA3E",
"& c #C267C267C267",
"* c #C511C511C511",
"= c #CEFECEFECEFE",
"- c #CF83CF83CF83",
"; c #DA90DA90DA90",
": c #DCB1DCB1DCB1",
"> c #E2ADE2ADE2AD",
", c #E809E809E809",
"< c #F0ECF0ECF0EC",
"1 c #F722F722F722",
"2 c #FE9FFE9FFE9F",
"3 c #FFFFFFFFFFFF",
"4 c None",
/* pixels */
"444444X ..444444",
"44444o133,.44444",
"4444 333333 4444",
"4444&333333o4444",
"444 1333313%4444",
"4444*333313O4444",
"4444 333333 4444",
"4444 o<33;..4444",
"4444o3# X#3: 444",
"444 33<<<<<3<.44",
"44 ;3<<<<<<<3>.4",
"4 +3<::;::+<>3O4",
"4@+3>-----X1-3>4",
"4.X;3>-&&-#%33O4",
"444.%333333+  44",
"44444      44444"
};
