/* XPM */
static char *empathy[] = {
/* columns rows colors chars-per-pixel */
"16 16 29 1",
"  c #63ED63ED63ED",
". c #6A886A886A88",
"X c #6F546F546F54",
"o c #712371237123",
"O c #778477847784",
"+ c #7CE57CE57CE5",
"@ c #813281328132",
"# c #86BD86BD86BD",
"$ c #8E6F8E6F8E6F",
"% c #96E996E996E9",
"& c #985198519851",
"* c #A0C2A0C2A0C2",
"= c #A31BA31BA31B",
"- c #ABC6ABC6ABC6",
"; c #AE96AE96AE96",
": c #B81AB81AB81A",
"> c #B981B981B981",
", c #C331C331C331",
"< c #C4D2C4D2C4D2",
"1 c #CBEECBEECBEE",
"2 c #D196D196D196",
"3 c #DA64DA64DA64",
"4 c #DF4ADF4ADF4A",
"5 c #E4DAE4DAE4DA",
"6 c #E9F7E9F7E9F7",
"7 c #EBD6EBD6EBD6",
"8 c #F573F573F573",
"9 c #FFFFFFFFFFFF",
"0 c None",
/* pixels */
"0000000000000000",
"00000@@@@#@@0000",
"000@&169984>$@00",
"00@<6543311<1&+0",
"0+,1,1299<>;*>#0",
"O*>;:,,99>;=&&*O",
"O***-;:89-=&$@*O",
"o*$&***,9*&$@+&o",
"o#$$&&&&%$#@@##o",
"0o$#@##-92@+@@o0",
"00X+$@@+@@@@+oX0",
"000XO@@+@+OXX000",
"000X+@OX..X00000",
"000 oX0000000000",
"000. 00000000000",
"0000000000000000"
};
