/* XPM */
static char *evince[] = {
/* columns rows colors chars-per-pixel */
"16 16 25 1",
"  c #55BA55BA55BA",
". c #5D0C5D0C5D0C",
"X c #626562656265",
"o c #6F7A6F7A6F7A",
"O c #7E887E887E88",
"+ c #854785478547",
"@ c #8BBE8BBE8BBE",
"# c #8C3F8C3F8C3F",
"$ c #994399439943",
"% c #A139A139A139",
"& c #A5ECA5ECA5EC",
"* c #A9A8A9A8A9A8",
"= c #B125B125B125",
"- c #B7F0B7F0B7F0",
"; c #BB4FBB4FBB4F",
": c #C44CC44CC44C",
"> c #D2ABD2ABD2AB",
", c #D803D803D803",
"< c #DB64DB64DB64",
"1 c #E41DE41DE41D",
"2 c #EB6EEB6EEB6E",
"3 c #EECEEECEEECE",
"4 c #F2BEF2BEF2BE",
"5 c #FFFFFFFFFFFF",
"6 c None",
/* pixels */
"66@+@++++O+++#66",
"6=555555555555=6",
"@55555555555555#",
"+555555,&O-5555+",
"+55555O55;<5555@",
"+5554o555*55555+",
"+555.555*555555+",
"+55, 55;5555555@",
"+555X-2555555<1#",
"+5555&%,3>$$,55@",
"+55555555555555@",
"+55555555555555+",
"+55555555555555+",
"@55555555555555@",
"6:555555555555:6",
"66@&*****&**%@66"
};
