/* XPM */
static char *fedora_logo_icon[] = {
/* columns rows colors chars-per-pixel */
"16 16 30 1",
"  c #591E591E591E",
". c #5BC55BC55BC5",
"X c #627E627E627E",
"o c #697E697E697E",
"O c #6B986B986B98",
"+ c #756475647564",
"@ c #7F8C7F8C7F8C",
"# c #8A3C8A3C8A3C",
"$ c #8EDE8EDE8EDE",
"% c #938193819381",
"& c #977C977C977C",
"* c #A161A161A161",
"= c #A414A414A414",
"- c #AA07AA07AA07",
"; c #AF57AF57AF57",
": c #B6FDB6FDB6FD",
"> c #BE6CBE6CBE6C",
", c #BF4BBF4BBF4B",
"< c #C629C629C629",
"1 c #CD36CD36CD36",
"2 c #CF7FCF7FCF7F",
"3 c #D858D858D858",
"4 c #DD47DD47DD47",
"5 c #E428E428E428",
"6 c #E97DE97DE97D",
"7 c #ED83ED83ED83",
"8 c #F416F416F416",
"9 c #FA0BFA0BFA0B",
"0 c #FFFFFFFFFFFF",
"q c None",
/* pixels */
"qqqqqq    qqqqqq",
"qqqq+,3762:Oqqqq",
"qq &851,0000- qq",
"qq-92,:000003*qq",
"qO91,:300*&&:3Oq",
"q,5,,;909&%#-,& ",
" 32:;-905OO+&*-.",
" 7,2800000,$#o- ",
" 832900000,+X.&.",
" 82:*+<02   .O#.",
" 2*@X 30<    #+.",
" <$o  00$   o$.q",
" -$60000 ..O#oqq",
" *O9006XXO@#O qq",
" @&&%&%%$@+ qqqq",
"q         qqqqqq"
};
