/* XPM */
static char *firefox[] = {
/* columns rows colors chars-per-pixel */
"16 16 34 1",
"  c #276327632763",
". c #2E2E2E2E2E2E",
"X c #4B354B354B35",
"o c #517251725172",
"O c #54AB54AB54AB",
"+ c #5E135E135E13",
"@ c #602060206020",
"# c #6AF76AF76AF7",
"$ c #719C719C719C",
"% c #7A6B7A6B7A6B",
"& c #7EA57EA57EA5",
"* c #81D881D881D8",
"= c #882888288828",
"- c #8EE58EE58EE5",
"; c #96C396C396C3",
": c #9AE49AE49AE4",
"> c #9D619D619D61",
", c #A628A628A628",
"< c #ACFEACFEACFE",
"1 c #B133B133B133",
"2 c #B81AB81AB81A",
"3 c #B9B9B9B9B9B9",
"4 c #C20FC20FC20F",
"5 c #C5CEC5CEC5CE",
"6 c #CD17CD17CD17",
"7 c #CFDDCFDDCFDD",
"8 c #DD20DD20DD20",
"9 c #E5A1E5A1E5A1",
"0 c #E693E693E693",
"q c #F01CF01CF01C",
"w c #F2ACF2ACF2AC",
"e c #FCFDFCFDFCFD",
"r c #FFFFFFFFFFFF",
"t c None",
/* pixels */
"tttttt6ww6tttttt",
"tttt-rrrrrw<tttt",
"ttt#<5rrrrr6wttt",
"tt<1>3rrrr92rrtt",
"t3::>,60rrq15rrt",
"t1;;,66404<&:rrt",
"t:;:>3<2<&#+6rrt",
"t;>%#%=--$OX6r0t",
"t->*->->3*XX8r0t",
"t=:,,;:;&+.$w05t",
"t*&>1,#X  o304tt",
"tto&>11-#*3662tt",
"ttto%:,1<<156ttt",
"tttto#=><<2,tttt",
"ttttt:&&;><ttttt",
"tttttttttttttttt"
};
