/* XPM */
static char *fusion_icon[] = {
/* columns rows colors chars-per-pixel */
"16 16 36 1",
"  c #308530853085",
". c #374937493749",
"X c #3CD83CD83CD8",
"o c #41C941C941C9",
"O c #46D646D646D6",
"+ c #506050605060",
"@ c #617E617E617E",
"# c #650365036503",
"$ c #6C2B6C2B6C2B",
"% c #71ED71ED71ED",
"& c #777D777D777D",
"* c #7E307E307E30",
"= c #83B783B783B7",
"- c #878387838783",
"; c #8ECD8ECD8ECD",
": c #970697069706",
"> c #A052A052A052",
", c #A595A595A595",
"< c #AA38AA38AA38",
"1 c #B14DB14DB14D",
"2 c #B58FB58FB58F",
"3 c #BE2EBE2EBE2E",
"4 c #C209C209C209",
"5 c #C6B1C6B1C6B1",
"6 c #CE5ECE5ECE5E",
"7 c #D2D8D2D8D2D8",
"8 c #D752D752D752",
"9 c #DB8ADB8ADB8A",
"0 c #E57CE57CE57C",
"q c #E792E792E792",
"w c #EF2DEF2DEF2D",
"e c #F455F455F455",
"r c #FA24FA24FA24",
"t c #FCB2FCB2FCB2",
"y c #FFFFFFFFFFFF",
"u c None",
/* pixels */
"u==============u",
"=0yyyyyyyyyyyy0-",
"*y7899wrre0988y*",
"*y678wyyyye976y&",
"&r569eyyyyyq55r&",
"&e34yyyyyyr054e&",
"&022yyyyyyy4320&",
"%02ryyyyyyy-<<0%",
"%7wye59009-o->9%",
"$6,w<>243>o%o-5%",
"$3;;::::::$+#o3$",
"$1=---;-;;-+@@@$",
"#<**=*====-*o$O+",
"@>&&&**&&*&%$X$ ",
"#=:::::::::::*.O",
"u@@@@@@@@@@@@@@u"
};
