/* XPM */
static char *gdmflexiserver[] = {
/* columns rows colors chars-per-pixel */
"16 16 20 1",
"  c #52EC52EC52EC",
". c #585358535853",
"X c #723B723B723B",
"o c #7FD87FD87FD8",
"O c #837483748374",
"+ c #880F880F880F",
"@ c #8B018B018B01",
"# c #952595259525",
"$ c #A7C4A7C4A7C4",
"% c #A96FA96FA96F",
"& c #C496C496C496",
"* c #D423D423D423",
"= c #D6C8D6C8D6C8",
"- c #DCC9DCC9DCC9",
"; c #E811E811E811",
": c #EB40EB40EB40",
"> c #F49FF49FF49F",
", c #FE33FE33FE33",
"< c #FFFFFFFFFFFF",
"1 c None",
/* pixels */
"111111111<<<<111",
"1+++++#&<<<<<<;1",
"+<<<<<<<<<<<<<<*",
"+<<<<<<<<<<<<<<>",
"+<<<<<<<<<<<<<<<",
"+<<<<<<<<<<<<<<<",
"+<:*==><<<<<<<<<",
"+<=<<<<<<<<<<<<-",
"+<*<  <o&<<<<<<$",
"+<*<  <.X<%%<:<+",
"O<:=**=*==-=-:<+",
"+<<<<<<<<<<<<<<O",
"+<<<<<<<<<<<<<<+",
"+<<<<<<<<<<<<<<+",
"1++@@@@@+@@@+++1",
"1111111111111111"
};
