/* XPM */
static char *glipper[] = {
/* columns rows colors chars-per-pixel */
"16 16 16 1",
"  c #62FF62FF62FF",
". c #659F659F659F",
"X c #68B768B768B7",
"o c #814E814E814E",
"O c #841D841D841D",
"+ c #90B090B090B0",
"@ c #91EF91EF91EF",
"# c #9B159B159B15",
"$ c #A280A280A280",
"% c #B696B696B696",
"& c #BC8CBC8CBC8C",
"* c #C35BC35BC35B",
"= c #C840C840C840",
"- c #CF7DCF7DCF7D",
"; c #FFFFFFFFFFFF",
": c None",
/* pixels */
":::::OOOOoO:::::",
"::...O----O...::",
": *%#O$$$%O#%&.:",
":.-#;;;;;;;;+= :",
":.=+;;;;;;;;+=.:",
":X=+;;####;;+= :",
":X-+;;#;;;;;+= :",
":.=+;;#;+#;;+= :",
":.=+;;#;;#;;+= :",
":.=+;;++++;;+= :",
":.=+;;;;;;;;+= :",
":.=+;;;;;;;;+= :",
":X-+;;;;;;;+$= :",
":X=#;;;;;;+$== :",
":.&%#+#++##%%% :",
"::....... .. .::"
};
