/* XPM */
static char *gnome_panel_separator[] = {
/* columns rows colors chars-per-pixel */
"16 16 3 1",
"  c #46E346E346E3",
". c #582B582B582B",
"X c None",
/* pixels */
"XXXXXXXXXXXXXXXX",
"XXXXXXXX.XXXXXXX",
"XXXXXXXX XXXXXXX",
"XXXXXXXX XXXXXXX",
"XXXXXXXX XXXXXXX",
"XXXXXXXX XXXXXXX",
"XXXXXXXX XXXXXXX",
"XXXXXXXX XXXXXXX",
"XXXXXXXX XXXXXXX",
"XXXXXXXX XXXXXXX",
"XXXXXXXX XXXXXXX",
"XXXXXXXX XXXXXXX",
"XXXXXXXX XXXXXXX",
"XXXXXXXX XXXXXXX",
"XXXXXXXX.XXXXXXX",
"XXXXXXXXXXXXXXXX"
};
