/* XPM */
static char *gnome_character_map[] = {
/* columns rows colors chars-per-pixel */
"16 16 16 1",
"  c #0CA60CA60CA6",
". c #17E517E517E5",
"X c #21BB21BB21BB",
"o c #3B083B083B08",
"O c #734073407340",
"+ c #78B678B678B6",
"@ c #7F297F297F29",
"# c #A178A178A178",
"$ c #BE3EBE3EBE3E",
"% c #C050C050C050",
"& c #C74EC74EC74E",
"* c #D2A9D2A9D2A9",
"= c #E657E657E657",
"- c #F89CF89CF89C",
"; c #FFFFFFFFFFFF",
": c None",
/* pixels */
":&%%%%%$%%$%%%&:",
"&;;;;;;;;;;;;;;&",
"%;;;;;;;;;;;;;;%",
"%;;;;;;;;;;;;;;%",
"%;;;;;;;@;;;;;;%",
"%;;;;;;$;;;;;;;%",
"%;;;;;#O#;;;;;;%",
"%;;;;;;;-+;;;;;&",
"$;;;;;%+@X;;;;;%",
"%;;;;;+;; ;;;;;%",
"%;;;;;o*+.;;;;;%",
"%;;;;;;=;;;;;;;%",
"%;;;;;;;;;;;;;;%",
"%;;;;;;;;;;;;;;%",
"&;;;;;;;;;;;;;;&",
":&%%&%%&%%%%%%&:"
};
