/* XPM */
static char *gnome_settings_default_applications[] = {
/* columns rows colors chars-per-pixel */
"16 16 27 1",
"  c #642964296429",
". c #657F657F657F",
"X c #6BD76BD76BD7",
"o c #82EF82EF82EF",
"O c #87FE87FE87FE",
"+ c #911391139113",
"@ c #962296229622",
"# c #9C079C079C07",
"$ c #A1E6A1E6A1E6",
"% c #A7C8A7C8A7C8",
"& c #ABE1ABE1ABE1",
"* c #B03AB03AB03A",
"= c #B6E3B6E3B6E3",
"- c #BCE0BCE0BCE0",
"; c #C063C063C063",
": c #C549C549C549",
"> c #CCCBCCCBCCCB",
", c #D374D374D374",
"< c #D686D686D686",
"1 c #E3B2E3B2E3B2",
"2 c #E4A5E4A5E4A5",
"3 c #EB5AEB5AEB5A",
"4 c #F52EF52EF52E",
"5 c #FACDFACDFACD",
"6 c #FEB2FEB2FEB2",
"7 c #FFFFFFFFFFFF",
"8 c None",
/* pixels */
"8888888  8888888",
"888888.+# 888888",
"88888.@==$.88888",
"8888.@;oo-$.8888",
"888.#:Ooo+>%.888",
"88.#>++++@#<&.88",
"8.$>&<,$#&255*.8",
".$<=6664&56666;.",
".*<26666666666;.",
"8.*6666666666<X8",
"88.:666666661X88",
"888X>6666662.888",
"8888X;66661X8888",
"88888X-663.88888",
"888888X:2X888888",
"8888888XX8888888"
};
