/* XPM */
static char *gnome_cpu_frequency_applet[] = {
/* columns rows colors chars-per-pixel */
"16 16 20 1",
"  c #24CE24CE24CE",
". c #2C212C212C21",
"X c #340134013401",
"o c #3AE33AE33AE3",
"O c #3F3F3F3F3F3F",
"+ c #4D234D234D23",
"@ c #6D246D246D24",
"# c #7A327A327A32",
"$ c #7B9B7B9B7B9B",
"% c #860686068606",
"& c #899E899E899E",
"* c #8CD58CD58CD5",
"= c #956995699569",
"- c #A633A633A633",
"; c #A86CA86CA86C",
": c #B467B467B467",
"> c #C4BAC4BAC4BA",
", c #FDE7FDE7FDE7",
"< c #FFFFFFFFFFFF",
"1 c None",
/* pixels */
"11111&%$%&111111",
"111%-<<<<<;%1111",
"11%<<<<O<<<<&111",
"1&<<<<<<<<<<<&11",
"1:<<X<<<<<+<<:11",
"&<<<<<<<<=<<<<&1",
"%<<<<<<<@<<<<<%1",
"$<O<<<<.<<<$o<$1",
"&<<<<<<<<<<*<<%1",
"&<<<<<<<<<>&<<&1",
"1:<<X<<<<< -<:11",
"1&<<<<<<<<<<<&11",
"11%<<<<<<<<<%111",
"111%;<<<<<-&1111",
"11111&%$%&111111",
"1111111111111111"
};
