/* XPM */
static char *gnome_panel_window_list[] = {
/* columns rows colors chars-per-pixel */
"16 16 37 1",
"  c #78CB78CB78CB",
". c #7B9B7B9B7B9B",
"X c #7D037D037D03",
"o c #7FD27FD27FD2",
"O c #884188418841",
"+ c #945394539453",
"@ c #962696269626",
"# c #991F991F991F",
"$ c #9A869A869A86",
"% c #AAA7AAA7AAA7",
"& c #AF07AF07AF07",
"* c #B637B637B637",
"= c #602160216021",
"- c #74D374D374D3",
"; c #C050C050C050",
": c #C1B8C1B8C1B8",
"> c #D201D201D201",
", c #D4D1D4D1D4D1",
"< c #D53DD53DD53D",
"1 c #DB80DB80DB80",
"2 c #E0A4E0A4E0A4",
"3 c #E41DE41DE41D",
"4 c #F0C3F0C3F0C3",
"5 c #F22BF22BF22B",
"6 c #FFFFFFFFFFFF",
"7 c #FFFFFFFFFFFF",
"8 c #FFFFFFFFFFFF",
"9 c #FFFFFFFFFFFF",
"0 c #FFFFFFFFFFFF",
"q c #FFFFFFFFFFFF",
"w c #FFFFFFFFFFFF",
"e c #FFFFFFFFFFFF",
"r c #FFFFFFFFFFFF",
"t c #FFFFFFFFFFFF",
"y c #FFFFFFFFFFFF",
"u c #FFFFFFFFFFFF",
"i c #FFFFFFFFFFFF",
/* pixels */
"    .     .     ",
"qqqqqqqqqqqqqqqq",
"o.%6<oX.XoooooXo",
"uy#5@0uuuuuuuuuu",
"7t*5+e8777777777",
"7t*5+e8-======77",
"7t*5+e8-======77",
"7t*5+e8>wwwww177",
"7t*4@r8<rrrrr277",
"7t*5+r8<rrrrr277",
"7t*5+e93;;;;;:77",
"7t*5@e9777777777",
"ut$5@9iiiiiuiiii",
" o&6<O..XXX.XXXX",
"qqeqqqqqqqqqqqqq",
"               ."
};
