/* XPM */
static char *gnome_panel_workspace_switcher[] = {
/* columns rows colors chars-per-pixel */
"16 16 10 1",
"  c #602160216021",
". c #62C762C762C7",
"X c #751975197519",
"o c #78E478E478E4",
"O c #820C820C820C",
"+ c #B608B608B608",
"@ c #D43FD43FD43F",
"# c #F860F860F860",
"$ c #FFFFFFFFFFFF",
"% c None",
/* pixels */
"%...... $$$$$$$%",
".#$$$$$+$$$$$$$$",
".$$$$$@X$$$$$$$$",
" $$OO$@O$$$$$$$$",
" $$OO$@O$$$$$$$$",
" $$$$$@O$$$$$$$$",
" $@@@@@O$$$$$$$$",
".+XOOOOO$$$$$$$$",
"$$$$$$$$$$$$$$$$",
"$$$$$$$$$$$$$$$$",
"$$$$$$$$$$$$$$$$",
"$$$$$$$$$$$$$$$$",
"$$$$$$$$$$$$$$$$",
"$$$$$$$$$$$$$$$$",
"$$$$$$$$$$$$$$$$",
"%$$$$$$$$$$$$$$%"
};
