/* XPM */
static char *gnome_eyes_applet[] = {
/* columns rows colors chars-per-pixel */
"16 16 22 1",
"  c #1F9C1F9C1F9C",
". c #4D064D064D06",
"X c #5C775C775C77",
"o c #5F865F865F86",
"O c #7F977F977F97",
"+ c #8B348B348B34",
"@ c #8F848F848F84",
"# c #992799279927",
"$ c #A617A617A617",
"% c #B2E9B2E9B2E9",
"& c #C050C050C050",
"* c #C1E1C1E1C1E1",
"= c #C86DC86DC86D",
"- c #CA27CA27CA27",
"; c #D426D426D426",
": c #DB2DDB2DDB2D",
"> c #DEF9DEF9DEF9",
", c #E373E373E373",
"< c #EEDAEEDAEEDA",
"1 c #F23EF23EF23E",
"2 c #FFFFFFFFFFFF",
"3 c None",
/* pixels */
"3333333333333333",
"3333333333333333",
"333=*=3333333333",
"3=22222*3=**=333",
"3222222><2222,*3",
"=22$$221222222>3",
"*2%2o2>22$@2222=",
"*2#.O2*2$2o#222*",
"322<22=2@o @222=",
"3*2222:22++2222=",
"333****,222222;3",
"3333333*>2222:=3",
"333333333==*=333",
"3333333333333333",
"3333333333333333",
"3333333333333333"
};
