/* XPM */
static char *gnome_brightness_applet[] = {
/* columns rows colors chars-per-pixel */
"16 16 3 1",
"  c #78CB78CB78CB",
". c #FFFFFFFFFFFF",
"X c None",
/* pixels */
"XXXXXXX XXXXXXXX",
"XXXXXX . XXXXXXX",
"XXX XX . XX XXXX",
"XX .  ...  . XXX",
"XXX ....... XXXX",
"XXX ....... XXXX",
"X  .........  XX",
" ............. X",
"X  .........  XX",
"XXX ....... XXXX",
"XXX ....... XXXX",
"XX .  ...  . XXX",
"XXX XX . XX XXXX",
"XXXXXX . XXXXXXX",
"XXXXXXX XXXXXXXX",
"XXXXXXXXXXXXXXXX"
};
