/* XPM */
static char *gnome_panel_force_quit[] = {
/* columns rows colors chars-per-pixel */
"16 16 16 1",
"  c #602160216021",
". c #635863586358",
"X c #6AA16AA16AA1",
"o c #6DCD6DCD6DCD",
"O c #837483748374",
"+ c #9EEF9EEF9EEF",
"@ c #B13AB13AB13A",
"# c #B615B615B615",
"$ c #C050C050C050",
"% c #C618C618C618",
"& c #CDEDCDEDCDED",
"* c #D12ED12ED12E",
"= c #D6F6D6F6D6F6",
"- c #DA18DA18DA18",
"; c #FFFFFFFFFFFF",
": c None",
/* pixels */
"::::::::::::::::",
":.........::....",
":.==--=&X::X&==.",
":.-OO@%o::o%@O=.",
":+;;;;$::#;;;;;+",
":#;;;*::$;;;;;;#",
":$;;;;*::=;;;;;$",
":%;;;;;*::*;;;;$",
":$;;;;;;$::=;;;$",
":$;;;;;*::*;;;;$",
":$;;;;=::$;;;;;$",
":$;;;;;*::*;;;;$",
":$;;;;;;=::*;;;$",
":$;;;;;;;*::*;;$",
":%$$$$$$$$$::$$%",
"::::::::::::::::"
};
