/* XPM */
static char *gnome_network_properties[] = {
/* columns rows colors chars-per-pixel */
"16 16 25 1",
"  c #673167316731",
". c #6F9F6F9F6F9F",
"X c #724672467246",
"o c #78CB78CB78CB",
"O c #7FD27FD27FD2",
"+ c #83BF83BF83BF",
"@ c #86D986D986D9",
"# c #90B090B090B0",
"$ c #91EF91EF91EF",
"% c #97B797B797B7",
"& c #9E959E959E95",
"* c #A1F9A1F9A1F9",
"= c #A9FCA9FCA9FC",
"- c #ADE2ADE2ADE2",
"; c #B80AB80AB80A",
": c #BD82BD82BD82",
"> c #D26AD26AD26A",
", c #D43FD43FD43F",
"< c #DBC2DBC2DBC2",
"1 c #E598E598E598",
"2 c #F23EF23EF23E",
"3 c #F7DEF7DEF7DE",
"4 c #FD2AFD2AFD2A",
"5 c #FFFFFFFFFFFF",
"6 c None",
/* pixels */
"66+Oooooo++66666",
"6+555555555@6666",
"6O555555555O6666",
"6O555555555o+@66",
"6o555555555o>+#6",
"6o555555555o>@55",
"6o555555555O>+#6",
"6o555555555o+@66",
"6o555:.:555O6666",
"6o55-@:#-55o6666",
"6O55 355X55O6666",
"66@+45555@+66666",
"6#=51X5X>5;#6666",
"6<5=oo5+o=516666",
"53*66@5@66&25666",
"66666#5%66666666"
};
