/* XPM */
static char *gnome_panel_launcher[] = {
/* columns rows colors chars-per-pixel */
"16 16 18 1",
"  c #79E079E079E0",
". c #7EFF7EFF7EFF",
"X c #840A840A840A",
"o c #A894A894A894",
"O c #B906B906B906",
"+ c #BC19BC19BC19",
"@ c #C050C050C050",
"# c #C5F0C5F0C5F0",
"$ c #CD8BCD8BCD8B",
"% c #D908D908D908",
"& c #DBC2DBC2DBC2",
"* c #E525E525E525",
"= c #E87EE87EE87E",
"- c #F5E1F5E1F5E1",
"; c #F8A0F8A0F8A0",
": c #FEE5FEE5FEE5",
"> c #FFFFFFFFFFFF",
", c None",
/* pixels */
">>>>>>>>>>>>>>>>",
">>>>>>>>>>>>>>>;",
";>>>>>>>>>>>>>>=",
"=>>>>>>>>>>>>>>%",
"%>>;>;>;>;>;>;>#",
"##>#>@>@>@>@>#>@",
"@@@@@@@@@@@@@@@@",
",,,, >..   ,,,,,",
",,,,.>%@@++ ,,,,",
",,,, ;>>>>* ,,,,",
",,,, > .    ,,,,",
",,,, >%+@++ ,,,,",
",,,, ->>>>$ ,,,,",
",,,, >X    ,,,,,",
",,,, >>>o,,,,,,,",
",,,,, X  ,,,,,,,"
};
