/* XPM */
static char *gnome_mplayer[] = {
/* columns rows colors chars-per-pixel */
"16 16 26 1",
"  c #626262626262",
". c #728372837283",
"X c #7D037D037D03",
"o c #813A813A813A",
"O c #89A989A989A9",
"+ c #8D658D658D65",
"@ c #936293629362",
"# c #98F098F098F0",
"$ c #A131A131A131",
"% c #A612A612A612",
"& c #AA6BAA6BAA6B",
"* c #B007B007B007",
"= c #BB10BB10BB10",
"- c #BF11BF11BF11",
"; c #C677C677C677",
": c #D032D032D032",
"> c #D43FD43FD43F",
", c #D565D565D565",
"< c #DE78DE78DE78",
"1 c #E80BE80BE80B",
"2 c #ECD2ECD2ECD2",
"3 c #F3C6F3C6F3C6",
"4 c #FCA9FCA9FCA9",
"5 c #FDCDFDCDFDCD",
"6 c #FFFFFFFFFFFF",
"7 c None",
/* pixels */
"            7777",
" 6 666666 6 7777",
"   >>>>>>   7777",
" 6 >::>>: 6 7777",
"   ;;;;-;==*7777",
" 6 ===-166661-77",
"     %66666666=7",
" 6 2><66%>6666<7",
"   $&666X-#3666&",
" 6 ##666X62@:66#",
"   +#666o6<@,66#",
" 6 o@666X&#6666#",
"    .&66%>6666*7",
"77777O:666666:O7",
"777777o#>22,#o77",
"77777777oXXo7777"
};
