/* XPM */
static char *gnome_panel_fish[] = {
/* columns rows colors chars-per-pixel */
"16 16 29 1",
"  c #0E6A0E6A0E6A",
". c #311431143114",
"X c #361236123612",
"o c #399D399D399D",
"O c #443C443C443C",
"+ c #499649964996",
"@ c #5C895C895C89",
"# c #863486348634",
"$ c #922892289228",
"% c #96CC96CC96CC",
"& c #996E996E996E",
"* c #9F2C9F2C9F2C",
"= c #A54CA54CA54C",
"- c #AC9CAC9CAC9C",
"; c #B265B265B265",
": c #B53BB53BB53B",
"> c #BE5FBE5FBE5F",
", c #C3A4C3A4C3A4",
"< c #C5C1C5C1C5C1",
"1 c #CDDFCDDFCDDF",
"2 c #D413D413D413",
"3 c #D6ECD6ECD6EC",
"4 c #E225E225E225",
"5 c #EB3CEB3CEB3C",
"6 c #EC0FEC0FEC0F",
"7 c #F175F175F175",
"8 c #FBA5FBA5FBA5",
"9 c #FFFFFFFFFFFF",
"0 c None",
/* pixels */
"0000000000000000",
"00000000000;0000",
"000000@000;;0000",
"0oo0X0@00;9;0000",
"00ooo*o*299;000;",
"000+O.. -79;00;;",
"00=9:999O989;;5;",
"0%39599#9759991;",
"0&992##$925999,;",
"&49919999<95592;",
"%9999<--,595;;4;",
"&2999999998:;0;;",
"0&<>:,59991;000;",
"00-39999599;0000",
"0000>:;;:;;;0000",
"0000000000000000"
};
