/* XPM */
static char *gnome_sound_recorder[] = {
/* columns rows colors chars-per-pixel */
"16 16 28 1",
"  c #572257225722",
". c #7A337A337A33",
"X c #7E737E737E73",
"o c #856185618561",
"O c #865E865E865E",
"+ c #8FB48FB48FB4",
"@ c #96A696A696A6",
"# c #998999899989",
"$ c #9F0E9F0E9F0E",
"% c #A0F9A0F9A0F9",
"& c #AA91AA91AA91",
"* c #B030B030B030",
"= c #B4E1B4E1B4E1",
"- c #BDD9BDD9BDD9",
"; c #C278C278C278",
": c #C84FC84FC84F",
"> c #C9E8C9E8C9E8",
", c #CF87CF87CF87",
"< c #D71ED71ED71E",
"1 c #DF38DF38DF38",
"2 c #E248E248E248",
"3 c #EA8BEA8BEA8B",
"4 c #EBEBEBEBEBEB",
"5 c #F34FF34FF34F",
"6 c #FA21FA21FA21",
"7 c #FCEDFCEDFCED",
"8 c #FFFFFFFFFFFF",
"9 c None",
/* pixels */
"9999999999<,-*99",
"9999999917777<%9",
"999999994777672@",
"999999917777727@",
"9999999,7777<37@",
"999999917775<&<o",
"999   #77777@5<.",
"9 $775=7777<X2&.",
"9@74:3:75745o7X9",
" 43*&o&7757:*7.9",
" 7=@XX%4773647.9",
" ;&ooo&@,772%7.9",
"9X5-$:6XoXXX=7X9",
"9 o>6<o 9o=ooXo9",
"999   999$7%9999",
"9999999999999999"
};
