/* XPM */
static char *gsd_xrandr[] = {
/* columns rows colors chars-per-pixel */
"16 16 16 1",
"  c #46E346E346E3",
". c #78CB78CB78CB",
"X c #88D588D588D5",
"o c #9A869A869A86",
"O c #A0B4A0B4A0B4",
"+ c #B192B192B192",
"@ c #B462B462B462",
"# c #C53FC53FC53F",
"$ c #D787D787D787",
"% c #DCD1DCD1DCD1",
"& c #E270E270E270",
"* c #E6A8E6A8E6A8",
"= c #EF17EF17EF17",
"- c #FF0FFF0FFF0F",
"; c #FFFFFFFFFFFF",
": c None",
/* pixels */
"::$$::::::::::::",
"#O$;$@@@@@@@@@@#",
"+;$;;$;;;;;;;;;@",
"@;$;;;$       ;@",
"@;%;;;;$ooooo ;@",
"+;$;;$;;$oooo ;@",
"@;$;;%$;;%oX. ;@",
"@;$;;$%%;;$.. ;@",
"@;$;;;;;;;;$. ;@",
"@;$;$;;$;;$;$ ;@",
"@;$$$$$$$$$$$$;@",
"@@+@@+@+@@@@@@@@",
":::@;%%&*&=;@:::",
":::@;;;;;;;;@:::",
"::@;;;;;;;;;;@::",
"::@@@@+@@@@@@@::"
};
