/* XPM */
static char *hwbrowser[] = {
/* columns rows colors chars-per-pixel */
"16 16 30 1",
"  c #498849884988",
". c #4CE84CE84CE8",
"X c #4EC44EC44EC4",
"o c #5DF75DF75DF7",
"O c #608D608D608D",
"+ c #69E869E869E8",
"@ c #6C686C686C68",
"# c #72AB72AB72AB",
"$ c #7A427A427A42",
"% c #7ECC7ECC7ECC",
"& c #83A883A883A8",
"* c #8A2E8A2E8A2E",
"= c #90D890D890D8",
"- c #929392939293",
"; c #9B6D9B6D9B6D",
": c #9DA99DA99DA9",
"> c #A686A686A686",
", c #AB42AB42AB42",
"< c #B76CB76CB76C",
"1 c #BCAFBCAFBCAF",
"2 c #C3C5C3C5C3C5",
"3 c #C931C931C931",
"4 c #CBCACBCACBCA",
"5 c #CEB8CEB8CEB8",
"6 c #DD97DD97DD97",
"7 c #E636E636E636",
"8 c #F57AF57AF57A",
"9 c #F8FEF8FEF8FE",
"0 c #FFFFFFFFFFFF",
"q c None",
/* pixels */
"qqqqqqqqqqqq$%$q",
"qqqqqqqqqqq$000$",
"...........$0$$q",
".4444445554$0$qq",
".4o......$$$0$%&",
".5.;::;:.##$0$0$",
".5.;$$$-X--$0%$$",
".5.---*-.#+++OOq",
".5.. . ..@@:48*O",
".5:;---**O,:,4,-",
".57;6-6-1%,%07*:",
".40>0-0;9#:%01&:",
".2040<020+-,0-*#",
"... .....XO&2%@O",
"qqqqqqqqqqqOOOXq",
"qqqqqqqqqqqqqqqq"
};
