/* XPM */
static char *im_nov[] = {
/* columns rows colors chars-per-pixel */
"16 16 19 1",
"  c #4D614D614D61",
". c #524052405240",
"X c #5A695A695A69",
"o c #629062906290",
"O c #69E169E169E1",
"+ c #70A270A270A2",
"@ c #8D078D078D07",
"# c #998D998D998D",
"$ c #A3D2A3D2A3D2",
"% c #AEEFAEEFAEEF",
"& c #C320C320C320",
"* c #C757C757C757",
"= c #CEF3CEF3CEF3",
"- c #D1C2D1C2D1C2",
"; c #EA4FEA4FEA4F",
": c #EF80EF80EF80",
"> c #FB81FB81FB81",
", c #FFFFFFFFFFFF",
"< c None",
/* pixels */
"<<<<<=**&*=<<<<<",
"<<<*,,,,,,,,*<<<",
"<<=,,,,,,,,,,=<<",
"<*,,,#,,,,@,,,*<",
"*,,,,.+,,, ,,,,&",
"=,,,,. X;, ,,,,=",
"&,,,,.O. % ,,,,&",
"*,,,,.,$   ,,,,*",
"<,,,,.,,:o ,,,,&",
"<*,,,.,,,,+,,,*<",
"<<-,,,,,,,,,,=<<",
"<<<*,,,,,,,>=<<<",
"<<<<<*=**,,*<<<<",
"<<<<<<<<<&:&<<<<",
"<<<<<<<<<<<=*<<<",
"<<<<<<<<<<<<<<<<"
};
