/* XPM */
static char *krfb[] = {
/* columns rows colors chars-per-pixel */
"16 16 19 1",
"  c #000000000000",
". c #766276627662",
"X c #777777777777",
"o c #844384438443",
"O c #8FBE8FBE8FBE",
"+ c #A481A481A481",
"@ c #B183B183B183",
"# c #B439B439B439",
"$ c #BC4EBC4EBC4E",
"% c #BF85BF85BF85",
"& c #C4F8C4F8C4F8",
"* c #CA24CA24CA24",
"= c #DC5ADC5ADC5A",
"- c #DDE8DDE8DDE8",
"; c #E387E387E387",
": c #E5D3E5D3E5D3",
"> c #F09AF09AF09A",
", c #FFFFFFFFFFFF",
"< c None",
/* pixels */
"&####@#@##+####&",
"#,,,,,,,,,,,,,,#",
"#,ooooooOooooo,#",
"#,o,,,,,,,,,,O,#",
"#,o>>oOo>>:*#o,#",
"#,o--,,,&oo++o,#",
"#,o&$,,,@,,@#o,#",
"#,o$######$&$o,#",
"#,ooooooOooooo,#",
"#,,,,,,,,,,,,,,#",
"#,,,,,,-,;,,,,,#",
"##@@@O.o-..O####",
"..XX.XX,,,XX..X.",
"<,,,,;#,,;O#;,,,",
"<X.XXX.,-$XXXX..",
"<<<<<<<   <<<<<<"
};
