/* XPM */
static char *meld[] = {
/* columns rows colors chars-per-pixel */
"16 16 21 1",
"  c #615F615F615F",
". c #669466946694",
"X c #981698169816",
"o c #A178A178A178",
"O c #A429A429A429",
"+ c #AAAAAAAAAAAA",
"@ c #AF4AAF4AAF4A",
"# c #B4C4B4C4B4C4",
"$ c #BD0EBD0EBD0E",
"% c #C393C393C393",
"& c #C579C579C579",
"* c #CBCACBCACBCA",
"= c #D07BD07BD07B",
"- c #DA72DA72DA72",
"; c #DF5BDF5BDF5B",
": c #E5AEE5AEE5AE",
"> c #EC27EC27EC27",
", c #F34FF34FF34F",
"< c #F7FAF7FAF7FA",
"1 c #FFFEFFFEFFFE",
"2 c None",
/* pixels */
"2.            .2",
".;111111111111;.",
" 11::1*:::::::1 ",
" 1:=:%;:;*::;;1 ",
" 1:;*-:;11--,-1 ",
" 1::*=1>%%,1&:1 ",
" 1:>%1:&<>&;111 ",
" 1:>$1-&%11$>:1 ",
" 1:;%1:&**:&;-1 ",
" 11-&#>1=&;$**1 ",
" 1:%:*ooo;1X=-1 ",
" 1o1=:::<1@o;=1 ",
" 1++#111%oo#;:1 ",
" 1+ooooooo=1:11 ",
".;111111111111; ",
"2             .2"
};
