/* XPM */
static char *midori[] = {
/* columns rows colors chars-per-pixel */
"16 16 32 1",
"  c #536C536C536C",
". c #58A358A358A3",
"X c #63E263E263E2",
"o c #683268326832",
"O c #6C506C506C50",
"+ c #752F752F752F",
"@ c #79D279D279D2",
"# c #7BC97BC97BC9",
"$ c #827B827B827B",
"% c #87E387E387E3",
"& c #8C1B8C1B8C1B",
"* c #933493349334",
"= c #9B909B909B90",
"- c #9E459E459E45",
"; c #A47DA47DA47D",
": c #A9D8A9D8A9D8",
"> c #ADBBADBBADBB",
", c #B3F0B3F0B3F0",
"< c #B881B881B881",
"1 c #C381C381C381",
"2 c #CC95CC95CC95",
"3 c #D1F3D1F3D1F3",
"4 c #D795D795D795",
"5 c #DEB1DEB1DEB1",
"6 c #E241E241E241",
"7 c #E6B7E6B7E6B7",
"8 c #EC97EC97EC97",
"9 c #F53CF53CF53C",
"0 c #FA74FA74FA74",
"q c #FC63FC63FC63",
"w c #FFFFFFFFFFFF",
"e c None",
/* pixels */
"eeeeeeeeeeee+oee",
"eeeeeeee%+ooOeee",
"eeeeee&*1#+eeoee",
"eeee=$6w+eeeoO=e",
"eee%<ww#eeeo7,=e",
"ee*1ww8oeX+ww>#e",
"ee;wwwwO+2www;ee",
"e%wwq9wwwwq6w#ee",
"e*www9677656w ee",
"e;w15w8ww669woee",
"e-w#w6wXw65q3Oee",
"e=w+w6wow66w-eee",
"e#6+w5q#w68w.eee",
"ee*o8qw www#$eee",
"eee4+qw$-8:Xeeee",
"eeee;+..eXXeeeee"
};
