/* XPM */
static char *nautilus[] = {
/* columns rows colors chars-per-pixel */
"16 16 33 1",
"  c #4BD94BD94BD9",
". c #510251025102",
"X c #541454145414",
"o c #5D095D095D09",
"O c #607E607E607E",
"+ c #65FD65FD65FD",
"@ c #73BE73BE73BE",
"# c #7A7D7A7D7A7D",
"$ c #7E707E707E70",
"% c #845884588458",
"& c #88D488D488D4",
"* c #8ECD8ECD8ECD",
"= c #968B968B968B",
"- c #9A769A769A76",
"; c #9F9A9F9A9F9A",
": c #A4E3A4E3A4E3",
"> c #A8EDA8EDA8ED",
", c #AFA7AFA7AFA7",
"< c #B5A1B5A1B5A1",
"1 c #BA0BBA0BBA0B",
"2 c #C305C305C305",
"3 c #C853C853C853",
"4 c #CCE7CCE7CCE7",
"5 c #D07FD07FD07F",
"6 c #DA2ADA2ADA2A",
"7 c #DF55DF55DF55",
"8 c #E3D5E3D5E3D5",
"9 c #E789E789E789",
"0 c #EE6AEE6AEE6A",
"q c #F1A2F1A2F1A2",
"w c #F9B3F9B3F9B3",
"e c #FFFFFFFFFFFF",
"r c None",
/* pixels */
"rrrrrrrrrrrrrrrr",
"rrrr .X..Xrrrrrr",
"rr.+6eeeee<.rrrr",
"r 7eew0eeeee;.rr",
"r eeeew64-0we,.r",
"r.eeeeq>7&7:weXr",
"r.9eee7,<=<-6e2 ",
"rrOee8,@ +=;,wqX",
"rr @e3O<8*o-,7e.",
"rrr..O34== =,6e ",
"rrrrr q-@XO-180.",
"rrrrr 72&%=:2e;r",
"rrrrrr#93:,5w1.r",
"rrrrrr.o30q5$.rr",
"rrrrrrrr.  .rrrr",
"rrrrrrrrrrrrrrrr"
};
