/* XPM */
static char *nm_vpn_standalone_lock[] = {
/* columns rows colors chars-per-pixel */
"16 16 33 1",
"  c #000000000000",
". c #0B3E0B3E0B3E",
"X c #151515151515",
"o c #1EA81EA81EA8",
"O c #288628862886",
"+ c #2CFA2CFA2CFA",
"@ c #356835683568",
"# c #39A039A039A0",
"$ c #420F420F420F",
"% c #491649164916",
"& c #51F351F351F3",
"* c #572457245724",
"= c #5D385D385D38",
"- c #680168016801",
"; c #7FF17FF17FF1",
": c #922B922B922B",
"> c #A471A471A471",
", c #AB78AB78AB78",
"< c #AE47AE47AE47",
"1 c #B57EB57EB57E",
"2 c #C084C084C084",
"3 c #C6A4C6A4C6A4",
"4 c #CADECADECADE",
"5 c #D3CDD3CDD3CD",
"6 c #D842D842D842",
"7 c #DCA3DCA3DCA3",
"8 c #E0B0E0B0E0B0",
"9 c #E812E812E812",
"0 c #EEEEEEEEEEEE",
"q c #F2FDF2FDF2FD",
"w c #FC18FC18FC18",
"e c #FFFCFFFCFFFC",
"r c None",
/* pixels */
"rrrrrrrrrrrrrrrr",
"rrrrr X@+.rrrrrr",
"rrrr ;074<orrrrr",
"rrrr$e2::::.rrrr",
"rrrr<0$*$>-Orrrr",
"rrr 2,%  e%+rrrr",
"rr 4w>;eee## rrr",
"rr e3;1ee0;7Orrr",
"rr eeeeq9828 rrr",
"rr eeee X756 rrr",
"rr eeee o976 rrr",
"rr weee&:e66 rrr",
"rrr$eee25915 rrr",
"rrr =eeeq56, rrr",
"rrrrrX#$o   rrrr",
"rrrrrrrrrrrrrrrr"
};
