/* XPM */
static char *ooo_draw[] = {
/* columns rows colors chars-per-pixel */
"16 16 35 1",
"  c #059F059F059F",
". c #1C1C1C1C1C1C",
"X c #248B248B248B",
"o c #25F325F325F3",
"O c #35BB35BB35BB",
"+ c #3F393F393F39",
"@ c #48FC48FC48FC",
"# c #545454545454",
"$ c #67E167E167E1",
"% c #6E8D6E8D6E8D",
"& c #71D871D871D8",
"* c #7CD67CD67CD6",
"= c #851F851F851F",
"- c #89BC89BC89BC",
"; c #8B8A8B8A8B8A",
": c #952A952A952A",
"> c #977197719771",
", c #9EA29EA29EA2",
"< c #A70EA70EA70E",
"1 c #ABEDABEDABED",
"2 c #AD05AD05AD05",
"3 c #B806B806B806",
"4 c #B9F7B9F7B9F7",
"5 c #C050C050C050",
"6 c #C8DBC8DBC8DB",
"7 c #CAA6CAA6CAA6",
"8 c #D257D257D257",
"9 c #DA17DA17DA17",
"0 c #E2D2E2D2E2D2",
"q c #ECBEECBEECBE",
"w c #F48DF48DF48D",
"e c #FC15FC15FC15",
"r c #FF7CFF7CFF7C",
"t c #FFFFFFFFFFFF",
"y c None",
/* pixels */
"yyyyy--==--yyyyy",
"yyy-3tttttt4-yyy",
"yy-tt38tt7qtt-yy",
"y-ttttt>qttttt-y",
"y  <ttt:  tttt4y",
"-t7O<0$@wtttttt-",
"-%*3@ >tttttttt-",
"=$>*1tttttttttt=",
"-,$7>*3tttttttt=",
"-t=$61%*qtttttt-",
"=tt<$71975ttttt-",
"y4tt7$,ttt5qtt4y",
"y-ttt04twtooo9-y",
"yy-tttt54o#=&Oyy",
"yyy-4tttt<o@+. y",
"yyyyy--==-+....."
};
