/* XPM */
static char *preferences_desktop_theme[] = {
/* columns rows colors chars-per-pixel */
"16 16 29 1",
"  c #602160216021",
". c #61F561F561F5",
"X c #657165716571",
"o c #6CA76CA76CA7",
"O c #72B572B572B5",
"+ c #79FE79FE79FE",
"@ c #834083408340",
"# c #8C1B8C1B8C1B",
"$ c #926392639263",
"% c #985198519851",
"& c #A188A188A188",
"* c #A601A601A601",
"= c #AA8FAA8FAA8F",
"- c #AE96AE96AE96",
"; c #B3EFB3EFB3EF",
": c #BC05BC05BC05",
"> c #C2B8C2B8C2B8",
", c #C6F0C6F0C6F0",
"< c #CC23CC23CC23",
"1 c #D2D8D2D8D2D8",
"2 c #D5EAD5EAD5EA",
"3 c #DB15DB15DB15",
"4 c #E08BE08BE08B",
"5 c #E52EE52EE52E",
"6 c #EEB3EEB3EEB3",
"7 c #F32CF32CF32C",
"8 c #FCDAFCDAFCDA",
"9 c #FFFFFFFFFFFF",
"0 c None",
/* pixels */
"0...XX....XXX..0",
".=:;6XXOO.X5;:=.",
".3&o,=X..X*>o*3.",
"X4%@X%,,,:&X@&3.",
"X5&##+o..o+$$*5.",
"X6=$=$=*==$=$*5.",
"X6-%-%----$-%;6.",
"X7;%:%;;:;&;%;7.",
"X7:*:&:<:;&:*>7.",
"X8,=,*,>,,*,*,8.",
"X8<=<*<<<<-<*18.",
".81-1-1111-1-28.",
"X82-1-1111-1-28X",
"X81-1-1111-1-28.",
".88787888878788X",
"...X.....X ....."
};
