/* XPM */
static char *pyrenamer[] = {
/* columns rows colors chars-per-pixel */
"16 16 24 1",
"  c #000000000000",
". c #06D206D206D2",
"X c #0CA60CA60CA6",
"o c #151515151515",
"O c #272927292729",
"+ c #437643764376",
"@ c #5A8D5A8D5A8D",
"# c #909B909B909B",
"$ c #97A297A297A2",
"% c #A0C0A0C0A0C0",
"& c #A5D7A5D7A5D7",
"* c #A9A4A9A4A9A4",
"= c #B1B4B1B4B1B4",
"- c #B3F9B3F9B3F9",
"; c #BCBABCBABCBA",
": c #C050C050C050",
"> c #CE72CE72CE72",
", c #CFA7CFA7CFA7",
"< c #D48AD48AD48A",
"1 c #E72AE72AE72A",
"2 c #EFB8EFB8EFB8",
"3 c #F70AF70AF70A",
"4 c #FFFEFFFEFFFE",
"5 c None",
/* pixels */
"5:=&%%*;:5555555",
":4,4444:<;555555",
":=4,*;243*555555",
";=4*.41=34=5555&",
":*4%o$44:,4-%5=%",
":4=@34:::*:3;=4%",
":4,  :44441;344&",
":4+14;44444=444%",
":4444:444O&4444&",
":4444:444&%&&%%%",
"5:::::444   ;4:5",
"55555:444 44o4:5",
"55555:444  X#4:5",
"55555:44444444:5",
"55555:44444444:5",
"555555::::::::55"
};
