/* XPM */
static char *redhat_filemanager[] = {
/* columns rows colors chars-per-pixel */
"16 16 21 1",
"  c #78CB78CB78CB",
". c #7D037D037D03",
"X c #816381638163",
"o c #86B186B186B1",
"O c #99F299F299F2",
"+ c #9CC29CC29CC2",
"@ c #A698A698A698",
"# c #A93FA93FA93F",
"$ c #C124C124C124",
"% c #C584C584C584",
"& c #C993C993C993",
"* c #D53DD53DD53D",
"= c #D99DD99DD99D",
"- c #DDD4DDD4DDD4",
"; c #E20CE20CE20C",
": c #E913E913E913",
"> c #EEB2EEB2EEB2",
", c #F2E9F2E9F2E9",
"< c #F888F888F888",
"1 c #FFFFFFFFFFFF",
"2 c None",
/* pixels */
"222   . .    222",
"22X1111111111X22",
"2X111111111111X2",
"2 111111111111 2",
"2 1#OOOOOOOO@1 2",
"2 1O11111<,>O1 2",
"2 1O111$$,>:O1.2",
"2 1O1111,>:;O1 2",
"2 1@OOOOOOOOO1 2",
"2 1O1111111,O1 2",
"2 1O111&%1,>+1 2",
"2 1O11111<,:O1 2",
"2 1#OOOOOOOO@1 2",
"2 11<,,::;-=*1 2",
"2 111111111111 2",
"2. . ...X.XXXo 2"
};
