/* XPM */
static char *referencer[] = {
/* columns rows colors chars-per-pixel */
"16 16 33 1",
"  c #42DB42DB42DB",
". c #45D545D545D5",
"X c #4E2D4E2D4E2D",
"o c #532353235323",
"O c #618961896189",
"+ c #660266026602",
"@ c #6BFE6BFE6BFE",
"# c #72DC72DC72DC",
"$ c #76EB76EB76EB",
"% c #7B4B7B4B7B4B",
"& c #884588458845",
"* c #8DA88DA88DA8",
"= c #97B497B497B4",
"- c #A199A199A199",
"; c #A5B5A5B5A5B5",
": c #A8EFA8EFA8EF",
"> c #B023B023B023",
", c #B81AB81AB81A",
"< c #B93DB93DB93D",
"1 c #C24DC24DC24D",
"2 c #C947C947C947",
"3 c #CAABCAABCAAB",
"4 c #D4C4D4C4D4C4",
"5 c #D859D859D859",
"6 c #DC65DC65DC65",
"7 c #E0B6E0B6E0B6",
"8 c #EA76EA76EA76",
"9 c #EFA5EFA5EFA5",
"0 c #F1EAF1EAF1EA",
"q c #F9F0F9F0F9F0",
"w c #FD2EFD2EFD2E",
"e c #FFFFFFFFFFFF",
"r c None",
/* pixels */
"rrrrrr+O+Orrrrrr",
"rrrr#*6ew2@-rrrr",
"r:><=880ew8#e1<r",
".:e&6428e98=ee2.",
".:e+8<27e06;6e2 ",
".>e&2<67284*we2 ",
".,e9&242>4>#ee4 ",
" <ee-%;<:&@0ee4 ",
" 1eee6&o@*9eee6.",
" 2eeeeew6eeeee6 ",
" 2eeeeeeeeeeee6.",
".2ee86eeee89ee6.",
".46weee99wee966.",
" 0eeeeeeeeeeee9 ",
".#@#@oo##oX@### ",
" ....r. ..r.   ."
};
