/* XPM */
static char *rhythmbox[] = {
/* columns rows colors chars-per-pixel */
"16 16 28 1",
"  c #650665066506",
". c #6F936F936F93",
"X c #7A1F7A1F7A1F",
"o c #848284828482",
"O c #89E589E589E5",
"+ c #909B909B909B",
"@ c #91AA91AA91AA",
"# c #9C2D9C2D9C2D",
"$ c #9EDE9EDE9EDE",
"% c #A6E8A6E8A6E8",
"& c #A917A917A917",
"* c #B076B076B076",
"= c #B467B467B467",
"- c #B981B981B981",
"; c #C1BCC1BCC1BC",
": c #C66EC66EC66E",
"> c #CDFACDFACDFA",
", c #D303D303D303",
"< c #DA14DA14DA14",
"1 c #DAF4DAF4DAF4",
"2 c #E4B3E4B3E4B3",
"3 c #E74CE74CE74C",
"4 c #ED98ED98ED98",
"5 c #F62EF62EF62E",
"6 c #F7F0F7F0F7F0",
"7 c #FD1EFD1EFD1E",
"8 c #FFFFFFFFFFFF",
"9 c None",
/* pixels */
"99999999$+oX. 99",
"99999999-4221.99",
"99;-**&$16:-2+99",
"9918778-181,7&99",
"9928428128427&99",
"9+28668118428-$9",
"O$=8268128748-+$",
"O+$%*-;>1>:=&%$O",
"O44668888888888o",
"o4:,12446445448O",
"O4,122446546668O",
"o61122265566668o",
"o72226667778778O",
"o68888888888888O",
"oOOooOOoOooOoOOO",
"9999999999999999"
};
