/* XPM */
static char *scim_setup[] = {
/* columns rows colors chars-per-pixel */
"16 16 27 1",
"  c #000000000000",
". c #0F760F760F76",
"X c #121412141214",
"o c #192419241924",
"O c #1D841D841D84",
"+ c #461D461D461D",
"@ c #540A540A540A",
"# c #59CB59CB59CB",
"$ c #61CB61CB61CB",
"% c #65DA65DA65DA",
"& c #6BFE6BFE6BFE",
"* c #78EE78EE78EE",
"= c #820D820D820D",
"- c #8A448A448A44",
"; c #8F338F338F33",
": c #98E098E098E0",
"> c #A5F3A5F3A5F3",
", c #B154B154B154",
"< c #BA4ABA4ABA4A",
"1 c #C320C320C320",
"2 c #C51CC51CC51C",
"3 c #DF96DF96DF96",
"4 c #E7A8E7A8E7A8",
"5 c #EE19EE19EE19",
"6 c #F741F741F741",
"7 c #FFFFFFFFFFFF",
"8 c None",
/* pixels */
"811111<11<11<118",
"2777777777777772",
"1777,&%76*&*7771",
"1777%7<7-47=7771",
"<777,$>7%7777771",
"1777,7%7-573777<",
"1777$*,77*&>7771",
"<777777777777771",
"1777X X7O$7#O771",
"17777.77:.7X:771",
"<7777.77;&+&;77<",
"17777.77=2#2-771",
"1777X o7O@7@o771",
"<777777777777771",
"2777777777777772",
"8111<11<11<11128"
};
