/* XPM */
static char *seahorse_applet[] = {
/* columns rows colors chars-per-pixel */
"16 16 22 1",
"  c #71B671B671B6",
". c #760776077607",
"X c #812581258125",
"o c #83F583F583F5",
"O c #8AA18AA18AA1",
"+ c #8F5C8F5C8F5C",
"@ c #979E979E979E",
"# c #990B990B990B",
"$ c #A894A894A894",
"% c #AE34AE34AE34",
"& c #B224B224B224",
"* c #B81EB81EB81E",
"= c #BC2DBC2DBC2D",
"- c #C03EC03EC03E",
"; c #C99EC99EC99E",
": c #D1F2D1F2D1F2",
"> c #D8C0D8C0D8C0",
", c #DE98DE98DE98",
"< c #E408E408E408",
"1 c #F576F576F576",
"2 c #FFFFFFFFFFFF",
"3 c None",
/* pixels */
".     ooo       ",
" ;:;@O&*-++-;;; ",
" ;-==22222<%--; ",
" ;-2*oooooO22-; ",
" ;-22-<;;,;22-; ",
" ;-2;:,--<;-2-; ",
" :=2@<>22>,@2-; ",
" ;=2o222222+2-; ",
" ;-2O222222+2-: ",
" ;-2+222222+2-; ",
" ;-2-OOoOOO;2=; ",
" ;-22222222:1=; ",
" ;=----=-=%>-=; ",
" ;;;;;:;;;;;:;- ",
".               ",
"3333333333333333"
};
