/* XPM */
static char *seahorse_preferences[] = {
/* columns rows colors chars-per-pixel */
"16 16 25 1",
"  c #60F560F560F5",
". c #62F162F162F1",
"X c #675B675B675B",
"o c #72DC72DC72DC",
"O c #7D1A7D1A7D1A",
"+ c #85F585F585F5",
"@ c #8A468A468A46",
"# c #91FA91FA91FA",
"$ c #9BA79BA79BA7",
"% c #A1A9A1A9A1A9",
"& c #A631A631A631",
"* c #AB4EAB4EAB4E",
"= c #AE4BAE4BAE4B",
"- c #B5A6B5A6B5A6",
"; c #BC85BC85BC85",
": c #C1B8C1B8C1B8",
"> c #C5F2C5F2C5F2",
", c #CB8FCB8FCB8F",
"< c #D2BED2BED2BE",
"1 c #D5FAD5FAD5FA",
"2 c #E138E138E138",
"3 c #F47AF47AF47A",
"4 c #F984F984F984",
"5 c #FFFFFFFFFFFF",
"6 c None",
/* pixels */
"666>>:>:66666*66",
"66>55555>666*;*6",
"6>5555555>66=5>*",
">554>555556=>-*6",
">55,6<5555;**666",
">555155555&66666",
">55555555-;66666",
">5555555=5>66666",
"6>55$o-*555>6666",
"66;o&;O;5555>666",
"66X*,*%X32555,66",
"6.*,$&@X6:5555,6",
"X&,$%#.66>:<555:",
".>&%#.66666:555:",
".+&#.666666,:::>",
"6...666666666666"
};
