/* XPM */
static char *session_properties[] = {
/* columns rows colors chars-per-pixel */
"16 16 84 1",
"  c #78CB78CB78CB",
". c #78F478F478F4",
"X c #7B827B827B82",
"o c #7DCC7DCC7DCC",
"O c #851585158515",
"+ c #877987798779",
"@ c #8CBD8CBD8CBD",
"# c #89B889B889B8",
"$ c #92D292D292D2",
"% c #9B419B419B41",
"& c #942294229422",
"* c #970197019701",
"= c #A0FFA0FFA0FF",
"- c #9B439B439B43",
"; c #A2DCA2DCA2DC",
": c #ACF4ACF4ACF4",
"> c #B017B017B017",
", c #829282928292",
"< c #834B834B834B",
"1 c #837483748374",
"2 c #839E839E839E",
"3 c #84B384B384B3",
"4 c #892989298929",
"5 c #89E689E689E6",
"6 c #7F857F857F85",
"7 c #833383338333",
"8 c #9D8E9D8E9D8E",
"9 c #9DFA9DFA9DFA",
"0 c #9F719F719F71",
"q c #B06BB06BB06B",
"w c #C8D4C8D4C8D4",
"e c #C952C952C952",
"r c #CE01CE01CE01",
"t c #CEFDCEFDCEFD",
"y c #D18AD18AD18A",
"u c #D417D417D417",
"i c #D43FD43FD43F",
"p c #D891D891D891",
"a c #DEB6DEB6DEB6",
"s c #B81AB81AB81A",
"d c #C98CC98CC98C",
"f c #CCA0CCA0CCA0",
"g c #D354D354D354",
"h c #D06AD06AD06A",
"j c #DA41DA41DA41",
"k c #E40CE40CE40C",
"l c #E574E574E574",
"z c #E6DCE6DCE6DC",
"x c #E7D8E7D8E7D8",
"c c #E353E353E353",
"v c #EB7FEB7FEB7F",
"b c #E8BAE8BAE8BA",
"n c #FFFFFFFFFFFF",
"m c #FFFFFFFFFFFF",
"M c #E2F8E2F8E2F8",
"N c #E3F6E3F6E3F6",
"B c #E56EE56EE56E",
"V c #EB92EB92EB92",
"C c #FFFFFFFFFFFF",
"Z c #FFFFFFFFFFFF",
"A c #FFFFFFFFFFFF",
"S c #FFFFFFFFFFFF",
"D c #FFFFFFFFFFFF",
"F c #FFFFFFFFFFFF",
"G c #FFFFFFFFFFFF",
"H c #FFFFFFFFFFFF",
"J c #FFFFFFFFFFFF",
"K c #FFFFFFFFFFFF",
"L c #FFFFFFFFFFFF",
"P c #FFFFFFFFFFFF",
"I c #FFFFFFFFFFFF",
"U c #FFFFFFFFFFFF",
"Y c #FFFFFFFFFFFF",
"T c #FFFFFFFFFFFF",
"R c #FFFFFFFFFFFF",
"E c #FFFFFFFFFFFF",
"W c #FFFFFFFFFFFF",
"Q c #FFFFFFFFFFFF",
"! c #FFFFFFFFFFFF",
"~ c #FFFFFFFFFFFF",
"^ c #FFFFFFFFFFFF",
"/ c #FFFFFFFFFFFF",
"( c #FFFFFFFFFFFF",
") c #FFFFFFFFFFFF",
/* pixels */
"fkkkzkkzkkzzkzzg",
"n~////^//^((^((m",
"cLLLLLLLLLLPLLLv",
"1piiiiqiuuuuipp4",
"1aiii0 iiiiiiia3",
"1Biy-% iiiiiiiB4",
"1Vr&sI X    O*w3",
"1N@hTRRRWQ~/QJ$7",
"3.:RRTREWQ!^))Ho",
"1M+bRTRRWQ!^))Uo",
"1Ce$dY      #jPX",
"1Zit*; iiiiie9>X",
"1Aiii9.iiiiiii= ",
"1Siiiiqiiiiiiiv ",
"1FDGGGGGGGDGGGD6",
"51111111113,3334"
};
