/* XPM */
static char *sound_juicer[] = {
/* columns rows colors chars-per-pixel */
"16 16 17 1",
"  c #9C489C489C48",
". c #9ECD9ECD9ECD",
"X c #A5E2A5E2A5E2",
"o c #AC48AC48AC48",
"O c #AE21AE21AE21",
"+ c #BEC0BEC0BEC0",
"@ c #CCD1CCD1CCD1",
"# c #D343D343D343",
"$ c #D771D771D771",
"% c #DF8ADF8ADF8A",
"& c #E675E675E675",
"* c #ED9EED9EED9E",
"= c #F4A2F4A2F4A2",
"- c #F9D7F9D7F9D7",
"; c #FDB1FDB1FDB1",
": c #FFFFFFFFFFFF",
"> c None",
/* pixels */
">>>>>>>>>>>>>>>>",
">>>>>>OO.X>>>>>>",
">>>X.::::::O>>>>",
">>X:::==-:::$>>>",
">X::-:*=::-::X>>",
">X:=*:::::::::>>",
".&:*=::*:=::::>>",
"X::::=>>>&::::.>",
"X::::%>>>$::::.>",
"O::::#>>>O::::.>",
" :::::@+X-::::.>",
">=::::::::::::>>",
">.:::::::::::.>>",
">>X:::::::::o>>>",
">>>.:::::::.>>>>",
">>>>> X  .>>>>>>"
};
