/* XPM */
static char *stock_edit_bookmark[] = {
/* columns rows colors chars-per-pixel */
"16 16 23 1",
"  c #288928892889",
". c #6F9F6F9F6F9F",
"X c #85CB85CB85CB",
"o c #8FA68FA68FA6",
"O c #9A949A949A94",
"+ c #A675A675A675",
"@ c #ACBFACBFACBF",
"# c #B252B252B252",
"$ c #B491B491B491",
"% c #B8F8B8F8B8F8",
"& c #C1DAC1DAC1DA",
"* c #C8D6C8D6C8D6",
"= c #CAA2CAA2CAA2",
"- c #D3F1D3F1D3F1",
"; c #D99BD99BD99B",
": c #E00FE00FE00F",
"> c #E4B3E4B3E4B3",
", c #E8EAE8EAE8EA",
"< c #EF29EF29EF29",
"1 c #F658F658F658",
"2 c #F7AFF7AFF7AF",
"3 c #FFFFFFFFFFFF",
"4 c None",
/* pixels */
"44XXXXXX=<444444",
"4<1X3333X3144444",
"4,3X3113X333+oo4",
"4>3X3>>3X33-%=>o",
"4>3X3>>3X3*;3&=o",
"4>3X3>;3X-&=<$#4",
"4:3X3113O=3<&=#4",
"4:3X333==33<&&44",
"4;3X3XO-33<#3-44",
"4;3XX;-33<#33;44",
"4;3X3133<#333=44",
"4-333333#1333-44",
"4=33@33113333-44",
"4-3. <1333333=44",
"4-33333333333-44",
"44-=***&***==444"
};
