/* XPM */
static char *system_software_installer[] = {
/* columns rows colors chars-per-pixel */
"16 16 20 1",
"  c #85D885D885D8",
". c #876C876C876C",
"X c #8F428F428F42",
"o c #932D932D932D",
"O c #9DC09DC09DC0",
"+ c #A41AA41AA41A",
"@ c #B810B810B810",
"# c #BAF4BAF4BAF4",
"$ c #C35CC35CC35C",
"% c #C497C497C497",
"& c #CDFACDFACDFA",
"* c #D320D320D320",
"= c #DA1EDA1EDA1E",
"- c #E115E115E115",
"; c #E933E933E933",
": c #EC1EEC1EEC1E",
"> c #F210F210F210",
", c #F8E3F8E3F8E3",
"< c #FFFEFFFEFFFE",
"1 c None",
/* pixels */
"111111.111111111",
"11111 <,+  11111",
"o     <<<<<&o111",
".<<<< <<<<<< 111",
" <<<< <<<<<< 111",
" <<<<%;<;*$*O111",
" <<<<<=#<<<<<#11",
" <;*$##<<<<<<<#1",
" <,,<=<<<<<<<<<1",
" <::;%<<<<=<<<<$",
" <>:-#<<<=*=<<<#",
" <>>;%<<<<=<<<<$",
" <<<<-<<<<<<<<;#",
"X   . #<<<<<<<#1",
"1111111$<<<<;#11",
"11111111#$@$#111"
};
