/* XPM */
static char *system_config_boot[] = {
/* columns rows colors chars-per-pixel */
"16 16 24 1",
"  c #602160216021",
". c #63D263D263D2",
"X c #6B366B366B36",
"o c #70C570C570C5",
"O c #740174017401",
"+ c #929792979297",
"@ c #9C8A9C8A9C8A",
"# c #A153A153A153",
"$ c #A720A720A720",
"% c #ACA0ACA0ACA0",
"& c #AE1FAE1FAE1F",
"* c #BA45BA45BA45",
"= c #C338C338C338",
"- c #C488C488C488",
"; c #CE84CE84CE84",
": c #D266D266D266",
"> c #D573D573D573",
", c #D9FCD9FCD9FC",
"< c #E47FE47FE47F",
"1 c #E700E700E700",
"2 c #EF99EF99EF99",
"3 c #F195F195F195",
"4 c #FFFFFFFFFFFF",
"5 c None",
/* pixels */
"555555555-555555",
"5555=>-5-4:55555",
"5555=4<-44-5--55",
"55-5;444443>4:55",
"5=4344%oX@444-55",
"5-444o+=-#  4=55",
"55-4$+%X +: 4>=-",
"5-,4o*X55  o444-",
"=444X*X55>,44,-5",
"--<4#+%X.%=<4=55",
"55=34X+*&+o44<-5",
"55-444*oO>44<2=5",
"55-3:<44444==-55",
"55=;5-42->4=5555",
"55555;<-5-:=5555",
"555555-555555555"
};
