/* XPM */
static char *tomboy[] = {
/* columns rows colors chars-per-pixel */
"16 16 25 1",
"  c #283628362836",
". c #68AB68AB68AB",
"X c #6F386F386F38",
"o c #76F876F876F8",
"O c #85D885D885D8",
"+ c #885988598859",
"@ c #8FDF8FDF8FDF",
"# c #909190919091",
"$ c #A279A279A279",
"% c #AC1BAC1BAC1B",
"& c #AED9AED9AED9",
"* c #B75AB75AB75A",
"= c #BC9DBC9DBC9D",
"- c #C1DAC1DAC1DA",
"; c #C5C3C5C3C5C3",
": c #CE02CE02CE02",
"> c #D27DD27DD27D",
", c #D844D844D844",
"< c #E41DE41DE41D",
"1 c #E9C6E9C6E9C6",
"2 c #ED0BED0BED0B",
"3 c #F1FDF1FDF1FD",
"4 c #FC82FC82FC82",
"5 c #FFFFFFFFFFFF",
"6 c None",
/* pixels */
",,,,,,,,,,,,&@@6",
",5555555555:*-<@",
",555555555:,5-;#",
",55555555:-;2**+",
",5555555>:52-;*O",
",555555>:553-=O6",
",55555>>553&*O,6",
",5555>>552&&O5,6",
",55555552&&O55,6",
",5555555%oo555,6",
",551%551oX5555,,",
",55. 1125555553,",
",5555555555555,6",
",,,,,,,,,,,,,,$6",
"$5555555555555$6",
"$$$$$$$$$$$$$$$6"
};
