/* XPM */
static char *touchpad[] = {
/* columns rows colors chars-per-pixel */
"16 16 12 1",
"  c #C050C050C050",
". c #C34EC34EC34E",
"X c #C757C757C757",
"o c #CA27CA27CA27",
"O c #D2ABD2ABD2AB",
"+ c #D835D835D835",
"@ c #DC95DC95DC95",
"# c #E3E6E3E6E3E6",
"$ c #EE07EE07EE07",
"% c #F772F772F772",
"& c #FFFEFFFEFFFE",
"* c None",
/* pixels */
"***X........ X.*",
"**.&&&&&&&&&&&.*",
"**o&&&&&&&&&&&o*",
"**X&&&&&&&&&&&+*",
"**.&&&&&&&&&&&#*",
"**O&&&&&&&&&&&$*",
"**$&&&&&&&&&&&%*",
"**&&&&&&&&&&&&&.",
"**&&&&&&&&&&&&&X",
"*X@#@O.. .XXXXXX",
"*o&&&&&& &&&&&&o",
"*X&&&&&& &&&&&&o",
"*.&&&&&&.&&&&&&.",
"*X&&&&&&.&&&&&&.",
"*.X..... .......",
"****************"
};
