/* XPM */
static char *update_manager[] = {
/* columns rows colors chars-per-pixel */
"16 16 23 1",
"  c #78CB78CB78CB",
". c #7F667F667F66",
"X c #82A782A782A7",
"o c #8A158A158A15",
"O c #8C068C068C06",
"+ c #9B7E9B7E9B7E",
"@ c #9D7F9D7F9D7F",
"# c #A559A559A559",
"$ c #AD60AD60AD60",
"% c #AFC4AFC4AFC4",
"& c #B58DB58DB58D",
"* c #C08DC08DC08D",
"= c #C62CC62CC62C",
"- c #CB43CB43CB43",
"; c #D3C1D3C1D3C1",
": c #DE1EDE1EDE1E",
"> c #E42BE42BE42B",
", c #E694E694E694",
"< c #EF6CEF6CEF6C",
"1 c #F28AF28AF28A",
"2 c #FF0FFF0FFF0F",
"3 c #FFFFFFFFFFFF",
"4 c None",
/* pixels */
"44444X      4444",
"4444$3333333#444",
"4.OX33333XO$3O44",
"4 33333333$ 3,44",
"44O33333;XOO++++",
"44&@OOO;3333333+",
"4=33333;      3+",
"*3333333<333333+",
"=3331333&-----,+",
":333&333*,::::3+",
"=3333333&111113+",
"*33O$##+O333333+",
"4*,,33333O+++++#",
"44&X33333O333O44",
"4444+3333333$444",
"44444.      4444"
};
