/* XPM */
static char *usb_creator[] = {
/* columns rows colors chars-per-pixel */
"16 16 24 1",
"  c #44F644F644F6",
". c #4F004F004F00",
"X c #516651665166",
"o c #63D463D463D4",
"O c #734C734C734C",
"+ c #78CB78CB78CB",
"@ c #825A825A825A",
"# c #864586458645",
"$ c #943894389438",
"% c #9DED9DED9DED",
"& c #A5AAA5AAA5AA",
"* c #AB7CAB7CAB7C",
"= c #B61FB61FB61F",
"- c #BAEDBAEDBAED",
"; c #BEFFBEFFBEFF",
": c #C4C4C4C4C4C4",
"> c #CEF3CEF3CEF3",
", c #D19AD19AD19A",
"< c #D587D587D587",
"1 c #E9D5E9D5E9D5",
"2 c #EFDCEFDCEFDC",
"3 c #FA2CFA2CFA2C",
"4 c #FFFCFFFCFFFC",
"5 c None",
/* pixels */
"55555555        ",
"55555--- 444441 ",
"555-3444 4;;;%< ",
"55:44444 4;;&X, ",
"5-444444 4;-OX, ",
"53444444 4;=XX, ",
";44444>, 4;$.X, ",
";4444>-- 4=+.X< ",
"=4444,-- 4%oX., ",
";44444>> 4@..., ",
"54444444 2o.XX< ",
"5:444444 :,,,,; ",
"55:44444*       ",
"555;44444+4444+5",
"55555;--;+4444+5",
"555555555#++++@5"
};
