/* XPM */
static char *utilities_terminal[] = {
/* columns rows colors chars-per-pixel */
"16 16 20 1",
"  c #2B262B262B26",
". c #491649164916",
"X c #545454545454",
"o c #5F925F925F92",
"O c #60FA60FA60FA",
"+ c #669966996699",
"@ c #6C396C396C39",
"# c #71D871D871D8",
"$ c #760F760F760F",
"% c #82B582B582B5",
"& c #B6B6B6B6B6B6",
"* c #BC55BC55BC55",
"= c #C1F4C1F4C1F4",
"- c #C4C4C4C4C4C4",
"; c #CE9BCE9BCE9B",
": c #D16AD16AD16A",
"> c #D871D871D871",
", c #DCA9DCA9DCA9",
"< c #FFFFFFFFFFFF",
"1 c None",
/* pixels */
"1,>,,>,>>,>>,>,1",
"><<<<<<<<<<<<<<>",
":<%          %<:",
":< $$$$#$$$$$ <:",
";< ########## <:",
";< @@@@@@@+@@ <;",
";< +<++++++O+ <-",
"-< OO<OOoOOOO <-",
"=< oXo<oXooXo <=",
"=< XX<.XXXXXX <=",
"*< X<XX.<<<.. <=",
"*< .......... <*",
"*<#          $<*",
"&<<<<<<<<<<<<<<&",
"1&&&*&=;&%&&&&&1",
"1111111111111111"
};
