/* XPM */
static char *vim[] = {
/* columns rows colors chars-per-pixel */
"16 16 17 1",
"  c #46E146E146E1",
". c #49F449F449F4",
"X c #9F4D9F4D9F4D",
"o c #A409A409A409",
"O c #A8AFA8AFA8AF",
"+ c #AF90AF90AF90",
"@ c #B6CEB6CEB6CE",
"# c #BCCBBCCBBCCB",
"$ c #C67CC67CC67C",
"% c #CAD6CAD6CAD6",
"& c #D433D433D433",
"* c #D9ABD9ABD9AB",
"= c #DB11DB11DB11",
"- c #E3AAE3AAE3AA",
"; c #F7EDF7EDF7ED",
": c #FFFFFFFFFFFF",
"> c None",
/* pixels */
">>>>>>>  >>>>>>>",
">       ;       ",
"> ::::: * ::::: ",
">  :::  % ::::: ",
">> :::.%$X ::: >",
">> :::.$X ::: >>",
">  ::: X ::: & >",
" - :::  ::: o#- ",
".* ::: ::: ooo* ",
">  :::::: oOo$ >",
">> ::::: XOO$ >>",
">> :::: o@+$ >>>",
">> ::: o@@& >>>>",
">> :: @@@* >>>>>",
">>   > *- >>>>>>",
">>>>>>>  >>>>>>>"
};
