/* XPM */
static char *vnd_adobe_xfdf[] = {
/* columns rows colors chars-per-pixel */
"16 16 28 1",
"  c #000000000000",
". c #2A712A712A71",
"X c #2F7C2F7C2F7C",
"o c #385038503850",
"O c #433D433D433D",
"+ c #4ACD4ACD4ACD",
"@ c #518751875187",
"# c #58AC58AC58AC",
"$ c #5DED5DED5DED",
"% c #60D460D460D4",
"& c #684668466846",
"* c #709070907090",
"= c #7B3E7B3E7B3E",
"- c #857F857F857F",
"; c #8A8E8A8E8A8E",
": c #8FC28FC28FC2",
"> c #BF25BF25BF25",
", c #CA63CA63CA63",
"< c #D43AD43AD43A",
"1 c #D5A2D5A2D5A2",
"2 c #DF78DF78DF78",
"3 c #E3B0E3B0E3B0",
"4 c #E7E7E7E7E7E7",
"5 c #ED86ED86ED86",
"6 c #F325F325F325",
"7 c #FE64FE64FE64",
"8 c #FFFFFFFFFFFF",
"9 c None",
/* pixels */
"9999999999999999",
"9999888888881999",
"$$$$#@@++O488,99",
"#;:-=*&$@O>888>9",
"+%&&&%#@@o3>><39",
"oXXXX.....8888,9",
"9999888884888889",
"999988<88<628889",
"9999823882842889",
"9999328882883489",
"9999348856883389",
"999982582884<889",
"99998828188<8889",
"9999888868888889",
"9999888888888889",
"9999           9"
};
