/* XPM */
static char *wine_uninstaller[] = {
/* columns rows colors chars-per-pixel */
"16 16 32 1",
"  c #31E431E431E4",
". c #39E739E739E7",
"X c #483B483B483B",
"o c #4BAC4BAC4BAC",
"O c #51C951C951C9",
"+ c #58B758B758B7",
"@ c #63F763F763F7",
"# c #660C660C660C",
"$ c #70FB70FB70FB",
"% c #7AA47AA47AA4",
"& c #80A480A480A4",
"* c #869C869C869C",
"= c #94CF94CF94CF",
"- c #9A239A239A23",
"; c #A0E7A0E7A0E7",
": c #A25EA25EA25E",
"> c #A8FBA8FBA8FB",
", c #AF70AF70AF70",
"< c #B831B831B831",
"1 c #BC55BC55BC55",
"2 c #C1CFC1CFC1CF",
"3 c #C89CC89CC89C",
"4 c #CC03CC03CC03",
"5 c #D477D477D477",
"6 c #D70ED70ED70E",
"7 c #DA5ADA5ADA5A",
"8 c #E380E380E380",
"9 c #EAB8EAB8EAB8",
"0 c #F0E0F0E0F0E0",
"q c #F839F839F839",
"w c #FFFFFFFFFFFF",
"e c None",
/* pixels */
"ee;----------;ee",
";>9qwwwwwwwwww;e",
";qw%######@##ww;",
"-;wwwwwwwwwwww3-",
";e-13689wwwww<e-",
"ee;<21360wwww3ee",
"e;<wwwww<1<<<<1e",
"e1wwwwww12212122",
"1wwwwwww2wwwwww3",
"2wwww7ww6wwww9w3",
"<www707wo3<<>-=o",
"2wwww7wwXwwwqqqo",
"1wwwwwwwow<*&=1o",
"e2wwwwww$<<+#-#O",
"ee2wwww9;o*=%O.e",
"eee1212<ee.. oee"
};
