/* XPM */
static char *wine_winefile[] = {
/* columns rows colors chars-per-pixel */
"16 16 33 1",
"  c #30E830E830E8",
". c #387F387F387F",
"X c #3DF93DF93DF9",
"o c #465746574657",
"O c #491349134913",
"+ c #4ECF4ECF4ECF",
"@ c #597459745974",
"# c #663A663A663A",
"$ c #746674667466",
"% c #78CB78CB78CB",
"& c #855A855A855A",
"* c #8AEB8AEB8AEB",
"= c #935793579357",
"- c #9C379C379C37",
"; c #A103A103A103",
": c #A2F5A2F5A2F5",
"> c #AB3BAB3BAB3B",
", c #B242B242B242",
"< c #B81FB81FB81F",
"1 c #BAD0BAD0BAD0",
"2 c #C14CC14CC14C",
"3 c #C757C757C757",
"4 c #CA67CA67CA67",
"5 c #D492D492D492",
"6 c #D9D9D9D9D9D9",
"7 c #DC6CDC6CDC6C",
"8 c #E09AE09AE09A",
"9 c #E782E782E782",
"0 c #EC9FEC9FEC9F",
"q c #F7CAF7CAF7CA",
"w c #FE26FE26FE26",
"e c #FFFFFFFFFFFF",
"r c None",
/* pixels */
"rrrrrrrrrrrrrrrr",
"rreeeeeeeeq097rr",
"reeeeeeeeeeeee2r",
"reereeeeeeeeee,r",
"reeeeeeeeeeeee:r",
"reeeeeeeeeeqee=r",
"rqeeeeeee05225>r",
"r9e0eeee22222222",
"r6e9eeee2eeeeee2",
"r3eeeeee5eeeeee4",
"r1eeeeee+41<,:=@",
"r>e6eeeeoeeeee8o",
"r:eeeeee@e4:*-,o",
"r*5e41,:$>1@#-@+",
"rr$$%%%$$o&*&+Xr",
"rrrrrrrrrrX. Orr"
};
