/* XPM */
static char *wine[] = {
/* columns rows colors chars-per-pixel */
"16 16 25 1",
"  c #30E830E830E8",
". c #387F387F387F",
"X c #3E2E3E2E3E2E",
"o c #47E047E047E0",
"O c #491349134913",
"+ c #4ECB4ECB4ECB",
"@ c #590759075907",
"# c #5DD75DD75DD7",
"$ c #66A666A666A6",
"% c #81A281A281A2",
"& c #8C998C998C99",
"* c #946494649464",
"= c #9B4C9B4C9B4C",
"- c #9F809F809F80",
"; c #A39CA39CA39C",
": c #AB9BAB9BAB9B",
"> c #B596B596B596",
", c #B9C2B9C2B9C2",
"< c #C04FC04FC04F",
"1 c #C88EC88EC88E",
"2 c #CA27CA27CA27",
"3 c #EA92EA92EA92",
"4 c #FA35FA35FA35",
"5 c #FFFFFFFFFFFF",
"6 c None",
/* pixels */
"66666<<<<<<66666",
"6666<<<<<<<,6666",
"6666<55555516666",
"6666155555516666",
"6666+1,>:-*@6666",
"6666o555543o6666",
"6666+5,&%*>o6666",
"6666$:<@$-#+6666",
"66666o%*%+X66666",
"666666X. o666666",
"6666666;=6666666",
"6666666,66666666",
"6666661<<1666666",
"66666<3553<66666",
"6666661<<1666666",
"6666666666666666"
};
